<svg id="Capa_1" data-name="Capa 1" xmlns="http://www.w3.org/2000/svg" viewBox="0 0 797.21 319.08"><defs><style>.cls-1,.cls-14,.cls-21,.cls-23{font-size:22px;}.cls-1,.cls-12,.cls-21,.cls-22,.cls-23,.cls-24{font-family:Palatino-Roman, Palatino;}.cls-2{letter-spacing:-0.01em;}.cls-3{letter-spacing:0.01em;}.cls-4{letter-spacing:-0.01em;}.cls-10,.cls-11,.cls-16,.cls-18,.cls-20,.cls-5,.cls-6,.cls-8,.cls-9{fill:none;}.cls-10,.cls-11,.cls-16,.cls-5,.cls-6,.cls-9{stroke:#000;}.cls-10,.cls-11,.cls-18,.cls-20,.cls-5,.cls-6,.cls-8,.cls-9{stroke-linejoin:round;}.cls-16,.cls-18,.cls-20,.cls-5,.cls-8{stroke-width:0.85px;}.cls-6{stroke-width:1.59px;}.cls-7{fill:#fbeade;}.cls-8{stroke:#e37222;}.cls-9{stroke-width:1.69px;}.cls-10,.cls-11{stroke-linecap:round;stroke-width:0.8px;}.cls-10{stroke-dasharray:3.6 3.6;}.cls-12,.cls-22,.cls-24{font-size:18px;}.cls-13{letter-spacing:0.01em;}.cls-14{font-family:PalatinoLinotype-Roman, Palatino Linotype;}.cls-15{letter-spacing:0.25em;}.cls-16{stroke-miterlimit:10;stroke-dasharray:20.32 2.03 2.03 2.03;}.cls-17,.cls-21,.cls-22{fill:#0037ff;}.cls-18{stroke:#0037ff;}.cls-19,.cls-23,.cls-24{fill:#ff0045;}.cls-20{stroke:#ff0045;}</style></defs><title>principleRADAR</title><text class="cls-1" transform="translate(120.98 287.03)">Transmitter/<tspan class="cls-2" x="128.04" y="0">R</tspan><tspan class="cls-3" x="142.58" y="0">e</tspan><tspan x="153.25" y="0">cei</tspan><tspan class="cls-4" x="179.95" y="0">v</tspan><tspan x="192.23" y="0">er</tspan></text><polygon class="cls-5" points="47.33 289.8 47.33 305.77 79.26 305.77 79.26 273.84 47.33 273.84 47.33 289.8"/><polyline class="cls-5" points="56.91 273.84 63.3 241.91 69.68 273.84"/><path class="cls-6" d="M65.08,216.43a25.54,25.54,0,0,0,19.39,39.76"/><polyline class="cls-7" points="2.09 312.8 2.09 319.08 796.56 319.08 796.56 306.53 2.09 306.53"/><line class="cls-8" x1="1.44" y1="305.92" x2="797.21" y2="305.92"/><path class="cls-9" d="M613,160.88c30.5-6.95,69.52,20.74,90.15-7.51,20.85-28.57-13.88-62.94-60.1-75.13-33-8.71-68.6-17.64-97.67,0a63.05,63.05,0,0,0-30,52.59c-.66,28.39,18.53,53.83,45.08,52.59C580,182.5,594.13,165.18,613,160.88Z"/><line class="cls-10" x1="715.46" y1="125.77" x2="740.06" y2="125.77"/><polyline points="730.26 129.83 740.06 125.78 730.26 121.72"/><polygon class="cls-11" points="730.26 129.83 740.06 125.78 730.26 121.72 730.26 129.83"/><line class="cls-10" x1="667.66" y1="79.36" x2="710.17" y2="43.68"/><polyline points="705.28 53.09 710.17 43.68 700.07 46.87"/><polygon class="cls-11" points="705.28 53.09 710.17 43.68 700.07 46.87 705.28 53.09"/><line class="cls-10" x1="622.99" y1="65.38" x2="634.52"/><polyline points="636.81 10.35 634.52 0 628.82 8.94"/><polygon class="cls-11" points="636.81 10.35 634.52 0 628.82 8.94 636.81 10.35"/><line class="cls-10" x1="574.99" y1="61.09" x2="548.48" y2="15.17"/><polyline points="556.89 21.62 548.48 15.17 549.87 25.68"/><polygon class="cls-11" points="556.89 21.62 548.48 15.17 549.87 25.68 556.89 21.62"/><line class="cls-10" x1="520.09" y1="92.2" x2="492.33" y2="82.09"/><polyline points="502.92 81.63 492.32 82.09 500.14 89.25"/><polygon class="cls-11" points="502.92 81.63 492.32 82.09 500.14 89.25 502.92 81.63"/><line class="cls-10" x1="577.41" y1="186.28" x2="548.48" y2="236.38"/><polyline points="549.87 225.87 548.48 236.38 556.89 229.93"/><polygon class="cls-11" points="549.87 225.87 548.48 236.38 556.89 229.93 549.87 225.87"/><line class="cls-10" x1="617.64" y1="167.34" x2="630.46" y2="240.05"/><polyline points="624.76 231.11 630.46 240.05 632.76 229.7"/><polygon class="cls-11" points="624.76 231.11 630.46 240.05 632.76 229.7 624.76 231.11"/><line class="cls-10" x1="665.87" y1="170.7" x2="710.17" y2="207.87"/><polyline points="700.06 204.68 710.17 207.87 705.28 198.47"/><polygon class="cls-11" points="700.06 204.68 710.17 207.87 705.28 198.47 700.06 204.68"/><text class="cls-1" transform="translate(552.66 133.51)">P</text><text class="cls-12" transform="translate(566.77 120.62)"><tspan class="cls-13">e</tspan><tspan x="8.75" y="0">qu</tspan></text><text class="cls-12" transform="translate(565.23 143.05)">T</text><text class="cls-14" transform="translate(603.38 133.51)">=</text><text class="cls-14" transform="translate(624.5 133.51)"><tspan class="cls-15">σ</tspan><tspan x="18.82" y="0">W</tspan></text><text class="cls-12" transform="translate(663.99 137.08)">i</text><text class="cls-1" transform="translate(581.38 287.03)">Target</text><line class="cls-5" x1="60.07" y1="188.47" x2="480.28" y2="97.74"/><line class="cls-16" x1="62.48" y1="240.22" x2="499.42" y2="145.87"/><path class="cls-17" d="M136.85,213.57A47.37,47.37,0,0,1,150,207.08a47.08,47.08,0,0,1-14.69-.47l6.33,2.28"/><polyline class="cls-18" points="87.61 220.56 93.86 219.21 93.82 218.54 93.78 217.87 93.75 217.21 93.72 216.56 93.69 215.93 93.67 215.33 93.66 214.76 93.65 214.22 93.65 213.71 93.66 213.25 93.67 212.83 93.7 212.46 93.74 212.13 93.79 211.86 93.85 211.64 93.93 211.47 94.01 211.37 94.11 211.32 94.22 211.32 94.34 211.38 94.48 211.5 94.63 211.68 94.78 211.91 94.95 212.19 95.13 212.51 95.32 212.89 95.52 213.31 95.73 213.77 95.94 214.26 96.17 214.79 96.4 215.35 96.63 215.93 96.87 216.53 97.11 217.15 97.36 217.77 97.6 218.4 97.84 219.03 98.09 219.66 98.33 220.27 98.57 220.88 98.81 221.46 99.03 222.01 99.26 222.54 99.47 223.04 99.68 223.5 99.88 223.92 100.07 224.29 100.25 224.62 100.42 224.9 100.58 225.13 100.72 225.3 100.86 225.42 100.98 225.48 101.09 225.49 101.19 225.44 101.28 225.33 101.35 225.17 101.41 224.95 101.46 224.67 101.5 224.35 101.53 223.98 101.55 223.56 101.55 223.09 101.55 222.59 101.55 222.05 101.53 221.47 101.51 220.87 101.48 220.25 101.45 219.6 101.42 218.94 101.38 218.27 101.35 217.59 101.31 216.92 101.27 216.25 101.24 215.59 101.21 214.94 101.18 214.32 101.16 213.71 101.15 213.14 101.14 212.6 101.14 212.09 101.15 211.63 101.17 211.21 101.19 210.84 101.23 210.51 101.28 210.24 101.34 210.02 101.42 209.86 101.5 209.75 101.6 209.7 101.71 209.7 101.83 209.77 101.97 209.89 102.11 210.06 102.27 210.29 102.44 210.57 102.62 210.9 102.81 211.27 103.01 211.69 103.22 212.15 103.44 212.65 103.66 213.17 103.89 213.73 104.12 214.31 104.36 214.91 104.6 215.53 104.85 216.16 105.09 216.79 105.34 217.41 105.58 218.04 105.82 218.66 106.06 219.26 106.3 219.84 106.52 220.4 106.75 220.93 106.96 221.42 107.17 221.88 107.37 222.3 107.56 222.67 107.74 223 107.91 223.28 108.07 223.51 108.21 223.68 108.35 223.8 108.47 223.87 108.58 223.87 108.68 223.82 108.77 223.71 108.84 223.55 108.9 223.33 108.95 223.06 108.99 222.73 109.02 222.36 109.03 221.94 109.04 221.47 109.04 220.97 109.04 220.43 109.02 219.86 109 219.25 108.97 218.63 108.94 217.98 108.91 217.32 108.87 216.65 108.84 215.98 108.8 215.3 108.76 214.63 108.73 213.97 108.7 213.32 108.67 212.7 108.65 212.1 108.64 211.52 108.63 210.98 108.63 210.48 108.64 210.01 108.66 209.59 108.68 209.22 108.72 208.9 108.77 208.62 108.83 208.41 108.91 208.24 108.99 208.13 109.09 208.08 109.2 208.09 109.33 208.15 109.46 208.27 109.61 208.44 109.76 208.67 109.93 208.95 110.11 209.28 110.3 209.65 110.5 210.07 110.71 210.53 110.93 211.03 111.15 211.56 111.38 212.11 111.61 212.7 111.85 213.3 112.09 213.91 112.34 214.54 112.58 215.17 112.83 215.8 113.07 216.42 113.31 217.04 113.55 217.64 113.78 218.22 114.02 218.78 114.24 219.31 114.45 219.8 114.66 220.26 114.86 220.68 115.05 221.06 115.23 221.39 115.4 221.66 115.56 221.89 115.7 222.07 115.84 222.19 115.96 222.25 116.07 222.25 116.17 222.2 116.25 222.09 116.33 221.93 116.39 221.71 116.44 221.44 116.48 221.12 116.51 220.74 116.53 220.32 116.53 219.86 116.53 219.35 116.53 218.81 116.51 218.24 116.49 217.64 116.46 217.01 116.43 216.37 116.4 215.7 116.36 215.03 116.33 214.36 116.29 213.68 116.25 213.01 116.22 212.35 116.19 211.71 116.16 211.08 116.14 210.48 116.13 209.91 116.12 209.37 116.12 208.86 116.13 208.4 116.15 207.98 116.17 207.6 116.21 207.28 116.26 207.01 116.33 206.79 116.4 206.62 116.48 206.52 116.58 206.46 116.69 206.47 116.81 206.53 116.95 206.65 117.1 206.83 117.25 207.05 117.42 207.33 117.6 207.66 117.79 208.04 117.99 208.46 118.2 208.92 118.42 209.41 118.64 209.94 118.87 210.5 119.1 211.08 119.34 211.68 119.58 212.29 119.83 212.92 120.07 213.55 120.32 214.18 120.56 214.81 120.8 215.42 121.04 216.02 121.28 216.6 121.5 217.16 121.73 217.69 121.94 218.19 122.15 218.65 122.35 219.06 122.54 219.44 122.72 219.77 122.89 220.05 123.05 220.28 123.19 220.45 123.33 220.57 123.45 220.63 123.56 220.64 123.66 220.59 123.75 220.48 123.82 220.31 123.88 220.09 123.93 219.82 123.97 219.5 124 219.13 124.02 218.71 124.03 218.24 124.02 217.74 124.02 217.2 124 216.62 123.98 216.02 123.95 215.39 123.92 214.75 123.89 214.09 123.85 213.42 123.82 212.74 123.78 212.07 123.74 211.4 123.71 210.74 123.68 210.09 123.65 209.46 123.63 208.86 123.62 208.29 123.61 207.75 123.61 207.24 123.62 206.78 123.64 206.36 123.67 205.99 123.7 205.66 123.75 205.39 123.81 205.17 123.89 205.01 123.97 204.9 124.07 204.85 124.18 204.85 124.3 204.92 124.44 205.04 124.59 205.21 124.74 205.44 124.91 205.72 125.09 206.04 125.28 206.42 125.48 206.84 125.69 207.3 125.91 207.79 126.13 208.32 126.36 208.88 126.59 209.46 126.83 210.06 127.07 210.68 127.32 211.3 127.56 211.93 127.81 212.56 128.05 213.19 128.29 213.81 128.53 214.41 128.77 214.99 129 215.54 129.22 216.07 129.43 216.57 129.64 217.03 129.84 217.45 130.03 217.82 130.21 218.15 130.38 218.43 130.54 218.66 130.69 218.83 130.82 218.95 130.94 219.01 131.05 219.02 131.15 218.97 131.24 218.86 131.31 218.7 131.37 218.48 131.42 218.21 131.46 217.88 131.49 217.51 131.51 217.09 131.51 216.62 131.51 216.12 131.51 215.58 131.49 215.01 131.47 214.4 131.44 213.78 131.41 213.13 131.38 212.47 131.34 211.8 131.31 211.13 141.67 208.89"/><path class="cls-17" d="M296.05,179.22a47,47,0,0,1,13.18-6.49,47.38,47.38,0,0,1-14.69-.48l6.33,2.28"/><polyline class="cls-18" points="246.81 186.2 253.05 184.85 253.03 184.23 253 183.62 252.98 183.01 252.96 182.42 252.95 181.84 252.94 181.29 252.93 180.76 252.93 180.26 252.94 179.8 252.96 179.37 252.98 178.98 253.02 178.64 253.06 178.34 253.12 178.09 253.18 177.89 253.26 177.73 253.35 177.63 253.44 177.58 253.55 177.59 253.67 177.64 253.81 177.75 253.95 177.91 254.1 178.12 254.27 178.37 254.44 178.67 254.62 179.01 254.81 179.39 255.01 179.81 255.22 180.26 255.43 180.75 255.65 181.26 255.88 181.79 256.1 182.34 256.33 182.9 256.56 183.47 256.8 184.05 257.03 184.62 257.26 185.19 257.49 185.76 257.72 186.3 257.94 186.84 258.16 187.34 258.38 187.83 258.58 188.28 258.78 188.7 258.98 189.08 259.16 189.42 259.33 189.72 259.49 189.98 259.65 190.18 259.79 190.34 259.92 190.45 260.04 190.5 260.15 190.51 260.25 190.46 260.34 190.36 260.42 190.21 260.48 190 260.54 189.75 260.58 189.45 260.61 189.11 260.64 188.72 260.66 188.29 260.67 187.83 260.67 187.33 260.66 186.8 260.65 186.25 260.63 185.68 260.62 185.08 260.59 184.47 260.57 183.86 260.54 183.24 260.52 182.62 260.49 182 260.47 181.39 260.45 180.8 260.44 180.22 260.43 179.67 260.42 179.14 260.42 178.64 260.43 178.18 260.45 177.75 260.47 177.37 260.51 177.02 260.55 176.72 260.61 176.47 260.67 176.27 260.75 176.12 260.83 176.02 260.93 175.97 261.04 175.97 261.16 176.03 261.3 176.13 261.44 176.29 261.59 176.5 261.76 176.75 261.93 177.05 262.11 177.39 262.31 177.78 262.5 178.19 262.71 178.65 262.92 179.13 263.14 179.64 263.37 180.17 263.59 180.72 263.82 181.28 264.06 181.85 264.29 182.43 264.52 183 264.75 183.58 264.98 184.14 265.21 184.69 265.44 185.22 265.65 185.73 265.87 186.21 266.07 186.66 266.27 187.08 266.46 187.46 266.65 187.81 266.82 188.1 266.99 188.36 267.14 188.57 267.28 188.72 267.41 188.83 267.53 188.89 267.64 188.89 267.74 188.84 267.83 188.74 267.91 188.59 267.97 188.39 268.03 188.13 268.07 187.84 268.1 187.49 268.13 187.1 268.14 186.68 268.15 186.21 268.16 185.72 268.15 185.19 268.14 184.63 268.13 184.06 268.11 183.47 268.08 182.86 268.06 182.24 268.03 181.62 268.01 181 267.99 180.38 267.96 179.78 267.94 179.18 267.93 178.61 267.92 178.05 267.91 177.53 267.91 177.03 267.92 176.56 267.94 176.13 267.96 175.75 268 175.41 268.04 175.11 268.1 174.85 268.16 174.65 268.24 174.5 268.32 174.4 268.43 174.35 268.53 174.35 268.65 174.41 268.79 174.52 268.93 174.68 269.08 174.88 269.25 175.13 269.42 175.44 269.6 175.78 269.8 176.16 269.99 176.58 270.2 177.03 270.41 177.51 270.63 178.02 270.86 178.55 271.08 179.1 271.31 179.66 271.55 180.24 271.78 180.81 272.01 181.39 272.24 181.96 272.48 182.52 272.7 183.07 272.93 183.6 273.14 184.11 273.36 184.59 273.56 185.05 273.76 185.47 273.96 185.85 274.14 186.19 274.31 186.49 274.48 186.74 274.63 186.95 274.77 187.11 274.9 187.21 275.02 187.27 275.13 187.27 275.23 187.22 275.32 187.13 275.4 186.97 275.46 186.77 275.51 186.52 275.56 186.22 275.6 185.87 275.62 185.49 275.64 185.06 275.65 184.6 275.65 184.1 275.64 183.57 275.63 183.02 275.62 182.44 275.6 181.85 275.57 181.24 275.55 180.62 275.52 180 275.5 179.38 275.47 178.77 275.45 178.16 275.43 177.56 275.42 176.99 275.41 176.44 275.4 175.91 275.4 175.41 275.41 174.95 275.43 174.52 275.45 174.13 275.49 173.79 275.53 173.49 275.59 173.24 275.65 173.03 275.73 172.88 275.82 172.78 275.91 172.73 276.02 172.74 276.14 172.79 276.28 172.9 276.42 173.06 276.57 173.26 276.74 173.52 276.91 173.82 277.09 174.16 277.28 174.54 277.48 174.96 277.69 175.41 277.9 175.9 278.12 176.41 278.35 176.94 278.57 177.48 278.8 178.05 279.04 178.62 279.27 179.19 279.5 179.77 279.74 180.34 279.96 180.9 280.19 181.45 280.42 181.99 280.63 182.49 280.85 182.97 281.06 183.43 281.25 183.85 281.44 184.23 281.63 184.57 281.8 184.87 281.97 185.13 282.12 185.33 282.26 185.49 282.39 185.6 282.51 185.65 282.62 185.66 282.72 185.61 282.81 185.51 282.89 185.36 282.95 185.15 283 184.9 283.05 184.6 283.08 184.26 283.11 183.87 283.13 183.44 283.13 182.98 283.14 182.48 283.13 181.95 283.12 181.4 283.11 180.82 283.09 180.23 283.06 179.62 283.04 179.01 283.01 178.38 282.99 177.76 282.96 177.15 282.94 176.54 282.92 175.95 282.91 175.37 282.9 174.82 282.89 174.29 282.89 173.79 282.9 173.33 282.92 172.9 282.94 172.51 282.98 172.17 283.02 171.87 283.08 171.62 283.14 171.42 283.22 171.26 283.31 171.16 283.4 171.12 283.51 171.12 283.63 171.17 283.77 171.28 283.91 171.44 284.06 171.65 284.23 171.9 284.4 172.2 284.58 172.54 284.77 172.92 284.97 173.34 285.18 173.8 285.39 174.28 285.61 174.79 285.84 175.32 286.06 175.87 286.3 176.43 286.53 177 286.76 177.58 286.99 178.15 287.23 178.72 287.45 179.29 287.68 179.84 287.91 180.37 288.12 180.88 288.34 181.36 288.54 181.81 288.74 182.23 288.94 182.61 289.12 182.95 289.29 183.25 289.46 183.51 289.61 183.71 289.75 183.87 289.88 183.98 290 184.04 290.11 184.04 290.21 183.99 290.3 183.89 290.38 183.74 290.44 183.53 290.5 183.28 290.54 182.98 290.57 182.64 290.6 182.25 290.62 181.82 290.63 181.36 290.63 180.86 290.62 180.34 290.61 179.78 290.6 179.21 290.58 178.61 290.55 178 290.53 177.39 290.5 176.77 300.87 174.53"/><path class="cls-17" d="M470.82,141.48A47,47,0,0,1,484,135a47.08,47.08,0,0,1-14.69-.48l6.32,2.28"/><polyline class="cls-18" points="421.59 148.47 427.83 147.12 427.81 146.55 427.8 145.99 427.79 145.44 427.78 144.89 427.78 144.37 427.78 143.86 427.78 143.38 427.79 142.93 427.81 142.5 427.84 142.11 427.87 141.76 427.91 141.44 427.96 141.17 428.02 140.94 428.09 140.75 428.17 140.61 428.25 140.52 428.35 140.47 428.46 140.47 428.58 140.52 428.71 140.62 428.85 140.76 429 140.94 429.16 141.17 429.32 141.44 429.5 141.75 429.68 142.1 429.88 142.48 430.07 142.89 430.27 143.32 430.48 143.78 430.7 144.26 430.91 144.76 431.13 145.27 431.35 145.79 431.57 146.31 431.8 146.83 432.02 147.35 432.24 147.86 432.45 148.35 432.66 148.84 432.87 149.3 433.07 149.73 433.27 150.14 433.46 150.52 433.65 150.87 433.82 151.18 433.99 151.45 434.15 151.67 434.3 151.86 434.44 152 434.56 152.1 434.69 152.15 434.79 152.15 434.89 152.1 434.98 152.01 435.06 151.87 435.13 151.68 435.19 151.45 435.24 151.18 435.28 150.86 435.31 150.51 435.33 150.12 435.35 149.69 435.36 149.24 435.37 148.76 435.37 148.25 435.36 147.72 435.36 147.18 435.34 146.63 435.33 146.07 435.32 145.5 435.31 144.93 435.29 144.37 435.28 143.82 435.27 143.28 435.27 142.75 435.27 142.25 435.27 141.76 435.29 141.31 435.3 140.88 435.33 140.49 435.36 140.14 435.4 139.83 435.45 139.55 435.51 139.32 435.58 139.13 435.66 138.99 435.75 138.9 435.84 138.85 435.95 138.85 436.07 138.91 436.2 139 436.34 139.14 436.49 139.33 436.65 139.56 436.81 139.83 436.99 140.14 437.17 140.48 437.37 140.86 437.56 141.27 437.76 141.71 437.97 142.17 438.19 142.65 438.4 143.14 438.62 143.65 438.84 144.17 439.06 144.69 439.29 145.21 439.51 145.73 439.73 146.24 439.94 146.74 440.15 147.22 440.36 147.68 440.56 148.12 440.76 148.53 440.95 148.9 441.14 149.25 441.31 149.56 441.48 149.83 441.64 150.06 441.79 150.24 441.93 150.38 442.06 150.48 442.17 150.53 442.29 150.53 442.38 150.48 442.47 150.39 442.55 150.25 442.62 150.06 442.68 149.83 442.73 149.56 442.77 149.24 442.8 148.89 442.83 148.5 442.84 148.08 442.85 147.62 442.86 147.14 442.86 146.63 442.85 146.11 442.85 145.57 442.83 145.01 442.82 144.45 442.81 143.88 442.8 143.32 442.78 142.75 442.77 142.2 442.76 141.66 442.76 141.13 442.76 140.63 442.76 140.15 442.77 139.69 442.79 139.27 442.82 138.88 442.85 138.52 442.89 138.21 442.94 137.93 443 137.7 443.07 137.52 443.15 137.38 443.24 137.28 443.33 137.24 443.44 137.24 443.56 137.29 443.69 137.38 443.83 137.52 443.98 137.71 444.14 137.94 444.31 138.21 444.48 138.52 444.67 138.86 444.86 139.24 445.05 139.65 445.26 140.09 445.46 140.55 445.68 141.03 445.89 141.53 446.11 142.04 446.33 142.55 446.55 143.07 446.77 143.6 447 144.12 447.21 144.62 447.43 145.12 447.64 145.6 447.85 146.06 448.06 146.5 448.25 146.91 448.44 147.29 448.63 147.63 448.8 147.94 448.97 148.21 449.13 148.44 449.28 148.63 449.42 148.77 449.55 148.86 449.67 148.91 449.77 148.91 449.87 148.87 449.96 148.77 450.04 148.63 450.11 148.45 450.17 148.22 450.22 147.94 450.26 147.63 450.29 147.27 450.32 146.88 450.33 146.46 450.34 146 450.35 145.52 450.35 145.02 450.34 144.49 450.34 143.95 450.32 143.4 450.31 142.83 450.3 142.27 450.29 141.7 450.27 141.14 450.26 140.58 450.25 140.04 450.25 139.52 450.25 139.01 450.25 138.53 450.27 138.07 450.28 137.65 450.31 137.26 450.34 136.91 450.38 136.59 450.43 136.32 450.49 136.09 450.56 135.9 450.64 135.76 450.73 135.67 450.82 135.62 450.93 135.62 451.05 135.67 451.18 135.76 451.32 135.91 451.47 136.09 451.63 136.32 451.8 136.59 451.97 136.9 452.15 137.25 452.35 137.63 452.54 138.03 452.75 138.47 452.95 138.93 453.17 139.41 453.38 139.91 453.6 140.42 453.82 140.94 454.04 141.46 454.27 141.98 454.49 142.5 454.7 143.01 454.92 143.5 455.13 143.98 455.34 144.44 455.55 144.88 455.74 145.29 455.93 145.67 456.12 146.01 456.29 146.32 456.46 146.59 456.62 146.82 456.77 147.01 456.91 147.15 457.04 147.25 457.15 147.29 457.26 147.29 457.36 147.25 457.45 147.16 457.53 147.01 457.6 146.83 457.66 146.6 457.71 146.32 457.75 146.01 457.78 145.66 457.81 145.26 457.82 144.84 457.83 144.39 457.84 143.9 457.84 143.4 457.83 142.87 457.83 142.33 457.82 141.78 457.8 141.22 457.79 140.65 457.77 140.08 457.76 139.52 457.75 138.97 457.74 138.42 457.74 137.9 457.74 137.39 457.75 136.91 457.75 136.46 457.77 136.03 457.8 135.64 457.83 135.29 457.87 134.97 457.92 134.7 457.98 134.47 458.05 134.28 458.13 134.14 458.21 134.05 458.31 134 458.42 134 458.54 134.05 458.67 134.15 458.81 134.29 458.96 134.47 459.12 134.71 459.29 134.97 459.46 135.28 459.64 135.63 459.84 136.01 460.03 136.42 460.24 136.85 460.44 137.31 460.66 137.79 460.87 138.29 461.09 138.8 461.31 139.32 461.54 139.84 461.76 140.36 461.98 140.88 462.19 141.39 462.41 141.89 462.63 142.37 462.83 142.83 463.04 143.26 463.23 143.67 463.42 144.05 463.61 144.4 463.78 144.71 463.95 144.98 464.11 145.21 464.26 145.39 464.4 145.53 464.53 145.63 464.64 145.68 464.75 145.68 464.85 145.63 464.94 145.54 465.02 145.4 465.09 145.21 465.15 144.98 465.2 144.71 465.24 144.39 465.27 144.04 465.3 143.65 465.31 143.22 465.32 142.77 465.33 142.29 465.33 141.78 465.32 141.26 465.32 140.72 465.31 140.16 465.29 139.6 465.28 139.03 475.64 136.79"/><path class="cls-19" d="M337.63,194.12a47,47,0,0,1-13.18,6.5,47.08,47.08,0,0,1,14.69.47l-6.33-2.28"/><polyline class="cls-20" points="386.87 187.14 380.63 188.49 380.63 189 380.63 189.51 380.63 190.01 380.62 190.5 380.62 190.97 380.61 191.43 380.59 191.87 380.57 192.28 380.55 192.66 380.51 193.02 380.47 193.34 380.43 193.62 380.37 193.87 380.31 194.08 380.24 194.25 380.16 194.38 380.06 194.47 379.96 194.51 379.86 194.51 379.74 194.47 379.61 194.39 379.48 194.26 379.33 194.1 379.18 193.89 379.02 193.65 378.85 193.38 378.67 193.07 378.49 192.73 378.3 192.36 378.11 191.97 377.91 191.56 377.71 191.13 377.51 190.68 377.3 190.23 377.09 189.76 376.88 189.3 376.67 188.83 376.46 188.37 376.25 187.91 376.05 187.47 375.85 187.03 375.65 186.62 375.46 186.23 375.27 185.87 375.09 185.53 374.91 185.22 374.74 184.94 374.58 184.7 374.43 184.5 374.28 184.33 374.15 184.21 374.02 184.12 373.9 184.08 373.8 184.08 373.69 184.13 373.6 184.21 373.52 184.34 373.45 184.51 373.39 184.72 373.33 184.97 373.29 185.26 373.25 185.58 373.21 185.93 373.19 186.31 373.17 186.73 373.15 187.16 373.14 187.62 373.14 188.09 373.13 188.58 373.13 189.09 373.13 189.59 373.13 190.11 373.14 190.62 373.14 191.13 373.14 191.63 373.13 192.12 373.13 192.59 373.12 193.05 373.1 193.49 373.08 193.9 373.06 194.28 373.02 194.63 372.98 194.95 372.94 195.24 372.88 195.49 372.82 195.7 372.75 195.87 372.67 196 372.57 196.08 372.48 196.13 372.37 196.13 372.25 196.09 372.12 196 371.99 195.88 371.84 195.71 371.69 195.51 371.53 195.27 371.36 194.99 371.18 194.69 371 194.34 370.81 193.98 370.62 193.59 370.42 193.18 370.22 192.75 370.02 192.3 369.81 191.84 369.6 191.38 369.39 190.91 369.18 190.45 368.97 189.98 368.76 189.53 368.56 189.08 368.36 188.65 368.16 188.24 367.96 187.85 367.78 187.48 367.6 187.14 367.42 186.84 367.25 186.56 367.09 186.32 366.94 186.12 366.79 185.95 366.66 185.82 366.53 185.74 366.41 185.7 366.31 185.7 366.2 185.75 366.11 185.83 366.03 185.96 365.96 186.13 365.9 186.34 365.84 186.59 365.8 186.87 365.76 187.19 365.72 187.55 365.7 187.93 365.68 188.34 365.66 188.78 365.65 189.24 365.65 189.71 365.64 190.2 365.64 190.7 365.64 191.21 365.64 191.72 365.65 192.23 365.65 192.74 365.65 193.24 365.64 193.73 365.64 194.21 365.63 194.67 365.61 195.1 365.59 195.51 365.57 195.9 365.53 196.25 365.49 196.57 365.45 196.86 365.39 197.11 365.33 197.32 365.26 197.49 365.18 197.62 365.08 197.7 364.98 197.75 364.88 197.75 364.76 197.71 364.63 197.62 364.5 197.5 364.35 197.33 364.2 197.13 364.04 196.89 363.87 196.61 363.69 196.3 363.51 195.96 363.32 195.6 363.13 195.21 362.93 194.79 362.73 194.36 362.52 193.92 362.32 193.46 362.11 193 361.9 192.53 361.69 192.06 361.48 191.6 361.27 191.15 361.07 190.7 360.87 190.27 360.67 189.86 360.48 189.47 360.29 189.1 360.11 188.76 359.93 188.45 359.76 188.18 359.6 187.94 359.45 187.73 359.3 187.57 359.17 187.44 359.04 187.36 358.92 187.32 358.81 187.32 358.71 187.36 358.63 187.45 358.54 187.58 358.47 187.75 358.41 187.96 358.35 188.21 358.31 188.49 358.27 188.81 358.23 189.16 358.21 189.55 358.19 189.96 358.17 190.4 358.16 190.85 358.16 191.33 358.15 191.82 358.15 192.32 358.15 192.83 358.15 193.34 358.16 193.85 358.16 194.36 358.16 194.86 358.15 195.35 358.15 195.83 358.14 196.28 358.12 196.72 358.1 197.13 358.08 197.51 358.04 197.87 358 198.19 357.96 198.47 357.9 198.72 357.84 198.93 357.77 199.1 357.69 199.23 357.59 199.32 357.5 199.36 357.39 199.36 357.27 199.32 357.14 199.24 357.01 199.11 356.86 198.95 356.71 198.74 356.55 198.5 356.38 198.23 356.2 197.92 356.02 197.58 355.83 197.21 355.64 196.82 355.44 196.41 355.24 195.98 355.04 195.53 354.83 195.08 354.62 194.62 354.41 194.15 354.2 193.68 353.99 193.22 353.78 192.76 353.58 192.32 353.38 191.89 353.18 191.47 352.99 191.08 352.8 190.72 352.62 190.38 352.44 190.07 352.27 189.79 352.11 189.55 351.96 189.35 351.81 189.18 351.68 189.06 351.55 188.97 351.43 188.93 351.32 188.94 351.22 188.98 351.13 189.06 351.05 189.19 350.98 189.37 350.92 189.57 350.86 189.82 350.81 190.11 350.77 190.43 350.74 190.78 350.72 191.17 350.7 191.58 350.68 192.01 350.67 192.47 350.67 192.95 350.66 193.44 350.66 193.94 350.66 194.44 350.67 194.96 350.67 195.47 350.67 195.98 350.67 196.48 350.66 196.97 350.66 197.44 350.65 197.9 350.63 198.34 350.61 198.75 350.59 199.13 350.55 199.49 350.51 199.81 350.47 200.09 350.41 200.34 350.35 200.55 350.28 200.72 350.19 200.85 350.1 200.94 350 200.98 349.9 200.98 349.78 200.94 349.65 200.85 349.51 200.73 349.37 200.56 349.22 200.36 349.06 200.12 348.89 199.84 348.71 199.54 348.53 199.2 348.34 198.83 348.15 198.44 347.95 198.03 347.75 197.6 347.55 197.15 347.34 196.7 347.13 196.23 346.92 195.77 346.71 195.3 346.5 194.84 346.29 194.38 346.09 193.93 345.89 193.5 345.69 193.09 345.5 192.7 345.31 192.34 345.13 192 344.95 191.69 344.78 191.41 344.62 191.17 344.47 190.97 344.32 190.8 344.19 190.68 344.06 190.59 343.94 190.55 343.83 190.55 343.74 190.6 343.64 190.68 343.56 190.81 343.49 190.98 343.43 191.19 343.37 191.44 343.32 191.73 343.29 192.05 343.25 192.4 343.23 192.78 343.21 193.19 343.19 193.63 343.18 194.09 343.18 194.56 343.17 195.05 343.17 195.55 343.17 196.06 343.17 196.57 332.81 198.81"/><path class="cls-19" d="M178.47,225.74a47.1,47.1,0,0,1-13.18,6.49,47.09,47.09,0,0,1,14.69.48l-6.33-2.28"/><polyline class="cls-20" points="227.71 218.75 221.47 220.1 221.46 220.56 221.44 221.01 221.43 221.46 221.42 221.9 221.4 222.32 221.38 222.73 221.36 223.12 221.33 223.49 221.29 223.84 221.25 224.15 221.2 224.44 221.15 224.7 221.09 224.92 221.02 225.11 220.95 225.26 220.86 225.38 220.77 225.46 220.67 225.5 220.56 225.5 220.45 225.47 220.32 225.4 220.19 225.29 220.05 225.15 219.9 224.97 219.75 224.75 219.59 224.51 219.42 224.24 219.25 223.94 219.07 223.62 218.88 223.27 218.7 222.91 218.51 222.53 218.31 222.14 218.12 221.73 217.92 221.32 217.72 220.91 217.52 220.5 217.32 220.09 217.13 219.69 216.94 219.29 216.75 218.91 216.56 218.55 216.37 218.2 216.19 217.88 216.02 217.58 215.85 217.31 215.69 217.07 215.54 216.86 215.39 216.68 215.25 216.53 215.12 216.43 214.99 216.35 214.88 216.32 214.77 216.32 214.67 216.36 214.58 216.44 214.49 216.56 214.42 216.71 214.35 216.9 214.29 217.13 214.24 217.38 214.19 217.67 214.15 217.99 214.11 218.33 214.09 218.7 214.06 219.09 214.04 219.5 214.02 219.92 214.01 220.36 214 220.81 213.99 221.26 213.97 221.72 213.97 222.18 213.95 222.63 213.94 223.08 213.93 223.52 213.91 223.94 213.89 224.35 213.87 224.74 213.84 225.11 213.8 225.45 213.76 225.77 213.72 226.06 213.66 226.31 213.6 226.54 213.53 226.73 213.46 226.88 213.37 227 213.28 227.08 213.18 227.12 213.07 227.12 212.96 227.09 212.83 227.01 212.7 226.91 212.56 226.76 212.41 226.58 212.26 226.37 212.1 226.13 211.93 225.86 211.75 225.56 211.58 225.24 211.39 224.89 211.21 224.53 211.01 224.15 210.82 223.75 210.63 223.35 210.43 222.94 210.23 222.53 210.03 222.12 209.84 221.71 209.64 221.3 209.44 220.91 209.25 220.53 209.07 220.17 208.88 219.82 208.71 219.5 208.53 219.2 208.36 218.93 208.2 218.69 208.05 218.47 207.9 218.29 207.76 218.15 207.63 218.04 207.5 217.97 207.39 217.94 207.28 217.94 207.18 217.98 207.09 218.06 207 218.18 206.93 218.33 206.86 218.52 206.8 218.74 206.75 219 206.7 219.29 206.66 219.6 206.62 219.95 206.59 220.32 206.57 220.71 206.55 221.11 206.53 221.54 206.52 221.98 206.51 222.42 206.5 222.88 206.49 223.34 206.47 223.79 206.46 224.25 206.45 224.7 206.44 225.13 206.42 225.56 206.4 225.97 206.38 226.36 206.35 226.73 206.31 227.07 206.27 227.39 206.22 227.67 206.17 227.93 206.11 228.16 206.04 228.34 205.97 228.5 205.88 228.61 205.79 228.69 205.69 228.74 205.58 228.74 205.47 228.7 205.34 228.63 205.21 228.52 205.07 228.38 204.92 228.2 204.77 227.99 204.61 227.75 204.44 227.47 204.26 227.18 204.09 226.85 203.9 226.51 203.72 226.14 203.53 225.76 203.33 225.37 203.13 224.97 202.94 224.56 202.74 224.15 202.54 223.73 202.34 223.32 202.15 222.92 201.96 222.53 201.76 222.15 201.58 221.78 201.39 221.44 201.22 221.12 201.04 220.82 200.87 220.54 200.71 220.3 200.56 220.09 200.41 219.91 200.27 219.77 200.14 219.66 200.01 219.59 199.9 219.55 199.79 219.56 199.69 219.6 199.6 219.68 199.51 219.79 199.44 219.95 199.37 220.14 199.31 220.36 199.25 220.62 199.21 220.9 199.17 221.22 199.13 221.56 199.1 221.93 199.08 222.32 199.06 222.73 199.04 223.16 199.03 223.59 199.02 224.04 199 224.5 199 224.95 198.99 225.41 198.97 225.87 198.96 226.31 198.95 226.75 198.93 227.18 198.91 227.59 198.88 227.97 198.85 228.34 198.82 228.69 198.78 229 198.73 229.29 198.68 229.55 198.62 229.77 198.55 229.96 198.48 230.11 198.39 230.23 198.3 230.31 198.2 230.35 198.09 230.35 197.98 230.32 197.85 230.25 197.72 230.14 197.58 230 197.43 229.82 197.28 229.61 197.12 229.36 196.95 229.09 196.78 228.79 196.6 228.47 196.41 228.13 196.22 227.76 196.03 227.38 195.84 226.99 195.65 226.59 195.45 226.18 195.25 225.76 195.05 225.35 194.85 224.94 194.66 224.54 194.46 224.15 194.27 223.76 194.09 223.4 193.9 223.06 193.72 222.73 193.55 222.43 193.38 222.16 193.22 221.92 193.07 221.71 192.92 221.53 192.78 221.38 192.65 221.28 192.52 221.21 192.41 221.17 192.3 221.17 192.2 221.22 192.11 221.29 192.02 221.41 191.95 221.56 191.88 221.75 191.82 221.98 191.77 222.23 191.72 222.52 191.68 222.84 191.64 223.18 191.61 223.55 191.59 223.94 191.57 224.35 191.55 224.77 191.54 225.21 191.53 225.66 191.51 226.12 191.5 226.57 191.49 227.03 191.48 227.48 191.47 227.93 191.46 228.37 191.44 228.79 191.42 229.2 191.39 229.59 191.37 229.96 191.33 230.3 191.29 230.62 191.24 230.91 191.19 231.17 191.13 231.39 191.06 231.58 190.99 231.73 190.9 231.85 190.81 231.93 190.71 231.97 190.6 231.97 190.49 231.94 190.36 231.87 190.23 231.76 190.09 231.61 189.94 231.44 189.79 231.22 189.63 230.98 189.46 230.71 189.28 230.41 189.11 230.09 188.92 229.74 188.74 229.38 188.54 229 188.35 228.6 188.15 228.2 187.96 227.79 187.76 227.38 187.56 226.97 187.36 226.56 187.17 226.16 186.97 225.76 186.78 225.38 186.6 225.02 186.41 224.67 186.23 224.35 186.06 224.05 185.89 223.78 185.73 223.54 185.58 223.33 185.43 223.15 185.29 223 185.16 222.89 185.03 222.82 184.92 222.79 184.81 222.79 184.71 222.83 184.62 222.91 184.53 223.03 184.46 223.18 184.39 223.37 184.33 223.59 184.28 223.85 184.23 224.14 184.19 224.46 184.15 224.8 184.12 225.17 184.1 225.56 184.08 225.97 184.06 226.39 184.05 226.83 184.03 227.28 184.03 227.73 184.01 228.19 173.65 230.43"/><path d="M64.89,183.79a47.29,47.29,0,0,1-13.19,6.49,47.07,47.07,0,0,1,14.69.47l-6.32-2.28"/><path d="M475.45,102.43a47.15,47.15,0,0,1,13.19-6.49A47.08,47.08,0,0,1,474,95.46l6.33,2.28"/><text class="cls-1" transform="matrix(0.98, -0.21, 0.21, 0.98, 231.76, 138.98)">Range</text><text class="cls-21" transform="matrix(0.98, -0.2, 0.2, 0.98, 388.95, 157.88)">W</text><text class="cls-22" transform="matrix(0.98, -0.2, 0.2, 0.98, 409.49, 157.94)">i</text><text class="cls-23" transform="matrix(0.98, -0.2, 0.2, 0.98, 396.62, 191.76)">W</text><text class="cls-24" transform="matrix(0.98, -0.2, 0.2, 0.98, 416.63, 191.79)">s</text></svg>