<svg id="Capa_1" data-name="Capa 1" xmlns="http://www.w3.org/2000/svg" xmlns:xlink="http://www.w3.org/1999/xlink" viewBox="0 0 656.35 385.5"><defs><style>.cls-1,.cls-12,.cls-27,.cls-29,.cls-6,.cls-7{fill:none;}.cls-2{clip-path:url(#clip-path);}.cls-3{fill:#fbeade;}.cls-4{fill:#d9e8f5;}.cls-5{fill:#f1f3d9;}.cls-12,.cls-29,.cls-6{stroke:#000;}.cls-12,.cls-27,.cls-29,.cls-6,.cls-7{stroke-miterlimit:10;}.cls-6{stroke-width:0.6px;}.cls-7{stroke:#a6a6a6;stroke-width:0.3px;}.cls-10,.cls-13,.cls-16,.cls-18,.cls-23,.cls-30,.cls-8{font-size:16.36px;}.cls-11,.cls-13,.cls-17,.cls-18,.cls-21,.cls-22,.cls-23,.cls-25,.cls-8,.cls-9{font-family:PalatinoLinotype-Roman, Palatino Linotype;}.cls-21,.cls-9{font-size:11.96px;}.cls-10,.cls-16{font-family:PalatinoLinotype-Italic, Palatino Linotype;font-style:italic;}.cls-11,.cls-17,.cls-22,.cls-25{font-size:10px;}.cls-12{stroke-width:0.92px;}.cls-13,.cls-16,.cls-17{fill:#e37222;}.cls-14{letter-spacing:0.25em;}.cls-15{letter-spacing:-0.01em;}.cls-18,.cls-21,.cls-22{fill:#0065bd;}.cls-19{letter-spacing:0.25em;}.cls-20{letter-spacing:0em;}.cls-23,.cls-25{fill:#a2ad00;}.cls-24{letter-spacing:0.25em;}.cls-26{clip-path:url(#clip-path-2);}.cls-27{stroke:#0065bd;}.cls-27,.cls-29{stroke-width:1.27px;}.cls-28{fill:#fff;}.cls-30{font-family:Palatino-Roman, Palatino;}</style><clipPath id="clip-path"><rect class="cls-1" width="633" height="385.5"/></clipPath><clipPath id="clip-path-2"><polygon class="cls-1" points="48.6 178.02 48.6 8.24 622.02 8.24 622.02 347.8 48.6 347.8 48.6 178.02"/></clipPath></defs><title>spherePEC</title><g class="cls-2"><polyline class="cls-3" points="48.6 178.02 48.6 8.24 196.87 8.24 196.87 347.8 48.6 347.8"/><polyline class="cls-4" points="197.47 178.02 197.47 8.24 488.28 8.24 488.28 347.8 197.47 347.8"/><polyline class="cls-5" points="488.87 178.02 488.87 8.24 622.02 8.24 622.02 347.8 488.87 347.8"/><line class="cls-6" x1="48.3" y1="348.09" x2="622.31" y2="348.09"/><path class="cls-7" d="M105.89,348.09V7.93m33.7,340.16V7.93m23.9,340.16V7.93M182,348.09V7.93m15.15,340.16V7.93M210,348.09V7.93m11.09,340.16V7.93m9.79,340.16V7.93"/><line class="cls-6" x1="48.3" y1="348.09" x2="48.3" y2="7.93"/><path class="cls-7" d="M297.23,348.09V7.93m33.7,340.16V7.93m23.9,340.16V7.93m18.54,340.16V7.93m15.15,340.16V7.93m12.81,340.16V7.93m11.1,340.16V7.93m9.79,340.16V7.93"/><line class="cls-6" x1="239.63" y1="348.09" x2="239.63" y2="7.93"/><path class="cls-7" d="M488.57,348.09V7.93m33.69,340.16V7.93m23.91,340.16V7.93m18.54,340.16V7.93m15.15,340.16V7.93m12.81,340.16V7.93m11.1,340.16V7.93m9.79,340.16V7.93"/><line class="cls-6" x1="430.97" y1="348.09" x2="430.97" y2="7.93"/><line class="cls-6" x1="622.31" y1="348.09" x2="622.31" y2="7.93"/><line class="cls-6" x1="48.3" y1="348.09" x2="48.3" y2="7.93"/><line class="cls-6" x1="48.3" y1="348.09" x2="48.3" y2="7.93"/><line class="cls-6" x1="48.3" y1="348.09" x2="622.31" y2="348.09"/><line class="cls-6" x1="48.3" y1="348.09" x2="48.3" y2="7.93"/><path class="cls-7" d="M48.3,322.49h574m-574-15h574m-574-10.62h574m-574-8.24h574m-574-6.74h574m-574-5.69h574m-574-4.93h574m-574-4.35h574"/><line class="cls-6" x1="48.3" y1="348.09" x2="622.31" y2="348.09"/><path class="cls-7" d="M48.3,237.45h574m-574-15h574m-574-10.62h574m-574-8.24h574m-574-6.73h574m-574-5.7h574m-574-4.93h574m-574-4.35h574"/><line class="cls-6" x1="48.3" y1="263.05" x2="622.31" y2="263.05"/><path class="cls-7" d="M48.3,152.41h574m-574-15h574m-574-10.63h574m-574-8.24h574m-574-6.73h574m-574-5.7h574m-574-4.93h574m-574-4.35h574"/><line class="cls-6" x1="48.3" y1="178.01" x2="622.31" y2="178.01"/><path class="cls-7" d="M48.3,67.37h574m-574-15h574M48.3,41.77h574m-574-8.24h574M48.3,26.8h574m-574-5.7h574m-574-4.93h574m-574-4.35h574"/><line class="cls-6" x1="48.3" y1="92.97" x2="622.31" y2="92.97"/><line class="cls-6" x1="48.3" y1="7.93" x2="622.31" y2="7.93"/><line class="cls-6" x1="48.3" y1="348.09" x2="622.31" y2="348.09"/><line class="cls-6" x1="48.3" y1="348.09" x2="48.3" y2="7.93"/><line class="cls-6" x1="48.3" y1="348.09" x2="622.31" y2="348.09"/><text class="cls-8" transform="translate(9.7 354.65)">10</text><text class="cls-9" transform="translate(26.93 348.71)">−</text><text class="cls-9" transform="translate(34.53 348.71)">3</text><text class="cls-8" transform="translate(9.7 269.61)">10</text><text class="cls-9" transform="translate(26.93 263.67)">−</text><text class="cls-9" transform="translate(34.53 263.67)">2</text><text class="cls-8" transform="translate(9.7 184.56)">10</text><text class="cls-9" transform="translate(26.93 178.62)">−</text><text class="cls-9" transform="translate(34.53 178.62)">1</text><text class="cls-8" transform="translate(17.3 99.53)">10</text><text class="cls-9" transform="translate(34.53 93.59)">0</text><text class="cls-8" transform="translate(17.3 14.49)">10</text><text class="cls-9" transform="translate(34.53 8.55)">1</text><text class="cls-8" transform="translate(31.74 368.87)">10</text><text class="cls-9" transform="translate(48.97 362.93)">−</text><text class="cls-9" transform="translate(56.57 362.93)">1</text><text class="cls-8" transform="translate(226.87 368.87)">10</text><text class="cls-9" transform="translate(244.1 362.93)">0</text><text class="cls-8" transform="translate(418.22 368.87)">10</text><text class="cls-9" transform="translate(435.45 362.93)">1</text><text class="cls-8" transform="translate(609.56 368.87)">10</text><text class="cls-9" transform="translate(626.78 362.93)">2</text><text class="cls-10" transform="translate(288.47 380.93)">β</text><text class="cls-11" transform="translate(297.76 383.38)">0</text><text class="cls-8" transform="translate(304.53 380.93)">a</text><text class="cls-8" transform="translate(317.6 380.93)">=</text><text class="cls-8" transform="translate(332.56 380.93)">2</text><text class="cls-8" transform="translate(340.5 380.93)">π</text><text class="cls-8" transform="translate(351.54 380.93)">a</text><text class="cls-8" transform="translate(360.06 380.93)">/</text><text class="cls-8" transform="translate(367.35 380.93)">λ</text><text class="cls-11" transform="translate(377.01 383.38)">0</text><text class="cls-8" transform="translate(7.75 127.81)">σ</text><line class="cls-12" x1="1.04" y1="134.68" x2="25.26" y2="134.68"/><text class="cls-8" transform="translate(1.36 150.1)">π</text><text class="cls-8" transform="translate(13.41 150.1)">a</text><text class="cls-11" transform="translate(20.93 144.38)">2</text><text class="cls-13" transform="translate(72 25.8)">Rayleig<tspan class="cls-14" x="54.68" y="0">h</tspan><tspan class="cls-15" x="68.27" y="0">r</tspan><tspan x="74.61" y="0">egion</tspan></text><text class="cls-13" transform="translate(72.43 45.36)">σ</text><text class="cls-13" transform="translate(87.38 45.36)">=</text><text class="cls-13" transform="translate(101.34 45.36)">9</text><text class="cls-13" transform="translate(109.95 45.36)">(</text><text class="cls-16" transform="translate(115.57 45.36)">β</text><text class="cls-17" transform="translate(123.86 47.81)">0</text><text class="cls-13" transform="translate(129.62 45.36)">a</text><text class="cls-13" transform="translate(138.14 45.36)">)</text><text class="cls-17" transform="translate(143.59 39.42)">4</text><text class="cls-13" transform="translate(150.95 45.36)">π</text><text class="cls-13" transform="translate(161.99 45.36)">a</text><text class="cls-17" transform="translate(170.51 39.42)">2</text><text class="cls-18" transform="translate(282.62 25.8)"><tspan class="cls-15">R</tspan><tspan x="10.8" y="0">esonan</tspan><tspan class="cls-19" x="61.74" y="0">t</tspan><tspan class="cls-15" x="71.15" y="0">r</tspan><tspan class="cls-20" x="77.48" y="0">egion</tspan></text><text class="cls-18" transform="translate(325.34 45.36)">σ</text><text class="cls-21" transform="translate(334.2 47.81)">max</text><text class="cls-18" transform="translate(360.24 45.36)">≈</text><text class="cls-18" transform="translate(375.2 45.36)">4</text><text class="cls-18" transform="translate(385.13 45.36)">π</text><text class="cls-18" transform="translate(396.18 45.36)">a</text><text class="cls-22" transform="translate(404.7 39.42)">2</text><text class="cls-18" transform="translate(325.34 64.92)">σ</text><text class="cls-21" transform="translate(334.2 67.37)">min</text><text class="cls-18" transform="translate(358.65 64.92)">≈</text><text class="cls-18" transform="translate(373.59 64.92)">0</text><text class="cls-18" transform="translate(381.46 64.92)">.</text><text class="cls-18" transform="translate(385.84 64.92)">3</text><text class="cls-18" transform="translate(395.77 64.92)">π</text><text class="cls-18" transform="translate(406.82 64.92)">a</text><text class="cls-22" transform="translate(415.34 58.98)">2</text><text class="cls-23" transform="translate(509.22 25.8)">Optica<tspan class="cls-24" x="48.24" y="0">l</tspan><tspan class="cls-15" x="57.1" y="0">r</tspan><tspan x="63.43" y="0">egion</tspan></text><text class="cls-23" transform="translate(528.1 45.36)">σ</text><text class="cls-23" transform="translate(543.04 45.36)">=</text><text class="cls-23" transform="translate(555.31 45.36)">π</text><text class="cls-23" transform="translate(567.35 45.36)">a</text><text class="cls-25" transform="translate(575.87 39.42)">2</text></g><g class="cls-26"><polyline class="cls-27" points="48.31 352.09 49.26 350.39 50.22 348.69 51.18 346.99 52.13 345.29 53.09 343.5 54.05 341.81 55 340.1 55.96 338.4 56.92 336.7 57.87 335 58.83 333.3 59.78 331.6 60.74 329.9 61.7 328.2 62.66 326.5 63.61 324.8 64.57 323.1 65.53 321.39 66.48 319.69 67.44 317.99 68.4 316.29 69.35 314.59 70.31 312.89 71.27 311.19 72.22 309.49 73.18 307.79 74.14 306.09 75.09 304.39 76.05 302.69 77.01 300.99 77.96 299.28 78.92 297.58 79.88 295.88 80.83 294.18 81.79 292.48 82.75 290.78 83.7 289.08 84.66 287.38 85.62 285.68 86.57 283.98 87.53 282.28 88.49 280.57 89.44 278.88 90.4 277.26 91.36 275.56 92.31 273.86 93.27 272.16 94.23 270.46 95.18 268.75 96.14 267.05 97.1 265.35 98.05 263.65 99.01 261.95 99.97 260.25 100.92 258.55 101.88 256.85 102.84 255.15 103.79 253.45 104.75 251.75 105.9 250.05 106.86 248.35 107.81 246.65 108.77 244.94 109.72 243.24 110.68 241.54 111.64 239.84 112.6 238.14 113.55 236.44 114.51 234.74 115.47 233.04 116.42 231.42 117.38 229.72 118.34 228.02 119.29 226.32 120.25 224.62 121.21 222.92 122.16 221.22 123.12 219.52 124.08 217.82 125.03 216.12 125.99 214.41 126.95 212.72 127.9 211.1 128.86 209.4 129.82 207.7 130.77 206 131.73 204.3 132.69 202.59 133.64 200.89 134.6 199.19 135.56 197.49 136.51 195.88 137.47 194.18 138.43 192.47 139.38 190.78 140.34 189.07 141.3 187.37 142.25 185.67 143.21 184.06 144.17 182.35 145.12 180.65 146.08 178.95 147.04 177.25 147.99 175.64 148.95 173.94 149.91 172.24 150.86 170.53 151.82 168.83 152.78 167.22 153.73 165.52 154.69 163.82 155.65 162.12 156.6 160.5 157.56 158.8 158.52 157.1 159.47 155.48 160.43 153.78 161.39 152.08 162.34 150.47 163.3 148.77 164.26 147.06 165.21 145.45 166.17 143.75 167.13 142.13 168.08 140.43 169.04 138.81 170 137.12 170.95 135.5 171.91 133.8 172.87 132.18 173.82 130.48 174.78 128.87 175.74 127.17 176.69 125.55 177.65 123.93 178.61 122.23 179.56 120.62 180.52 119 181.48 117.39 182.44 115.77 183.39 114.15 184.35 112.54 185.3 110.92 186.26 109.31 187.22 107.69 188.18 106.08 189.13 104.46 190.09 102.84 191.04 101.31 192 99.7 192.96 98.17 193.92 96.55 194.87 95.02 195.83 93.49 196.78 91.96 197.74 90.43 198.7 88.9 199.66 87.37 200.61 85.84 201.57 84.39 202.52 82.86 203.48 81.41 204.44 79.97 205.4 78.52 206.35 77.08 207.31 75.63 208.26 74.27 209.22 72.91 210.18 71.55 211.13 70.19 212.09 68.83 213.05 67.55 214 66.28 214.96 65 215.92 63.81 216.88 62.62 217.83 61.43 218.79 60.32 219.75 59.13 220.89 58.11 221.85 57.01 222.81 55.99 223.76 55.05 224.72 54.12 225.68 53.18 226.63 52.33 227.59 51.48 228.55 50.72 229.5 49.95 230.46 49.27 231.42 48.67 232.37 48.08 233.33 47.48 234.29 47.06 235.24 46.63 236.2 46.21 237.16 45.87 238.11 45.61 239.07 45.36 240.03 45.27 240.98 45.19 241.94 45.1 242.9 45.1 243.85 45.19 244.81 45.36 245.77 45.61 246.72 45.87 247.68 46.21 248.64 46.63 249.59 47.14 250.55 47.74 251.51 48.33 252.46 49.01 253.42 49.87 254.38 50.72 255.34 51.65 256.29 52.67 257.25 53.77 258.2 54.97 259.16 56.24 260.12 57.69 261.07 59.13 262.03 60.75 262.99 62.45 263.94 64.32 264.9 66.28 265.86 68.32 266.82 70.61 267.77 73 268.73 75.46 269.69 78.18 270.64 81.07 271.6 84.14 272.56 87.45 273.51 90.94 274.47 94.59 275.42 98.51 276.38 102.67 277.34 107.1 278.3 111.6 279.25 116.28 280.21 121.04 281.16 125.63 282.12 130.06 283.08 133.88 284.04 136.94 284.99 138.81 285.95 139.33 286.9 138.39 287.86 136.09 288.82 132.69 289.78 128.44 290.73 123.76 291.69 118.83 292.65 113.81 293.6 108.97 294.56 104.29 295.51 99.87 296.47 95.7 297.43 91.79 298.38 88.3 299.34 84.99 300.3 82.09 301.25 79.37 302.21 77.08 303.17 74.95 304.13 73.17 305.08 71.63 306.04 70.36 307 69.34 307.95 68.57 308.91 68.15 309.87 67.98 310.82 68.06 311.78 68.4 312.74 69 313.69 69.93 314.65 71.21 315.61 72.74 316.56 74.61 317.52 76.82 318.48 79.37 319.43 82.27 320.39 85.5 321.35 89.07 322.3 92.98 323.26 97.15 324.22 101.4 325.17 105.73 326.13 109.82 327.08 113.39 328.04 116.19 329 117.81 329.96 118.07 330.91 116.96 331.87 114.58 332.83 111.18 333.78 107.27 334.74 103.01 335.89 98.68 336.84 94.59 337.8 90.68 338.76 87.2 339.72 84.14 340.67 81.5 341.63 79.37 342.58 77.76 343.54 76.65 344.5 75.97 345.45 75.89 346.41 76.4 347.37 77.33 348.32 78.95 349.28 81.07 350.24 83.71 351.19 86.86 352.15 90.43 353.11 94.34 354.06 98.42 355.02 102.33 355.98 105.82 356.94 108.37 357.89 109.65 358.85 109.48 359.81 107.78 360.76 104.88 361.72 101.23 362.68 97.23 363.63 93.23 364.59 89.49 365.55 86.35 366.5 83.71 367.46 81.84 368.42 80.65 369.37 80.31 370.33 80.65 371.29 81.84 372.24 83.88 373.2 86.52 374.15 89.83 375.11 93.49 376.07 97.4 377.02 100.97 377.98 103.78 378.94 105.14 379.9 104.97 380.85 103.18 381.81 100.12 382.77 96.47 383.72 92.64 384.68 89.15 385.64 86.35 386.59 84.31 387.55 83.28 388.51 83.2 389.46 84.14 390.42 86.09 391.38 88.9 392.33 92.3 393.29 96.04 394.25 99.36 395.2 101.74 396.16 102.5 397.12 101.48 398.07 98.85 399.03 95.44 399.99 91.87 400.94 88.73 401.9 86.35 402.86 85.16 403.81 85.16 404.77 86.43 405.73 88.73 406.68 91.87 407.64 95.36 408.6 98.51 409.55 100.38 410.51 100.38 411.47 98.51 412.42 95.44 413.38 92.04 414.34 89.07 415.29 87.11 416.25 86.43 417.21 87.2 418.16 89.24 419.12 92.3 420.08 95.61 421.03 98.25 421.99 99.27 422.95 98.25 423.9 95.61 424.86 92.38 425.82 89.49 426.77 87.79 427.73 87.62 428.69 88.98 429.64 91.53 430.6 94.68 431.56 97.32 432.51 98.17 433.47 96.97 434.43 94.25 435.38 91.19 436.34 88.98 437.3 88.3 438.25 89.32 439.21 91.79 440.17 94.77 441.12 96.97 442.08 97.23 443.04 95.44 443.99 92.55 444.95 90.09 445.91 88.98 446.86 89.75 447.82 91.96 448.78 94.77 449.74 96.64 450.88 96.3 451.84 94.08 452.8 91.36 453.75 89.66 454.71 89.83 455.67 91.79 456.62 94.42 457.58 96.13 458.54 95.7 459.49 93.41 460.45 90.94 461.41 89.92 462.36 90.94 463.32 93.32 464.28 95.44 465.23 95.61 466.19 93.74 467.15 91.36 468.1 90.34 469.06 91.36 470.02 93.66 470.97 95.44 471.93 94.94 472.88 92.64 473.84 90.85 474.8 90.94 475.76 92.89 476.71 94.85 477.67 94.94 478.63 92.98 479.58 91.11 480.54 91.19 481.5 93.06 482.45 94.85 483.41 94.42 484.37 92.38 485.32 91.11 486.28 91.96 487.24 94 488.19 94.68 489.15 93.15 490.11 91.45 491.06 91.7 492.02 93.58 492.98 94.59 493.93 93.32 494.89 91.62 495.85 91.87 496.8 93.74 497.76 94.34 498.72 92.89 499.67 91.62 500.63 92.47 501.59 94.08 502.54 93.74 503.5 92.13 504.46 91.96 505.41 93.58 506.37 94.08 507.33 92.55 508.28 91.87 509.24 93.15 510.2 94.08 511.15 92.81 512.11 91.96 513.07 93.15 514.02 93.92 514.98 92.64 515.94 92.13 516.89 93.41 517.85 93.74 518.81 92.38 519.76 92.47 520.72 93.74 521.68 93.23 522.63 92.13 523.59 93.06 524.55 93.66 525.5 92.47 526.46 92.55 527.42 93.66 528.38 92.89 529.33 92.38 530.29 93.49 531.24 93.15 532.2 92.38 533.16 93.32 534.12 93.23 535.07 92.38 536.03 93.32 536.99 93.23 537.94 92.47 538.9 93.32 539.86 93.06 540.81 92.55 541.77 93.41 542.72 92.81 543.68 92.72 544.64 93.41 545.6 92.55 546.55 93.06 547.51 93.15 548.47 92.55 549.42 93.41 550.38 92.72 551.34 92.98 552.29 93.15 553.25 92.64 554.21 93.32 555.16 92.64 556.12 93.15 557.08 92.89 558.03 92.89 558.99 93.15 559.95 92.72 560.9 93.23 561.86 92.72 562.82 93.23 563.77 92.72 564.73 93.15 565.88 92.81 566.83 93.15 567.79 92.81 568.75 93.15 569.7 92.81 570.66 93.15 571.62 92.81 572.57 93.15 573.53 92.81 574.49 93.15 575.44 92.81 576.4 93.15 577.36 92.81 578.32 93.06 579.27 92.89 580.23 92.98 581.18 93.06 582.14 92.81 583.1 93.15 584.05 92.81 585.01 93.06 585.97 92.98 586.92 92.89 587.88 93.06 588.84 92.89 589.79 92.98 590.75 93.06 591.71 92.89 592.66 92.98 593.62 93.06 594.58 92.89 595.53 92.98 596.49 93.06 597.45 92.89 598.4 92.89 599.36 93.06 600.32 92.98 601.27 92.89 602.23 92.98 603.19 93.06 604.14 92.98 605.1 92.89 606.06 92.98 607.02 93.06 607.97 93.06 608.93 92.98 609.88 92.89 610.84 92.98 611.8 92.98 612.75 93.06 613.71 92.98 614.67 92.98 615.62 92.89 616.58 92.89 617.54 92.98 618.5 92.98 619.45 92.98 620.41 92.98 621.37 92.98 622.32 92.98"/></g><g class="cls-2"><polyline class="cls-28" points="430.98 263.06 430.98 178.02 622.32 178.02 622.32 348.1 430.98 348.1"/><polygon class="cls-6" points="430.98 263.06 430.98 178.02 622.32 178.02 622.32 348.1 430.98 348.1 430.98 263.06"/><path class="cls-29" d="M568.54,263.06h0a41.89,41.89,0,1,0-41.89,41.88A41.89,41.89,0,0,0,568.54,263.06Z"/><path class="cls-6" d="M520,225.37a38.25,38.25,0,0,0-31,31"/><path class="cls-6" d="M515,231.09a34,34,0,0,0-20.33,20.33"/><line class="cls-6" x1="526.65" y1="263.06" x2="569.17" y2="263.06"/><text class="cls-30" transform="translate(543.38 254.79)">a</text></g></svg>