<svg id="Capa_1" data-name="Capa 1" xmlns="http://www.w3.org/2000/svg" viewBox="0 0 472.91 119.78"><defs><style>.cls-1,.cls-2,.cls-5{fill:none;stroke-linecap:round;stroke-linejoin:round;}.cls-1{stroke:#f03;}.cls-2{stroke:#03f;}.cls-10,.cls-3,.cls-6,.cls-9{font-size:12px;}.cls-3{font-family:LinLibertine, Linux Libertine;}.cls-12,.cls-13,.cls-4{fill-rule:evenodd;}.cls-5{stroke:#000;stroke-width:0.52px;}.cls-11,.cls-6{font-family:Palatino-Roman, Palatino;}.cls-7{letter-spacing:0.1em;}.cls-10,.cls-8,.cls-9{font-family:LinLibertineI, Linux Libertine;}.cls-9{letter-spacing:0em;}.cls-12{fill:#f03;}.cls-13{fill:#03f;}.cls-14{fill:#fff;}</style></defs><title>mixerFrequencies2</title><g id="mixerFrequencies2"><line class="cls-1" x1="319.9" y1="111.64" x2="319.9" y2="54.77"/><line class="cls-1" x1="69.41" y1="111.64" x2="69.41" y2="92.68"/><line class="cls-2" x1="255.18" y1="111.64" x2="255.18" y2="73.73"/><line class="cls-2" x1="384.61" y1="111.64" x2="384.61" y2="73.73"/><text class="cls-3" transform="translate(415.24 114.25)">Frequency</text><polyline class="cls-4" points="409.4 111.71 402.46 109.03 405.96 111.71 402.46 114.25 409.4 111.71"/><polyline class="cls-4" points="5.07 15.9 2.39 22.84 5.07 19.34 7.61 22.84 5.07 15.9"/><line class="cls-5" x1="5" y1="111.64" x2="5" y2="18.47"/><text class="cls-6" transform="translate(282.94 27.31)">Carrier Signal<tspan class="cls-7" x="14.38" y="14.4">(</tspan><tspan class="cls-8" x="19.58" y="14.4">f</tspan></text><text class="cls-9" transform="translate(306.29 45.7) scale(0.58)">c</text><text class="cls-10" transform="translate(309.01 41.71)"><tspan xml:space="preserve"> or f</tspan></text><text class="cls-10" transform="translate(328.42 45.7) scale(0.58)">LO </text><text class="cls-6" transform="translate(338.47 41.71)">)</text><text class="cls-6" transform="translate(25.92 54.77)">Baseband Signal<tspan class="cls-7" x="22.22" y="14.4">(</tspan><tspan class="cls-8" x="27.42" y="14.4">f</tspan></text><text class="cls-10" transform="translate(57.11 73.17) scale(0.58)">b</text><text class="cls-10" transform="translate(60.45 69.17)"><tspan xml:space="preserve"> or f</tspan></text><text class="cls-9" transform="translate(79.86 73.17) scale(0.58)">IF </text><text class="cls-6" transform="translate(86.76 69.17)">)</text><text class="cls-10" transform="translate(241.57 56.45)">f</text><text class="cls-10" transform="translate(245.34 60.44) scale(0.58)">c</text><text class="cls-10" transform="translate(248.06 56.45)"> <tspan class="cls-11" x="3" y="0">− </tspan><tspan x="13.27" y="0">f</tspan></text><text class="cls-10" transform="translate(265.1 60.44) scale(0.58)">b</text><text class="cls-10" transform="translate(0.74 9.9)">A</text><polyline class="cls-12" points="69.52 89.22 66.84 96.16 69.52 92.65 72.06 96.16 69.52 89.22"/><polyline class="cls-12" points="319.96 51.3 317.28 58.24 319.96 54.74 322.51 58.24 319.96 51.3"/><polyline class="cls-13" points="255.07 70.26 252.39 77.2 255.07 73.69 257.61 77.2 255.07 70.26"/><polyline class="cls-13" points="384.68 70.26 382 77.2 384.68 73.69 387.22 77.2 384.68 70.26"/><text class="cls-10" transform="translate(371.17 56.45)">f</text><text class="cls-10" transform="translate(374.94 60.44) scale(0.58)">c</text><text class="cls-10" transform="translate(377.66 56.45)"> <tspan class="cls-11" x="3" y="0">+ </tspan><tspan x="13.27" y="0">f</tspan></text><text class="cls-10" transform="translate(394.7 60.44) scale(0.58)">b</text><rect class="cls-14" x="45.64" y="111.64" width="348.51" height="5.01"/><line class="cls-5" x1="5" y1="111.64" x2="405.96" y2="111.64"/></g></svg>