<svg id="Capa_1" data-name="Capa 1" xmlns="http://www.w3.org/2000/svg" viewBox="0 0 133.05 136.15"><defs><style>.cls-1{fill:#fff;fill-rule:evenodd;}.cls-2,.cls-3,.cls-4{fill:none;stroke-linecap:square;stroke-linejoin:bevel;stroke-width:0.52px;}.cls-2{stroke:silver;}.cls-3{stroke:#ccc;}.cls-4{stroke:#06c;}.cls-5{font-size:5.43px;letter-spacing:0.01em;}.cls-5,.cls-6{font-family:Palatino-Roman, Palatino;}.cls-6{font-size:12px;letter-spacing:0.01em;}</style></defs><title>isotropic</title><g id="isotropic"><polygon class="cls-1" points="109.12 68.5 109.1 69.89 109.05 71.27 108.96 72.65 108.84 74.01 108.68 75.37 108.49 76.71 108.27 78.04 108.01 79.36 107.72 80.67 107.4 81.97 107.04 83.25 106.66 84.52 106.24 85.78 105.8 87.02 105.32 88.25 104.82 89.47 104.29 90.67 103.72 91.85 103.13 93.01 102.52 94.16 101.87 95.3 101.2 96.41 100.5 97.51 99.78 98.58 99.03 99.64 98.25 100.69 97.46 101.7 96.63 102.7 95.79 103.69 94.92 104.64 94.03 105.58 93.11 106.5 92.17 107.39 91.21 108.26 90.23 109.1 89.23 109.93 88.21 110.73 87.17 111.5 86.11 112.25 85.04 112.97 83.94 113.67 82.83 114.34 81.69 114.99 80.54 115.6 79.38 116.19 78.19 116.76 77 117.29 75.78 117.79 74.55 118.27 73.31 118.71 72.05 119.13 70.78 119.51 69.5 119.87 68.2 120.19 66.89 120.48 65.57 120.73 64.24 120.96 62.9 121.15 61.54 121.31 60.18 121.43 58.8 121.52 57.42 121.57 56.03 121.59 54.64 121.57 53.25 121.52 51.88 121.43 50.51 121.31 49.16 121.15 47.82 120.96 46.48 120.73 45.16 120.48 43.85 120.19 42.56 119.87 41.27 119.51 40 119.13 38.74 118.71 37.5 118.27 36.27 117.79 35.06 117.29 33.86 116.76 32.68 116.19 31.51 115.6 30.36 114.99 29.23 114.34 28.12 113.67 27.02 112.97 25.94 112.25 24.88 111.5 23.84 110.73 22.82 109.93 21.82 109.1 20.84 108.26 19.88 107.39 18.95 106.5 18.03 105.58 17.14 104.64 16.27 103.69 15.42 102.7 14.6 101.7 13.8 100.69 13.03 99.64 12.28 98.58 11.55 97.51 10.86 96.41 10.18 95.3 9.54 94.16 8.92 93.01 8.33 91.85 7.77 90.67 7.24 89.47 6.73 88.25 6.26 87.02 5.81 85.78 5.4 84.52 5.01 83.25 4.66 81.97 4.34 80.67 4.05 79.36 3.79 78.04 3.57 76.71 3.38 75.37 3.22 74.01 3.1 72.65 3.01 71.27 2.95 69.89 2.94 68.5 2.95 67.11 3.01 65.72 3.1 64.35 3.22 62.98 3.38 61.63 3.57 60.29 3.79 58.95 4.05 57.63 4.34 56.33 4.66 55.03 5.01 53.74 5.4 52.47 5.81 51.22 6.26 49.97 6.73 48.74 7.24 47.53 7.77 46.33 8.33 45.15 8.92 43.98 9.54 42.83 10.18 41.7 10.86 40.59 11.55 39.49 12.28 38.41 13.03 37.35 13.8 36.31 14.6 35.29 15.42 34.29 16.27 33.31 17.14 32.35 18.03 31.42 18.95 30.5 19.88 29.61 20.84 28.74 21.82 27.89 22.82 27.07 23.84 26.27 24.88 25.5 25.94 24.75 27.02 24.02 28.12 23.33 29.23 22.65 30.36 22.01 31.51 21.39 32.68 20.8 33.86 20.24 35.06 19.71 36.27 19.2 37.5 18.73 38.74 18.28 40 17.87 41.27 17.48 42.56 17.13 43.85 16.81 45.16 16.52 46.48 16.26 47.82 16.04 49.16 15.85 50.51 15.69 51.88 15.57 53.25 15.48 54.64 15.42 56.03 15.41 57.42 15.42 58.8 15.48 60.18 15.57 61.54 15.69 62.9 15.85 64.24 16.04 65.57 16.26 66.89 16.52 68.2 16.81 69.5 17.13 70.78 17.48 72.05 17.87 73.31 18.28 74.55 18.73 75.78 19.2 77 19.71 78.19 20.24 79.38 20.8 80.54 21.39 81.69 22.01 82.83 22.65 83.94 23.33 85.04 24.02 86.11 24.75 87.17 25.5 88.21 26.27 89.23 27.07 90.23 27.89 91.21 28.74 92.17 29.61 93.11 30.5 94.03 31.42 94.92 32.35 95.79 33.31 96.63 34.29 97.46 35.29 98.25 36.31 99.03 37.35 99.78 38.41 100.5 39.49 101.2 40.59 101.87 41.7 102.52 42.83 103.13 43.98 103.72 45.15 104.29 46.33 104.82 47.53 105.32 48.74 105.8 49.97 106.24 51.22 106.66 52.47 107.04 53.74 107.4 55.03 107.72 56.33 108.01 57.63 108.27 58.95 108.49 60.29 108.68 61.63 108.84 62.98 108.96 64.35 109.05 65.72 109.1 67.11 109.12 68.5"/><line class="cls-2" x1="56.03" y1="68.5" x2="109.12" y2="68.5"/><line class="cls-2" x1="56.03" y1="68.5" x2="102.01" y2="41.95"/><line class="cls-2" x1="56.03" y1="68.5" x2="82.57" y2="22.52"/><line class="cls-3" x1="56.03" y1="68.5" x2="56.03" y2="15.41"/><line class="cls-2" x1="56.03" y1="68.5" x2="2.94" y2="68.5"/><line class="cls-2" x1="56.03" y1="68.5" x2="56.03" y2="121.59"/><line class="cls-2" x1="56.03" y1="68.5" x2="82.57" y2="114.48"/><line class="cls-2" x1="56.03" y1="68.5" x2="102.01" y2="95.04"/><line class="cls-2" x1="56.03" y1="68.5" x2="109.12" y2="68.5"/><circle class="cls-3" cx="56.03" cy="68.5" r="10.62"/><circle class="cls-3" cx="56.03" cy="68.5" r="21.24"/><circle class="cls-3" cx="56.03" cy="68.5" r="31.86"/><circle class="cls-3" cx="56.03" cy="68.5" r="42.47"/><polygon class="cls-4" points="109.12 68.5 109.1 69.89 109.05 71.27 108.96 72.65 108.84 74.01 108.68 75.37 108.49 76.71 108.27 78.04 108.01 79.36 107.72 80.67 107.4 81.97 107.04 83.25 106.66 84.52 106.24 85.78 105.8 87.02 105.32 88.25 104.82 89.47 104.29 90.67 103.72 91.85 103.13 93.01 102.52 94.16 101.87 95.3 101.2 96.41 100.5 97.51 99.78 98.58 99.03 99.64 98.25 100.69 97.46 101.7 96.63 102.7 95.79 103.69 94.92 104.64 94.03 105.58 93.11 106.5 92.17 107.39 91.21 108.26 90.23 109.1 89.23 109.93 88.21 110.73 87.17 111.5 86.11 112.25 85.04 112.97 83.94 113.67 82.83 114.34 81.69 114.99 80.54 115.6 79.38 116.19 78.19 116.76 77 117.29 75.78 117.79 74.55 118.27 73.31 118.71 72.05 119.13 70.78 119.51 69.5 119.87 68.2 120.19 66.89 120.48 65.57 120.73 64.24 120.96 62.9 121.15 61.54 121.31 60.18 121.43 58.8 121.52 57.42 121.57 56.03 121.59 54.64 121.57 53.25 121.52 51.88 121.43 50.51 121.31 49.16 121.15 47.82 120.96 46.48 120.73 45.16 120.48 43.85 120.19 42.56 119.87 41.27 119.51 40 119.13 38.74 118.71 37.5 118.27 36.27 117.79 35.06 117.29 33.86 116.76 32.68 116.19 31.51 115.6 30.36 114.99 29.23 114.34 28.12 113.67 27.02 112.97 25.94 112.25 24.88 111.5 23.84 110.73 22.82 109.93 21.82 109.1 20.84 108.26 19.88 107.39 18.95 106.5 18.03 105.58 17.14 104.64 16.27 103.69 15.42 102.7 14.6 101.7 13.8 100.69 13.03 99.64 12.28 98.58 11.55 97.51 10.86 96.41 10.18 95.3 9.54 94.16 8.92 93.01 8.33 91.85 7.77 90.67 7.24 89.47 6.73 88.25 6.26 87.02 5.81 85.78 5.4 84.52 5.01 83.25 4.66 81.97 4.34 80.67 4.05 79.36 3.79 78.04 3.57 76.71 3.38 75.37 3.22 74.01 3.1 72.65 3.01 71.27 2.95 69.89 2.94 68.5 2.95 67.11 3.01 65.72 3.1 64.35 3.22 62.98 3.38 61.63 3.57 60.29 3.79 58.95 4.05 57.63 4.34 56.33 4.66 55.03 5.01 53.74 5.4 52.47 5.81 51.22 6.26 49.97 6.73 48.74 7.24 47.53 7.77 46.33 8.33 45.15 8.92 43.98 9.54 42.83 10.18 41.7 10.86 40.59 11.55 39.49 12.28 38.41 13.03 37.35 13.8 36.31 14.6 35.29 15.42 34.29 16.27 33.31 17.14 32.35 18.03 31.42 18.95 30.5 19.88 29.61 20.84 28.74 21.82 27.89 22.82 27.07 23.84 26.27 24.88 25.5 25.94 24.75 27.02 24.02 28.12 23.33 29.23 22.65 30.36 22.01 31.51 21.39 32.68 20.8 33.86 20.24 35.06 19.71 36.27 19.2 37.5 18.73 38.74 18.28 40 17.87 41.27 17.48 42.56 17.13 43.85 16.81 45.16 16.52 46.48 16.26 47.82 16.04 49.16 15.85 50.51 15.69 51.88 15.57 53.25 15.48 54.64 15.42 56.03 15.41 57.42 15.42 58.8 15.48 60.18 15.57 61.54 15.69 62.9 15.85 64.24 16.04 65.57 16.26 66.89 16.52 68.2 16.81 69.5 17.13 70.78 17.48 72.05 17.87 73.31 18.28 74.55 18.73 75.78 19.2 77 19.71 78.19 20.24 79.38 20.8 80.54 21.39 81.69 22.01 82.83 22.65 83.94 23.33 85.04 24.02 86.11 24.75 87.17 25.5 88.21 26.27 89.23 27.07 90.23 27.89 91.21 28.74 92.17 29.61 93.11 30.5 94.03 31.42 94.92 32.35 95.79 33.31 96.63 34.29 97.46 35.29 98.25 36.31 99.03 37.35 99.78 38.41 100.5 39.49 101.2 40.59 101.87 41.7 102.52 42.83 103.13 43.98 103.72 45.15 104.29 46.33 104.82 47.53 105.32 48.74 105.8 49.97 106.24 51.22 106.66 52.47 107.04 53.74 107.4 55.03 107.72 56.33 108.01 57.63 108.27 58.95 108.49 60.29 108.68 61.63 108.84 62.98 108.96 64.35 109.05 65.72 109.1 67.11 109.12 68.5"/><text class="cls-5" transform="matrix(1.03, 0.24, -0.23, 0.97, 58.48, 45.14)">0.5</text><text class="cls-6" transform="translate(50.66 10.73) scale(1.06 1)">0º</text><text class="cls-6" transform="translate(44.2 133.33) scale(1.06 1)">180º</text><text class="cls-6" transform="translate(113.62 71.39) scale(1.06 1)">90º</text><text class="cls-6" transform="translate(76.05 126.64) scale(1.06 1)">150º</text><text class="cls-6" transform="translate(102.44 103.76) scale(1.06 1)">120º</text><text class="cls-6" transform="translate(104.25 41.78) scale(1.06 1)">60º</text><text class="cls-6" transform="translate(79.51 18.3) scale(1.06 1)">30º</text><text class="cls-5" transform="matrix(1.03, 0.24, -0.23, 0.97, 66.03, 25.51)">1</text><text class="cls-5" transform="matrix(1.03, 0.24, -0.23, 0.97, 69.09, 15.38)">0</text></g></svg>