<svg id="Capa_1" data-name="Capa 1" xmlns="http://www.w3.org/2000/svg" viewBox="0 0 133.05 136.15"><defs><style>.cls-1{fill:#fff;fill-rule:evenodd;}.cls-2,.cls-3,.cls-4,.cls-5{fill:none;stroke-width:0.52px;}.cls-2{stroke:silver;}.cls-2,.cls-3,.cls-5{stroke-linecap:square;stroke-linejoin:bevel;}.cls-3{stroke:#ccc;}.cls-4{stroke:#0072bd;stroke-linejoin:round;}.cls-5{stroke:#000;}.cls-6{font-size:5.43px;letter-spacing:0.01em;}.cls-6,.cls-7{font-family:Palatino-Roman, Palatino;}.cls-7{font-size:12px;letter-spacing:0.01em;}</style></defs><title>uniformLinearN4</title><g id="uniformLinearN4"><polygon class="cls-1" points="109.12 68.5 109.1 69.89 109.05 71.27 108.96 72.65 108.84 74.01 108.68 75.37 108.49 76.71 108.27 78.04 108.01 79.36 107.72 80.67 107.4 81.97 107.04 83.25 106.66 84.52 106.24 85.78 105.8 87.02 105.32 88.25 104.82 89.47 104.29 90.67 103.72 91.85 103.13 93.01 102.52 94.16 101.87 95.3 101.2 96.41 100.5 97.51 99.78 98.58 99.03 99.64 98.25 100.69 97.46 101.7 96.63 102.7 95.79 103.69 94.92 104.64 94.03 105.58 93.11 106.5 92.17 107.39 91.21 108.26 90.23 109.1 89.23 109.93 88.21 110.73 87.17 111.5 86.11 112.25 85.04 112.97 83.94 113.67 82.83 114.34 81.69 114.99 80.54 115.6 79.38 116.19 78.19 116.76 77 117.29 75.78 117.79 74.55 118.27 73.31 118.71 72.05 119.13 70.78 119.51 69.5 119.87 68.2 120.19 66.89 120.48 65.57 120.73 64.24 120.96 62.9 121.15 61.54 121.31 60.18 121.43 58.8 121.52 57.42 121.57 56.03 121.59 54.64 121.57 53.25 121.52 51.88 121.43 50.51 121.31 49.16 121.15 47.82 120.96 46.48 120.73 45.16 120.48 43.85 120.19 42.56 119.87 41.27 119.51 40 119.13 38.74 118.71 37.5 118.27 36.27 117.79 35.06 117.29 33.86 116.76 32.68 116.19 31.51 115.6 30.36 114.99 29.23 114.34 28.12 113.67 27.02 112.97 25.94 112.25 24.88 111.5 23.84 110.73 22.82 109.93 21.82 109.1 20.84 108.26 19.88 107.39 18.95 106.5 18.03 105.58 17.14 104.64 16.27 103.69 15.42 102.7 14.6 101.7 13.8 100.69 13.03 99.64 12.28 98.58 11.55 97.51 10.86 96.41 10.18 95.3 9.54 94.16 8.92 93.01 8.33 91.85 7.77 90.67 7.24 89.47 6.73 88.25 6.26 87.02 5.81 85.78 5.4 84.52 5.01 83.25 4.66 81.97 4.34 80.67 4.05 79.36 3.79 78.04 3.57 76.71 3.38 75.37 3.22 74.01 3.1 72.65 3.01 71.27 2.95 69.89 2.94 68.5 2.95 67.11 3.01 65.72 3.1 64.35 3.22 62.98 3.38 61.63 3.57 60.29 3.79 58.95 4.05 57.63 4.34 56.33 4.66 55.03 5.01 53.74 5.4 52.47 5.81 51.22 6.26 49.97 6.73 48.74 7.24 47.53 7.77 46.33 8.33 45.15 8.92 43.98 9.54 42.83 10.18 41.7 10.86 40.59 11.55 39.49 12.28 38.41 13.03 37.35 13.8 36.31 14.6 35.29 15.42 34.29 16.27 33.31 17.14 32.35 18.03 31.42 18.95 30.5 19.88 29.61 20.84 28.74 21.82 27.89 22.82 27.07 23.84 26.27 24.88 25.5 25.94 24.75 27.02 24.02 28.12 23.33 29.23 22.65 30.36 22.01 31.51 21.39 32.68 20.8 33.86 20.24 35.06 19.71 36.27 19.2 37.5 18.73 38.74 18.28 40 17.87 41.27 17.48 42.56 17.13 43.85 16.81 45.16 16.52 46.48 16.26 47.82 16.04 49.16 15.85 50.51 15.69 51.88 15.57 53.25 15.48 54.64 15.42 56.03 15.41 57.42 15.42 58.8 15.48 60.18 15.57 61.54 15.69 62.9 15.85 64.24 16.04 65.57 16.26 66.89 16.52 68.2 16.81 69.5 17.13 70.78 17.48 72.05 17.87 73.31 18.28 74.55 18.73 75.78 19.2 77 19.71 78.19 20.24 79.38 20.8 80.54 21.39 81.69 22.01 82.83 22.65 83.94 23.33 85.04 24.02 86.11 24.75 87.17 25.5 88.21 26.27 89.23 27.07 90.23 27.89 91.21 28.74 92.17 29.61 93.11 30.5 94.03 31.42 94.92 32.35 95.79 33.31 96.63 34.29 97.46 35.29 98.25 36.31 99.03 37.35 99.78 38.41 100.5 39.49 101.2 40.59 101.87 41.7 102.52 42.83 103.13 43.98 103.72 45.15 104.29 46.33 104.82 47.53 105.32 48.74 105.8 49.97 106.24 51.22 106.66 52.47 107.04 53.74 107.4 55.03 107.72 56.33 108.01 57.63 108.27 58.95 108.49 60.29 108.68 61.63 108.84 62.98 108.96 64.35 109.05 65.72 109.1 67.11 109.12 68.5"/><line class="cls-2" x1="56.03" y1="68.5" x2="109.12" y2="68.5"/><line class="cls-2" x1="56.03" y1="68.5" x2="102.01" y2="41.95"/><line class="cls-2" x1="56.03" y1="68.5" x2="82.57" y2="22.52"/><line class="cls-3" x1="56.03" y1="68.5" x2="56.03" y2="15.41"/><line class="cls-2" x1="56.03" y1="68.5" x2="2.94" y2="68.5"/><line class="cls-2" x1="56.03" y1="68.5" x2="56.03" y2="121.59"/><line class="cls-2" x1="56.03" y1="68.5" x2="82.57" y2="114.48"/><line class="cls-2" x1="56.03" y1="68.5" x2="102.01" y2="95.04"/><line class="cls-2" x1="56.03" y1="68.5" x2="109.12" y2="68.5"/><circle class="cls-3" cx="56.03" cy="68.5" r="10.62"/><circle class="cls-3" cx="56.03" cy="68.5" r="21.24"/><circle class="cls-3" cx="56.03" cy="68.5" r="31.86"/><circle class="cls-3" cx="56.03" cy="68.5" r="42.47"/><path class="cls-4" d="M56,68.26h0v.62l0,.06v.07l0,.07v.08l0,.08,0,.08,0,.08,0,.09,0,.09,0,.09,0,.1,0,.1,0,.1,0,.1,0,.11,0,.11,0,.11,0,.12,0,.11-.05.12,0,.12,0,.13-.06.12-.05.13-.06.13-.06.13-.06.14-.07.13-.07.14-.07.14-.07.14-.08.15-.08.14-.08.15-.08.14-.09.15-.09.15-.09.15-.1.15-.1.15-.1.16-.1.15L53.6,74l-.1.16-.11.15-.12.16-.11.15L53,74.8l-.12.16-.13.15-.12.15-.13.15-.13.16-.13.15-.14.14L52,76l-.13.15-.15.14-.14.15-.14.14-.15.13-.15.14L51,77l-.15.13-.16.13-.15.12-.15.12-.15.12-.16.12-.15.11-.16.11-.15.11-.16.1-.15.09-.16.1-.15.08-.16.09-.15.07-.15.08-.15.06-.14.07-.15,0-.14,0-.14,0-.14,0-.13,0-.14,0-.12,0h-.48l-.1,0-.1,0-.1,0-.09,0-.08,0-.08,0-.07-.06-.07-.07,0-.07,0-.08,0-.09,0-.09,0-.11V78l0-.14,0-.14,0-.15,0-.16.06-.16.07-.18.08-.18.09-.19.1-.19.12-.21.13-.21.14-.21.16-.23.17-.23.18-.23.2-.25.21-.25.22-.25.25-.27.25-.26.27-.28.29-.27.3-.29.32-.28.33-.3.35-.29.36-.3.38-.31.4-.3.41-.31.43-.31.45-.32L53.2,70l.48-.31.49-.32.51-.32.52-.33.54-.32h0l-.57.32-.59.32-.6.32-.62.32-.63.31-.65.32-.66.31-.67.3-.69.3-.7.3-.72.3-.72.29-.74.28-.75.28-.77.27-.77.27-.78.26-.79.25-.81.25-.81.24-.82.23-.82.22-.84.21-.84.2-.85.2-.85.18-.85.18-.86.16L34.1,76l-.86.14-.87.13-.87.13-.87.11-.87.1-.86.08-.87.08-.86.06-.86,0-.86,0-.85,0H22.09l-.82,0-.82,0-.8-.05-.79-.06-.79-.07-.77-.08-.75-.1-.75-.11-.72-.12-.72-.13-.7-.14L13,75.85l-.66-.16-.65-.18L11,75.32l-.61-.2-.59-.2-.56-.22-.55-.23-.53-.24L7.7,74l-.48-.26-.46-.26-.43-.27-.41-.28-.38-.28-.36-.29-.34-.3-.3-.3-.29-.31L4,71.13l-.23-.32-.2-.32-.17-.32-.15-.33-.12-.33L3,69.18,3,68.85l0-.34v-.33l0-.33,0-.34.07-.33.11-.33.13-.33.16-.32.19-.33.21-.31.24-.32.27-.31.3-.31.32-.3L5.35,64l.38-.29.39-.28.42-.27L7,62.92l.47-.26L8,62.41l.51-.24L9,61.94l.56-.22.58-.21.6-.21.61-.19.64-.18.66-.17.67-.16.69-.15.71-.14.72-.13.73-.11.75-.1.77-.09.77-.08.79-.07.8,0,.81,0,.82,0,.82,0h1.68l.85,0,.85,0,.86.05.86,0,.86.07.87.09.87.09.87.1.87.12.86.13.87.14.86.14.87.16.86.17.85.18.85.19.84.2.84.21.83.22.82.22.82.24.81.24.79.25.79.26.78.26.77.27.75.27.75.29.73.28.72.3.71.29.69.3.69.31.66.3.66.32.64.31.62.32.61.31.6.32.57.32.57.32-.55-.32-.53-.32-.52-.32-.5-.32-.49-.32L53,66.34,52.51,66l-.43-.32-.42-.31-.41-.31-.39-.3-.37-.3-.36-.3-.34-.29-.32-.29-.31-.29-.3-.28-.27-.27-.27-.28-.25-.26L47.84,62l-.22-.25-.2-.25-.19-.24L47.05,61l-.16-.23-.15-.22-.14-.21-.12-.21-.11-.2-.1-.19-.08-.19-.08-.17-.06-.17L46,59l0-.15,0-.15,0-.13v-.37l0-.11,0-.1,0-.09,0-.09.05-.07.06-.07.07-.06.08-.06.08,0,.08,0,.1,0,.1,0h.56l.13,0,.13,0,.13,0,.14,0,.14,0,.14,0,.14,0,.15.06.15.07.15.07.15.07.15.08.15.09.16.09.15.09.16.1.15.1.16.11.15.11.16.11.15.12.16.12.15.13.15.12.15.13.15.14.15.13.14.14.15.14.14.14.15.15.14.14.13.15.14.15.13.15.13.15.13.15.13.15.13.15.12.16.12.15.11.15.12.16.11.15.11.16.11.15.1.15.1.16L54,63l.1.15.09.15.09.15.09.15.09.15.08.14.08.15.08.14.07.14.08.14.07.14.06.14.07.14.06.13.06.13.06.13.05.13,0,.12.05.12,0,.12,0,.12,0,.12,0,.11,0,.11,0,.11,0,.1,0,.11,0,.1,0,.09,0,.1,0,.09,0,.09,0,.08,0,.09,0,.08,0,.07v.08l0,.07v.72h0V67.7l0-.06v-.13l0-.07v-.08l0-.07,0-.08,0-.09,0-.08,0-.09,0-.09,0-.1,0-.09,0-.1,0-.11,0-.1,0-.11,0-.11.05-.11,0-.12,0-.12,0-.12.05-.12.06-.12.05-.13.06-.13L57,65l.06-.13.06-.14.07-.14.07-.14.07-.14.08-.14.08-.14.08-.15.08-.14.09-.15.08-.15.09-.15.1-.15.09-.15.1-.15.11-.16.1-.15.11-.15.11-.16.11-.15.11-.16.12-.15.12-.15.12-.16.13-.15.12-.15.13-.15.14-.15.13-.15.13-.15.14-.15.14-.14.14-.15.15-.14.14-.14.15-.14L61,59.6l.15-.14.15-.13.15-.12.15-.13.16-.12.15-.12.15-.11.16-.11.15-.11.16-.1.15-.1.16-.09.15-.09.16-.09.15-.08.15-.07.15-.07.15-.07.14-.06.15,0,.14,0,.14,0,.14,0,.13,0,.13,0,.13,0h.56l.1,0,.09,0,.09,0,.08,0,.08.06.06.06.06.07.06.07,0,.09,0,.09,0,.1,0,.11v.37l0,.13,0,.15L66,59l-.05.17-.06.17-.08.17-.08.19-.1.19-.11.2-.12.21-.14.21-.15.22L65,61l-.18.23-.19.24-.2.25L64.2,62l-.24.26-.24.26-.27.28-.28.27-.29.28-.31.29-.32.29-.35.29-.35.3-.37.3-.39.3-.41.31-.42.31-.44.32-.45.31-.47.32-.48.32-.5.32-.52.32-.53.32-.55.32.56-.32.58-.32.6-.32.61-.31.62-.32.64-.31.65-.32.67-.3.68-.31.7-.3.71-.29.72-.3.73-.28.74-.29L66,63.7l.77-.27.78-.26.78-.26.8-.25.81-.24.81-.24.83-.22.83-.22.84-.21.84-.2.85-.19.85-.18.86-.17.86-.16.87-.14.86-.14.87-.13L81,60.1l.87-.1.87-.09.87-.09.86-.07.86,0,.86-.05.85,0,.85,0h1.67l.83,0,.82,0,.81,0,.8,0,.78.07.78.08.76.09.75.1.74.11.72.13.71.14.69.15.67.16.66.17.63.18.62.19.6.21.58.21.56.22.53.23.52.24.49.25.47.26.44.27.43.27.39.28.37.29.35.29.32.3.3.31.26.31.25.32.21.31.19.33.16.32.13.33.11.33.07.33,0,.34,0,.33v.33l0,.34-.06.33-.09.33-.12.33-.15.33-.17.32-.2.32-.23.32-.26.31-.28.31-.31.3-.33.3-.36.29-.38.28-.41.28-.44.27-.45.26-.48.26-.51.24-.52.24-.55.23-.57.22-.59.2-.6.2-.63.19-.65.18-.66.16-.69.16-.69.14-.72.13-.73.12-.74.11-.76.1-.77.08-.78.07-.79.06-.81.05-.81,0-.82,0H87.44l-.85,0-.86,0-.86,0L84,76.74l-.87-.08-.87-.08-.86-.1-.87-.11-.87-.13-.87-.13L77.93,76l-.86-.16-.86-.16-.85-.18-.86-.18-.84-.2-.84-.2L72,74.68l-.83-.22-.81-.23L69.52,74l-.8-.25-.79-.25-.78-.26L66.37,73l-.76-.27-.75-.28-.74-.28-.73-.29-.71-.3-.7-.3-.69-.3-.67-.3L60,70.33,59.31,70l-.63-.31-.62-.32-.6-.32-.59-.32-.57-.32h0l.54.32.52.33.51.32.49.32.48.31.46.32.45.32.42.31.42.31.39.3.38.31.37.3.35.29.33.3.32.28.3.29.29.27.27.28.25.26.24.27.23.25.21.25.2.25.18.23.17.23.16.23.14.21.13.21.12.21.1.19.09.19.08.18.07.18.06.16,0,.16,0,.15,0,.14v.49l0,.11,0,.09,0,.09,0,.08-.06.07-.06.07-.07.06-.08,0-.08,0-.09,0-.1,0-.1,0-.11,0h-.47l-.13,0-.13,0-.13,0-.14,0-.14,0-.14,0-.15,0-.15-.07-.14-.06-.16-.08-.15-.07L63,78.44l-.15-.08-.16-.1-.15-.09-.16-.1L62.27,78l-.16-.11L62,77.74l-.16-.12-.15-.12-.15-.12-.16-.12-.15-.13L61,77l-.15-.14-.14-.14-.15-.13-.14-.14-.15-.15-.14-.14L60,76l-.13-.15-.14-.14-.13-.15-.13-.16-.13-.15-.13-.15L59.12,75,59,74.8l-.12-.15-.11-.15-.12-.16-.11-.15L58.43,74l-.1-.15-.11-.15-.1-.16L58,73.42l-.1-.15-.09-.15L57.75,73l-.09-.15-.08-.14-.08-.15-.08-.14-.08-.15-.07-.14L57.2,72l-.07-.14-.07-.13L57,71.55l-.06-.13-.06-.13-.06-.13,0-.12-.05-.13,0-.12-.05-.12,0-.11,0-.12,0-.11,0-.11,0-.11,0-.1,0-.1,0-.1,0-.1,0-.09,0-.09,0-.09,0-.08,0-.08,0-.08,0-.08v-.07l0-.07V68.3h0"/><polygon class="cls-5" points="109.12 68.5 109.1 69.89 109.05 71.27 108.96 72.65 108.84 74.01 108.68 75.37 108.49 76.71 108.27 78.04 108.01 79.36 107.72 80.67 107.4 81.97 107.04 83.25 106.66 84.52 106.24 85.78 105.8 87.02 105.32 88.25 104.82 89.47 104.29 90.67 103.72 91.85 103.13 93.01 102.52 94.16 101.87 95.3 101.2 96.41 100.5 97.51 99.78 98.58 99.03 99.64 98.25 100.69 97.46 101.7 96.63 102.7 95.79 103.69 94.92 104.64 94.03 105.58 93.11 106.5 92.17 107.39 91.21 108.26 90.23 109.1 89.23 109.93 88.21 110.73 87.17 111.5 86.11 112.25 85.04 112.97 83.94 113.67 82.83 114.34 81.69 114.99 80.54 115.6 79.38 116.19 78.19 116.76 77 117.29 75.78 117.79 74.55 118.27 73.31 118.71 72.05 119.13 70.78 119.51 69.5 119.87 68.2 120.19 66.89 120.48 65.57 120.73 64.24 120.96 62.9 121.15 61.54 121.31 60.18 121.43 58.8 121.52 57.42 121.57 56.03 121.59 54.64 121.57 53.25 121.52 51.88 121.43 50.51 121.31 49.16 121.15 47.82 120.96 46.48 120.73 45.16 120.48 43.85 120.19 42.56 119.87 41.27 119.51 40 119.13 38.74 118.71 37.5 118.27 36.27 117.79 35.06 117.29 33.86 116.76 32.68 116.19 31.51 115.6 30.36 114.99 29.23 114.34 28.12 113.67 27.02 112.97 25.94 112.25 24.88 111.5 23.84 110.73 22.82 109.93 21.82 109.1 20.84 108.26 19.88 107.39 18.95 106.5 18.03 105.58 17.14 104.64 16.27 103.69 15.42 102.7 14.6 101.7 13.8 100.69 13.03 99.64 12.28 98.58 11.55 97.51 10.86 96.41 10.18 95.3 9.54 94.16 8.92 93.01 8.33 91.85 7.77 90.67 7.24 89.47 6.73 88.25 6.26 87.02 5.81 85.78 5.4 84.52 5.01 83.25 4.66 81.97 4.34 80.67 4.05 79.36 3.79 78.04 3.57 76.71 3.38 75.37 3.22 74.01 3.1 72.65 3.01 71.27 2.95 69.89 2.94 68.5 2.95 67.11 3.01 65.72 3.1 64.35 3.22 62.98 3.38 61.63 3.57 60.29 3.79 58.95 4.05 57.63 4.34 56.33 4.66 55.03 5.01 53.74 5.4 52.47 5.81 51.22 6.26 49.97 6.73 48.74 7.24 47.53 7.77 46.33 8.33 45.15 8.92 43.98 9.54 42.83 10.18 41.7 10.86 40.59 11.55 39.49 12.28 38.41 13.03 37.35 13.8 36.31 14.6 35.29 15.42 34.29 16.27 33.31 17.14 32.35 18.03 31.42 18.95 30.5 19.88 29.61 20.84 28.74 21.82 27.89 22.82 27.07 23.84 26.27 24.88 25.5 25.94 24.75 27.02 24.02 28.12 23.33 29.23 22.65 30.36 22.01 31.51 21.39 32.68 20.8 33.86 20.24 35.06 19.71 36.27 19.2 37.5 18.73 38.74 18.28 40 17.87 41.27 17.48 42.56 17.13 43.85 16.81 45.16 16.52 46.48 16.26 47.82 16.04 49.16 15.85 50.51 15.69 51.88 15.57 53.25 15.48 54.64 15.42 56.03 15.41 57.42 15.42 58.8 15.48 60.18 15.57 61.54 15.69 62.9 15.85 64.24 16.04 65.57 16.26 66.89 16.52 68.2 16.81 69.5 17.13 70.78 17.48 72.05 17.87 73.31 18.28 74.55 18.73 75.78 19.2 77 19.71 78.19 20.24 79.38 20.8 80.54 21.39 81.69 22.01 82.83 22.65 83.94 23.33 85.04 24.02 86.11 24.75 87.17 25.5 88.21 26.27 89.23 27.07 90.23 27.89 91.21 28.74 92.17 29.61 93.11 30.5 94.03 31.42 94.92 32.35 95.79 33.31 96.63 34.29 97.46 35.29 98.25 36.31 99.03 37.35 99.78 38.41 100.5 39.49 101.2 40.59 101.87 41.7 102.52 42.83 103.13 43.98 103.72 45.15 104.29 46.33 104.82 47.53 105.32 48.74 105.8 49.97 106.24 51.22 106.66 52.47 107.04 53.74 107.4 55.03 107.72 56.33 108.01 57.63 108.27 58.95 108.49 60.29 108.68 61.63 108.84 62.98 108.96 64.35 109.05 65.72 109.1 67.11 109.12 68.5"/><text class="cls-6" transform="matrix(1.03, 0.24, -0.23, 0.97, 58.48, 45.14)">0.5</text><text class="cls-7" transform="translate(50.66 10.73) scale(1.06 1)">0º</text><text class="cls-7" transform="translate(44.2 133.33) scale(1.06 1)">180º</text><text class="cls-7" transform="translate(113.62 71.39) scale(1.06 1)">90º</text><text class="cls-7" transform="translate(76.05 126.64) scale(1.06 1)">150º</text><text class="cls-7" transform="translate(102.44 103.76) scale(1.06 1)">120º</text><text class="cls-7" transform="translate(104.25 41.78) scale(1.06 1)">60º</text><text class="cls-7" transform="translate(79.51 18.3) scale(1.06 1)">30º</text><text class="cls-6" transform="matrix(1.03, 0.24, -0.23, 0.97, 66.03, 25.51)">1</text><text class="cls-6" transform="matrix(1.03, 0.24, -0.23, 0.97, 69.09, 15.38)">0</text></g></svg>