<svg id="Capa_1" data-name="Capa 1" xmlns="http://www.w3.org/2000/svg" viewBox="0 0 133.05 136.15"><defs><style>.cls-1{fill:#fff;fill-rule:evenodd;}.cls-2,.cls-3,.cls-4,.cls-5{fill:none;stroke-width:0.52px;}.cls-2{stroke:silver;}.cls-2,.cls-3,.cls-5{stroke-linecap:square;stroke-linejoin:bevel;}.cls-3{stroke:#ccc;}.cls-4{stroke:#0072bd;stroke-linejoin:round;}.cls-5{stroke:#000;}.cls-6{font-size:5.43px;letter-spacing:0.01em;}.cls-6,.cls-7{font-family:Palatino-Roman, Palatino;}.cls-7{font-size:12px;letter-spacing:0.01em;}</style></defs><title>uniformLinearN10</title><g id="uniformLinearN10"><polygon class="cls-1" points="109.12 68.5 109.1 69.89 109.05 71.27 108.96 72.65 108.84 74.01 108.68 75.37 108.49 76.71 108.27 78.04 108.01 79.36 107.72 80.67 107.4 81.97 107.04 83.25 106.66 84.52 106.24 85.78 105.8 87.02 105.32 88.25 104.82 89.47 104.29 90.67 103.72 91.85 103.13 93.01 102.52 94.16 101.87 95.3 101.2 96.41 100.5 97.51 99.78 98.58 99.03 99.64 98.25 100.69 97.46 101.7 96.63 102.7 95.79 103.69 94.92 104.64 94.03 105.58 93.11 106.5 92.17 107.39 91.21 108.26 90.23 109.1 89.23 109.93 88.21 110.73 87.17 111.5 86.11 112.25 85.04 112.97 83.94 113.67 82.83 114.34 81.69 114.99 80.54 115.6 79.38 116.19 78.19 116.76 77 117.29 75.78 117.79 74.55 118.27 73.31 118.71 72.05 119.13 70.78 119.51 69.5 119.87 68.2 120.19 66.89 120.48 65.57 120.73 64.24 120.96 62.9 121.15 61.54 121.31 60.18 121.43 58.8 121.52 57.42 121.57 56.03 121.59 54.64 121.57 53.25 121.52 51.88 121.43 50.51 121.31 49.16 121.15 47.82 120.96 46.48 120.73 45.16 120.48 43.85 120.19 42.56 119.87 41.27 119.51 40 119.13 38.74 118.71 37.5 118.27 36.27 117.79 35.06 117.29 33.86 116.76 32.68 116.19 31.51 115.6 30.36 114.99 29.23 114.34 28.12 113.67 27.02 112.97 25.94 112.25 24.88 111.5 23.84 110.73 22.82 109.93 21.82 109.1 20.84 108.26 19.88 107.39 18.95 106.5 18.03 105.58 17.14 104.64 16.27 103.69 15.42 102.7 14.6 101.7 13.8 100.69 13.03 99.64 12.28 98.58 11.55 97.51 10.86 96.41 10.18 95.3 9.54 94.16 8.92 93.01 8.33 91.85 7.77 90.67 7.24 89.47 6.73 88.25 6.26 87.02 5.81 85.78 5.4 84.52 5.01 83.25 4.66 81.97 4.34 80.67 4.05 79.36 3.79 78.04 3.57 76.71 3.38 75.37 3.22 74.01 3.1 72.65 3.01 71.27 2.95 69.89 2.94 68.5 2.95 67.11 3.01 65.72 3.1 64.35 3.22 62.98 3.38 61.63 3.57 60.29 3.79 58.95 4.05 57.63 4.34 56.33 4.66 55.03 5.01 53.74 5.4 52.47 5.81 51.22 6.26 49.97 6.73 48.74 7.24 47.53 7.77 46.33 8.33 45.15 8.92 43.98 9.54 42.83 10.18 41.7 10.86 40.59 11.55 39.49 12.28 38.41 13.03 37.35 13.8 36.31 14.6 35.29 15.42 34.29 16.27 33.31 17.14 32.35 18.03 31.42 18.95 30.5 19.88 29.61 20.84 28.74 21.82 27.89 22.82 27.07 23.84 26.27 24.88 25.5 25.94 24.75 27.02 24.02 28.12 23.33 29.23 22.65 30.36 22.01 31.51 21.39 32.68 20.8 33.86 20.24 35.06 19.71 36.27 19.2 37.5 18.73 38.74 18.28 40 17.87 41.27 17.48 42.56 17.13 43.85 16.81 45.16 16.52 46.48 16.26 47.82 16.04 49.16 15.85 50.51 15.69 51.88 15.57 53.25 15.48 54.64 15.42 56.03 15.41 57.42 15.42 58.8 15.48 60.18 15.57 61.54 15.69 62.9 15.85 64.24 16.04 65.57 16.26 66.89 16.52 68.2 16.81 69.5 17.13 70.78 17.48 72.05 17.87 73.31 18.28 74.55 18.73 75.78 19.2 77 19.71 78.19 20.24 79.38 20.8 80.54 21.39 81.69 22.01 82.83 22.65 83.94 23.33 85.04 24.02 86.11 24.75 87.17 25.5 88.21 26.27 89.23 27.07 90.23 27.89 91.21 28.74 92.17 29.61 93.11 30.5 94.03 31.42 94.92 32.35 95.79 33.31 96.63 34.29 97.46 35.29 98.25 36.31 99.03 37.35 99.78 38.41 100.5 39.49 101.2 40.59 101.87 41.7 102.52 42.83 103.13 43.98 103.72 45.15 104.29 46.33 104.82 47.53 105.32 48.74 105.8 49.97 106.24 51.22 106.66 52.47 107.04 53.74 107.4 55.03 107.72 56.33 108.01 57.63 108.27 58.95 108.49 60.29 108.68 61.63 108.84 62.98 108.96 64.35 109.05 65.72 109.1 67.11 109.12 68.5"/><line class="cls-2" x1="56.03" y1="68.5" x2="109.12" y2="68.5"/><line class="cls-2" x1="56.03" y1="68.5" x2="102.01" y2="41.95"/><line class="cls-2" x1="56.03" y1="68.5" x2="82.57" y2="22.52"/><line class="cls-3" x1="56.03" y1="68.5" x2="56.03" y2="15.41"/><line class="cls-2" x1="56.03" y1="68.5" x2="2.94" y2="68.5"/><line class="cls-2" x1="56.03" y1="68.5" x2="56.03" y2="121.59"/><line class="cls-2" x1="56.03" y1="68.5" x2="82.57" y2="114.48"/><line class="cls-2" x1="56.03" y1="68.5" x2="102.01" y2="95.04"/><line class="cls-2" x1="56.03" y1="68.5" x2="109.12" y2="68.5"/><circle class="cls-3" cx="56.03" cy="68.5" r="10.62"/><circle class="cls-3" cx="56.03" cy="68.5" r="21.24"/><circle class="cls-3" cx="56.03" cy="68.5" r="31.86"/><circle class="cls-3" cx="56.03" cy="68.5" r="42.47"/><path class="cls-4" d="M56,68.71h0v0h0v.6l0,.06v.07l0,.07v.08l0,.07,0,.08,0,.09,0,.08,0,.09,0,.09,0,.09,0,.1,0,.09,0,.1,0,.1,0,.1,0,.11,0,.1,0,.11,0,.11,0,.11-.05.1,0,.11,0,.11-.05.11,0,.11-.06.11L55,72l-.06.1-.06.11-.06.1-.06.11-.06.1-.06.09-.06.1-.06.09-.07.08-.06.09-.06.08-.06.07-.06.07-.06.06-.06.06,0,0-.06,0,0,0-.05,0,0,0,0,0h-.11l0,0,0,0v0l0,0v-.3l0-.1,0-.11,0-.12,0-.13,0-.14.06-.15.07-.16L54,72l.08-.18.1-.19.1-.2.11-.21.12-.22.13-.22.14-.24.15-.24.16-.24.16-.25.18-.26.18-.26.18-.26.2-.26-.08.1-.2.26-.21.26-.22.27L55,70l-.22.25-.22.25-.22.24-.22.24-.22.23-.21.22-.21.2-.21.2-.19.18-.19.17-.19.15-.17.14-.15.12-.15.11-.13.09L52,72.8l-.09,0-.08,0h-.11v-.09l0-.08,0-.09.08-.12.09-.14.13-.15.15-.18.17-.19.2-.21.22-.23.25-.24.27-.25.3-.27.32-.28.33-.29.36-.3.38-.3.39-.31.4-.31-.06,0-.42.31-.43.31-.44.3-.44.29-.43.29-.43.27-.42.26-.42.25L52,71.4l-.38.21-.36.19-.34.17-.3.14-.28.13-.24.09-.21.08-.16,0-.13,0h-.08l0,0,0-.06.06-.09.12-.12.17-.14.23-.17.28-.19.33-.21L51,71.2l.44-.25.48-.27.54-.29.57-.29.63-.31.66-.32.69-.32.73-.33-.28.12-.77.32-.79.32-.8.31-.81.31-.8.28-.79.28L50,71l-.75.23-.72.22-.68.19-.64.16-.58.14-.52.11-.45.08-.38,0-.3,0h-.21l-.12,0,0-.07.09-.11.2-.13.3-.16.43-.19.54-.21.67-.24.78-.25.91-.28,1-.29,1.16-.31L52,69.61l1.38-.32,1.5-.33.73-.16-1.7.33-1.81.33-1.89.32-2,.31-2,.3-2.11.28-2.16.26-2.2.24-2.24.22-2.25.19-2.27.16-2.26.14-2.25.1-2.23.08L24,72.1H21.88l-2.07,0-2,0-1.92-.09-1.81-.12-1.71-.15-1.6-.18-1.46-.2L8,71.06l-1.19-.25-1-.28-.88-.29-.72-.3-.56-.32-.39-.32L3,69l0-.33.13-.33.3-.33.47-.32.64-.31.8-.3,1-.28,1.12-.27,1.26-.24L10,66l1.53-.2,1.66-.16L15,65.55l1.87-.11,2-.07,2,0h2.11l2.16,0,2.21.05,2.24.09,2.26.12,2.26.15,2.27.18,2.24.21,2.23.23,2.18.25,2.13.27,2.08.29,2,.3,1.93.32,1.85.32,1.75.33.9.18-1.55-.34L52.65,68l-1.33-.33-1.21-.31L49,67l-1-.28-.84-.27-.73-.25-.6-.22-.49-.2L45,65.64l-.26-.14-.14-.12,0-.09.07-.06.16,0h.26l.34,0,.41.06.49.1.56.12.61.15.66.18.7.21.74.22.76.25.78.26.8.29.81.29.8.31.8.32.78.32.76.33-.47-.21-.71-.33L54,67.8l-.64-.31-.6-.31-.56-.29-.51-.28-.46-.26-.41-.25-.35-.22-.31-.2-.25-.18-.2-.16-.14-.13-.1-.1,0-.08v0l.06,0h.1l.14,0,.19.06.22.08.26.11.3.14.32.15.34.18.37.21.39.22.41.23.42.26.42.26.44.28.43.29.44.3.43.31.43.3.42.31-.35-.27-.4-.31-.38-.3-.37-.3-.35-.3-.32-.28-.31-.27-.28-.27L53,66.14l-.24-.23-.21-.22-.19-.2-.16-.19L52,65.14,51.92,65l-.08-.12-.06-.11,0-.09,0-.06v0l0,0h.05l.07,0,.09,0,.11.06.12.07.14.1.15.11.17.13.17.15.19.16.19.18.21.19.2.2.21.21.22.22.22.24.22.24.22.24.22.25.22.26.21.26.21.27.21.26.2.26-.12-.16-.19-.26L55.49,68l-.18-.26-.17-.25L55,67.22,54.83,67l-.15-.23-.13-.23-.13-.22-.11-.22-.11-.2-.1-.2L54,65.48l-.08-.17-.07-.17L53.79,65l0-.14-.05-.14,0-.13,0-.11,0-.11,0-.09v-.32l0,0,0,0,0,0h.12l0,0,0,0,0,0L54,64l0,0,.06,0,.06.06.06.07.06.07.06.08.06.08.07.09.06.09.06.09.06.09.06.1.06.1.06.11.06.1.06.11,0,.1.06.11,0,.11.06.11,0,.11.05.11,0,.11,0,.11,0,.1.05.11,0,.11,0,.1,0,.1,0,.11,0,.1,0,.09,0,.1,0,.09,0,.09,0,.09,0,.09,0,.08,0,.08,0,.08,0,.08v.07l0,.07v.72h0v-.52l0-.07V68l0-.07v-.07l0-.08,0-.08,0-.08,0-.08,0-.09,0-.09,0-.09,0-.09,0-.1,0-.09,0-.1,0-.11,0-.1,0-.1,0-.11,0-.11.05-.1,0-.11,0-.11.05-.11,0-.11,0-.11.06-.11.05-.11.06-.1.06-.11.06-.1,0-.11.07-.1.06-.1.06-.09.06-.09.06-.09.06-.09.07-.08.06-.08.06-.07.06-.07.06-.06,0,0L58,64l.05,0,0,0,0,0,.05,0h.11l0,0,0,0,0,0,0,.05v.36l0,.11,0,.11,0,.13-.05.14-.06.14-.06.16-.07.17-.08.17-.09.19-.1.2-.11.2-.11.22-.13.22-.14.23-.14.23-.15.25-.16.25-.17.25-.18.26-.18.26-.19.26-.12.16.2-.26.21-.26.21-.27.21-.26.22-.26.22-.25.22-.24.22-.24.22-.24.21-.22.22-.21.2-.2.2-.19.2-.18.18-.16.18-.15.16-.13.16-.11.13-.1.13-.07.1-.06.09,0,.07,0h.06l0,0v.1l0,.09-.06.11-.08.12-.12.15-.13.16-.16.19-.19.2-.21.22-.24.23-.26.25-.28.27-.31.27-.33.28-.34.3-.37.3-.38.3-.4.31-.35.27.42-.31.42-.3.44-.31.43-.3.44-.29.43-.28.43-.26.42-.26.4-.23.39-.22.37-.21.35-.18.32-.15.29-.14.26-.11.23-.08.18-.06.15,0h.1l.06,0v0l-.05.08-.09.1-.14.13-.2.16-.25.18-.31.2-.36.22-.4.25-.47.26-.51.28-.55.29-.6.31L58,67.8l-.68.32-.71.33-.48.21.77-.33L57.7,68l.8-.32.8-.31.81-.29.79-.29.79-.26.76-.25.74-.22.7-.21.66-.18.61-.15.55-.12.49-.1.42-.06.34,0h.26l.16,0,.07.06,0,.09-.14.12-.25.14-.36.18-.49.2-.6.22-.73.25-.85.27L63,67l-1.09.3-1.21.31L59.39,68,58,68.3l-1.55.34.9-.18,1.75-.33,1.85-.32,1.93-.32,2-.3,2.07-.29,2.14-.27,2.18-.25,2.22-.23,2.25-.21L78,65.76l2.27-.15,2.26-.12,2.24-.09,2.2-.05,2.17,0h2.1l2,0,2,.07,1.87.11,1.76.13,1.65.16L102,66l1.41.21,1.26.24,1.11.27,1,.28.8.3.64.31.47.32.3.33.13.33,0,.33-.22.34-.38.32-.56.32-.72.3-.89.29-1,.28-1.19.25-1.33.23-1.47.2-1.59.18L98,71.82l-1.82.12L94.23,72l-2,0-2.07,0H88l-2.18,0L83.61,72l-2.25-.1-2.26-.14-2.27-.16-2.26-.19-2.23-.22-2.2-.24L68,70.67l-2.11-.28-2.05-.3-2-.31L60,69.46l-1.8-.33-1.71-.33.74.16,1.5.33,1.38.32,1.27.32,1.15.31,1,.29.91.28.79.25.66.24.55.21.42.19.31.16.2.13.09.11,0,.07-.12,0H67.1l-.3,0-.38,0L66,72.07,65.45,72l-.59-.14-.63-.16-.68-.19-.73-.22L62.07,71l-.77-.26-.79-.28-.81-.28-.8-.31-.8-.31-.79-.32-.78-.32-.27-.12.73.33.69.32.66.32.62.31.58.29.54.29.48.27.44.25.38.24.33.21.28.19.22.17.18.14.11.12.07.09,0,.06,0,0h-.07l-.13,0-.16,0L62,72.33l-.24-.09-.28-.13L61.15,72l-.33-.17-.36-.19-.38-.21-.4-.23-.41-.25-.42-.26-.43-.27L58,70.1l-.43-.29-.44-.3-.43-.31-.43-.31,0,0,.4.31.39.31.38.3.35.3.34.29.32.28.29.27.28.25.24.24.23.23.2.21.17.19.15.18.12.15.1.14.08.12,0,.09,0,.08v0l0,0h-.1l-.08,0-.1,0-.11-.06-.13-.09-.15-.11-.16-.12-.17-.14-.18-.15L58.92,72l-.2-.18-.2-.2-.21-.2-.21-.22-.22-.23-.22-.24-.22-.24-.22-.25L57,70l-.22-.26-.21-.27-.21-.26-.2-.26-.08-.1.19.26.19.26.18.26.17.26.17.25.16.24.14.24.14.24.13.22.12.22.12.21.1.2.09.19.09.18.08.18.06.16.06.15,0,.14,0,.13,0,.12,0,.11,0,.1v.34l0,0,0,0,0,0h-.11l0,0,0,0-.05,0,0,0-.06,0,0,0-.06-.06-.06-.06-.06-.07-.06-.07L57.65,73l-.06-.09-.06-.08-.06-.09-.06-.1-.06-.09-.07-.1-.06-.11,0-.1-.06-.11-.06-.1,0-.11-.06-.11,0-.11,0-.11-.05-.11,0-.11-.05-.1,0-.11,0-.11,0-.11,0-.1,0-.11,0-.1,0-.1,0-.1,0-.09,0-.1,0-.09,0-.09,0-.09,0-.08,0-.09,0-.08,0-.07,0-.08V69.5l0-.07v-.66h0v0h0"/><polygon class="cls-5" points="109.12 68.5 109.1 69.89 109.05 71.27 108.96 72.65 108.84 74.01 108.68 75.37 108.49 76.71 108.27 78.04 108.01 79.36 107.72 80.67 107.4 81.97 107.04 83.25 106.66 84.52 106.24 85.78 105.8 87.02 105.32 88.25 104.82 89.47 104.29 90.67 103.72 91.85 103.13 93.01 102.52 94.16 101.87 95.3 101.2 96.41 100.5 97.51 99.78 98.58 99.03 99.64 98.25 100.69 97.46 101.7 96.63 102.7 95.79 103.69 94.92 104.64 94.03 105.58 93.11 106.5 92.17 107.39 91.21 108.26 90.23 109.1 89.23 109.93 88.21 110.73 87.17 111.5 86.11 112.25 85.04 112.97 83.94 113.67 82.83 114.34 81.69 114.99 80.54 115.6 79.38 116.19 78.19 116.76 77 117.29 75.78 117.79 74.55 118.27 73.31 118.71 72.05 119.13 70.78 119.51 69.5 119.87 68.2 120.19 66.89 120.48 65.57 120.73 64.24 120.96 62.9 121.15 61.54 121.31 60.18 121.43 58.8 121.52 57.42 121.57 56.03 121.59 54.64 121.57 53.25 121.52 51.88 121.43 50.51 121.31 49.16 121.15 47.82 120.96 46.48 120.73 45.16 120.48 43.85 120.19 42.56 119.87 41.27 119.51 40 119.13 38.74 118.71 37.5 118.27 36.27 117.79 35.06 117.29 33.86 116.76 32.68 116.19 31.51 115.6 30.36 114.99 29.23 114.34 28.12 113.67 27.02 112.97 25.94 112.25 24.88 111.5 23.84 110.73 22.82 109.93 21.82 109.1 20.84 108.26 19.88 107.39 18.95 106.5 18.03 105.58 17.14 104.64 16.27 103.69 15.42 102.7 14.6 101.7 13.8 100.69 13.03 99.64 12.28 98.58 11.55 97.51 10.86 96.41 10.18 95.3 9.54 94.16 8.92 93.01 8.33 91.85 7.77 90.67 7.24 89.47 6.73 88.25 6.26 87.02 5.81 85.78 5.4 84.52 5.01 83.25 4.66 81.97 4.34 80.67 4.05 79.36 3.79 78.04 3.57 76.71 3.38 75.37 3.22 74.01 3.1 72.65 3.01 71.27 2.95 69.89 2.94 68.5 2.95 67.11 3.01 65.72 3.1 64.35 3.22 62.98 3.38 61.63 3.57 60.29 3.79 58.95 4.05 57.63 4.34 56.33 4.66 55.03 5.01 53.74 5.4 52.47 5.81 51.22 6.26 49.97 6.73 48.74 7.24 47.53 7.77 46.33 8.33 45.15 8.92 43.98 9.54 42.83 10.18 41.7 10.86 40.59 11.55 39.49 12.28 38.41 13.03 37.35 13.8 36.31 14.6 35.29 15.42 34.29 16.27 33.31 17.14 32.35 18.03 31.42 18.95 30.5 19.88 29.61 20.84 28.74 21.82 27.89 22.82 27.07 23.84 26.27 24.88 25.5 25.94 24.75 27.02 24.02 28.12 23.33 29.23 22.65 30.36 22.01 31.51 21.39 32.68 20.8 33.86 20.24 35.06 19.71 36.27 19.2 37.5 18.73 38.74 18.28 40 17.87 41.27 17.48 42.56 17.13 43.85 16.81 45.16 16.52 46.48 16.26 47.82 16.04 49.16 15.85 50.51 15.69 51.88 15.57 53.25 15.48 54.64 15.42 56.03 15.41 57.42 15.42 58.8 15.48 60.18 15.57 61.54 15.69 62.9 15.85 64.24 16.04 65.57 16.26 66.89 16.52 68.2 16.81 69.5 17.13 70.78 17.48 72.05 17.87 73.31 18.28 74.55 18.73 75.78 19.2 77 19.71 78.19 20.24 79.38 20.8 80.54 21.39 81.69 22.01 82.83 22.65 83.94 23.33 85.04 24.02 86.11 24.75 87.17 25.5 88.21 26.27 89.23 27.07 90.23 27.89 91.21 28.74 92.17 29.61 93.11 30.5 94.03 31.42 94.92 32.35 95.79 33.31 96.63 34.29 97.46 35.29 98.25 36.31 99.03 37.35 99.78 38.41 100.5 39.49 101.2 40.59 101.87 41.7 102.52 42.83 103.13 43.98 103.72 45.15 104.29 46.33 104.82 47.53 105.32 48.74 105.8 49.97 106.24 51.22 106.66 52.47 107.04 53.74 107.4 55.03 107.72 56.33 108.01 57.63 108.27 58.95 108.49 60.29 108.68 61.63 108.84 62.98 108.96 64.35 109.05 65.72 109.1 67.11 109.12 68.5"/><text class="cls-6" transform="matrix(1.03, 0.24, -0.23, 0.97, 58.48, 45.13)">0.5</text><text class="cls-7" transform="translate(50.66 10.73) scale(1.06 1)">0º</text><text class="cls-7" transform="translate(44.2 133.33) scale(1.06 1)">180º</text><text class="cls-7" transform="translate(113.62 71.39) scale(1.06 1)">90º</text><text class="cls-7" transform="translate(76.05 126.64) scale(1.06 1)">150º</text><text class="cls-7" transform="translate(102.44 103.76) scale(1.06 1)">120º</text><text class="cls-7" transform="translate(104.25 41.78) scale(1.06 1)">60º</text><text class="cls-7" transform="translate(79.51 18.3) scale(1.06 1)">30º</text><text class="cls-6" transform="matrix(1.03, 0.24, -0.23, 0.97, 66.03, 25.51)">1</text><text class="cls-6" transform="matrix(1.03, 0.24, -0.23, 0.97, 69.09, 15.38)">0</text></g></svg>