<svg id="Capa_1" data-name="Capa 1" xmlns="http://www.w3.org/2000/svg" viewBox="0 0 133.05 136.15"><defs><style>.cls-1{fill:#fff;fill-rule:evenodd;}.cls-2,.cls-3,.cls-4,.cls-5{fill:none;}.cls-2{stroke:silver;}.cls-2,.cls-3,.cls-5{stroke-linecap:square;stroke-linejoin:bevel;stroke-width:0.52px;}.cls-3{stroke:#ccc;}.cls-4{stroke:#0072bd;stroke-linejoin:round;stroke-width:0.52px;}.cls-5{stroke:#000;}.cls-6{font-size:5.43px;letter-spacing:0.01em;}.cls-6,.cls-7{font-family:Palatino-Roman, Palatino;}.cls-7{font-size:12px;letter-spacing:0.01em;}</style></defs><title>uniformLinearN10BetaHalf</title><g id="uniformLinearN10BetaHalf"><polygon class="cls-1" points="109.12 68.5 109.1 69.89 109.05 71.27 108.96 72.65 108.84 74.01 108.68 75.37 108.49 76.71 108.27 78.04 108.01 79.36 107.72 80.67 107.4 81.97 107.04 83.25 106.66 84.52 106.24 85.78 105.8 87.02 105.32 88.25 104.82 89.47 104.29 90.67 103.72 91.85 103.13 93.01 102.52 94.16 101.87 95.3 101.2 96.41 100.5 97.51 99.78 98.58 99.03 99.64 98.25 100.69 97.46 101.7 96.63 102.7 95.79 103.69 94.92 104.64 94.03 105.58 93.11 106.5 92.17 107.39 91.21 108.26 90.23 109.1 89.23 109.93 88.21 110.73 87.17 111.5 86.11 112.25 85.04 112.97 83.94 113.67 82.83 114.34 81.69 114.99 80.54 115.6 79.38 116.19 78.19 116.76 77 117.29 75.78 117.79 74.55 118.27 73.31 118.71 72.05 119.13 70.78 119.51 69.5 119.87 68.2 120.19 66.89 120.48 65.57 120.73 64.24 120.96 62.9 121.15 61.54 121.31 60.18 121.43 58.8 121.52 57.42 121.57 56.03 121.59 54.64 121.57 53.25 121.52 51.88 121.43 50.51 121.31 49.16 121.15 47.82 120.96 46.48 120.73 45.16 120.48 43.85 120.19 42.56 119.87 41.27 119.51 40 119.13 38.74 118.71 37.5 118.27 36.27 117.79 35.06 117.29 33.86 116.76 32.68 116.19 31.51 115.6 30.36 114.99 29.23 114.34 28.12 113.67 27.02 112.97 25.94 112.25 24.88 111.5 23.84 110.73 22.82 109.93 21.82 109.1 20.84 108.26 19.88 107.39 18.95 106.5 18.03 105.58 17.14 104.64 16.27 103.69 15.42 102.7 14.6 101.7 13.8 100.69 13.03 99.64 12.28 98.58 11.55 97.51 10.86 96.41 10.18 95.3 9.54 94.16 8.92 93.01 8.33 91.85 7.77 90.67 7.24 89.47 6.73 88.25 6.26 87.02 5.81 85.78 5.4 84.52 5.01 83.25 4.66 81.97 4.34 80.67 4.05 79.36 3.79 78.04 3.57 76.71 3.38 75.37 3.22 74.01 3.1 72.65 3.01 71.27 2.95 69.89 2.94 68.5 2.95 67.11 3.01 65.72 3.1 64.35 3.22 62.98 3.38 61.63 3.57 60.29 3.79 58.95 4.05 57.63 4.34 56.33 4.66 55.03 5.01 53.74 5.4 52.47 5.81 51.22 6.26 49.97 6.73 48.74 7.24 47.53 7.77 46.33 8.33 45.15 8.92 43.98 9.54 42.83 10.18 41.7 10.86 40.59 11.55 39.49 12.28 38.41 13.03 37.35 13.8 36.31 14.6 35.29 15.42 34.29 16.27 33.31 17.14 32.35 18.03 31.42 18.95 30.5 19.88 29.61 20.84 28.74 21.82 27.89 22.82 27.07 23.84 26.27 24.88 25.5 25.94 24.75 27.02 24.02 28.12 23.33 29.23 22.65 30.36 22.01 31.51 21.39 32.68 20.8 33.86 20.24 35.06 19.71 36.27 19.2 37.5 18.73 38.74 18.28 40 17.87 41.27 17.48 42.56 17.13 43.85 16.81 45.16 16.52 46.48 16.26 47.82 16.04 49.16 15.85 50.51 15.69 51.88 15.57 53.25 15.48 54.64 15.42 56.03 15.41 57.42 15.42 58.8 15.48 60.18 15.57 61.54 15.69 62.9 15.85 64.24 16.04 65.57 16.26 66.89 16.52 68.2 16.81 69.5 17.13 70.78 17.48 72.05 17.87 73.31 18.28 74.55 18.73 75.78 19.2 77 19.71 78.19 20.24 79.38 20.8 80.54 21.39 81.69 22.01 82.83 22.65 83.94 23.33 85.04 24.02 86.11 24.75 87.17 25.5 88.21 26.27 89.23 27.07 90.23 27.89 91.21 28.74 92.17 29.61 93.11 30.5 94.03 31.42 94.92 32.35 95.79 33.31 96.63 34.29 97.46 35.29 98.25 36.31 99.03 37.35 99.78 38.41 100.5 39.49 101.2 40.59 101.87 41.7 102.52 42.83 103.13 43.98 103.72 45.15 104.29 46.33 104.82 47.53 105.32 48.74 105.8 49.97 106.24 51.22 106.66 52.47 107.04 53.74 107.4 55.03 107.72 56.33 108.01 57.63 108.27 58.95 108.49 60.29 108.68 61.63 108.84 62.98 108.96 64.35 109.05 65.72 109.1 67.11 109.12 68.5"/><line class="cls-2" x1="56.03" y1="68.5" x2="109.12" y2="68.5"/><line class="cls-2" x1="56.03" y1="68.5" x2="102.01" y2="41.95"/><line class="cls-2" x1="56.03" y1="68.5" x2="82.57" y2="22.52"/><line class="cls-3" x1="56.03" y1="68.5" x2="56.03" y2="15.41"/><line class="cls-2" x1="56.03" y1="68.5" x2="2.94" y2="68.5"/><line class="cls-2" x1="56.03" y1="68.5" x2="56.03" y2="121.59"/><line class="cls-2" x1="56.03" y1="68.5" x2="82.57" y2="114.48"/><line class="cls-2" x1="56.03" y1="68.5" x2="102.01" y2="95.04"/><line class="cls-2" x1="56.03" y1="68.5" x2="109.12" y2="68.5"/><circle class="cls-3" cx="56.03" cy="68.5" r="10.62"/><circle class="cls-3" cx="56.03" cy="68.5" r="21.24"/><circle class="cls-3" cx="56.03" cy="68.5" r="31.86"/><circle class="cls-3" cx="56.03" cy="68.5" r="42.47"/><path class="cls-4" d="M56,76h-.52l0,0h-.1l0,0h-.05l0,0,0,0,0,0,0,0-.05,0,0,0,0,0,0,0,0,0,0,0,0,0,0,0,0-.06,0,0,0-.06,0-.06,0-.07,0-.07,0-.08,0-.08,0-.09,0-.09,0-.09V73.58l0-.16,0-.16,0-.17,0-.17,0-.18,0-.18,0-.19,0-.2.05-.2,0-.21.06-.21.06-.22L55,71.1l.08-.22.08-.24.08-.23.09-.24.1-.25.1-.24.1-.25.11-.25.11-.26.12-.25,0-.11-.12.26-.13.25-.14.25-.13.25-.14.25-.14.25-.15.24-.14.24-.15.23-.15.22-.14.22-.15.21-.15.21-.14.19-.14.19-.14.18-.14.16-.13.15-.13.15-.12.12-.11.12L53,73l-.1.09-.09.07-.09.06-.07,0-.07,0h-.09l0,0,0,0V73.1l0-.09,0-.11,0-.12.07-.14.09-.15.09-.17.12-.18.12-.2.15-.2.16-.22.17-.23.18-.24.2-.25.22-.26.22-.27.24-.27.24-.27.26-.28.26-.28.27-.27.28-.28,0,0-.29.27-.28.26-.29.26-.28.26-.29.24-.27.23-.27.22-.27.21-.25.19-.24.18-.23.16-.21.14-.19.13-.18.11-.16.08-.13.07-.12,0-.09,0h-.1l0,0,0,0,0-.07.07-.09.1-.11.12-.12.16-.15.18-.15.2-.18.24-.18.25-.2.28-.2.3-.22.32-.22.34-.22.36-.23.37-.23.37-.24.39-.23h0l-.39.22L55,69l-.39.21-.39.19-.38.19-.36.18-.35.16-.33.14-.32.13-.28.12-.26.09-.23.08-.2.06-.16,0-.13,0h-.15v0l0-.05.07-.07.11-.08.15-.09.19-.11.23-.12.27-.13.3-.14.34-.15.37-.16.4-.16L54,69.2l.45-.17.47-.17.48-.16.5-.16-.2.06-.51.15-.5.14-.5.14-.49.12-.47.12-.45.1-.43.09-.4.08-.37.06-.33.05-.29,0-.25,0h-.36l-.1,0-.05,0v0l.06,0,.11-.06.18-.06.22-.08L51,69.3l.33-.08.38-.09.43-.09.47-.09.51-.08.54-.09.58-.08.6-.08.62-.08.41,0-.64.06-.65,0-.65,0-.64,0-.62,0-.6,0H51l-.5,0H50l-.4,0-.35,0-.29,0-.23,0-.16,0-.1,0,0,0,.06-.05.13,0,.2,0,.28,0,.35,0,.42,0h1.66l.68,0,.73,0,.78,0,.81.06.86.07.3,0-.9-.1-.91-.11L53,68.12,52.09,68l-.9-.15-.88-.15-.84-.16-.81-.17-.76-.17L47.19,67l-.64-.17L46,66.69l-.5-.16-.41-.15-.32-.14-.23-.12-.13-.1,0-.08.09-.06.19,0h.31l.43,0,.54.06.65.11.77.14.89.18,1,.22,1.1.27,1.21.32,1.3.36,1.4.4,1.49.46-1-.32-1.64-.54L51.39,67l-1.77-.64-1.82-.68-1.87-.72L44,64.15l-1.92-.79-1.94-.83-1.94-.86-1.94-.89-1.93-.91-1.91-.93L30.58,58l-1.84-1-1.79-1-1.74-1-1.67-1-1.6-1-1.52-.95L19,51.26l-1.35-.92-1.25-.9-1.15-.87-1-.84-.94-.8-.82-.76-.71-.71-.59-.67-.48-.62-.36-.56-.24-.51-.12-.45v-.38L10,42l.22-.26.33-.19.44-.12.55-.06.64,0,.74.08.83.15.91.21,1,.29,1.07.34,1.14.41,1.2.47,1.26.53,1.31.58L23,45l1.4.69,1.42.74,1.45.78,1.48.83,1.48.86,1.5.89,1.5.93,1.5,1,1.5,1,1.48,1,1.46,1,1.45,1,1.41,1,1.39,1,1.36,1,1.32,1,1.28,1,1.24,1,1.2,1,1.15,1,1.1,1,1,.94,1,.92.94.89.9.87-.78-.77-.79-.81-.73-.76L53,65.39l-.63-.69L51.8,64l-.52-.61-.47-.58-.42-.53L50,61.83l-.33-.45L49.41,61l-.23-.37-.2-.32L48.83,60l-.11-.25-.08-.2,0-.17v-.13l0-.09,0-.06.08,0h.1l.13,0,.14.08.17.1.18.13.2.16.21.18.23.21.23.23.25.25.25.26.26.29.26.3.26.31.27.33.27.33.26.35.27.36.26.36.26.37.26.37.25.38.25.38.24.38.24.38.23.38.22.38.21.38.2.37.2.37.19.36.18.36.1.21-.16-.35-.16-.34-.14-.33-.14-.32-.13-.31-.12-.31-.11-.3-.1-.28-.1-.28-.09-.27-.08-.26-.07-.25-.07-.24-.06-.23,0-.22,0-.21,0-.2,0-.2,0-.18,0-.17,0-.17V62l0-.09,0-.09,0-.08,0-.08,0-.07,0-.06,0-.06,0-.06,0-.05,0,0,0,0,0,0,0,0,0,0,0,0,0,0,.05,0,0,0,0,0h2.22l0,0,.05,0,0,0,0,0,0,0,0,0,0,0,0,0,0,0,0,0,0,.05,0,.06,0,.06,0,.06,0,.07,0,.08,0,.08,0,.09,0,.09,0,.1v1.1l0,.17,0,.18,0,.2,0,.2,0,.21-.06.22,0,.23-.07.24-.07.25-.08.26-.09.27-.1.28-.1.28-.11.3-.13.31-.12.31-.14.32-.15.33-.15.34-.17.35.1-.21.19-.36.18-.36.2-.37.21-.37.21-.38.22-.38.23-.38.23-.38.25-.38.24-.38.25-.38.26-.37.26-.37.27-.36.26-.36.27-.35.27-.33.26-.33.27-.31.26-.3.26-.29.25-.26.24-.25.24-.23.22-.21.21-.18.2-.16.19-.13.16-.1.15-.08.13,0h.1l.08,0,0,.06,0,.09v.13l0,.17-.08.2-.11.25-.16.29-.19.32-.23.37-.28.41-.33.45-.37.49-.42.53-.47.58-.52.61-.58.66-.62.69-.68.73-.73.76-.79.81-.78.77.89-.87,1-.89,1-.92,1-.94,1.1-1,1.15-1,1.19-1,1.24-1,1.29-1,1.32-1,1.35-1,1.39-1,1.42-1,1.44-1,1.47-1,1.48-1,1.49-1,1.5-1,1.5-.93,1.5-.89,1.49-.86,1.47-.83,1.46-.78,1.42-.74L89,45l1.36-.64,1.31-.58,1.26-.53,1.2-.47,1.13-.41,1.07-.34,1-.29.91-.21.83-.15.74-.08.64,0,.54.06.44.12.34.19L102,42l.11.32v.38l-.13.45-.24.51-.35.56-.48.62-.59.67-.71.71-.83.76-.93.8-1,.84-1.15.87-1.25.9L93,51.26l-1.43.94-1.52.95-1.6,1-1.68,1-1.73,1-1.79,1-1.84,1-1.88.95-1.9.93-1.93.91-1.94.89-2,.86-1.94.83L68,64.15l-1.9.76-1.86.72-1.82.68L60.63,67l-1.71.59-1.64.54-1,.32,1.48-.46,1.4-.4,1.31-.36,1.2-.32,1.1-.27,1-.22.88-.18.77-.14.66-.11.54-.06.42,0h.31l.2,0,.08.06,0,.08-.13.1-.23.12-.32.14-.42.15-.5.16-.57.16-.64.17-.71.17-.76.17-.81.17-.85.16-.87.15-.9.15-.91.13-.92.13-.91.11-.89.1.3,0,.85-.07.82-.06.78,0,.73,0,.67,0h1.67l.42,0,.35,0,.28,0,.2,0,.13,0,0,.05,0,0-.09,0-.16,0-.23,0-.29,0-.35,0-.41,0h-.45l-.5,0H59.93l-.6,0-.62,0-.64,0-.65,0-.65,0-.65-.06.41,0,.63.08.6.08.57.08.55.09.51.08.47.09.42.09.38.09.34.08.27.08.23.08.17.06.12.06.06,0v0l-.05,0-.1,0h-.35l-.25,0-.29,0-.33-.05-.37-.06-.4-.08-.43-.09-.45-.1-.48-.12L57.87,69l-.5-.14-.51-.14-.5-.15-.2-.06.5.16.48.16.47.17.45.17.42.16.4.16.37.16.34.15.31.14.26.13.23.12.19.11.15.09.11.08.07.07,0,.05v0h-.15l-.13,0-.16,0-.2-.06-.23-.08-.26-.09-.29-.12-.31-.13L58.87,70l-.35-.16-.37-.18-.37-.19-.39-.19L57,69l-.4-.22-.39-.22h0l.39.23.38.24.37.23.35.23.34.22.32.22.3.22.28.2.26.2.23.18.21.18.18.15.15.15.13.12.1.11.07.09,0,.07v.09h-.11l-.09,0-.11,0-.14-.07-.15-.08-.18-.11-.2-.13-.21-.14L58.88,71l-.24-.18-.25-.19-.26-.21-.27-.22-.28-.23-.28-.24L57,69.43l-.29-.26-.29-.26-.28-.27,0,0,.28.28.27.27.26.28.26.28.24.27.24.27.22.27.21.26.2.25.19.24.17.23.16.22.14.2.13.2.11.18.1.17.08.15.07.14.05.12,0,.11,0,.09v.17l0,0h-.1l-.06,0-.08,0-.08-.06-.09-.07L59,73l-.11-.1-.12-.12-.12-.12-.12-.15-.14-.15-.13-.16L58.16,72,58,71.83l-.15-.19-.14-.21-.15-.21L57.43,71l-.14-.22-.15-.23L57,70.31l-.14-.24-.14-.25-.14-.25-.14-.25-.13-.25-.13-.25L56,68.56l.05.11.12.25.12.26.11.25.1.25.1.24.09.25.09.24.09.23.08.24.07.22.07.23.07.22.06.21.05.21,0,.2,0,.2,0,.19,0,.18,0,.18,0,.17,0,.17,0,.16v1.17l0,.11,0,.09,0,.09,0,.09,0,.08,0,.08,0,.07,0,.07,0,.06,0,.06,0,0,0,.06,0,0,0,0,0,0,0,0,0,0,0,0-.05,0,0,0,0,0,0,0,0,0,0,0h0l-.05,0h-.09l0,0H56"/><polygon class="cls-5" points="109.12 68.5 109.1 69.89 109.05 71.27 108.96 72.65 108.84 74.01 108.68 75.37 108.49 76.71 108.27 78.04 108.01 79.36 107.72 80.67 107.4 81.97 107.04 83.25 106.66 84.52 106.24 85.78 105.8 87.02 105.32 88.25 104.82 89.47 104.29 90.67 103.72 91.85 103.13 93.01 102.52 94.16 101.87 95.3 101.2 96.41 100.5 97.51 99.78 98.58 99.03 99.64 98.25 100.69 97.46 101.7 96.63 102.7 95.79 103.69 94.92 104.64 94.03 105.58 93.11 106.5 92.17 107.39 91.21 108.26 90.23 109.1 89.23 109.93 88.21 110.73 87.17 111.5 86.11 112.25 85.04 112.97 83.94 113.67 82.83 114.34 81.69 114.99 80.54 115.6 79.38 116.19 78.19 116.76 77 117.29 75.78 117.79 74.55 118.27 73.31 118.71 72.05 119.13 70.78 119.51 69.5 119.87 68.2 120.19 66.89 120.48 65.57 120.73 64.24 120.96 62.9 121.15 61.54 121.31 60.18 121.43 58.8 121.52 57.42 121.57 56.03 121.59 54.64 121.57 53.25 121.52 51.88 121.43 50.51 121.31 49.16 121.15 47.82 120.96 46.48 120.73 45.16 120.48 43.85 120.19 42.56 119.87 41.27 119.51 40 119.13 38.74 118.71 37.5 118.27 36.27 117.79 35.06 117.29 33.86 116.76 32.68 116.19 31.51 115.6 30.36 114.99 29.23 114.34 28.12 113.67 27.02 112.97 25.94 112.25 24.88 111.5 23.84 110.73 22.82 109.93 21.82 109.1 20.84 108.26 19.88 107.39 18.95 106.5 18.03 105.58 17.14 104.64 16.27 103.69 15.42 102.7 14.6 101.7 13.8 100.69 13.03 99.64 12.28 98.58 11.55 97.51 10.86 96.41 10.18 95.3 9.54 94.16 8.92 93.01 8.33 91.85 7.77 90.67 7.24 89.47 6.73 88.25 6.26 87.02 5.81 85.78 5.4 84.52 5.01 83.25 4.66 81.97 4.34 80.67 4.05 79.36 3.79 78.04 3.57 76.71 3.38 75.37 3.22 74.01 3.1 72.65 3.01 71.27 2.95 69.89 2.94 68.5 2.95 67.11 3.01 65.72 3.1 64.35 3.22 62.98 3.38 61.63 3.57 60.29 3.79 58.95 4.05 57.63 4.34 56.33 4.66 55.03 5.01 53.74 5.4 52.47 5.81 51.22 6.26 49.97 6.73 48.74 7.24 47.53 7.77 46.33 8.33 45.15 8.92 43.98 9.54 42.83 10.18 41.7 10.86 40.59 11.55 39.49 12.28 38.41 13.03 37.35 13.8 36.31 14.6 35.29 15.42 34.29 16.27 33.31 17.14 32.35 18.03 31.42 18.95 30.5 19.88 29.61 20.84 28.74 21.82 27.89 22.82 27.07 23.84 26.27 24.88 25.5 25.94 24.75 27.02 24.02 28.12 23.33 29.23 22.65 30.36 22.01 31.51 21.39 32.68 20.8 33.86 20.24 35.06 19.71 36.27 19.2 37.5 18.73 38.74 18.28 40 17.87 41.27 17.48 42.56 17.13 43.85 16.81 45.16 16.52 46.48 16.26 47.82 16.04 49.16 15.85 50.51 15.69 51.88 15.57 53.25 15.48 54.64 15.42 56.03 15.41 57.42 15.42 58.8 15.48 60.18 15.57 61.54 15.69 62.9 15.85 64.24 16.04 65.57 16.26 66.89 16.52 68.2 16.81 69.5 17.13 70.78 17.48 72.05 17.87 73.31 18.28 74.55 18.73 75.78 19.2 77 19.71 78.19 20.24 79.38 20.8 80.54 21.39 81.69 22.01 82.83 22.65 83.94 23.33 85.04 24.02 86.11 24.75 87.17 25.5 88.21 26.27 89.23 27.07 90.23 27.89 91.21 28.74 92.17 29.61 93.11 30.5 94.03 31.42 94.92 32.35 95.79 33.31 96.63 34.29 97.46 35.29 98.25 36.31 99.03 37.35 99.78 38.41 100.5 39.49 101.2 40.59 101.87 41.7 102.52 42.83 103.13 43.98 103.72 45.15 104.29 46.33 104.82 47.53 105.32 48.74 105.8 49.97 106.24 51.22 106.66 52.47 107.04 53.74 107.4 55.03 107.72 56.33 108.01 57.63 108.27 58.95 108.49 60.29 108.68 61.63 108.84 62.98 108.96 64.35 109.05 65.72 109.1 67.11 109.12 68.5"/><text class="cls-6" transform="matrix(1.03, 0.24, -0.23, 0.97, 58.47, 45.07)">0.5</text><text class="cls-7" transform="translate(50.66 10.73) scale(1.06 1)">0º</text><text class="cls-7" transform="translate(44.2 133.33) scale(1.06 1)">180º</text><text class="cls-7" transform="translate(113.62 71.39) scale(1.06 1)">90º</text><text class="cls-7" transform="translate(76.05 126.64) scale(1.06 1)">150º</text><text class="cls-7" transform="translate(102.44 103.76) scale(1.06 1)">120º</text><text class="cls-7" transform="translate(104.25 41.78) scale(1.06 1)">60º</text><text class="cls-7" transform="translate(79.51 18.3) scale(1.06 1)">30º</text><text class="cls-6" transform="matrix(1.03, 0.24, -0.23, 0.97, 66.02, 25.44)">1</text><text class="cls-6" transform="matrix(1.03, 0.24, -0.23, 0.97, 69.08, 15.31)">0</text></g></svg>