<svg id="Capa_1" data-name="Capa 1" xmlns="http://www.w3.org/2000/svg" viewBox="0 0 472.91 198.4"><defs><style>.cls-1,.cls-15,.cls-16,.cls-2,.cls-4,.cls-5,.cls-6{fill:none;}.cls-1,.cls-10,.cls-14,.cls-15,.cls-16,.cls-2,.cls-4,.cls-5,.cls-6{stroke:#000;}.cls-1,.cls-10,.cls-2,.cls-4{stroke-miterlimit:10;}.cls-1,.cls-14,.cls-15,.cls-2,.cls-4,.cls-5,.cls-6{stroke-width:0.52px;}.cls-2{stroke-dasharray:3.6 3.6;}.cls-3{fill:#fff;}.cls-4{stroke-dasharray:3.6 2;}.cls-15,.cls-16,.cls-5,.cls-6{stroke-linecap:round;}.cls-14,.cls-15,.cls-16,.cls-5,.cls-6{stroke-linejoin:round;}.cls-6{stroke-dasharray:3.6 3.6;}.cls-13,.cls-7{font-size:12px;}.cls-7{font-family:LinLibertineI, Linux Libertine;}.cls-10,.cls-13,.cls-8{font-family:Palatino-Roman, Palatino;}.cls-9{fill-rule:evenodd;}.cls-10{font-size:8.6px;stroke-width:0.25px;letter-spacing:0.17em;}.cls-11{letter-spacing:0.17em;}.cls-12{letter-spacing:0em;}.cls-14{fill:#ccc;}.cls-15{stroke-dasharray:3.6 3.6;}.cls-16{stroke-width:0.8px;}</style></defs><title>doa</title><path class="cls-1" d="M272.51,43.45c.34.49.69,1,1,1.47"/><path class="cls-2" d="M275.54,47.92a136.67,136.67,0,0,1,17.4,108.88"/><path class="cls-1" d="M292.47,158.53c-.16.58-.32,1.16-.49,1.73"/><rect class="cls-3" x="150.93" y="-52.34" width="51.24" height="239.9" transform="translate(183.11 -121.33) rotate(71.04)"/><circle class="cls-4" cx="98.1" cy="119.2" r="52.16"/><rect class="cls-3" x="27.25" y="57.45" width="65.55" height="128.21" transform="translate(147.62 225.03) rotate(166.04)"/><polyline class="cls-3" points="38.55 122.12 319.87 114.03 322.25 196.7"/><rect class="cls-3" x="97.99" y="36.34" width="97.15" height="140.14"/><line class="cls-5" x1="98.1" y1="153.28" x2="98.1" y2="119.2"/><line class="cls-6" x1="98.1" y1="119.2" x2="98.1" y2="43.72"/><line class="cls-6" x1="245.03" y1="119.24" x2="329.18" y2="119.24"/><line class="cls-5" x1="98.1" y1="153.28" x2="259.7" y2="153.28"/><line class="cls-5" x1="226.26" y1="153.28" x2="226.26" y2="119.2"/><polygon class="cls-1" points="226.26 141.73 219.76 130.48 213.27 119.24 226.26 119.24 239.25 119.24 232.75 130.48 226.26 141.73"/><line class="cls-5" x1="162.18" y1="153.28" x2="162.18" y2="119.2"/><polygon class="cls-1" points="162.18 141.73 155.69 130.48 149.19 119.24 162.18 119.24 175.17 119.24 168.67 130.48 162.18 141.73"/><line class="cls-5" x1="98.1" y1="153.28" x2="98.1" y2="119.2"/><polygon class="cls-1" points="98.1 141.73 91.61 130.48 85.11 119.24 98.1 119.24 111.09 119.24 104.59 130.48 98.1 141.73"/><text class="cls-7" transform="translate(406.31 166.74)">N</text><text class="cls-7" transform="translate(414.29 170.74) scale(0.58)">a</text><line class="cls-5" x1="311.54" y1="153.28" x2="412" y2="153.28"/><line class="cls-5" x1="347.92" y1="153.28" x2="347.92" y2="119.2"/><polygon class="cls-1" points="347.92 141.73 341.43 130.48 334.94 119.24 347.92 119.24 360.91 119.24 354.42 130.48 347.92 141.73"/><line class="cls-5" x1="412" y1="153.28" x2="412" y2="119.2"/><polygon class="cls-1" points="412 141.73 405.51 130.48 399.01 119.24 412 119.24 424.99 119.24 418.49 130.48 412 141.73"/><text class="cls-7" transform="translate(331.78 166.74)">N</text><text class="cls-7" transform="translate(339.76 170.74) scale(0.58)">a</text><text class="cls-7" transform="translate(343.16 166.74)"><tspan xml:space="preserve"> — </tspan><tspan class="cls-8" x="14.9" y="0">1</tspan></text><polyline class="cls-9" points="409.8 179.12 402.95 176.47 406.41 179.12 402.95 181.63 409.8 179.12"/><line class="cls-5" x1="353.21" y1="179.05" x2="406.41" y2="179.05"/><polyline class="cls-9" points="350.17 178.98 357.02 181.63 353.56 178.98 357.02 176.47 350.17 178.98"/><line class="cls-6" x1="71.25" y1="41" x2="97.99" y2="119.39"/><polyline class="cls-9" points="414.82 115.86 415.11 108.52 413.73 112.64 410.23 110.18 414.82 115.86"/><line class="cls-5" x1="384.16" y1="25.78" x2="413.79" y2="112.62"/><polyline class="cls-9" points="383.51 23.84 383.22 31.18 384.61 27.05 388.1 29.51 383.51 23.84"/><polyline class="cls-9" points="226.62 116.24 226.91 108.9 225.53 113.03 222.03 110.56 226.62 116.24"/><line class="cls-5" x1="215.43" y1="83.34" x2="225.98" y2="114.25"/><polyline class="cls-9" points="214.84 81.58 214.55 88.92 215.94 84.79 219.43 87.25 214.84 81.58"/><polyline class="cls-9" points="349.97 116.04 350.26 108.7 348.87 112.83 345.38 110.37 349.97 116.04"/><line class="cls-5" x1="325.74" y1="44.83" x2="348.94" y2="112.81"/><polyline class="cls-9" points="325.3 43.45 325.01 50.79 326.4 46.66 329.89 49.12 325.3 43.45"/><text class="cls-7" transform="translate(376.88 192.19)">d</text><text class="cls-10" transform="translate(281.21 153.28)">.<tspan class="cls-11" x="3.59" y="0">.</tspan><tspan class="cls-12" x="7.17" y="0">.</tspan></text><polyline class="cls-9" points="224.04 179.12 217.18 176.47 220.64 179.12 217.18 181.63 224.04 179.12"/><line class="cls-5" x1="167.44" y1="179.05" x2="220.64" y2="179.05"/><polyline class="cls-9" points="164.4 178.98 171.25 181.63 167.79 178.98 171.25 176.47 164.4 178.98"/><text class="cls-7" transform="translate(191.11 192.19)">d</text><polyline class="cls-9" points="161.07 179.12 154.22 176.47 157.68 179.12 154.22 181.63 161.07 179.12"/><line class="cls-5" x1="104.48" y1="179.05" x2="157.68" y2="179.05"/><polyline class="cls-9" points="101.43 178.98 108.29 181.63 104.83 178.98 108.29 176.47 101.43 178.98"/><text class="cls-7" transform="translate(128.14 192.19)">d</text><text class="cls-7" transform="translate(85.51 64.55)">θ</text><text class="cls-7" transform="translate(169.16 113.38)">∆d</text><line class="cls-1" x1="98.1" y1="119.2" x2="404.12" y2="13.55"/><line class="cls-5" x1="157.56" y1="102.66" x2="162.09" y2="115.93"/><polyline class="cls-9" points="157.16 101.45 156.94 106.74 158.25 104.66 160.47 105.55 157.16 101.45"/><polyline class="cls-9" points="162.62 117.58 162.83 112.28 161.52 114.37 159.3 113.48 162.62 117.58"/><text class="cls-7" transform="translate(298.96 87.71)">θ</text><text class="cls-13" transform="matrix(0.95, -0.33, 0.33, 0.95, 312.62, 38.89)">Target Wavefront</text><text class="cls-7" transform="translate(230.96 113.81)">2 <tspan x="8.33" y="0">∆d</tspan></text><text class="cls-7" transform="translate(351.97 109.76)">(<tspan x="3.67" y="0">N</tspan></text><text class="cls-7" transform="translate(363.62 113.76) scale(0.58)">a</text><text class="cls-7" transform="translate(367.02 109.76)">—2) <tspan x="20.98" y="0">∆d</tspan></text><text class="cls-13" transform="translate(223.26 166.74)">3</text><text class="cls-13" transform="translate(159.02 166.74)">2</text><text class="cls-13" transform="translate(95.1 166.74)">1</text><text class="cls-7" transform="translate(418.31 109.76)">(<tspan x="3.67" y="0">N</tspan></text><text class="cls-7" transform="translate(429.96 113.76) scale(0.58)">a</text><text class="cls-7" transform="translate(433.36 109.76)">—1) <tspan x="20.98" y="0">∆d</tspan></text><path class="cls-14" d="M48.93,53.54c11.69-2.66,26.65,8,34.55-2.88s-5.32-24.12-23-28.79c-12.65-3.33-26.29-6.76-37.43,0A24.17,24.17,0,0,0,11.51,42c-.26,10.88,7.1,20.63,17.27,20.16C36.27,61.82,41.7,55.19,48.93,53.54Z"/><line class="cls-15" x1="88.19" y1="42.17" x2="97.62" y2="42.17"/><polyline points="93.86 43.72 97.62 42.17 93.86 40.61"/><polygon class="cls-16" points="93.86 43.72 97.62 42.17 93.86 40.61 93.86 43.72"/><line class="cls-15" x1="52.76" y1="16.95" x2="54.92" y2="4.69"/><polyline points="56.13 6.95 55.25 2.98 53.07 6.41"/><polygon class="cls-16" points="56.13 6.95 55.25 2.98 53.07 6.41 56.13 6.95"/><line class="cls-15" x1="13.33" y1="27.22" x2="2.69" y2="23.35"/><polyline points="6.75 23.17 2.69 23.35 5.68 26.09"/><polygon class="cls-16" points="6.75 23.17 2.69 23.35 5.68 26.09 6.75 23.17"/><line class="cls-15" x1="34.37" y1="64.83" x2="26.51" y2="78.44"/><polyline points="24.74 78.44 24.21 82.47 27.43 80"/><polygon class="cls-16" points="24.74 78.44 24.21 82.47 27.43 80 24.74 78.44"/><line class="cls-15" x1="14.35" y1="58.65" x2="4.96" y2="64.98"/><polyline points="7.2 61.59 4.96 64.98 8.94 64.17"/><polygon class="cls-16" points="7.2 61.59 4.96 64.98 8.94 64.17 7.2 61.59"/><text class="cls-13" transform="translate(30.27 40.65)">Target</text><line class="cls-15" x1="52.47" y1="58.65" x2="58.77" y2="83.3"/><polyline points="56.34 80.05 58.77 83.3 59.35 79.28"/><polygon class="cls-16" points="56.34 80.05 58.77 83.3 59.35 79.28 56.34 80.05"/><line class="cls-15" x1="77.25" y1="25.06" x2="84.2" y2="14.74"/><polyline points="84.39 17.29 85.2 13.31 81.81 15.55"/><polygon class="cls-16" points="84.39 17.29 85.2 13.31 81.81 15.55 84.39 17.29"/><line class="cls-15" x1="27.41" y1="16.93" x2="24.65" y2="4.79"/><polyline points="26.64 6.41 24.29 3.09 23.61 7.09"/><polygon class="cls-16" points="26.64 6.41 24.29 3.09 23.61 7.09 26.64 6.41"/></svg>