<svg id="Capa_1" data-name="Capa 1" xmlns="http://www.w3.org/2000/svg" viewBox="0 0 472.91 198.4"><defs><style>.cls-1,.cls-13,.cls-2,.cls-4,.cls-5{fill:none;stroke-width:0.52px;}.cls-1,.cls-13,.cls-2,.cls-4,.cls-5,.cls-9{stroke:#000;}.cls-1,.cls-13,.cls-2,.cls-9{stroke-miterlimit:10;}.cls-2{stroke-dasharray:3.6 3.6;}.cls-3{fill:#fff;}.cls-4,.cls-5{stroke-linecap:round;stroke-linejoin:round;}.cls-5{stroke-dasharray:3.6 3.6;}.cls-12,.cls-6{font-size:12px;}.cls-6{font-family:LinLibertineI, Linux Libertine;}.cls-12,.cls-7,.cls-9{font-family:Palatino-Roman, Palatino;}.cls-8{fill-rule:evenodd;}.cls-9{font-size:8.6px;stroke-width:0.25px;letter-spacing:0.17em;}.cls-10{letter-spacing:0.17em;}.cls-11{letter-spacing:0em;}.cls-13{stroke-dasharray:3.45 3.45;}</style></defs><title>doa</title><path class="cls-1" d="M239.08,43.45l1,1.47"/><path class="cls-2" d="M242.11,47.92A136.63,136.63,0,0,1,259.52,156.8"/><path class="cls-1" d="M259.05,158.53c-.16.58-.32,1.16-.49,1.73"/><rect class="cls-3" x="117.5" y="-52.34" width="51.24" height="239.9" transform="translate(160.55 -89.72) rotate(71.04)"/><rect class="cls-3" x="22.13" y="53.99" width="36.83" height="128.21" transform="translate(108.39 222.91) rotate(166.04)"/><polyline class="cls-3" points="5.13 122.12 286.45 114.03 288.82 196.7"/><rect class="cls-3" x="64.57" y="36.34" width="97.15" height="140.14" transform="translate(1.21 -1.27) rotate(0.65)"/><line class="cls-4" x1="64.68" y1="153.28" x2="64.68" y2="119.2"/><line class="cls-5" x1="64.68" y1="118.47" x2="64.68" y2="35.65"/><line class="cls-5" x1="211.61" y1="119.24" x2="295.76" y2="119.24"/><line class="cls-4" x1="64.68" y1="153.28" x2="226.28" y2="153.28"/><line class="cls-4" x1="192.84" y1="153.28" x2="192.84" y2="119.2"/><polygon class="cls-1" points="192.84 141.73 186.34 130.48 179.85 119.24 192.84 119.24 205.82 119.24 199.33 130.48 192.84 141.73"/><line class="cls-4" x1="128.76" y1="153.28" x2="128.76" y2="119.2"/><polygon class="cls-1" points="128.76 141.73 122.26 130.48 115.77 119.24 128.76 119.24 141.74 119.24 135.25 130.48 128.76 141.73"/><line class="cls-4" x1="64.68" y1="153.28" x2="64.68" y2="119.2"/><polygon class="cls-1" points="64.68 141.73 58.19 130.48 51.69 119.24 64.68 119.24 77.67 119.24 71.17 130.48 64.68 141.73"/><text class="cls-6" transform="translate(372.89 166.74)">N</text><text class="cls-6" transform="translate(380.87 170.74) scale(0.58)">a</text><line class="cls-4" x1="278.12" y1="153.28" x2="378.58" y2="153.28"/><line class="cls-4" x1="314.5" y1="153.28" x2="314.5" y2="119.2"/><polygon class="cls-1" points="314.5 141.73 308.01 130.48 301.51 119.24 314.5 119.24 327.49 119.24 320.99 130.48 314.5 141.73"/><line class="cls-4" x1="378.58" y1="153.28" x2="378.58" y2="119.2"/><polygon class="cls-1" points="378.58 141.73 372.08 130.48 365.59 119.24 378.58 119.24 391.56 119.24 385.07 130.48 378.58 141.73"/><text class="cls-6" transform="translate(298.36 166.74)">N</text><text class="cls-6" transform="translate(306.34 170.74) scale(0.58)">a</text><text class="cls-6" transform="translate(309.74 166.74)"><tspan xml:space="preserve"> — </tspan><tspan class="cls-7" x="14.9" y="0">1</tspan></text><polyline class="cls-8" points="376.38 179.12 369.53 176.47 372.99 179.12 369.53 181.63 376.38 179.12"/><line class="cls-4" x1="319.79" y1="179.05" x2="372.99" y2="179.05"/><polyline class="cls-8" points="316.75 178.98 323.6 181.63 320.14 178.98 323.6 176.47 316.75 178.98"/><line class="cls-5" x1="37.68" y1="40.11" x2="64.68" y2="119.24"/><polyline class="cls-8" points="381.4 115.86 381.69 108.52 380.3 112.64 376.81 110.18 381.4 115.86"/><line class="cls-4" x1="350.73" y1="25.78" x2="380.37" y2="112.62"/><polyline class="cls-8" points="350.09 23.84 349.8 31.18 351.19 27.05 354.68 29.51 350.09 23.84"/><polyline class="cls-8" points="193.2 116.24 193.49 108.9 192.1 113.03 188.61 110.56 193.2 116.24"/><line class="cls-4" x1="182.01" y1="83.34" x2="192.56" y2="114.25"/><polyline class="cls-8" points="181.42 81.58 181.13 88.92 182.51 84.79 186.01 87.25 181.42 81.58"/><polyline class="cls-8" points="316.55 116.04 316.84 108.7 315.45 112.83 311.96 110.37 316.55 116.04"/><line class="cls-4" x1="292.32" y1="44.83" x2="315.52" y2="112.81"/><polyline class="cls-8" points="291.88 43.45 291.59 50.79 292.98 46.66 296.47 49.12 291.88 43.45"/><text class="cls-6" transform="translate(343.46 192.19)">d</text><text class="cls-9" transform="translate(247.79 153.28)">.<tspan class="cls-10" x="3.59" y="0">.</tspan><tspan class="cls-11" x="7.17" y="0">.</tspan></text><polyline class="cls-8" points="190.61 179.12 183.76 176.47 187.22 179.12 183.76 181.63 190.61 179.12"/><line class="cls-4" x1="134.02" y1="179.05" x2="187.22" y2="179.05"/><polyline class="cls-8" points="130.98 178.98 137.83 181.63 134.37 178.98 137.83 176.47 130.98 178.98"/><text class="cls-6" transform="translate(157.69 192.19)">d</text><polyline class="cls-8" points="127.65 179.12 120.79 176.47 124.25 179.12 120.79 181.63 127.65 179.12"/><line class="cls-4" x1="71.05" y1="179.05" x2="124.25" y2="179.05"/><polyline class="cls-8" points="68.01 178.98 74.86 181.63 71.4 178.98 74.86 176.47 68.01 178.98"/><text class="cls-6" transform="translate(94.72 192.19)">d</text><text class="cls-6" transform="translate(47.15 32.55)">θ</text><text class="cls-6" transform="translate(135.73 113.38)">∆d</text><line class="cls-1" x1="64.68" y1="119.2" x2="370.69" y2="13.55"/><line class="cls-4" x1="124.14" y1="102.66" x2="128.67" y2="115.93"/><polyline class="cls-8" points="123.73 101.45 123.52 106.74 124.83 104.66 127.05 105.55 123.73 101.45"/><polyline class="cls-8" points="129.19 117.58 129.4 112.28 128.1 114.37 125.88 113.48 129.19 117.58"/><text class="cls-6" transform="translate(265.54 87.71)">θ</text><text class="cls-12" transform="translate(279.17 38.95) rotate(-19.03)">Target Wavefront</text><text class="cls-6" transform="translate(197.54 113.81)">2 <tspan x="8.33" y="0">∆d</tspan></text><text class="cls-6" transform="translate(318.54 109.76)">(<tspan x="3.67" y="0">N</tspan></text><text class="cls-6" transform="translate(330.2 113.76) scale(0.58)">a</text><text class="cls-6" transform="translate(333.6 109.76)">—2) <tspan x="20.98" y="0">∆d</tspan></text><text class="cls-12" transform="translate(189.84 166.74)">3</text><text class="cls-12" transform="translate(125.6 166.74)">2</text><text class="cls-12" transform="translate(61.68 166.74)">1</text><text class="cls-6" transform="translate(384.89 109.76)">(<tspan x="3.67" y="0">N</tspan></text><text class="cls-6" transform="translate(396.54 113.76) scale(0.58)">a</text><text class="cls-6" transform="translate(399.94 109.76)">—1) <tspan x="20.98" y="0">∆d</tspan></text><path class="cls-1" d="M37.46,40.18l1.7-.57"/><path class="cls-13" d="M42.47,38.63a83.32,83.32,0,0,1,18.68-2.91"/><path class="cls-1" d="M62.88,35.67c.6,0,1.2,0,1.8,0"/></svg>