<svg id="Capa_1" data-name="Capa 1" xmlns="http://www.w3.org/2000/svg" viewBox="0 0 472.91 219.05"><defs><style>.cls-1,.cls-13,.cls-2,.cls-4,.cls-5{fill:none;stroke-width:0.52px;}.cls-1,.cls-13,.cls-2,.cls-4,.cls-5,.cls-9{stroke:#000;}.cls-1,.cls-13,.cls-2,.cls-9{stroke-miterlimit:10;}.cls-2{stroke-dasharray:3.61 3.61;}.cls-3{fill:#fff;}.cls-4,.cls-5{stroke-linecap:round;stroke-linejoin:round;}.cls-5{stroke-dasharray:3.6 3.6;}.cls-12,.cls-6{font-size:12px;}.cls-6{font-family:LinLibertineI, Linux Libertine;}.cls-12,.cls-7,.cls-9{font-family:Palatino-Roman, Palatino;}.cls-8{fill-rule:evenodd;}.cls-9{font-size:10.13px;stroke-width:0.25px;}.cls-10{letter-spacing:0.17em;}.cls-11{letter-spacing:0.17em;}.cls-13{stroke-dasharray:3.23 3.23;}</style></defs><title>doa</title><path class="cls-1" d="M240.85,48.54l1,1.47"/><path class="cls-2" d="M243.89,53a160.9,160.9,0,0,1,20.86,129.64"/><path class="cls-1" d="M264.28,184.37c-.17.58-.33,1.16-.5,1.73"/><rect class="cls-3" x="118.57" y="-49.35" width="60.34" height="238.31" transform="translate(166.42 -93.55) rotate(71.04)"/><polyline class="cls-3" points="169.95 135.3 296.63 131.66 298.69 203.6"/><rect class="cls-3" x="35.33" y="40.16" width="114.41" height="165.03" transform="translate(1.39 -1.03) rotate(0.65)"/><line class="cls-4" x1="35.45" y1="177.88" x2="35.45" y2="137.75"/><line class="cls-5" x1="35.45" y1="136.89" x2="35.45" y2="39.35"/><line class="cls-5" x1="208.49" y1="137.79" x2="307.59" y2="137.79"/><line class="cls-4" x1="35.45" y1="177.88" x2="225.77" y2="177.88"/><line class="cls-4" x1="186.38" y1="177.88" x2="186.38" y2="137.75"/><polygon class="cls-1" points="186.38 164.28 178.73 151.03 171.09 137.79 186.38 137.79 201.68 137.79 194.03 151.03 186.38 164.28"/><line class="cls-4" x1="110.92" y1="177.88" x2="110.92" y2="137.75"/><polygon class="cls-1" points="110.92 164.28 103.27 151.03 95.62 137.79 110.92 137.79 126.21 137.79 118.56 151.03 110.92 164.28"/><line class="cls-4" x1="35.45" y1="177.88" x2="35.45" y2="137.75"/><polygon class="cls-1" points="35.45 164.28 27.81 151.03 20.16 137.79 35.45 137.79 50.75 137.79 43.1 151.03 35.45 164.28"/><text class="cls-6" transform="translate(399.43 193.73)">N</text><text class="cls-6" transform="translate(407.42 197.73) scale(0.58)">a</text><line class="cls-4" x1="286.82" y1="177.88" x2="405.12" y2="177.88"/><line class="cls-4" x1="329.66" y1="177.88" x2="329.66" y2="137.75"/><polygon class="cls-1" points="329.66 164.28 322.01 151.03 314.37 137.79 329.66 137.79 344.96 137.79 337.31 151.03 329.66 164.28"/><line class="cls-4" x1="405.12" y1="177.88" x2="405.12" y2="137.75"/><polygon class="cls-1" points="405.13 164.28 397.48 151.03 389.83 137.79 405.13 137.79 420.42 137.79 412.77 151.03 405.13 164.28"/><text class="cls-6" transform="translate(313.52 193.73)">N</text><text class="cls-6" transform="translate(321.5 197.73) scale(0.58)">a</text><text class="cls-6" transform="translate(324.9 193.73)"><tspan xml:space="preserve"> — </tspan><tspan class="cls-7" x="14.9" y="0">1</tspan></text><polyline class="cls-8" points="402.54 203.31 394.47 200.2 398.54 203.31 394.47 206.27 402.54 203.31"/><line class="cls-4" x1="335.89" y1="203.23" x2="398.54" y2="203.23"/><polyline class="cls-8" points="332.31 203.15 340.38 206.27 336.3 203.15 340.38 200.2 332.31 203.15"/><line class="cls-5" x1="3.65" y1="44.6" x2="35.45" y2="137.79"/><polyline class="cls-8" points="405.28 133.81 405.63 125.16 403.99 130.03 399.88 127.12 405.28 133.81"/><line class="cls-4" x1="369.17" y1="27.73" x2="404.07" y2="130"/><polyline class="cls-8" points="368.72 26.33 368.38 34.97 370.01 30.11 374.13 33.01 368.72 26.33"/><polyline class="cls-8" points="186.04 134.13 186.38 125.48 184.75 130.34 180.63 127.44 186.04 134.13"/><line class="cls-4" x1="172.86" y1="95.39" x2="185.28" y2="131.78"/><polyline class="cls-8" points="172.3 93.74 171.96 102.39 173.59 97.53 177.7 100.43 172.3 93.74"/><polyline class="cls-8" points="329.62 134.03 329.96 125.39 328.33 130.25 324.21 127.35 329.62 134.03"/><line class="cls-4" x1="301.08" y1="50.16" x2="328.4" y2="130.22"/><polyline class="cls-8" points="300.86 49.5 300.51 58.14 302.15 53.28 306.26 56.18 300.86 49.5"/><text class="cls-6" transform="translate(364.28 215.7)">d</text><text class="cls-9" transform="translate(251.1 177.88)"><tspan class="cls-10">.</tspan><tspan class="cls-11" x="4.22" y="0">.</tspan><tspan x="8.44" y="0">.</tspan></text><polyline class="cls-8" points="183.76 203.31 175.69 200.2 179.77 203.31 175.69 206.27 183.76 203.31"/><line class="cls-4" x1="117.12" y1="203.23" x2="179.77" y2="203.23"/><polyline class="cls-8" points="113.53 203.15 121.6 206.27 117.53 203.15 121.6 200.2 113.53 203.15"/><text class="cls-6" transform="translate(145.51 215.7)">d</text><polyline class="cls-8" points="109.61 203.31 101.54 200.2 105.61 203.31 101.54 206.27 109.61 203.31"/><line class="cls-4" x1="42.96" y1="203.23" x2="105.61" y2="203.23"/><polyline class="cls-8" points="39.38 203.15 47.45 206.27 43.37 203.15 47.45 200.2 39.38 203.15"/><text class="cls-6" transform="translate(71.35 215.7)">d</text><text class="cls-6" transform="translate(15.28 35.7)">θ</text><text class="cls-6" transform="translate(120.28 130.89)">∆d</text><line class="cls-1" x1="35.45" y1="137.75" x2="395.84" y2="13.33"/><line class="cls-4" x1="105.48" y1="118.27" x2="110.81" y2="133.89"/><polyline class="cls-8" points="105 116.84 104.75 123.08 106.29 120.62 108.91 121.67 105 116.84"/><polyline class="cls-8" points="111.43 135.84 111.68 129.6 110.14 132.06 107.53 131.01 111.43 135.84"/><text class="cls-6" transform="translate(272.48 100.66)">θ</text><text class="cls-12" transform="translate(295.47 39.05) rotate(-19.03)">Target Wavefront</text><text class="cls-6" transform="translate(193.81 129.9)">2 <tspan x="8.33" y="0">∆d</tspan></text><text class="cls-6" transform="translate(338.77 125.14)">(<tspan x="3.67" y="0">N</tspan></text><text class="cls-6" transform="translate(350.42 129.14) scale(0.58)">a</text><text class="cls-6" transform="translate(353.82 125.14)">—2) <tspan x="20.98" y="0">∆d</tspan></text><text class="cls-12" transform="translate(183.38 193.73)">3</text><text class="cls-12" transform="translate(107.73 193.73)">2</text><text class="cls-12" transform="translate(32.45 193.73)">1</text><text class="cls-6" transform="translate(416.9 125.14)">(<tspan x="3.67" y="0">N</tspan></text><text class="cls-6" transform="translate(428.55 129.14) scale(0.58)">a</text><text class="cls-6" transform="translate(431.95 125.14)">—1) <tspan x="20.98" y="0">∆d</tspan></text><path class="cls-1" d="M3.39,44.69l1.71-.57"/><path class="cls-13" d="M8.19,43.17A98.18,98.18,0,0,1,32,39.41"/><path class="cls-1" d="M33.65,39.36h1.8"/></svg>