<svg id="Capa_1" data-name="Capa 1" xmlns="http://www.w3.org/2000/svg" viewBox="0 0 472.91 198.4"><defs><style>.cls-1,.cls-15,.cls-16,.cls-3,.cls-4,.cls-5,.cls-6{fill:none;}.cls-1,.cls-10,.cls-14,.cls-15,.cls-16,.cls-3,.cls-4,.cls-5,.cls-6{stroke:#000;}.cls-1,.cls-10,.cls-3,.cls-6{stroke-miterlimit:10;}.cls-1,.cls-14,.cls-15,.cls-3,.cls-6{stroke-width:0.52px;}.cls-1,.cls-5{stroke-dasharray:3.6 3.6;}.cls-2{fill:#fff;}.cls-3{stroke-dasharray:3.6 2;}.cls-15,.cls-16,.cls-4,.cls-5{stroke-linecap:round;}.cls-14,.cls-15,.cls-16,.cls-4,.cls-5{stroke-linejoin:round;}.cls-4,.cls-5{stroke-width:0.52px;}.cls-13,.cls-7{font-size:12px;}.cls-7{font-family:LinLibertineI, Linux Libertine;}.cls-10,.cls-13,.cls-8{font-family:Palatino-Roman, Palatino;}.cls-9{fill-rule:evenodd;}.cls-10{font-size:8.6px;stroke-width:0.25px;letter-spacing:0.17em;}.cls-11{letter-spacing:0.17em;}.cls-12{letter-spacing:0em;}.cls-14{fill:#ccc;}.cls-15{stroke-dasharray:3.6 3.6;}.cls-16{stroke-width:0.8px;}</style></defs><title>doa</title><path class="cls-1" d="M272.51,43.45A136.6,136.6,0,0,1,292,160.26"/><rect class="cls-2" x="131.84" y="-55.4" width="71.74" height="239.9" transform="translate(189.88 -113.78) rotate(76.04)"/><circle class="cls-3" cx="98.1" cy="119.2" r="52.16"/><rect class="cls-2" x="27.18" y="56.88" width="70.27" height="128.21" transform="translate(151.99 223.36) rotate(166.04)"/><polyline class="cls-2" points="38.55 122.12 319.87 114.03 322.25 196.7"/><rect class="cls-2" x="95.84" y="36.34" width="99.3" height="140.14"/><line class="cls-4" x1="98.1" y1="153.28" x2="98.1" y2="119.2"/><line class="cls-5" x1="98.1" y1="119.2" x2="98.1" y2="43.72"/><line class="cls-5" x1="245.03" y1="119.24" x2="329.18" y2="119.24"/><line class="cls-4" x1="98.1" y1="153.28" x2="259.7" y2="153.28"/><line class="cls-4" x1="226.26" y1="153.28" x2="226.26" y2="119.2"/><polygon class="cls-6" points="226.26 141.73 219.76 130.48 213.27 119.24 226.26 119.24 239.25 119.24 232.75 130.48 226.26 141.73"/><line class="cls-4" x1="162.18" y1="153.28" x2="162.18" y2="119.2"/><polygon class="cls-6" points="162.18 141.73 155.69 130.48 149.19 119.24 162.18 119.24 175.17 119.24 168.67 130.48 162.18 141.73"/><line class="cls-4" x1="98.1" y1="153.28" x2="98.1" y2="119.2"/><polygon class="cls-6" points="98.1 141.73 91.61 130.48 85.11 119.24 98.1 119.24 111.09 119.24 104.59 130.48 98.1 141.73"/><text class="cls-7" transform="translate(406.31 166.74)">N</text><text class="cls-7" transform="translate(414.29 170.74) scale(0.58)">a</text><line class="cls-4" x1="311.54" y1="153.28" x2="412" y2="153.28"/><line class="cls-4" x1="347.92" y1="153.28" x2="347.92" y2="119.2"/><polygon class="cls-6" points="347.92 141.73 341.43 130.48 334.94 119.24 347.92 119.24 360.91 119.24 354.42 130.48 347.92 141.73"/><line class="cls-4" x1="412" y1="153.28" x2="412" y2="119.2"/><polygon class="cls-6" points="412 141.73 405.51 130.48 399.01 119.24 412 119.24 424.99 119.24 418.49 130.48 412 141.73"/><text class="cls-7" transform="translate(331.78 166.74)">N</text><text class="cls-7" transform="translate(339.76 170.74) scale(0.58)">a</text><text class="cls-7" transform="translate(343.16 166.74)"><tspan xml:space="preserve"> — </tspan><tspan class="cls-8" x="14.9" y="0">1</tspan></text><polyline class="cls-9" points="409.8 179.12 402.95 176.47 406.41 179.12 402.95 181.63 409.8 179.12"/><line class="cls-4" x1="353.21" y1="179.05" x2="406.41" y2="179.05"/><polyline class="cls-9" points="350.17 178.98 357.02 181.63 353.56 178.98 357.02 176.47 350.17 178.98"/><line class="cls-5" x1="77.33" y1="34.89" x2="98.17" y2="119.46"/><polyline class="cls-9" points="411.83 116.73 412.76 109.44 411.02 113.43 407.75 110.67 411.83 116.73"/><line class="cls-4" x1="395.2" y1="48.94" x2="411.09" y2="113.42"/><polyline class="cls-9" points="394.85 47.4 393.93 54.68 395.67 50.69 398.93 53.45 394.85 47.4"/><polyline class="cls-9" points="225.56 116.55 226.49 109.26 224.75 113.26 221.48 110.5 225.56 116.55"/><line class="cls-4" x1="219.96" y1="93.68" x2="225.09" y2="114.51"/><polyline class="cls-9" points="219.47 91.92 218.54 99.2 220.28 95.21 223.55 97.97 219.47 91.92"/><line class="cls-4" x1="159.62" y1="107.61" x2="161.7" y2="116.04"/><polyline class="cls-9" points="159.07 105.21 158.4 110.47 159.89 108.5 162.02 109.58 159.07 105.21"/><polyline class="cls-9" points="347.63 116.73 348.56 109.44 346.82 113.43 343.55 110.67 347.63 116.73"/><line class="cls-4" x1="334.86" y1="64.63" x2="346.88" y2="113.42"/><polyline class="cls-9" points="334.31 62.44 333.39 69.72 335.13 65.73 338.39 68.49 334.31 62.44"/><text class="cls-7" transform="translate(376.88 192.19)">d</text><text class="cls-10" transform="translate(281.21 153.28)">.<tspan class="cls-11" x="3.59" y="0">.</tspan><tspan class="cls-12" x="7.17" y="0">.</tspan></text><polyline class="cls-9" points="224.04 179.12 217.18 176.47 220.64 179.12 217.18 181.63 224.04 179.12"/><line class="cls-4" x1="167.44" y1="179.05" x2="220.64" y2="179.05"/><polyline class="cls-9" points="164.4 178.98 171.25 181.63 167.79 178.98 171.25 176.47 164.4 178.98"/><text class="cls-7" transform="translate(191.11 192.19)">d</text><polyline class="cls-9" points="161.07 179.12 154.22 176.47 157.68 179.12 154.22 181.63 161.07 179.12"/><line class="cls-4" x1="104.48" y1="179.05" x2="157.68" y2="179.05"/><polyline class="cls-9" points="101.43 178.98 108.29 181.63 104.83 178.98 108.29 176.47 101.43 178.98"/><text class="cls-7" transform="translate(128.14 192.19)">d</text><text class="cls-7" transform="translate(87.17 62.43)">θ</text><text class="cls-7" transform="translate(169.16 113.38)">∆d</text><line class="cls-6" x1="97.94" y1="119.24" x2="412" y2="40.66"/><polyline class="cls-9" points="162.08 117.74 162.75 112.48 161.26 114.44 159.13 113.36 162.08 117.74"/><text class="cls-7" transform="translate(299.77 95.56)">θ</text><text class="cls-13" transform="translate(315.64 57.57) rotate(-14.03)">Target Wavefront</text><text class="cls-7" transform="translate(230.96 113.81)">2 <tspan x="8.33" y="0">∆d</tspan></text><text class="cls-7" transform="translate(351.97 109.76)">(<tspan x="3.67" y="0">N</tspan></text><text class="cls-7" transform="translate(363.62 113.76) scale(0.58)">a</text><text class="cls-7" transform="translate(367.02 109.76)">—2) <tspan x="20.98" y="0">∆d</tspan></text><text class="cls-13" transform="translate(223.26 166.74)">3</text><text class="cls-13" transform="translate(159.02 166.74)">2</text><text class="cls-13" transform="translate(95.1 166.74)">1</text><text class="cls-7" transform="translate(418.31 109.76)">(<tspan x="3.67" y="0">N</tspan></text><text class="cls-7" transform="translate(429.96 113.76) scale(0.58)">a</text><text class="cls-7" transform="translate(433.36 109.76)">—1) <tspan x="20.98" y="0">∆d</tspan></text><path class="cls-14" d="M48.93,53.54c11.69-2.66,26.65,8,34.55-2.88s-5.32-24.12-23-28.79c-12.65-3.33-26.29-6.76-37.43,0A24.17,24.17,0,0,0,11.51,42c-.26,10.88,7.1,20.63,17.27,20.16C36.27,61.82,41.7,55.19,48.93,53.54Z"/><line class="cls-15" x1="88.19" y1="42.17" x2="97.62" y2="42.17"/><polyline points="93.86 43.72 97.62 42.17 93.86 40.61"/><polygon class="cls-16" points="93.86 43.72 97.62 42.17 93.86 40.61 93.86 43.72"/><line class="cls-15" x1="52.76" y1="16.95" x2="54.92" y2="4.69"/><polyline points="56.13 6.95 55.25 2.98 53.07 6.41"/><polygon class="cls-16" points="56.13 6.95 55.25 2.98 53.07 6.41 56.13 6.95"/><line class="cls-15" x1="13.33" y1="27.22" x2="2.69" y2="23.35"/><polyline points="6.75 23.17 2.69 23.35 5.68 26.09"/><polygon class="cls-16" points="6.75 23.17 2.69 23.35 5.68 26.09 6.75 23.17"/><line class="cls-15" x1="34.37" y1="64.83" x2="26.51" y2="78.44"/><polyline points="24.74 78.44 24.21 82.47 27.43 80"/><polygon class="cls-16" points="24.74 78.44 24.21 82.47 27.43 80 24.74 78.44"/><line class="cls-15" x1="14.35" y1="58.65" x2="4.96" y2="64.98"/><polyline points="7.2 61.59 4.96 64.98 8.94 64.17"/><polygon class="cls-16" points="7.2 61.59 4.96 64.98 8.94 64.17 7.2 61.59"/><text class="cls-13" transform="translate(30.27 40.65)">Target</text><line class="cls-15" x1="52.47" y1="58.65" x2="58.77" y2="83.3"/><polyline points="56.34 80.05 58.77 83.3 59.35 79.28"/><polygon class="cls-16" points="56.34 80.05 58.77 83.3 59.35 79.28 56.34 80.05"/><line class="cls-15" x1="77.25" y1="25.06" x2="84.2" y2="14.74"/><polyline points="84.39 17.29 85.2 13.31 81.81 15.55"/><polygon class="cls-16" points="84.39 17.29 85.2 13.31 81.81 15.55 84.39 17.29"/><line class="cls-15" x1="27.41" y1="16.93" x2="24.65" y2="4.79"/><polyline points="26.64 6.41 24.29 3.09 23.61 7.09"/><polygon class="cls-16" points="26.64 6.41 24.29 3.09 23.61 7.09 26.64 6.41"/></svg>