<svg id="Capa_1" data-name="Capa 1" xmlns="http://www.w3.org/2000/svg" viewBox="0 0 125.24 103.27"><defs><style>.cls-1{font-size:12px;font-family:LinLibertineI, Linux Libertine;}.cls-2{fill-rule:evenodd;}.cls-3,.cls-7{fill:none;}.cls-3,.cls-4,.cls-5,.cls-7{stroke:#000;stroke-linecap:round;stroke-linejoin:round;stroke-width:0.52px;}.cls-3{stroke-dasharray:3;}.cls-4{fill:#999;}.cls-5,.cls-6{fill:#fff;}</style></defs><title>ghostTargets</title><g id="ghostTargets"><text class="cls-1" transform="translate(115.61 101.25) rotate(-0.93)">R</text><text class="cls-1" transform="translate(0.18 8.06)">v</text><text class="cls-1" transform="translate(5.84 12.05) scale(0.58)">r</text><polyline class="cls-2" points="14.91 2 12.57 8.06 14.91 5 17.13 8.06 14.91 2"/><polyline class="cls-2" points="113.95 98.97 107.89 96.63 110.95 98.97 107.89 101.19 113.95 98.97"/><line class="cls-3" x1="31.95" y1="10.23" x2="110.57" y2="88.85"/><line class="cls-3" x1="6.64" y1="16.05" x2="90.35" y2="99.76"/><line class="cls-3" x1="31.22" y1="98.91" x2="110.08" y2="20.05"/><line class="cls-3" x1="12.88" y1="88.21" x2="91.75" y2="9.34"/><circle class="cls-4" cx="61.41" cy="39.69" r="3.11"/><circle class="cls-5" cx="75.93" cy="54.2" r="3.11"/><circle class="cls-5" cx="45.78" cy="55.32" r="3.11"/><circle class="cls-4" cx="60.36" cy="69.77" r="3.11"/><text class="cls-1" transform="translate(52.31 26.09)">Tg</text><text class="cls-1" transform="translate(64.56 30.09) scale(0.58)">1</text><text class="cls-1" transform="translate(52.31 89.55)">Tg</text><text class="cls-1" transform="translate(64.56 93.55) scale(0.58)">2</text><text class="cls-1" transform="translate(19.72 56.68)">Tg</text><text class="cls-1" transform="translate(31.96 60.67) scale(0.58)">g</text><text class="cls-1" transform="translate(84.02 56.68)">Tg</text><text class="cls-1" transform="translate(96.27 60.68) scale(0.58)">g</text><rect class="cls-6" x="4.26" y="15.56" width="10.59" height="18.91"/><rect class="cls-6" x="6.69" y="74.47" width="8.16" height="22.16"/><rect class="cls-6" x="19.49" y="98.91" width="81.75" height="4.36"/><line class="cls-7" x1="14.85" y1="98.91" x2="14.85" y2="5"/><line class="cls-7" x1="14.85" y1="98.91" x2="110.92" y2="98.91"/></g></svg>