<svg id="Capa_1" data-name="Capa 1" xmlns="http://www.w3.org/2000/svg" viewBox="0 0 244.95 171.2"><defs><style>.cls-1,.cls-12,.cls-2,.cls-5{fill:none;stroke-linecap:round;stroke-linejoin:round;}.cls-1{stroke:#0037ff;}.cls-1,.cls-2{stroke-width:1.5px;}.cls-2{stroke:#ff0049;}.cls-3{fill:#fff;}.cls-4{fill-rule:evenodd;}.cls-12,.cls-5{stroke:#000;}.cls-5{stroke-width:0.52px;}.cls-6,.cls-7{font-size:12px;}.cls-6,.cls-8{font-family:LinLibertineI, Linux Libertine;}.cls-10,.cls-11,.cls-7,.cls-9{font-family:LinLibertine, Linux Libertine;}.cls-10,.cls-11,.cls-9{font-size:10.5px;}.cls-9{fill:#0037ff;}.cls-10{fill:#ff0045;}.cls-12{stroke-width:0.52px;stroke-dasharray:2;}</style></defs><title>LFM_for_a_FMCW_Radar</title><line class="cls-1" x1="81.44" y1="99.93" x2="149.99" y2="31.37"/><line class="cls-1" x1="154.02" y1="27.13" x2="156.14" y2="25"/><line class="cls-1" x1="160.47" y1="20.68" x2="162.59" y2="18.55"/><line class="cls-2" x1="104.45" y1="107.36" x2="180.4" y2="31.41"/><line class="cls-2" x1="184.43" y1="27.16" x2="186.55" y2="25.04"/><line class="cls-2" x1="190.88" y1="20.71" x2="193" y2="18.59"/><rect class="cls-3" x="81.44" y="99.93" width="52.74" height="33.23"/><polyline class="cls-4" points="208.24 99.99 202.18 97.65 205.24 99.99 202.18 102.21 208.24 99.99"/><rect class="cls-3" x="64.29" y="79.28" width="17.02" height="33.23"/><line class="cls-5" x1="64.29" y1="99.93" x2="205.24" y2="99.93"/><polyline class="cls-4" points="81.5 0 79.16 6.06 81.5 3 83.72 6.06 81.5 0"/><line class="cls-5" x1="81.44" y1="150.84" x2="81.44" y2="3"/><text class="cls-6" transform="translate(100.98 49.71)">f</text><text class="cls-6" transform="translate(104.75 53.7) scale(0.58)">b </text><text class="cls-6" transform="translate(92.14 116.25)">t</text><text class="cls-6" transform="translate(95.82 120.25) scale(0.58)">d</text><text class="cls-6" transform="translate(103.72 138.74)">T</text><text class="cls-6" transform="translate(110.25 142.74) scale(0.58)">d </text><text class="cls-7" transform="translate(48.33 60.6)">Δ<tspan class="cls-8" x="7.63" y="0">f</tspan></text><polyline class="cls-4" points="109.12 104.55 103.06 102.21 106.12 104.55 103.06 106.77 109.12 104.55"/><line class="cls-5" x1="84.22" y1="104.49" x2="106.93" y2="104.49"/><polyline class="cls-4" points="82.44 104.55 88.5 102.21 85.44 104.55 88.5 106.77 82.44 104.55"/><polyline class="cls-4" points="137.95 125.19 131.89 122.85 134.95 125.19 131.89 127.41 137.95 125.19"/><line class="cls-5" x1="84.22" y1="125.13" x2="134.92" y2="125.13"/><polyline class="cls-4" points="82.45 125.19 88.52 122.85 85.45 125.19 88.52 127.41 82.45 125.19"/><line class="cls-5" x1="71.85" y1="98.08" x2="71.85" y2="29.97"/><polyline class="cls-4" points="71.92 98.93 69.58 92.87 71.92 95.93 74.14 92.87 71.92 98.93"/><line class="cls-5" x1="139.12" y1="99.93" x2="139.12" y2="125.13"/><text class="cls-9" transform="translate(163.19 11.03)">TX</text><text class="cls-10" transform="translate(193.27 11.03)">RX</text><text class="cls-11" transform="translate(9.97 11.03)">Transmitted<tspan x="9.35" y="12.6">frequency</tspan></text><text class="cls-11" transform="translate(216.05 103.23)">Time</text><polyline class="cls-4" points="148.21 37.63 145.87 43.69 148.21 40.63 150.43 43.69 148.21 37.63"/><line class="cls-5" x1="148.15" y1="56.89" x2="148.15" y2="39.69"/><polyline class="cls-4" points="148.21 59.92 145.87 53.86 148.21 56.92 150.43 53.86 148.21 59.92"/><line class="cls-5" x1="83.77" y1="150.84" x2="158.31" y2="150.84"/><polyline class="cls-4" points="82.45 150.9 88.52 148.56 85.45 150.9 88.52 153.12 82.45 150.9"/><line class="cls-12" x1="71.85" y1="27.81" x2="71.85" y2="18.24"/><line class="cls-12" x1="160.95" y1="150.84" x2="170.52" y2="150.84"/><text class="cls-6" transform="translate(116.59 164.32)">T</text><text class="cls-6" transform="translate(123.12 168.32) scale(0.58)">s </text><polyline class="cls-4" points="144.92 48.83 138.86 46.49 141.92 48.83 138.86 51.05 144.92 48.83"/><line class="cls-5" x1="113.27" y1="48.77" x2="141.72" y2="48.77"/><text class="cls-6" transform="translate(50.52 99.93)">f</text><text class="cls-7" transform="translate(54.29 103.92) scale(0.58)">0</text></svg>