<svg id="Capa_1" data-name="Capa 1" xmlns="http://www.w3.org/2000/svg" viewBox="0 0 797.21 281.24"><defs><style>.cls-1{font-size:20px;font-family:Palatino-Roman, Palatino;}.cls-2{letter-spacing:-0.01em;}.cls-3{letter-spacing:0.01em;}.cls-4{letter-spacing:-0.01em;}.cls-10,.cls-11,.cls-12,.cls-14,.cls-16,.cls-5,.cls-6,.cls-8{fill:none;}.cls-10,.cls-11,.cls-12,.cls-5,.cls-6,.cls-9{stroke:#000;}.cls-10,.cls-11,.cls-14,.cls-16,.cls-5,.cls-6,.cls-8,.cls-9{stroke-linejoin:round;}.cls-12,.cls-14,.cls-16,.cls-5,.cls-8{stroke-width:0.85px;}.cls-6{stroke-width:1.59px;}.cls-7{fill:#fbeade;}.cls-8{stroke:#e37222;}.cls-9{fill:#ccc;stroke-width:1.69px;}.cls-10,.cls-11{stroke-linecap:round;stroke-width:0.8px;}.cls-10{stroke-dasharray:3.6 3.6;}.cls-12{stroke-miterlimit:10;stroke-dasharray:20.32 2.03 2.03 2.03;}.cls-13{fill:#0037ff;}.cls-14{stroke:#0037ff;}.cls-15{fill:#ff0045;}.cls-16{stroke:#ff0045;}</style></defs><title>principleRADAR</title><text class="cls-1" transform="translate(120.98 249.19)">Transmitter/<tspan class="cls-2" x="116.4" y="0">R</tspan><tspan class="cls-3" x="129.62" y="0">e</tspan><tspan x="139.32" y="0">cei</tspan><tspan class="cls-4" x="163.59" y="0">v</tspan><tspan x="174.75" y="0">er</tspan></text><polygon class="cls-5" points="47.33 251.96 47.33 267.92 79.26 267.92 79.26 236 47.33 236 47.33 251.96"/><polyline class="cls-5" points="56.91 236 63.3 204.07 69.68 236"/><path class="cls-6" d="M65.08,178.59a25.54,25.54,0,0,0,19.39,39.76"/><polyline class="cls-7" points="2.09 274.96 2.09 281.24 796.56 281.24 796.56 268.68 2.09 268.68"/><line class="cls-8" x1="1.44" y1="268.08" x2="797.21" y2="268.08"/><path class="cls-9" d="M609,131c26.22-5.42,59.76,16.18,77.49-5.86,17.92-22.28-11.93-49.09-51.66-58.6-28.37-6.79-59-13.76-83.94,0-15.8,8.71-25.4,24.24-25.83,41-.57,22.15,15.93,42,38.74,41C580.64,147.91,592.82,134.39,609,131Z"/><line class="cls-10" x1="697.1" y1="105.95" x2="718.24" y2="105.95"/><polyline points="711.98 109.44 720.4 105.95 711.98 102.47"/><polygon class="cls-11" points="711.98 109.44 720.4 105.95 711.98 102.47 711.98 109.44"/><line class="cls-10" x1="656.02" y1="66.91" x2="692.56" y2="36.25"/><polyline points="688.35 44.34 692.56 36.25 683.87 38.99"/><polygon class="cls-11" points="688.35 44.34 692.56 36.25 683.87 38.99 688.35 44.34"/><line class="cls-10" x1="617.62" y1="54.91" x2="626.65" y2="3.68"/><polyline points="628.95 10.5 626.98 1.6 622.08 9.29"/><polygon class="cls-11" points="628.95 10.5 626.98 1.6 622.08 9.29 628.95 10.5"/><line class="cls-10" x1="576.37" y1="51.21" x2="553.59" y2="11.75"/><polyline points="560.07 15.82 552.84 10.28 554.02 19.31"/><polygon class="cls-11" points="560.07 15.82 552.84 10.28 554.02 19.31 560.07 15.82"/><line class="cls-10" x1="530.9" y1="71.08" x2="507.04" y2="62.39"/><polyline points="511.97 60.6 502.87 61 509.58 67.16"/><polygon class="cls-11" points="511.97 60.6 502.87 61 509.58 67.16 511.97 60.6"/><line class="cls-10" x1="578.44" y1="151.08" x2="553.59" y2="194.14"/><polyline points="552.24 189.62 551.05 198.66 558.28 193.11"/><polygon class="cls-11" points="552.24 189.62 551.05 198.66 558.28 193.11 552.24 189.62"/><line class="cls-10" x1="613.03" y1="134.8" x2="624.05" y2="197.29"/><polyline points="619.15 189.61 624.05 197.29 626.02 188.4"/><polygon class="cls-11" points="619.15 189.61 624.05 197.29 626.02 188.4 619.15 189.61"/><line class="cls-10" x1="654.48" y1="137.69" x2="692.56" y2="169.63"/><polyline points="687.51 170.13 696.2 172.88 691.99 164.79"/><polygon class="cls-11" points="687.51 170.13 696.2 172.88 691.99 164.79 687.51 170.13"/><text class="cls-1" transform="translate(578.45 105.95)">Target</text><line class="cls-10" x1="531.47" y1="140.71" x2="510.41" y2="154.91"/><polyline points="511.5 150.02 506.47 157.62 515.4 155.81"/><polygon class="cls-11" points="511.5 150.02 506.47 157.62 515.4 155.81 511.5 150.02"/><line class="cls-5" x1="60.07" y1="150.63" x2="480.28" y2="59.9"/><line class="cls-12" x1="62.48" y1="202.37" x2="499.42" y2="108.03"/><path class="cls-13" d="M382.51,121.67a47.37,47.37,0,0,1,13.18-6.49,47.08,47.08,0,0,1-14.69-.47l6.33,2.28"/><polyline class="cls-14" points="333.27 128.66 339.52 127.31 339.48 126.64 339.44 125.96 339.41 125.3 339.38 124.66 339.35 124.03 339.33 123.43 339.32 122.86 339.31 122.31 339.31 121.81 339.32 121.35 339.33 120.93 339.36 120.56 339.4 120.23 339.45 119.96 339.51 119.74 339.59 119.57 339.67 119.47 339.77 119.42 339.88 119.42 340 119.48 340.14 119.6 340.29 119.78 340.44 120 340.61 120.28 340.79 120.61 340.98 120.99 341.18 121.41 341.39 121.87 341.6 122.36 341.83 122.89 342.06 123.45 342.29 124.03 342.53 124.63 342.77 125.25 343.01 125.87 343.26 126.5 343.5 127.13 343.75 127.76 343.99 128.37 344.23 128.97 344.46 129.56 344.69 130.11 344.92 130.64 345.13 131.14 345.34 131.6 345.54 132.01 345.73 132.39 345.91 132.72 346.08 133 346.24 133.23 346.38 133.4 346.52 133.52 346.64 133.58 346.75 133.59 346.85 133.54 346.93 133.43 347.01 133.27 347.07 133.05 347.12 132.77 347.16 132.45 347.19 132.08 347.2 131.66 347.21 131.19 347.21 130.69 347.2 130.15 347.19 129.57 347.17 128.97 347.14 128.34 347.11 127.7 347.08 127.04 347.04 126.37 347.01 125.69 346.97 125.02 346.93 124.35 346.9 123.69 346.87 123.04 346.84 122.42 346.82 121.81 346.81 121.24 346.8 120.7 346.8 120.19 346.81 119.73 346.83 119.31 346.85 118.94 346.89 118.61 346.94 118.34 347 118.12 347.08 117.96 347.16 117.85 347.26 117.8 347.37 117.8 347.49 117.87 347.63 117.99 347.77 118.16 347.93 118.39 348.1 118.67 348.28 119 348.47 119.37 348.67 119.79 348.88 120.25 349.1 120.75 349.32 121.27 349.55 121.83 349.78 122.41 350.02 123.01 350.26 123.63 350.51 124.25 350.75 124.89 351 125.51 351.24 126.14 351.48 126.75 351.72 127.36 351.95 127.94 352.18 128.49 352.41 129.02 352.62 129.52 352.83 129.98 353.03 130.4 353.22 130.77 353.4 131.1 353.57 131.38 353.73 131.61 353.87 131.78 354.01 131.9 354.13 131.96 354.24 131.97 354.34 131.92 354.42 131.81 354.5 131.65 354.56 131.43 354.61 131.16 354.65 130.83 354.68 130.46 354.69 130.04 354.7 129.57 354.7 129.07 354.69 128.53 354.68 127.95 354.66 127.35 354.63 126.73 354.6 126.08 354.57 125.42 354.53 124.75 354.5 124.08 354.46 123.4 354.42 122.73 354.39 122.07 354.36 121.42 354.33 120.8 354.31 120.19 354.3 119.62 354.29 119.08 354.29 118.58 354.3 118.11 354.31 117.69 354.34 117.32 354.38 117 354.43 116.72 354.49 116.5 354.57 116.34 354.65 116.23 354.75 116.18 354.86 116.19 354.98 116.25 355.12 116.37 355.26 116.54 355.42 116.77 355.59 117.05 355.77 117.38 355.96 117.75 356.16 118.17 356.37 118.63 356.58 119.13 356.81 119.66 357.04 120.21 357.27 120.8 357.51 121.4 357.75 122.01 358 122.64 358.24 123.27 358.49 123.9 358.73 124.52 358.97 125.14 359.21 125.74 359.44 126.32 359.67 126.88 359.9 127.41 360.11 127.9 360.32 128.36 360.52 128.78 360.71 129.16 360.89 129.49 361.06 129.76 361.22 129.99 361.36 130.16 361.5 130.28 361.62 130.35 361.73 130.35 361.83 130.3 361.91 130.19 361.99 130.03 362.05 129.81 362.1 129.54 362.14 129.22 362.17 128.84 362.19 128.42 362.19 127.96 362.19 127.45 362.19 126.91 362.17 126.34 362.15 125.74 362.12 125.11 362.09 124.46 362.06 123.8 362.02 123.13 361.99 122.46 361.95 121.78 361.91 121.11 361.88 120.45 361.85 119.81 361.82 119.18 361.8 118.58 361.79 118 361.78 117.46 361.78 116.96 361.79 116.5 361.81 116.08 361.83 115.7 361.87 115.38 361.92 115.11 361.98 114.89 362.06 114.72 362.14 114.61 362.24 114.56 362.35 114.57 362.47 114.63 362.61 114.75 362.75 114.93 362.91 115.15 363.08 115.43 363.26 115.76 363.45 116.14 363.65 116.56 363.86 117.02 364.07 117.51 364.3 118.04 364.53 118.6 364.76 119.18 365 119.78 365.24 120.39 365.49 121.02 365.73 121.65 365.98 122.28 366.22 122.91 366.46 123.52 366.7 124.12 366.94 124.7 367.16 125.26 367.39 125.79 367.6 126.28 367.81 126.74 368.01 127.16 368.2 127.54 368.38 127.87 368.55 128.15 368.71 128.37 368.85 128.55 368.99 128.67 369.11 128.73 369.22 128.74 369.32 128.68 369.4 128.58 369.48 128.41 369.54 128.19 369.59 127.92 369.63 127.6 369.66 127.22 369.68 126.8 369.68 126.34 369.68 125.84 369.68 125.3 369.66 124.72 369.64 124.12 369.61 123.49 369.58 122.85 369.55 122.19 369.51 121.52 369.48 120.84 369.44 120.17 369.4 119.5 369.37 118.83 369.34 118.19 369.31 117.56 369.29 116.96 369.28 116.39 369.27 115.85 369.27 115.34 369.28 114.88 369.3 114.46 369.32 114.08 369.36 113.76 369.41 113.49 369.47 113.27 369.55 113.11 369.63 113 369.73 112.95 369.84 112.95 369.96 113.02 370.1 113.14 370.25 113.31 370.4 113.54 370.57 113.81 370.75 114.14 370.94 114.52 371.14 114.94 371.35 115.4 371.56 115.89 371.79 116.42 372.02 116.98 372.25 117.56 372.49 118.16 372.73 118.78 372.98 119.4 373.22 120.03 373.47 120.66 373.71 121.29 373.95 121.91 374.19 122.5 374.43 123.08 374.65 123.64 374.88 124.17 375.09 124.67 375.3 125.13 375.5 125.55 375.69 125.92 375.87 126.25 376.04 126.53 376.2 126.76 376.34 126.93 376.48 127.05 376.6 127.11 376.71 127.12 376.81 127.07 376.89 126.96 376.97 126.8 377.03 126.58 377.08 126.31 377.12 125.98 377.15 125.61 377.17 125.19 377.17 124.72 377.18 124.22 377.17 123.68 377.15 123.11 377.13 122.5 377.1 121.88 377.07 121.23 377.04 120.57 377 119.9 376.97 119.22 387.33 116.99"/><path class="cls-13" d="M297,140.39a47.1,47.1,0,0,1,13.18-6.49,47.39,47.39,0,0,1-14.69-.48l6.33,2.28"/><polyline class="cls-14" points="247.79 147.37 254.03 146.03 254.01 145.41 253.99 144.79 253.96 144.18 253.94 143.59 253.93 143.01 253.92 142.46 253.91 141.93 253.91 141.43 253.92 140.97 253.94 140.54 253.97 140.15 254 139.81 254.04 139.51 254.1 139.26 254.16 139.06 254.24 138.91 254.33 138.8 254.43 138.75 254.53 138.76 254.66 138.81 254.79 138.92 254.93 139.08 255.09 139.29 255.25 139.54 255.42 139.84 255.6 140.18 255.79 140.56 256 140.98 256.2 141.44 256.42 141.92 256.63 142.43 256.86 142.96 257.08 143.51 257.31 144.07 257.55 144.64 257.78 145.22 258.01 145.79 258.25 146.36 258.48 146.93 258.7 147.47 258.93 148.01 259.15 148.51 259.36 149 259.56 149.45 259.76 149.87 259.96 150.25 260.14 150.59 260.31 150.89 260.48 151.15 260.63 151.35 260.77 151.51 260.9 151.62 261.03 151.68 261.14 151.68 261.23 151.63 261.32 151.53 261.4 151.38 261.46 151.18 261.52 150.92 261.56 150.63 261.6 150.28 261.62 149.89 261.64 149.47 261.65 149 261.65 148.5 261.64 147.97 261.63 147.42 261.62 146.85 261.6 146.25 261.57 145.65 261.55 145.03 261.53 144.41 261.5 143.79 261.48 143.17 261.45 142.56 261.43 141.97 261.42 141.4 261.41 140.84 261.4 140.31 261.4 139.81 261.41 139.35 261.43 138.93 261.45 138.54 261.49 138.19 261.53 137.89 261.59 137.64 261.65 137.44 261.73 137.29 261.82 137.19 261.92 137.14 262.02 137.14 262.15 137.2 262.28 137.31 262.42 137.46 262.57 137.67 262.74 137.92 262.91 138.22 263.1 138.56 263.29 138.95 263.49 139.37 263.69 139.82 263.9 140.3 264.12 140.81 264.35 141.34 264.57 141.89 264.8 142.45 265.04 143.02 265.27 143.6 265.5 144.18 265.74 144.75 265.97 145.31 266.19 145.86 266.42 146.39 266.64 146.9 266.85 147.38 267.06 147.83 267.25 148.25 267.45 148.63 267.63 148.98 267.8 149.28 267.97 149.53 268.12 149.74 268.26 149.9 268.4 150 268.52 150.06 268.63 150.06 268.72 150.01 268.81 149.91 268.89 149.76 268.95 149.56 269.01 149.31 269.05 149.01 269.08 148.66 269.11 148.28 269.13 147.85 269.14 147.38 269.14 146.89 269.13 146.36 269.12 145.81 269.11 145.23 269.09 144.64 269.06 144.03 269.04 143.41 269.02 142.79 268.99 142.17 268.97 141.55 268.94 140.95 268.93 140.35 268.91 139.78 268.9 139.22 268.89 138.7 268.89 138.2 268.9 137.73 268.92 137.31 268.95 136.92 268.98 136.58 269.02 136.28 269.08 136.02 269.14 135.82 269.22 135.67 269.31 135.57 269.41 135.52 269.52 135.52 269.64 135.58 269.77 135.69 269.91 135.84 270.06 136.05 270.23 136.31 270.4 136.61 270.58 136.95 270.78 137.33 270.98 137.75 271.18 138.2 271.4 138.68 271.62 139.19 271.84 139.72 272.07 140.27 272.3 140.84 272.53 141.41 272.76 141.98 272.99 142.56 273.23 143.13 273.46 143.69 273.68 144.24 273.91 144.77 274.13 145.28 274.34 145.76 274.55 146.22 274.75 146.63 274.94 147.02 275.12 147.36 275.29 147.66 275.46 147.91 275.61 148.12 275.75 148.28 275.88 148.38 276.01 148.44 276.12 148.44 276.21 148.4 276.3 148.3 276.38 148.14 276.44 147.94 276.5 147.69 276.54 147.39 276.58 147.04 276.6 146.66 276.62 146.23 276.63 145.77 276.63 145.27 276.62 144.74 276.61 144.19 276.6 143.61 276.58 143.02 276.56 142.41 276.53 141.79 276.51 141.17 276.48 140.55 276.46 139.94 276.43 139.33 276.42 138.74 276.4 138.16 276.39 137.61 276.38 137.08 276.38 136.58 276.39 136.12 276.41 135.69 276.44 135.3 276.47 134.96 276.51 134.66 276.57 134.41 276.63 134.2 276.71 134.05 276.8 133.95 276.9 133.9 277.01 133.91 277.13 133.96 277.26 134.07 277.4 134.23 277.55 134.43 277.72 134.69 277.89 134.99 278.07 135.33 278.27 135.71 278.47 136.13 278.67 136.59 278.89 137.07 279.1 137.58 279.33 138.11 279.56 138.66 279.79 139.22 280.02 139.79 280.25 140.37 280.49 140.94 280.72 141.51 280.95 142.07 281.18 142.62 281.4 143.16 281.62 143.66 281.83 144.15 282.04 144.6 282.24 145.02 282.43 145.4 282.61 145.74 282.78 146.04 282.95 146.3 283.1 146.5 283.24 146.66 283.38 146.77 283.5 146.82 283.61 146.83 283.7 146.78 283.79 146.68 283.87 146.53 283.93 146.32 283.99 146.07 284.03 145.77 284.07 145.43 284.09 145.04 284.11 144.61 284.12 144.15 284.12 143.65 284.11 143.12 284.1 142.57 284.09 142 284.07 141.4 284.05 140.79 284.02 140.18 284 139.56 283.97 138.94 283.95 138.32 283.93 137.71 283.91 137.12 283.89 136.54 283.88 135.99 283.87 135.46 283.88 134.96 283.88 134.5 283.9 134.07 283.93 133.69 283.96 133.34 284 133.04 284.06 132.79 284.13 132.59 284.2 132.44 284.29 132.34 284.39 132.29 284.5 132.29 284.62 132.34 284.75 132.45 284.89 132.61 285.05 132.82 285.21 133.07 285.38 133.37 285.56 133.71 285.76 134.09 285.96 134.51 286.16 134.97 286.38 135.45 286.59 135.96 286.82 136.49 287.05 137.04 287.28 137.6 287.51 138.17 287.74 138.75 287.97 139.32 288.21 139.9 288.44 140.46 288.67 141.01 288.89 141.54 289.11 142.05 289.32 142.53 289.53 142.98 289.73 143.4 289.92 143.78 290.1 144.13 290.27 144.42 290.44 144.68 290.59 144.88 290.73 145.04 290.87 145.15 290.99 145.21 291.1 145.21 291.19 145.16 291.28 145.06 291.36 144.91 291.42 144.71 291.48 144.45 291.52 144.16 291.56 143.81 291.58 143.42 291.6 143 291.61 142.53 291.61 142.03 291.6 141.51 291.59 140.95 291.58 140.38 291.56 139.78 291.54 139.18 291.51 138.56 291.49 137.94 301.85 135.7"/><path class="cls-13" d="M470.82,103.64A47,47,0,0,1,484,97.15a47.38,47.38,0,0,1-14.69-.48L475.64,99"/><polyline class="cls-14" points="421.59 110.62 427.83 109.28 427.81 108.71 427.8 108.15 427.79 107.59 427.78 107.05 427.78 106.52 427.78 106.02 427.78 105.54 427.79 105.08 427.81 104.66 427.84 104.27 427.87 103.92 427.91 103.6 427.96 103.33 428.02 103.09 428.09 102.91 428.17 102.77 428.25 102.67 428.35 102.63 428.46 102.63 428.58 102.68 428.71 102.77 428.85 102.92 429 103.1 429.16 103.33 429.32 103.6 429.5 103.91 429.68 104.25 429.88 104.63 430.07 105.04 430.27 105.48 430.48 105.94 430.7 106.42 430.91 106.92 431.13 107.43 431.35 107.94 431.57 108.47 431.8 108.99 432.02 109.51 432.24 110.02 432.45 110.51 432.66 110.99 432.87 111.45 433.07 111.89 433.27 112.3 433.46 112.68 433.65 113.03 433.82 113.33 433.99 113.6 434.15 113.83 434.3 114.02 434.44 114.16 434.56 114.25 434.69 114.3 434.79 114.3 434.89 114.26 434.98 114.17 435.06 114.03 435.13 113.84 435.19 113.61 435.24 113.33 435.28 113.02 435.31 112.66 435.33 112.27 435.35 111.85 435.36 111.4 435.37 110.91 435.37 110.41 435.36 109.88 435.36 109.34 435.34 108.79 435.33 108.22 435.32 107.66 435.31 107.09 435.29 106.53 435.28 105.97 435.27 105.43 435.27 104.91 435.27 104.4 435.27 103.92 435.29 103.47 435.3 103.04 435.33 102.65 435.36 102.3 435.4 101.98 435.45 101.71 435.51 101.48 435.58 101.29 435.66 101.15 435.75 101.06 435.84 101.01 435.95 101.01 436.07 101.06 436.2 101.16 436.34 101.3 436.49 101.48 436.65 101.71 436.81 101.98 436.99 102.29 437.17 102.64 437.37 103.02 437.56 103.43 437.76 103.86 437.97 104.32 438.19 104.8 438.4 105.3 438.62 105.81 438.84 106.33 439.06 106.85 439.29 107.37 439.51 107.89 439.73 108.4 439.94 108.89 440.15 109.38 440.36 109.84 440.56 110.27 440.76 110.68 440.95 111.06 441.14 111.41 441.31 111.72 441.48 111.99 441.64 112.21 441.79 112.4 441.93 112.54 442.06 112.64 442.17 112.69 442.29 112.69 442.38 112.64 442.47 112.55 442.55 112.41 442.62 112.22 442.68 111.99 442.73 111.72 442.77 111.4 442.8 111.05 442.83 110.66 442.84 110.23 442.85 109.78 442.86 109.3 442.86 108.79 442.85 108.27 442.85 107.72 442.83 107.17 442.82 106.61 442.81 106.04 442.8 105.47 442.78 104.91 442.77 104.36 442.76 103.82 442.76 103.29 442.76 102.79 442.76 102.3 442.77 101.85 442.79 101.42 442.82 101.03 442.85 100.68 442.89 100.37 442.94 100.09 443 99.86 443.07 99.67 443.15 99.53 443.24 99.44 443.33 99.39 443.44 99.4 443.56 99.44 443.69 99.54 443.83 99.68 443.98 99.87 444.14 100.1 444.31 100.37 444.48 100.67 444.67 101.02 444.86 101.4 445.05 101.81 445.26 102.25 445.46 102.71 445.68 103.19 445.89 103.68 446.11 104.19 446.33 104.71 446.55 105.23 446.77 105.75 447 106.27 447.21 106.78 447.43 107.28 447.64 107.76 447.85 108.22 448.06 108.66 448.25 109.06 448.44 109.44 448.63 109.79 448.8 110.1 448.97 110.37 449.13 110.6 449.28 110.78 449.42 110.92 449.55 111.02 449.67 111.07 449.77 111.07 449.87 111.02 449.96 110.93 450.04 110.79 450.11 110.6 450.17 110.37 450.22 110.1 450.26 109.78 450.29 109.43 450.32 109.04 450.33 108.62 450.34 108.16 450.35 107.68 450.35 107.17 450.34 106.65 450.34 106.11 450.32 105.55 450.31 104.99 450.3 104.42 450.29 103.86 450.27 103.3 450.26 102.74 450.25 102.2 450.25 101.67 450.25 101.17 450.25 100.69 450.27 100.23 450.28 99.81 450.31 99.42 450.34 99.06 450.38 98.75 450.43 98.47 450.49 98.24 450.56 98.06 450.64 97.92 450.73 97.82 450.82 97.78 450.93 97.78 451.05 97.83 451.18 97.92 451.32 98.06 451.47 98.25 451.63 98.48 451.8 98.75 451.97 99.06 452.15 99.4 452.35 99.78 452.54 100.19 452.75 100.63 452.95 101.09 453.17 101.57 453.38 102.07 453.6 102.58 453.82 103.09 454.04 103.61 454.27 104.14 454.49 104.65 454.7 105.16 454.92 105.66 455.13 106.14 455.34 106.6 455.55 107.04 455.74 107.45 455.93 107.83 456.12 108.17 456.29 108.48 456.46 108.75 456.62 108.98 456.77 109.17 456.91 109.31 457.04 109.4 457.15 109.45 457.26 109.45 457.36 109.41 457.45 109.31 457.53 109.17 457.6 108.99 457.66 108.75 457.71 108.48 457.75 108.17 457.78 107.81 457.81 107.42 457.82 107 457.83 106.54 457.84 106.06 457.84 105.56 457.83 105.03 457.83 104.49 457.82 103.94 457.8 103.37 457.79 102.81 457.77 102.24 457.76 101.68 457.75 101.12 457.74 100.58 457.74 100.06 457.74 99.55 457.75 99.07 457.75 98.61 457.77 98.19 457.8 97.8 457.83 97.45 457.87 97.13 457.92 96.86 457.98 96.63 458.05 96.44 458.13 96.3 458.21 96.21 458.31 96.16 458.42 96.16 458.54 96.21 458.67 96.31 458.81 96.45 458.96 96.63 459.12 96.86 459.29 97.13 459.46 97.44 459.64 97.79 459.84 98.17 460.03 98.58 460.24 99.01 460.44 99.47 460.66 99.95 460.87 100.45 461.09 100.96 461.31 101.48 461.54 102 461.76 102.52 461.98 103.04 462.19 103.55 462.41 104.04 462.63 104.52 462.83 104.98 463.04 105.42 463.23 105.83 463.42 106.21 463.61 106.56 463.78 106.86 463.95 107.14 464.11 107.36 464.26 107.55 464.4 107.69 464.53 107.78 464.64 107.83 464.75 107.83 464.85 107.79 464.94 107.69 465.02 107.56 465.09 107.37 465.15 107.14 465.2 106.86 465.24 106.55 465.27 106.19 465.3 105.81 465.31 105.38 465.32 104.93 465.33 104.44 465.33 103.94 465.32 103.41 465.32 102.87 465.31 102.32 465.29 101.75 465.28 101.19 475.64 98.95"/><path class="cls-15" d="M439.4,133a47,47,0,0,1-13.18,6.49,47.08,47.08,0,0,1,14.69.48l-6.33-2.28"/><polyline class="cls-16" points="488.64 125.96 482.4 127.31 482.4 127.82 482.4 128.33 482.4 128.83 482.4 129.32 482.39 129.8 482.38 130.26 482.36 130.69 482.35 131.1 482.32 131.49 482.29 131.84 482.25 132.16 482.2 132.45 482.14 132.7 482.08 132.91 482.01 133.07 481.93 133.2 481.84 133.29 481.74 133.33 481.63 133.34 481.51 133.29 481.38 133.21 481.25 133.09 481.1 132.92 480.95 132.72 480.79 132.47 480.62 132.2 480.44 131.89 480.26 131.55 480.07 131.19 479.88 130.79 479.69 130.38 479.48 129.95 479.28 129.51 479.07 129.05 478.86 128.59 478.65 128.12 478.44 127.65 478.23 127.19 478.03 126.73 477.82 126.29 477.62 125.86 477.42 125.45 477.23 125.06 477.04 124.69 476.86 124.35 476.68 124.04 476.51 123.77 476.35 123.53 476.2 123.32 476.06 123.16 475.92 123.03 475.79 122.95 475.67 122.91 475.57 122.91 475.47 122.95 475.38 123.04 475.3 123.17 475.22 123.34 475.16 123.55 475.1 123.79 475.06 124.08 475.02 124.4 474.99 124.75 474.96 125.14 474.94 125.55 474.92 125.99 474.91 126.44 474.91 126.92 474.9 127.41 474.9 127.91 474.9 128.42 474.91 128.93 474.91 129.44 474.91 129.95 474.91 130.45 474.9 130.94 474.9 131.41 474.89 131.87 474.87 132.31 474.85 132.72 474.83 133.1 474.8 133.46 474.76 133.78 474.71 134.06 474.65 134.31 474.59 134.52 474.52 134.69 474.44 134.82 474.35 134.91 474.25 134.95 474.14 134.95 474.02 134.91 473.89 134.83 473.76 134.7 473.61 134.54 473.46 134.33 473.3 134.09 473.13 133.82 472.95 133.51 472.77 133.17 472.59 132.8 472.39 132.41 472.19 132 471.99 131.57 471.79 131.12 471.58 130.67 471.37 130.21 471.16 129.74 470.95 129.27 470.74 128.81 470.54 128.35 470.33 127.91 470.13 127.48 469.93 127.06 469.74 126.67 469.55 126.31 469.37 125.97 469.19 125.66 469.02 125.38 468.86 125.14 468.71 124.94 468.56 124.77 468.43 124.65 468.3 124.56 468.19 124.52 468.08 124.53 467.98 124.57 467.89 124.66 467.81 124.78 467.73 124.95 467.67 125.16 467.61 125.41 467.57 125.7 467.53 126.02 467.5 126.37 467.47 126.75 467.45 127.17 467.43 127.6 467.42 128.06 467.42 128.54 467.42 129.03 467.41 129.53 467.42 130.03 467.42 130.55 467.42 131.06 467.42 131.57 467.42 132.07 467.42 132.56 467.41 133.03 467.4 133.49 467.38 133.93 467.36 134.34 467.34 134.72 467.31 135.07 467.27 135.4 467.22 135.68 467.16 135.93 467.1 136.14 467.03 136.31 466.95 136.44 466.86 136.53 466.76 136.57 466.65 136.57 466.53 136.53 466.4 136.44 466.27 136.32 466.12 136.15 465.97 135.95 465.81 135.71 465.64 135.43 465.46 135.13 465.28 134.79 465.09 134.42 464.9 134.03 464.7 133.62 464.5 133.19 464.3 132.74 464.09 132.29 463.88 131.82 463.67 131.35 463.46 130.89 463.25 130.43 463.05 129.97 462.84 129.52 462.64 129.09 462.44 128.68 462.25 128.29 462.06 127.92 461.88 127.58 461.7 127.28 461.53 127 461.37 126.76 461.22 126.56 461.08 126.39 460.94 126.27 460.81 126.18 460.69 126.14 460.59 126.14 460.49 126.19 460.4 126.27 460.31 126.4 460.24 126.57 460.18 126.78 460.13 127.03 460.08 127.31 460.04 127.64 460 127.99 459.98 128.37 459.96 128.78 459.94 129.22 459.93 129.68 459.93 130.15 459.93 130.64 459.92 131.14 459.93 131.65 459.93 132.16 459.93 132.68 459.93 133.18 459.93 133.69 459.93 134.17 459.92 134.65 459.91 135.11 459.89 135.54 459.87 135.96 459.85 136.34 459.81 136.69 459.78 137.01 459.73 137.3 459.67 137.55 459.61 137.76 459.54 137.93 459.46 138.06 459.37 138.14 459.27 138.19 459.16 138.19 459.04 138.15 458.91 138.06 458.78 137.94 458.63 137.77 458.48 137.57 458.32 137.33 458.15 137.05 457.98 136.74 457.79 136.4 457.61 136.04 457.41 135.65 457.21 135.23 457.01 134.8 456.81 134.36 456.6 133.9 456.39 133.44 456.18 132.97 455.97 132.51 455.76 132.04 455.56 131.59 455.35 131.14 455.15 130.71 454.95 130.3 454.76 129.91 454.57 129.54 454.39 129.2 454.21 128.89 454.04 128.62 453.88 128.38 453.73 128.17 453.58 128.01 453.45 127.88 453.32 127.8 453.2 127.76 453.1 127.76 453 127.8 452.91 127.89 452.82 128.02 452.75 128.19 452.69 128.4 452.63 128.65 452.59 128.93 452.55 129.25 452.51 129.61 452.49 129.99 452.47 130.4 452.45 130.84 452.44 131.29 452.44 131.77 452.43 132.26 452.43 132.76 452.43 133.27 452.44 133.78 452.44 134.29 452.44 134.8 452.44 135.3 452.43 135.79 452.43 136.27 452.42 136.72 452.4 137.16 452.38 137.57 452.36 137.96 452.32 138.31 452.29 138.63 452.24 138.92 452.18 139.16 452.12 139.37 452.05 139.54 451.97 139.67 451.88 139.76 451.78 139.8 451.67 139.8 451.55 139.76 451.42 139.68 451.29 139.55 451.14 139.39 450.99 139.19 450.83 138.94 450.66 138.67 450.49 138.36 450.3 138.02 450.12 137.65 449.92 137.26 449.72 136.85 449.52 136.42 449.32 135.98 449.11 135.52 448.9 135.06 448.69 134.59 448.48 134.12 448.27 133.66 448.07 133.2 447.86 132.76 447.66 132.33 447.46 131.91 447.27 131.53 447.08 131.16 446.9 130.82 446.72 130.51 446.55 130.24 446.39 129.99 446.24 129.79 446.1 129.63 445.96 129.5 445.83 129.42 445.71 129.38 445.61 129.38 445.51 129.42 445.42 129.51 445.33 129.63 445.26 129.81 445.2 130.01 445.14 130.26 445.1 130.55 445.06 130.87 445.02 131.22 445 131.61 444.98 132.02 444.96 132.45 444.95 132.91 444.95 133.39 444.94 133.88 444.94 134.38 444.94 134.89 444.94 135.4 434.58 137.64"/><path class="cls-15" d="M350.83,153.15a47.15,47.15,0,0,1-13.19,6.49,47.38,47.38,0,0,1,14.69.48L346,157.84"/><polyline class="cls-16" points="400.06 146.17 393.82 147.51 393.81 147.97 393.8 148.43 393.78 148.87 393.77 149.31 393.75 149.74 393.73 150.15 393.71 150.54 393.68 150.9 393.64 151.25 393.6 151.56 393.56 151.85 393.5 152.11 393.44 152.33 393.37 152.52 393.3 152.67 393.21 152.79 393.12 152.87 393.02 152.91 392.92 152.91 392.8 152.88 392.67 152.81 392.54 152.7 392.4 152.56 392.25 152.38 392.1 152.17 391.94 151.92 391.77 151.65 391.6 151.35 391.42 151.03 391.24 150.68 391.05 150.32 390.86 149.94 390.66 149.55 390.47 149.15 390.27 148.74 390.07 148.32 389.88 147.91 389.68 147.5 389.48 147.1 389.29 146.7 389.1 146.32 388.91 145.96 388.73 145.62 388.55 145.29 388.37 144.99 388.2 144.72 388.05 144.48 387.89 144.27 387.74 144.09 387.6 143.94 387.47 143.84 387.35 143.76 387.23 143.73 387.12 143.73 387.02 143.78 386.93 143.85 386.85 143.97 386.77 144.12 386.7 144.31 386.64 144.54 386.59 144.79 386.54 145.08 386.5 145.4 386.47 145.74 386.44 146.11 386.41 146.5 386.39 146.91 386.37 147.33 386.36 147.77 386.35 148.22 386.34 148.67 386.33 149.13 386.32 149.59 386.31 150.04 386.29 150.49 386.28 150.93 386.26 151.35 386.24 151.76 386.22 152.15 386.19 152.52 386.15 152.87 386.11 153.18 386.07 153.47 386.01 153.72 385.95 153.95 385.88 154.14 385.81 154.29 385.73 154.41 385.63 154.49 385.53 154.53 385.43 154.53 385.31 154.5 385.18 154.43 385.05 154.32 384.91 154.17 384.76 154 384.61 153.78 384.45 153.54 384.28 153.27 384.11 152.97 383.93 152.65 383.75 152.3 383.56 151.94 383.37 151.56 383.17 151.17 382.98 150.76 382.78 150.35 382.58 149.94 382.38 149.53 382.19 149.12 381.99 148.72 381.8 148.32 381.61 147.94 381.42 147.58 381.24 147.23 381.06 146.91 380.88 146.61 380.72 146.34 380.55 146.1 380.4 145.88 380.25 145.71 380.11 145.56 379.98 145.45 379.86 145.38 379.74 145.35 379.63 145.35 379.53 145.39 379.44 145.47 379.36 145.59 379.28 145.74 379.21 145.93 379.15 146.16 379.1 146.41 379.05 146.7 379.01 147.02 378.98 147.36 378.95 147.73 378.92 148.12 378.9 148.53 378.88 148.95 378.87 149.39 378.86 149.84 378.85 150.29 378.84 150.75 378.83 151.21 378.82 151.66 378.8 152.11 378.79 152.54 378.77 152.97 378.75 153.38 378.73 153.77 378.7 154.14 378.66 154.48 378.62 154.8 378.58 155.09 378.52 155.34 378.46 155.57 378.39 155.76 378.32 155.91 378.23 156.03 378.14 156.1 378.04 156.15 377.94 156.15 377.82 156.12 377.69 156.04 377.56 155.94 377.42 155.79 377.27 155.61 377.12 155.4 376.96 155.16 376.79 154.88 376.62 154.59 376.44 154.26 376.25 153.92 376.07 153.56 375.88 153.17 375.68 152.78 375.49 152.38 375.29 151.97 375.09 151.56 374.89 151.14 374.7 150.74 374.5 150.33 374.31 149.94 374.12 149.56 373.93 149.19 373.75 148.85 373.57 148.53 373.39 148.23 373.23 147.96 373.06 147.71 372.91 147.5 372.76 147.32 372.62 147.18 372.49 147.07 372.37 147 372.25 146.96 372.14 146.97 372.04 147.01 371.95 147.09 371.87 147.2 371.79 147.36 371.72 147.55 371.66 147.77 371.61 148.03 371.56 148.31 371.52 148.63 371.49 148.98 371.46 149.34 371.43 149.73 371.41 150.14 371.39 150.57 371.38 151.01 371.37 151.45 371.36 151.91 371.35 152.37 371.34 152.82 371.33 153.28 371.31 153.72 371.3 154.16 371.28 154.59 371.26 155 371.24 155.39 371.21 155.75 371.17 156.1 371.13 156.42 371.09 156.7 371.03 156.96 370.97 157.18 370.9 157.37 370.83 157.53 370.74 157.64 370.65 157.72 370.55 157.76 370.44 157.77 370.33 157.73 370.2 157.66 370.07 157.55 369.93 157.41 369.78 157.23 369.63 157.02 369.47 156.77 369.3 156.5 369.13 156.21 368.95 155.88 368.76 155.54 368.58 155.17 368.39 154.79 368.19 154.4 368 154 367.8 153.59 367.6 153.17 367.4 152.76 367.21 152.35 367.01 151.95 366.82 151.56 366.63 151.18 366.44 150.81 366.25 150.47 366.08 150.14 365.9 149.84 365.74 149.57 365.57 149.33 365.42 149.12 365.27 148.94 365.13 148.8 365 148.69 364.88 148.62 364.76 148.58 364.65 148.59 364.55 148.63 364.46 148.71 364.38 148.82 364.3 148.98 364.23 149.17 364.17 149.39 364.12 149.65 364.07 149.93 364.03 150.25 364 150.59 363.97 150.96 363.94 151.35 363.92 151.76 363.9 152.18 363.89 152.62 363.88 153.07 363.87 153.53 363.86 153.98 363.85 154.44 363.83 154.89 363.82 155.34 363.81 155.78 363.79 156.21 363.77 156.61 363.75 157 363.72 157.37 363.68 157.72 363.64 158.03 363.6 158.32 363.54 158.58 363.48 158.8 363.41 158.99 363.34 159.14 363.25 159.26 363.16 159.34 363.06 159.38 362.95 159.38 362.84 159.35 362.71 159.28 362.58 159.17 362.44 159.03 362.29 158.85 362.14 158.63 361.98 158.39 361.81 158.12 361.64 157.82 361.46 157.5 361.27 157.15 361.09 156.79 360.9 156.41 360.7 156.02 360.51 155.61 360.31 155.2 360.11 154.79 359.91 154.38 359.72 153.97 359.52 153.57 359.33 153.17 359.13 152.79 358.95 152.43 358.76 152.08 358.59 151.76 358.41 151.46 358.25 151.19 358.08 150.95 357.93 150.74 357.78 150.56 357.64 150.41 357.51 150.31 357.38 150.23 357.27 150.2 357.16 150.2 357.06 150.24 356.97 150.32 356.88 150.44 356.81 150.59 356.74 150.78 356.68 151.01 356.63 151.26 356.58 151.55 356.54 151.87 356.51 152.21 356.48 152.58 356.45 152.97 356.43 153.38 356.41 153.8 356.4 154.24 356.39 154.69 356.38 155.14 356.37 155.6 346 157.84"/><path d="M64.89,145.94a47.05,47.05,0,0,1-13.19,6.5,47.07,47.07,0,0,1,14.69.47l-6.32-2.28"/><path d="M475.45,64.59a47.15,47.15,0,0,1,13.19-6.49A47.38,47.38,0,0,1,474,57.62l6.33,2.28"/><text class="cls-1" transform="matrix(0.98, -0.21, 0.21, 0.98, 231.76, 101.13)">Range</text><text class="cls-1" transform="matrix(0.98, -0.21, 0.21, 0.98, 91.04, 182.83)">Emmited wave</text><path class="cls-15" d="M264.88,171.15a47,47,0,0,1-13.19,6.49,47.08,47.08,0,0,1,14.69.48l-6.32-2.28"/><polyline class="cls-16" points="314.11 164.16 307.87 165.51 307.86 165.97 307.85 166.43 307.84 166.87 307.82 167.31 307.81 167.74 307.79 168.15 307.76 168.53 307.73 168.9 307.7 169.25 307.66 169.56 307.61 169.85 307.56 170.11 307.5 170.33 307.43 170.52 307.35 170.67 307.27 170.79 307.18 170.87 307.08 170.91 306.97 170.91 306.85 170.88 306.73 170.81 306.6 170.7 306.46 170.56 306.31 170.38 306.15 170.17 305.99 169.92 305.82 169.65 305.65 169.35 305.47 169.03 305.29 168.68 305.1 168.32 304.91 167.94 304.72 167.55 304.52 167.14 304.32 166.73 304.13 166.32 303.93 165.91 303.73 165.5 303.54 165.1 303.34 164.7 303.15 164.32 302.96 163.96 302.78 163.61 302.6 163.29 302.43 162.99 302.26 162.72 302.1 162.48 301.94 162.27 301.8 162.09 301.66 161.94 301.52 161.84 301.4 161.76 301.28 161.73 301.18 161.73 301.08 161.77 300.98 161.85 300.9 161.97 300.82 162.12 300.76 162.31 300.7 162.53 300.64 162.79 300.6 163.08 300.56 163.4 300.52 163.74 300.49 164.11 300.47 164.5 300.45 164.91 300.43 165.33 300.41 165.77 300.4 166.22 300.39 166.67 300.38 167.13 300.37 167.59 300.36 168.04 300.35 168.49 300.33 168.93 300.32 169.35 300.3 169.76 300.27 170.15 300.24 170.52 300.21 170.86 300.17 171.18 300.12 171.47 300.07 171.72 300 171.95 299.94 172.14 299.86 172.29 299.78 172.41 299.69 172.49 299.59 172.53 299.48 172.53 299.36 172.5 299.24 172.43 299.11 172.32 298.97 172.17 298.82 171.99 298.66 171.78 298.5 171.54 298.33 171.27 298.16 170.97 297.98 170.65 297.8 170.3 297.61 169.94 297.42 169.56 297.23 169.16 297.03 168.76 296.83 168.35 296.64 167.94 296.44 167.53 296.24 167.12 296.05 166.71 295.85 166.32 295.66 165.94 295.47 165.58 295.29 165.23 295.11 164.91 294.94 164.61 294.77 164.34 294.61 164.09 294.45 163.88 294.31 163.71 294.17 163.56 294.03 163.45 293.91 163.38 293.79 163.35 293.69 163.35 293.59 163.39 293.49 163.47 293.41 163.59 293.33 163.74 293.27 163.93 293.21 164.15 293.15 164.41 293.11 164.7 293.06 165.01 293.03 165.36 293 165.73 292.98 166.12 292.96 166.52 292.94 166.95 292.92 167.39 292.91 167.84 292.9 168.29 292.89 168.75 292.88 169.21 292.87 169.66 292.86 170.11 292.84 170.54 292.83 170.97 292.81 171.38 292.78 171.77 292.75 172.14 292.72 172.48 292.68 172.8 292.63 173.08 292.58 173.34 292.52 173.56 292.45 173.75 292.37 173.91 292.29 174.02 292.2 174.1 292.1 174.15 291.99 174.15 291.87 174.11 291.75 174.04 291.62 173.93 291.48 173.79 291.33 173.61 291.17 173.4 291.01 173.16 290.85 172.88 290.67 172.59 290.49 172.26 290.31 171.92 290.12 171.56 289.93 171.17 289.74 170.78 289.54 170.38 289.34 169.97 289.15 169.56 288.95 169.14 288.75 168.73 288.55 168.33 288.36 167.94 288.17 167.56 287.98 167.19 287.8 166.85 287.62 166.53 287.45 166.23 287.28 165.96 287.12 165.71 286.96 165.5 286.82 165.32 286.68 165.18 286.54 165.07 286.42 165 286.3 164.96 286.19 164.97 286.1 165.01 286 165.09 285.92 165.2 285.84 165.36 285.78 165.55 285.71 165.77 285.66 166.03 285.62 166.31 285.57 166.63 285.54 166.98 285.51 167.34 285.49 167.73 285.46 168.14 285.45 168.57 285.43 169 285.42 169.45 285.41 169.91 285.4 170.36 285.39 170.82 285.38 171.28 285.37 171.72 285.35 172.16 285.34 172.59 285.32 173 285.29 173.39 285.26 173.75 285.23 174.1 285.19 174.41 285.14 174.7 285.09 174.96 285.03 175.18 284.96 175.37 284.88 175.52 284.8 175.64 284.71 175.72 284.61 175.76 284.5 175.77 284.38 175.73 284.26 175.66 284.13 175.55 283.99 175.41 283.84 175.23 283.68 175.02 283.52 174.77 283.36 174.5 283.18 174.2 283 173.88 282.82 173.53 282.63 173.17 282.44 172.79 282.25 172.4 282.05 172 281.85 171.59 281.66 171.17 281.46 170.76 281.26 170.35 281.06 169.95 280.87 169.56 280.68 169.18 280.49 168.81 280.31 168.47 280.13 168.14 279.96 167.84 279.79 167.57 279.63 167.33 279.47 167.12 279.33 166.94 279.19 166.79 279.05 166.69 278.93 166.62 278.81 166.58 278.7 166.58 278.61 166.63 278.51 166.71 278.43 166.82 278.35 166.97 278.29 167.16 278.23 167.39 278.17 167.64 278.13 167.93 278.08 168.25 278.05 168.59 278.02 168.96 278 169.35 277.98 169.76 277.96 170.18 277.94 170.62 277.93 171.07 277.92 171.53 277.91 171.98 277.9 172.44 277.89 172.89 277.88 173.34 277.86 173.78 277.85 174.2 277.82 174.61 277.8 175 277.77 175.37 277.74 175.72 277.7 176.03 277.65 176.32 277.6 176.58 277.54 176.8 277.47 176.99 277.39 177.14 277.31 177.26 277.21 177.34 277.12 177.38 277.01 177.38 276.89 177.35 276.77 177.28 276.63 177.17 276.5 177.03 276.35 176.84 276.19 176.63 276.03 176.39 275.86 176.12 275.69 175.82 275.51 175.5 275.33 175.15 275.14 174.79 274.95 174.41 274.76 174.01 274.56 173.61 274.36 173.2 274.17 172.79 273.97 172.38 273.77 171.97 273.57 171.57 273.38 171.17 273.19 170.79 273 170.43 272.82 170.08 272.64 169.76 272.47 169.46 272.3 169.19 272.14 168.95 271.98 168.74 271.83 168.56 271.7 168.41 271.56 168.3 271.44 168.23 271.32 168.2 271.21 168.2 271.12 168.24 271.02 168.32 270.94 168.44 270.86 168.59 270.8 168.78 270.74 169 270.68 169.26 270.63 169.55 270.6 169.87 270.56 170.21 270.53 170.58 270.5 170.97 270.48 171.38 270.47 171.8 270.45 172.24 270.44 172.69 270.43 173.14 270.42 173.6 260.06 175.84"/><text class="cls-1" transform="matrix(0.98, -0.21, 0.21, 0.98, 98.65, 218.35)">Received wave</text></svg>