<svg id="Capa_1" data-name="Capa 1" xmlns="http://www.w3.org/2000/svg" viewBox="0 0 376.15 125.66"><defs><style>.cls-1,.cls-10,.cls-11,.cls-13,.cls-14,.cls-16,.cls-3{font-size:12px;}.cls-1,.cls-10{font-family:Palatino-Roman, Palatino;}.cls-11,.cls-13,.cls-15,.cls-2,.cls-3{font-family:LinLibertineI, Linux Libertine;}.cls-4{fill:#fff;stroke:#1d1d1b;stroke-miterlimit:10;stroke-width:0.75px;}.cls-4,.cls-7,.cls-8{fill-rule:evenodd;}.cls-5,.cls-6{fill:none;stroke:#000;}.cls-5,.cls-6,.cls-9{stroke-linecap:round;stroke-linejoin:round;}.cls-5{stroke-width:0.42px;}.cls-6,.cls-9{stroke-width:0.52px;}.cls-10,.cls-11,.cls-13,.cls-14,.cls-8,.cls-9{fill:#969696;}.cls-9{stroke:#969696;}.cls-12,.cls-14,.cls-16{font-family:LinLibertine, Linux Libertine;}.cls-13{letter-spacing:0em;}.cls-15,.cls-17{font-size:8px;}</style></defs><title>principleMixer</title><text class="cls-1" transform="translate(189.77 119.92)"><tspan xml:space="preserve">Local Oscillator  </tspan><tspan class="cls-2" x="89.23" y="0">f</tspan></text><text class="cls-3" transform="translate(282.77 123.92) scale(0.58)">LO</text><path class="cls-4" d="M273.93,51.31a33.76,33.76,0,1,0-33.74,33.74,33.76,33.76,0,0,0,33.74-33.74"/><path class="cls-5" d="M273.93,51.31a33.76,33.76,0,1,0-33.74,33.74A33.76,33.76,0,0,0,273.93,51.31Z"/><path class="cls-6" d="M264.37,28.31,216.92,76.15m-.71-48.5L263.7,75.49"/><polyline class="cls-7" points="206.08 46.41 200.02 44.07 203.08 46.41 200.02 48.63 206.08 46.41"/><line class="cls-6" x1="109.84" y1="46.35" x2="203.08" y2="46.35"/><polyline class="cls-7" points="370.17 46.41 364.11 44.08 367.17 46.41 364.11 48.63 370.17 46.41"/><line class="cls-6" x1="273.93" y1="46.36" x2="367.17" y2="46.36"/><polyline class="cls-7" points="240.5 85.05 238.28 91.05 240.5 87.99 242.66 91.05 240.5 85.05"/><polyline class="cls-8" points="273.93 57.02 279.99 54.69 276.93 57.02 279.99 59.24 273.93 57.02"/><line class="cls-9" x1="370.17" y1="56.96" x2="276.93" y2="56.96"/><polyline class="cls-8" points="109.84 57.03 115.9 54.69 112.84 57.03 115.9 59.25 109.84 57.03"/><line class="cls-9" x1="206.08" y1="56.97" x2="112.84" y2="56.97"/><line class="cls-6" x1="240.47" y1="104" x2="240.47" y2="87.66"/><text class="cls-1" transform="translate(132.92 15.42)">RF Input<tspan class="cls-2"><tspan x="18.12" y="14.4">f</tspan></tspan></text><text class="cls-3" transform="translate(154.81 33.82) scale(0.58)">RF</text><text class="cls-10" transform="translate(128.14 78.88)">RF Output<tspan class="cls-2"><tspan x="0.93" y="14.4">f</tspan></tspan></text><text class="cls-11" transform="translate(132.84 97.28) scale(0.58)">RF</text><text class="cls-11" transform="translate(139.92 93.28)"> <tspan class="cls-12" x="3" y="0">= </tspan><tspan x="12.6" y="0">F</tspan></text><text class="cls-13" transform="translate(156.28 97.28) scale(0.58)">IF </text><text class="cls-14" transform="translate(163.18 93.28)">±<tspan class="cls-15" x="6.6" y="0"> </tspan><tspan class="cls-2" x="8.6" y="0">F</tspan></text><text class="cls-13" transform="translate(175.55 97.28) scale(0.58)">LO</text><text class="cls-1" transform="translate(294.22 15.3)">IF Output<tspan class="cls-2"><tspan x="-5.12" y="14.4">f</tspan></tspan></text><text class="cls-3" transform="translate(292.86 33.69) scale(0.58)">IF </text><text class="cls-16" transform="translate(299.77 29.69)">= |<tspan class="cls-2" x="12.05" y="0" xml:space="preserve"> F</tspan></text><text class="cls-3" transform="translate(318.59 33.69) scale(0.58)">RF </text><text class="cls-3" transform="translate(327.41 29.69)">−<tspan class="cls-17" x="6.32" y="0"> </tspan><tspan x="8.32" y="0">F</tspan></text><text class="cls-3" transform="translate(339.5 33.69) scale(0.58)">LO </text><text class="cls-16" transform="translate(349.55 29.69)">|</text><text class="cls-10" transform="translate(299 78.76)">IF Input<tspan class="cls-2"><tspan x="17.09" y="14.4">f</tspan></tspan></text><text class="cls-11" transform="translate(319.86 97.15) scale(0.58)">IF</text><text class="cls-1" transform="translate(3.33 15.42)">Downconversion<tspan x="59.55" y="14.4">Mixer</tspan></text><text class="cls-10" transform="translate(19.61 78.76)">Upconversion<tspan x="43.27" y="14.4">Mixer</tspan></text></svg>