<svg id="Capa_1" data-name="Capa 1" xmlns="http://www.w3.org/2000/svg" viewBox="0 0 797.21 319.08"><defs><style>.cls-1{font-size:20px;font-family:Palatino-Roman, Palatino;}.cls-2{letter-spacing:-0.01em;}.cls-3{letter-spacing:0.01em;}.cls-4{letter-spacing:-0.01em;}.cls-10,.cls-11,.cls-12,.cls-14,.cls-16,.cls-5,.cls-6,.cls-8{fill:none;}.cls-10,.cls-11,.cls-12,.cls-5,.cls-6,.cls-9{stroke:#000;}.cls-10,.cls-11,.cls-14,.cls-16,.cls-5,.cls-6,.cls-8,.cls-9{stroke-linejoin:round;}.cls-12,.cls-14,.cls-16,.cls-5,.cls-8{stroke-width:0.85px;}.cls-6{stroke-width:1.59px;}.cls-7{fill:#fbeade;}.cls-8{stroke:#e37222;}.cls-9{fill:#ccc;stroke-width:1.69px;}.cls-10,.cls-11{stroke-linecap:round;stroke-width:0.8px;}.cls-10{stroke-dasharray:3.6 3.6;}.cls-12{stroke-miterlimit:10;stroke-dasharray:20.32 2.03 2.03 2.03;}.cls-13{fill:#0037ff;}.cls-14{stroke:#0037ff;}.cls-15{fill:#ff0045;}.cls-16{stroke:#ff0045;}</style></defs><title>principleRADAR</title><g id="principleRADAR"><text class="cls-1" transform="translate(120.98 287.03)">Transmitter/<tspan class="cls-2" x="116.4" y="0">R</tspan><tspan class="cls-3" x="129.62" y="0">e</tspan><tspan x="139.32" y="0">cei</tspan><tspan class="cls-4" x="163.59" y="0">v</tspan><tspan x="174.75" y="0">er</tspan></text><polygon class="cls-5" points="47.33 289.8 47.33 305.77 79.26 305.77 79.26 273.84 47.33 273.84 47.33 289.8"/><polyline class="cls-5" points="56.91 273.84 63.3 241.91 69.68 273.84"/><path class="cls-6" d="M65.08,216.43a25.54,25.54,0,0,0,19.39,39.76"/><polyline class="cls-7" points="2.09 312.8 2.09 319.08 796.56 319.08 796.56 306.53 2.09 306.53"/><line class="cls-8" x1="1.44" y1="305.92" x2="797.21" y2="305.92"/><path class="cls-9" d="M613,160.88c30.5-6.95,69.52,20.74,90.15-7.51,20.85-28.57-13.88-62.94-60.1-75.13-33-8.71-68.6-17.64-97.67,0a63.05,63.05,0,0,0-30,52.59c-.66,28.39,18.53,53.83,45.08,52.59C580,182.5,594.13,165.18,613,160.88Z"/><line class="cls-10" x1="715.46" y1="125.77" x2="740.06" y2="125.77"/><polyline points="730.26 129.83 740.06 125.78 730.26 121.72"/><polygon class="cls-11" points="730.26 129.83 740.06 125.78 730.26 121.72 730.26 129.83"/><line class="cls-10" x1="667.66" y1="79.36" x2="710.17" y2="43.68"/><polyline points="705.28 53.09 710.17 43.68 700.07 46.87"/><polygon class="cls-11" points="705.28 53.09 710.17 43.68 700.07 46.87 705.28 53.09"/><line class="cls-10" x1="622.99" y1="65.38" x2="634.52"/><polyline points="636.81 10.35 634.52 0 628.82 8.94"/><polygon class="cls-11" points="636.81 10.35 634.52 0 628.82 8.94 636.81 10.35"/><line class="cls-10" x1="574.99" y1="61.09" x2="548.48" y2="15.17"/><polyline points="556.89 21.62 548.48 15.17 549.87 25.68"/><polygon class="cls-11" points="556.89 21.62 548.48 15.17 549.87 25.68 556.89 21.62"/><line class="cls-10" x1="520.09" y1="92.2" x2="492.33" y2="82.09"/><polyline points="502.92 81.63 492.32 82.09 500.14 89.25"/><polygon class="cls-11" points="502.92 81.63 492.32 82.09 500.14 89.25 502.92 81.63"/><line class="cls-10" x1="577.41" y1="186.28" x2="548.48" y2="236.38"/><polyline points="549.87 225.87 548.48 236.38 556.89 229.93"/><polygon class="cls-11" points="549.87 225.87 548.48 236.38 556.89 229.93 549.87 225.87"/><line class="cls-10" x1="617.64" y1="167.34" x2="630.46" y2="240.05"/><polyline points="624.76 231.11 630.46 240.05 632.76 229.7"/><polygon class="cls-11" points="624.76 231.11 630.46 240.05 632.76 229.7 624.76 231.11"/><line class="cls-10" x1="665.87" y1="170.7" x2="710.17" y2="207.87"/><polyline points="700.06 204.68 710.17 207.87 705.28 198.47"/><polygon class="cls-11" points="700.06 204.68 710.17 207.87 705.28 198.47 700.06 204.68"/><text class="cls-1" transform="translate(579.33 129.83)">Target</text><line class="cls-10" x1="522.75" y1="174.22" x2="498.25" y2="190.74"/><polyline points="504.1 181.9 498.25 190.74 508.64 188.63"/><polygon class="cls-11" points="504.1 181.9 498.25 190.74 508.64 188.63 504.1 181.9"/><line class="cls-5" x1="60.07" y1="188.47" x2="480.28" y2="97.74"/><line class="cls-12" x1="62.48" y1="240.22" x2="499.42" y2="145.87"/><path class="cls-13" d="M382.51,159.52a47.13,47.13,0,0,1,13.18-6.5,47.08,47.08,0,0,1-14.69-.47l6.33,2.28"/><polyline class="cls-14" points="333.27 166.5 339.52 165.15 339.48 164.48 339.44 163.81 339.41 163.15 339.38 162.5 339.35 161.87 339.33 161.27 339.32 160.7 339.31 160.16 339.31 159.65 339.32 159.19 339.33 158.77 339.36 158.4 339.4 158.07 339.45 157.8 339.51 157.58 339.59 157.42 339.67 157.31 339.77 157.26 339.88 157.26 340 157.33 340.14 157.45 340.29 157.62 340.44 157.85 340.61 158.13 340.79 158.46 340.98 158.83 341.18 159.25 341.39 159.71 341.6 160.21 341.83 160.73 342.06 161.29 342.29 161.87 342.53 162.47 342.77 163.09 343.01 163.71 343.26 164.34 343.5 164.97 343.75 165.6 343.99 166.22 344.23 166.82 344.46 167.4 344.69 167.96 344.92 168.48 345.13 168.98 345.34 169.44 345.54 169.86 345.73 170.23 345.91 170.56 346.08 170.84 346.24 171.07 346.38 171.24 346.52 171.36 346.64 171.43 346.75 171.43 346.85 171.38 346.93 171.27 347.01 171.11 347.07 170.89 347.12 170.62 347.16 170.29 347.19 169.92 347.2 169.5 347.21 169.03 347.21 168.53 347.2 167.99 347.19 167.42 347.17 166.81 347.14 166.19 347.11 165.54 347.08 164.88 347.04 164.21 347.01 163.53 346.97 162.86 346.93 162.19 346.9 161.53 346.87 160.88 346.84 160.26 346.82 159.66 346.81 159.08 346.8 158.54 346.8 158.04 346.81 157.57 346.83 157.15 346.85 156.78 346.89 156.46 346.94 156.18 347 155.96 347.08 155.8 347.16 155.69 347.26 155.64 347.37 155.65 347.49 155.71 347.63 155.83 347.77 156 347.93 156.23 348.1 156.51 348.28 156.84 348.47 157.21 348.67 157.63 348.88 158.09 349.1 158.59 349.32 159.12 349.55 159.67 349.78 160.25 350.02 160.85 350.26 161.47 350.51 162.1 350.75 162.73 351 163.36 351.24 163.98 351.48 164.6 351.72 165.2 351.95 165.78 352.18 166.34 352.41 166.87 352.62 167.36 352.83 167.82 353.03 168.24 353.22 168.62 353.4 168.94 353.57 169.22 353.73 169.45 353.87 169.63 354.01 169.74 354.13 169.81 354.24 169.81 354.34 169.76 354.42 169.65 354.5 169.49 354.56 169.27 354.61 169 354.65 168.68 354.68 168.3 354.69 167.88 354.7 167.42 354.7 166.91 354.69 166.37 354.68 165.8 354.66 165.2 354.63 164.57 354.6 163.92 354.57 163.26 354.53 162.59 354.5 161.92 354.46 161.24 354.42 160.57 354.39 159.91 354.36 159.27 354.33 158.64 354.31 158.04 354.3 157.47 354.29 156.92 354.29 156.42 354.3 155.96 354.31 155.54 354.34 155.16 354.38 154.84 354.43 154.56 354.49 154.35 354.57 154.18 354.65 154.07 354.75 154.02 354.86 154.03 354.98 154.09 355.12 154.21 355.26 154.39 355.42 154.61 355.59 154.89 355.77 155.22 355.96 155.6 356.16 156.01 356.37 156.47 356.58 156.97 356.81 157.5 357.04 158.06 357.27 158.64 357.51 159.24 357.75 159.85 358 160.48 358.24 161.11 358.49 161.74 358.73 162.37 358.97 162.98 359.21 163.58 359.44 164.16 359.67 164.72 359.9 165.25 360.11 165.75 360.32 166.2 360.52 166.62 360.71 167 360.89 167.33 361.06 167.61 361.22 167.83 361.36 168.01 361.5 168.13 361.62 168.19 361.73 168.2 361.83 168.15 361.91 168.04 361.99 167.87 362.05 167.65 362.1 167.38 362.14 167.06 362.17 166.68 362.19 166.26 362.19 165.8 362.19 165.3 362.19 164.75 362.17 164.18 362.15 163.58 362.12 162.95 362.09 162.31 362.06 161.65 362.02 160.98 361.99 160.3 361.95 159.63 361.91 158.96 361.88 158.3 361.85 157.65 361.82 157.02 361.8 156.42 361.79 155.85 361.78 155.31 361.78 154.8 361.79 154.34 361.81 153.92 361.83 153.54 361.87 153.22 361.92 152.95 361.98 152.73 362.06 152.56 362.14 152.46 362.24 152.41 362.35 152.41 362.47 152.48 362.61 152.59 362.75 152.77 362.91 153 363.08 153.28 363.26 153.6 363.45 153.98 363.65 154.4 363.86 154.86 364.07 155.35 364.3 155.88 364.53 156.44 364.76 157.02 365 157.62 365.24 158.24 365.49 158.86 365.73 159.49 365.98 160.12 366.22 160.75 366.46 161.36 366.7 161.97 366.94 162.55 367.16 163.1 367.39 163.63 367.6 164.13 367.81 164.59 368.01 165 368.2 165.38 368.38 165.71 368.55 165.99 368.71 166.22 368.85 166.39 368.99 166.51 369.11 166.57 369.22 166.58 369.32 166.53 369.4 166.42 369.48 166.26 369.54 166.04 369.59 165.76 369.63 165.44 369.66 165.07 369.68 164.65 369.68 164.18 369.68 163.68 369.68 163.14 369.66 162.56 369.64 161.96 369.61 161.34 369.58 160.69 369.55 160.03 369.51 159.36 369.48 158.68 369.44 158.01 369.4 157.34 369.37 156.68 369.34 156.03 369.31 155.41 369.29 154.81 369.28 154.23 369.27 153.69 369.27 153.19 369.28 152.72 369.3 152.3 369.32 151.93 369.36 151.6 369.41 151.33 369.47 151.11 369.55 150.95 369.63 150.84 369.73 150.79 369.84 150.8 369.96 150.86 370.1 150.98 370.25 151.15 370.4 151.38 370.57 151.66 370.75 151.99 370.94 152.36 371.14 152.78 371.35 153.24 371.56 153.74 371.79 154.26 372.02 154.82 372.25 155.4 372.49 156 372.73 156.62 372.98 157.25 373.22 157.88 373.47 158.51 373.71 159.13 373.95 159.75 374.19 160.35 374.43 160.93 374.65 161.49 374.88 162.01 375.09 162.51 375.3 162.97 375.5 163.39 375.69 163.76 375.87 164.09 376.04 164.37 376.2 164.6 376.34 164.77 376.48 164.89 376.6 164.96 376.71 164.96 376.81 164.91 376.89 164.8 376.97 164.64 377.03 164.42 377.08 164.15 377.12 163.82 377.15 163.45 377.17 163.03 377.17 162.57 377.18 162.06 377.17 161.52 377.15 160.95 377.13 160.34 377.1 159.72 377.07 159.07 377.04 158.41 377 157.74 376.97 157.07 387.33 154.83"/><path class="cls-13" d="M297,178.23a47.1,47.1,0,0,1,13.18-6.49,46.79,46.79,0,0,1-14.69-.48l6.33,2.28"/><polyline class="cls-14" points="247.79 185.22 254.03 183.87 254.01 183.25 253.99 182.63 253.96 182.02 253.94 181.43 253.93 180.85 253.92 180.3 253.91 179.77 253.91 179.28 253.92 178.81 253.94 178.38 253.97 178 254 177.65 254.04 177.35 254.1 177.1 254.16 176.9 254.24 176.75 254.33 176.65 254.43 176.6 254.53 176.6 254.66 176.66 254.79 176.76 254.93 176.92 255.09 177.13 255.25 177.38 255.42 177.68 255.6 178.02 255.79 178.41 256 178.83 256.2 179.28 256.42 179.76 256.63 180.27 256.86 180.8 257.08 181.35 257.31 181.91 257.55 182.48 257.78 183.06 258.01 183.64 258.25 184.21 258.48 184.77 258.7 185.32 258.93 185.85 259.15 186.36 259.36 186.84 259.56 187.29 259.76 187.71 259.96 188.09 260.14 188.44 260.31 188.74 260.48 188.99 260.63 189.2 260.77 189.35 260.9 189.46 261.03 189.52 261.14 189.52 261.23 189.47 261.32 189.37 261.4 189.22 261.46 189.02 261.52 188.77 261.56 188.47 261.6 188.12 261.62 187.74 261.64 187.31 261.65 186.84 261.65 186.35 261.64 185.82 261.63 185.27 261.62 184.69 261.6 184.09 261.57 183.49 261.55 182.87 261.53 182.25 261.5 181.63 261.48 181.01 261.45 180.41 261.43 179.81 261.42 179.24 261.41 178.68 261.4 178.16 261.4 177.66 261.41 177.19 261.43 176.77 261.45 176.38 261.49 176.04 261.53 175.74 261.59 175.48 261.65 175.28 261.73 175.13 261.82 175.03 261.92 174.98 262.02 174.98 262.15 175.04 262.28 175.15 262.42 175.31 262.57 175.51 262.74 175.77 262.91 176.06 263.1 176.41 263.29 176.79 263.49 177.21 263.69 177.66 263.9 178.14 264.12 178.65 264.35 179.18 264.57 179.73 264.8 180.29 265.04 180.87 265.27 181.44 265.5 182.02 265.74 182.59 265.97 183.15 266.19 183.7 266.42 184.23 266.64 184.74 266.85 185.22 267.06 185.68 267.25 186.1 267.45 186.48 267.63 186.82 267.8 187.12 267.97 187.37 268.12 187.58 268.26 187.74 268.4 187.84 268.52 187.9 268.63 187.9 268.72 187.86 268.81 187.75 268.89 187.6 268.95 187.4 269.01 187.15 269.05 186.85 269.08 186.5 269.11 186.12 269.13 185.69 269.14 185.23 269.14 184.73 269.13 184.2 269.12 183.65 269.11 183.07 269.09 182.48 269.06 181.87 269.04 181.25 269.02 180.63 268.99 180.01 268.97 179.4 268.94 178.79 268.93 178.2 268.91 177.62 268.9 177.07 268.89 176.54 268.89 176.04 268.9 175.58 268.92 175.15 268.95 174.76 268.98 174.42 269.02 174.12 269.08 173.87 269.14 173.66 269.22 173.51 269.31 173.41 269.41 173.36 269.52 173.37 269.64 173.42 269.77 173.53 269.91 173.69 270.06 173.9 270.23 174.15 270.4 174.45 270.58 174.79 270.78 175.17 270.98 175.59 271.18 176.04 271.4 176.53 271.62 177.03 271.84 177.57 272.07 178.12 272.3 178.68 272.53 179.25 272.76 179.82 272.99 180.4 273.23 180.97 273.46 181.53 273.68 182.08 273.91 182.61 274.13 183.12 274.34 183.61 274.55 184.06 274.75 184.48 274.94 184.86 275.12 185.2 275.29 185.5 275.46 185.76 275.61 185.96 275.75 186.12 275.88 186.23 276.01 186.28 276.12 186.29 276.21 186.24 276.3 186.14 276.38 185.99 276.44 185.78 276.5 185.53 276.54 185.23 276.58 184.89 276.6 184.5 276.62 184.07 276.63 183.61 276.63 183.11 276.62 182.59 276.61 182.03 276.6 181.46 276.58 180.86 276.56 180.25 276.53 179.64 276.51 179.02 276.48 178.4 276.46 177.78 276.43 177.17 276.42 176.58 276.4 176 276.39 175.45 276.38 174.92 276.38 174.42 276.39 173.96 276.41 173.53 276.44 173.15 276.47 172.8 276.51 172.5 276.57 172.25 276.63 172.05 276.71 171.9 276.8 171.79 276.9 171.75 277.01 171.75 277.13 171.81 277.26 171.91 277.4 172.07 277.55 172.28 277.72 172.53 277.89 172.83 278.07 173.17 278.27 173.56 278.47 173.97 278.67 174.43 278.89 174.91 279.1 175.42 279.33 175.95 279.56 176.5 279.79 177.06 280.02 177.63 280.25 178.21 280.49 178.78 280.72 179.36 280.95 179.92 281.18 180.47 281.4 181 281.62 181.51 281.83 181.99 282.04 182.44 282.24 182.86 282.43 183.24 282.61 183.59 282.78 183.89 282.95 184.14 283.1 184.34 283.24 184.5 283.38 184.61 283.5 184.67 283.61 184.67 283.7 184.62 283.79 184.52 283.87 184.37 283.93 184.16 283.99 183.91 284.03 183.62 284.07 183.27 284.09 182.88 284.11 182.46 284.12 181.99 284.12 181.5 284.11 180.97 284.1 180.41 284.09 179.84 284.07 179.24 284.05 178.64 284.02 178.02 284 177.4 283.97 176.78 283.95 176.16 283.93 175.56 283.91 174.96 283.89 174.38 283.88 173.83 283.87 173.3 283.88 172.81 283.88 172.34 283.9 171.91 283.93 171.53 283.96 171.18 284 170.88 284.06 170.63 284.13 170.43 284.2 170.28 284.29 170.18 284.39 170.13 284.5 170.13 284.62 170.19 284.75 170.29 284.89 170.45 285.05 170.66 285.21 170.91 285.38 171.21 285.56 171.56 285.76 171.94 285.96 172.36 286.16 172.81 286.38 173.29 286.59 173.8 286.82 174.33 287.05 174.88 287.28 175.44 287.51 176.01 287.74 176.59 287.97 177.17 288.21 177.74 288.44 178.3 288.67 178.85 288.89 179.38 289.11 179.89 289.32 180.37 289.53 180.82 289.73 181.24 289.92 181.63 290.1 181.97 290.27 182.27 290.44 182.52 290.59 182.73 290.73 182.89 290.87 182.99 290.99 183.05 291.1 183.05 291.19 183 291.28 182.9 291.36 182.75 291.42 182.55 291.48 182.3 291.52 182 291.56 181.65 291.58 181.27 291.6 180.84 291.61 180.37 291.61 179.88 291.6 179.35 291.59 178.8 291.58 178.22 291.56 177.63 291.54 177.02 291.51 176.4 291.49 175.78 301.85 173.54"/><path class="cls-13" d="M470.82,141.48A47,47,0,0,1,484,135a47.08,47.08,0,0,1-14.69-.48l6.32,2.28"/><polyline class="cls-14" points="421.59 148.47 427.83 147.12 427.81 146.55 427.8 145.99 427.79 145.44 427.78 144.89 427.78 144.37 427.78 143.86 427.78 143.38 427.79 142.93 427.81 142.5 427.84 142.11 427.87 141.76 427.91 141.44 427.96 141.17 428.02 140.94 428.09 140.75 428.17 140.61 428.25 140.52 428.35 140.47 428.46 140.47 428.58 140.52 428.71 140.62 428.85 140.76 429 140.94 429.16 141.17 429.32 141.44 429.5 141.75 429.68 142.1 429.88 142.48 430.07 142.89 430.27 143.32 430.48 143.78 430.7 144.26 430.91 144.76 431.13 145.27 431.35 145.79 431.57 146.31 431.8 146.83 432.02 147.35 432.24 147.86 432.45 148.35 432.66 148.84 432.87 149.3 433.07 149.73 433.27 150.14 433.46 150.52 433.65 150.87 433.82 151.18 433.99 151.45 434.15 151.67 434.3 151.86 434.44 152 434.56 152.1 434.69 152.15 434.79 152.15 434.89 152.1 434.98 152.01 435.06 151.87 435.13 151.68 435.19 151.45 435.24 151.18 435.28 150.86 435.31 150.51 435.33 150.12 435.35 149.69 435.36 149.24 435.37 148.76 435.37 148.25 435.36 147.72 435.36 147.18 435.34 146.63 435.33 146.07 435.32 145.5 435.31 144.93 435.29 144.37 435.28 143.82 435.27 143.28 435.27 142.75 435.27 142.25 435.27 141.76 435.29 141.31 435.3 140.88 435.33 140.49 435.36 140.14 435.4 139.83 435.45 139.55 435.51 139.32 435.58 139.13 435.66 138.99 435.75 138.9 435.84 138.85 435.95 138.85 436.07 138.91 436.2 139 436.34 139.14 436.49 139.33 436.65 139.56 436.81 139.83 436.99 140.14 437.17 140.48 437.37 140.86 437.56 141.27 437.76 141.71 437.97 142.17 438.19 142.65 438.4 143.14 438.62 143.65 438.84 144.17 439.06 144.69 439.29 145.21 439.51 145.73 439.73 146.24 439.94 146.74 440.15 147.22 440.36 147.68 440.56 148.12 440.76 148.53 440.95 148.9 441.14 149.25 441.31 149.56 441.48 149.83 441.64 150.06 441.79 150.24 441.93 150.38 442.06 150.48 442.17 150.53 442.29 150.53 442.38 150.48 442.47 150.39 442.55 150.25 442.62 150.06 442.68 149.83 442.73 149.56 442.77 149.24 442.8 148.89 442.83 148.5 442.84 148.08 442.85 147.62 442.86 147.14 442.86 146.63 442.85 146.11 442.85 145.57 442.83 145.01 442.82 144.45 442.81 143.88 442.8 143.32 442.78 142.75 442.77 142.2 442.76 141.66 442.76 141.13 442.76 140.63 442.76 140.15 442.77 139.69 442.79 139.27 442.82 138.88 442.85 138.52 442.89 138.21 442.94 137.93 443 137.7 443.07 137.52 443.15 137.38 443.24 137.28 443.33 137.24 443.44 137.24 443.56 137.29 443.69 137.38 443.83 137.52 443.98 137.71 444.14 137.94 444.31 138.21 444.48 138.52 444.67 138.86 444.86 139.24 445.05 139.65 445.26 140.09 445.46 140.55 445.68 141.03 445.89 141.53 446.11 142.04 446.33 142.55 446.55 143.07 446.77 143.6 447 144.12 447.21 144.62 447.43 145.12 447.64 145.6 447.85 146.06 448.06 146.5 448.25 146.91 448.44 147.29 448.63 147.63 448.8 147.94 448.97 148.21 449.13 148.44 449.28 148.63 449.42 148.77 449.55 148.86 449.67 148.91 449.77 148.91 449.87 148.87 449.96 148.77 450.04 148.63 450.11 148.45 450.17 148.22 450.22 147.94 450.26 147.63 450.29 147.27 450.32 146.88 450.33 146.46 450.34 146 450.35 145.52 450.35 145.02 450.34 144.49 450.34 143.95 450.32 143.4 450.31 142.83 450.3 142.27 450.29 141.7 450.27 141.14 450.26 140.58 450.25 140.04 450.25 139.52 450.25 139.01 450.25 138.53 450.27 138.07 450.28 137.65 450.31 137.26 450.34 136.91 450.38 136.59 450.43 136.32 450.49 136.09 450.56 135.9 450.64 135.76 450.73 135.67 450.82 135.62 450.93 135.62 451.05 135.67 451.18 135.76 451.32 135.91 451.47 136.09 451.63 136.32 451.8 136.59 451.97 136.9 452.15 137.25 452.35 137.63 452.54 138.03 452.75 138.47 452.95 138.93 453.17 139.41 453.38 139.91 453.6 140.42 453.82 140.94 454.04 141.46 454.27 141.98 454.49 142.5 454.7 143.01 454.92 143.5 455.13 143.98 455.34 144.44 455.55 144.88 455.74 145.29 455.93 145.67 456.12 146.01 456.29 146.32 456.46 146.59 456.62 146.82 456.77 147.01 456.91 147.15 457.04 147.25 457.15 147.29 457.26 147.29 457.36 147.25 457.45 147.16 457.53 147.01 457.6 146.83 457.66 146.6 457.71 146.32 457.75 146.01 457.78 145.66 457.81 145.26 457.82 144.84 457.83 144.39 457.84 143.9 457.84 143.4 457.83 142.87 457.83 142.33 457.82 141.78 457.8 141.22 457.79 140.65 457.77 140.08 457.76 139.52 457.75 138.97 457.74 138.42 457.74 137.9 457.74 137.39 457.75 136.91 457.75 136.46 457.77 136.03 457.8 135.64 457.83 135.29 457.87 134.97 457.92 134.7 457.98 134.47 458.05 134.28 458.13 134.14 458.21 134.05 458.31 134 458.42 134 458.54 134.05 458.67 134.15 458.81 134.29 458.96 134.47 459.12 134.71 459.29 134.97 459.46 135.28 459.64 135.63 459.84 136.01 460.03 136.42 460.24 136.85 460.44 137.31 460.66 137.79 460.87 138.29 461.09 138.8 461.31 139.32 461.54 139.84 461.76 140.36 461.98 140.88 462.19 141.39 462.41 141.89 462.63 142.37 462.83 142.83 463.04 143.26 463.23 143.67 463.42 144.05 463.61 144.4 463.78 144.71 463.95 144.98 464.11 145.21 464.26 145.39 464.4 145.53 464.53 145.63 464.64 145.68 464.75 145.68 464.85 145.63 464.94 145.54 465.02 145.4 465.09 145.21 465.15 144.98 465.2 144.71 465.24 144.39 465.27 144.04 465.3 143.65 465.31 143.22 465.32 142.77 465.33 142.29 465.33 141.78 465.32 141.26 465.32 140.72 465.31 140.16 465.29 139.6 465.28 139.03 475.64 136.79"/><path class="cls-15" d="M439.4,170.79a47,47,0,0,1-13.18,6.49,47.38,47.38,0,0,1,14.69.48l-6.33-2.28"/><polyline class="cls-16" points="488.64 163.81 482.4 165.16 482.4 165.67 482.4 166.18 482.4 166.68 482.4 167.17 482.39 167.64 482.38 168.1 482.36 168.53 482.35 168.94 482.32 169.33 482.29 169.68 482.25 170 482.2 170.29 482.14 170.54 482.08 170.75 482.01 170.92 481.93 171.05 481.84 171.13 481.74 171.18 481.63 171.18 481.51 171.14 481.38 171.05 481.25 170.93 481.1 170.76 480.95 170.56 480.79 170.32 480.62 170.04 480.44 169.73 480.26 169.39 480.07 169.03 479.88 168.64 479.69 168.23 479.48 167.79 479.28 167.35 479.07 166.89 478.86 166.43 478.65 165.96 478.44 165.5 478.23 165.03 478.03 164.58 477.82 164.13 477.62 163.7 477.42 163.29 477.23 162.9 477.04 162.53 476.86 162.19 476.68 161.88 476.51 161.61 476.35 161.37 476.2 161.16 476.06 161 475.92 160.87 475.79 160.79 475.67 160.75 475.57 160.75 475.47 160.79 475.38 160.88 475.3 161.01 475.22 161.18 475.16 161.39 475.1 161.64 475.06 161.92 475.02 162.24 474.99 162.6 474.96 162.98 474.94 163.39 474.92 163.83 474.91 164.28 474.91 164.76 474.9 165.25 474.9 165.75 474.9 166.26 474.91 166.77 474.91 167.28 474.91 167.79 474.91 168.29 474.9 168.78 474.9 169.26 474.89 169.72 474.87 170.15 474.85 170.56 474.83 170.95 474.8 171.3 474.76 171.62 474.71 171.91 474.65 172.16 474.59 172.37 474.52 172.53 474.44 172.66 474.35 172.75 474.25 172.79 474.14 172.79 474.02 172.75 473.89 172.67 473.76 172.54 473.61 172.38 473.46 172.18 473.3 171.94 473.13 171.66 472.95 171.35 472.77 171.01 472.59 170.65 472.39 170.25 472.19 169.84 471.99 169.41 471.79 168.97 471.58 168.51 471.37 168.05 471.16 167.58 470.95 167.11 470.74 166.65 470.54 166.19 470.33 165.75 470.13 165.32 469.93 164.91 469.74 164.52 469.55 164.15 469.37 163.81 469.19 163.5 469.02 163.22 468.86 162.99 468.71 162.78 468.56 162.62 468.43 162.49 468.3 162.41 468.19 162.37 468.08 162.37 467.98 162.41 467.89 162.5 467.81 162.63 467.73 162.8 467.67 163.01 467.61 163.25 467.57 163.54 467.53 163.86 467.5 164.21 467.47 164.6 467.45 165.01 467.43 165.44 467.42 165.9 467.42 166.38 467.42 166.87 467.41 167.37 467.42 167.88 467.42 168.39 467.42 168.9 467.42 169.41 467.42 169.91 467.42 170.4 467.41 170.88 467.4 171.33 467.38 171.77 467.36 172.18 467.34 172.56 467.31 172.92 467.27 173.24 467.22 173.52 467.16 173.77 467.1 173.98 467.03 174.15 466.95 174.28 466.86 174.37 466.76 174.41 466.65 174.41 466.53 174.37 466.4 174.29 466.27 174.16 466.12 174 465.97 173.79 465.81 173.55 465.64 173.28 465.46 172.97 465.28 172.63 465.09 172.26 464.9 171.87 464.7 171.46 464.5 171.03 464.3 170.59 464.09 170.13 463.88 169.66 463.67 169.2 463.46 168.73 463.25 168.27 463.05 167.81 462.84 167.37 462.64 166.94 462.44 166.52 462.25 166.13 462.06 165.77 461.88 165.43 461.7 165.12 461.53 164.84 461.37 164.6 461.22 164.4 461.08 164.23 460.94 164.11 460.81 164.03 460.69 163.98 460.59 163.98 460.49 164.03 460.4 164.11 460.31 164.24 460.24 164.41 460.18 164.62 460.13 164.87 460.08 165.16 460.04 165.48 460 165.83 459.98 166.22 459.96 166.63 459.94 167.06 459.93 167.52 459.93 168 459.93 168.49 459.92 168.99 459.93 169.5 459.93 170.01 459.93 170.52 459.93 171.03 459.93 171.53 459.93 172.02 459.92 172.49 459.91 172.95 459.89 173.39 459.87 173.8 459.85 174.18 459.81 174.53 459.78 174.85 459.73 175.14 459.67 175.39 459.61 175.6 459.54 175.77 459.46 175.9 459.37 175.98 459.27 176.03 459.16 176.03 459.04 175.99 458.91 175.9 458.78 175.78 458.63 175.61 458.48 175.41 458.32 175.17 458.15 174.89 457.98 174.59 457.79 174.25 457.61 173.88 457.41 173.49 457.21 173.08 457.01 172.65 456.81 172.2 456.6 171.75 456.39 171.28 456.18 170.81 455.97 170.35 455.76 169.88 455.56 169.43 455.35 168.98 455.15 168.55 454.95 168.14 454.76 167.75 454.57 167.38 454.39 167.04 454.21 166.74 454.04 166.46 453.88 166.22 453.73 166.02 453.58 165.85 453.45 165.73 453.32 165.64 453.2 165.6 453.1 165.6 453 165.65 452.91 165.73 452.82 165.86 452.75 166.03 452.69 166.24 452.63 166.49 452.59 166.77 452.55 167.1 452.51 167.45 452.49 167.83 452.47 168.24 452.45 168.68 452.44 169.14 452.44 169.61 452.43 170.1 452.43 170.6 452.43 171.11 452.44 171.62 452.44 172.13 452.44 172.64 452.44 173.15 452.43 173.63 452.43 174.11 452.42 174.57 452.4 175 452.38 175.41 452.36 175.8 452.32 176.15 452.29 176.47 452.24 176.76 452.18 177.01 452.12 177.22 452.05 177.39 451.97 177.52 451.88 177.6 451.78 177.65 451.67 177.65 451.55 177.6 451.42 177.52 451.29 177.4 451.14 177.23 450.99 177.03 450.83 176.79 450.66 176.51 450.49 176.2 450.3 175.86 450.12 175.5 449.92 175.11 449.72 174.69 449.52 174.26 449.32 173.82 449.11 173.36 448.9 172.9 448.69 172.43 448.48 171.96 448.27 171.5 448.07 171.05 447.86 170.6 447.66 170.17 447.46 169.76 447.27 169.37 447.08 169 446.9 168.66 446.72 168.35 446.55 168.08 446.39 167.84 446.24 167.63 446.1 167.47 445.96 167.34 445.83 167.26 445.71 167.22 445.61 167.22 445.51 167.26 445.42 167.35 445.33 167.48 445.26 167.65 445.2 167.86 445.14 168.11 445.1 168.39 445.06 168.71 445.02 169.07 445 169.45 444.98 169.86 444.96 170.3 444.95 170.75 444.95 171.23 444.94 171.72 444.94 172.22 444.94 172.73 444.94 173.24 434.58 175.48"/><path class="cls-15" d="M350.83,191a47.19,47.19,0,0,1-13.19,6.5,47.07,47.07,0,0,1,14.69.47L346,195.68"/><polyline class="cls-16" points="400.06 184.01 393.82 185.36 393.81 185.81 393.8 186.27 393.78 186.72 393.77 187.15 393.75 187.58 393.73 187.99 393.71 188.38 393.68 188.75 393.64 189.09 393.6 189.41 393.56 189.69 393.5 189.95 393.44 190.17 393.37 190.36 393.3 190.52 393.21 190.63 393.12 190.71 393.02 190.75 392.92 190.76 392.8 190.72 392.67 190.65 392.54 190.54 392.4 190.4 392.25 190.22 392.1 190.01 391.94 189.77 391.77 189.5 391.6 189.19 391.42 188.87 391.24 188.53 391.05 188.16 390.86 187.78 390.66 187.39 390.47 186.99 390.27 186.58 390.07 186.16 389.88 185.75 389.68 185.34 389.48 184.94 389.29 184.55 389.1 184.17 388.91 183.8 388.73 183.46 388.55 183.13 388.37 182.84 388.2 182.56 388.05 182.32 387.89 182.11 387.74 181.93 387.6 181.79 387.47 181.68 387.35 181.61 387.23 181.57 387.12 181.58 387.02 181.62 386.93 181.7 386.85 181.81 386.77 181.97 386.7 182.16 386.64 182.38 386.59 182.64 386.54 182.92 386.5 183.24 386.47 183.58 386.44 183.95 386.41 184.34 386.39 184.75 386.37 185.18 386.36 185.61 386.35 186.06 386.34 186.51 386.33 186.97 386.32 187.43 386.31 187.89 386.29 188.33 386.28 188.77 386.26 189.2 386.24 189.61 386.22 190 386.19 190.36 386.15 190.71 386.11 191.02 386.07 191.31 386.01 191.57 385.95 191.79 385.88 191.98 385.81 192.13 385.73 192.25 385.63 192.33 385.53 192.37 385.43 192.38 385.31 192.34 385.18 192.27 385.05 192.16 384.91 192.02 384.76 191.84 384.61 191.63 384.45 191.38 384.28 191.11 384.11 190.81 383.93 190.49 383.75 190.15 383.56 189.78 383.37 189.4 383.17 189.01 382.98 188.6 382.78 188.19 382.58 187.78 382.38 187.37 382.19 186.96 381.99 186.56 381.8 186.16 381.61 185.78 381.42 185.42 381.24 185.07 381.06 184.75 380.88 184.45 380.72 184.18 380.55 183.94 380.4 183.73 380.25 183.55 380.11 183.4 379.98 183.29 379.86 183.22 379.74 183.19 379.63 183.19 379.53 183.23 379.44 183.31 379.36 183.43 379.28 183.58 379.21 183.77 379.15 184 379.1 184.25 379.05 184.54 379.01 184.86 378.98 185.2 378.95 185.57 378.92 185.96 378.9 186.37 378.88 186.79 378.87 187.23 378.86 187.68 378.85 188.13 378.84 188.59 378.83 189.05 378.82 189.5 378.8 189.95 378.79 190.39 378.77 190.81 378.75 191.22 378.73 191.61 378.7 191.98 378.66 192.32 378.62 192.64 378.58 192.93 378.52 193.19 378.46 193.41 378.39 193.6 378.32 193.75 378.23 193.87 378.14 193.95 378.04 193.99 377.94 193.99 377.82 193.96 377.69 193.89 377.56 193.78 377.42 193.63 377.27 193.45 377.12 193.24 376.96 193 376.79 192.73 376.62 192.43 376.44 192.11 376.25 191.76 376.07 191.4 375.88 191.02 375.68 190.62 375.49 190.22 375.29 189.81 375.09 189.4 374.89 188.99 374.7 188.58 374.5 188.17 374.31 187.78 374.12 187.4 373.93 187.04 373.75 186.69 373.57 186.37 373.39 186.07 373.23 185.8 373.06 185.56 372.91 185.34 372.76 185.16 372.62 185.02 372.49 184.91 372.37 184.84 372.25 184.81 372.14 184.81 372.04 184.85 371.95 184.93 371.87 185.05 371.79 185.2 371.72 185.39 371.66 185.61 371.61 185.87 371.56 186.16 371.52 186.47 371.49 186.82 371.46 187.19 371.43 187.58 371.41 187.99 371.39 188.41 371.38 188.85 371.37 189.3 371.36 189.75 371.35 190.21 371.34 190.67 371.33 191.12 371.31 191.57 371.3 192.01 371.28 192.43 371.26 192.84 371.24 193.23 371.21 193.6 371.17 193.94 371.13 194.26 371.09 194.54 371.03 194.8 370.97 195.03 370.9 195.22 370.83 195.37 370.74 195.49 370.65 195.56 370.55 195.61 370.44 195.61 370.33 195.57 370.2 195.5 370.07 195.4 369.93 195.25 369.78 195.07 369.63 194.86 369.47 194.62 369.3 194.34 369.13 194.05 368.95 193.72 368.76 193.38 368.58 193.01 368.39 192.63 368.19 192.24 368 191.84 367.8 191.43 367.6 191.02 367.4 190.6 367.21 190.19 367.01 189.79 366.82 189.4 366.63 189.02 366.44 188.66 366.25 188.31 366.08 187.99 365.9 187.69 365.74 187.42 365.57 187.17 365.42 186.96 365.27 186.78 365.13 186.64 365 186.53 364.88 186.46 364.76 186.42 364.65 186.43 364.55 186.47 364.46 186.55 364.38 186.67 364.3 186.82 364.23 187.01 364.17 187.23 364.12 187.49 364.07 187.78 364.03 188.09 364 188.44 363.97 188.8 363.94 189.19 363.92 189.6 363.9 190.03 363.89 190.47 363.88 190.91 363.87 191.37 363.86 191.83 363.85 192.28 363.83 192.74 363.82 193.19 363.81 193.62 363.79 194.05 363.77 194.46 363.75 194.85 363.72 195.22 363.68 195.56 363.64 195.88 363.6 196.16 363.54 196.42 363.48 196.64 363.41 196.83 363.34 196.99 363.25 197.1 363.16 197.18 363.06 197.22 362.95 197.23 362.84 197.19 362.71 197.12 362.58 197.01 362.44 196.87 362.29 196.69 362.14 196.48 361.98 196.23 361.81 195.96 361.64 195.66 361.46 195.34 361.27 195 361.09 194.63 360.9 194.25 360.7 193.86 360.51 193.46 360.31 193.05 360.11 192.63 359.91 192.22 359.72 191.81 359.52 191.41 359.33 191.02 359.13 190.64 358.95 190.27 358.76 189.93 358.59 189.6 358.41 189.31 358.25 189.03 358.08 188.79 357.93 188.58 357.78 188.4 357.64 188.26 357.51 188.15 357.38 188.08 357.27 188.04 357.16 188.04 357.06 188.09 356.97 188.17 356.88 188.28 356.81 188.44 356.74 188.63 356.68 188.85 356.63 189.1 356.58 189.39 356.54 189.71 356.51 190.05 356.48 190.42 356.45 190.81 356.43 191.22 356.41 191.65 356.4 192.08 356.39 192.53 356.38 192.99 356.37 193.44 346 195.68"/><path d="M64.89,183.79a47.29,47.29,0,0,1-13.19,6.49,47.07,47.07,0,0,1,14.69.47l-6.32-2.28"/><path d="M475.45,102.43a47.15,47.15,0,0,1,13.19-6.49A47.08,47.08,0,0,1,474,95.46l6.33,2.28"/><text class="cls-1" transform="matrix(0.98, -0.21, 0.21, 0.98, 231.76, 138.97)">Range</text><text class="cls-1" transform="matrix(0.98, -0.21, 0.21, 0.98, 91.04, 220.67)">Emmited wave</text><path class="cls-15" d="M264.88,209a47.33,47.33,0,0,1-13.19,6.5,47.07,47.07,0,0,1,14.69.47l-6.32-2.28"/><polyline class="cls-16" points="314.11 202.01 307.87 203.36 307.86 203.81 307.85 204.27 307.84 204.72 307.82 205.15 307.81 205.58 307.79 205.99 307.76 206.38 307.73 206.75 307.7 207.09 307.66 207.41 307.61 207.69 307.56 207.95 307.5 208.17 307.43 208.36 307.35 208.52 307.27 208.63 307.18 208.71 307.08 208.75 306.97 208.76 306.85 208.72 306.73 208.65 306.6 208.54 306.46 208.4 306.31 208.22 306.15 208.01 305.99 207.76 305.82 207.49 305.65 207.19 305.47 206.87 305.29 206.53 305.1 206.16 304.91 205.78 304.72 205.39 304.52 204.99 304.32 204.58 304.13 204.16 303.93 203.75 303.73 203.34 303.54 202.94 303.34 202.55 303.15 202.17 302.96 201.8 302.78 201.46 302.6 201.13 302.43 200.84 302.26 200.56 302.1 200.32 301.94 200.11 301.8 199.93 301.66 199.79 301.52 199.68 301.4 199.61 301.28 199.57 301.18 199.57 301.08 199.62 300.98 199.69 300.9 199.81 300.82 199.97 300.76 200.16 300.7 200.38 300.64 200.63 300.6 200.92 300.56 201.24 300.52 201.58 300.49 201.95 300.47 202.34 300.45 202.75 300.43 203.18 300.41 203.61 300.4 204.06 300.39 204.51 300.38 204.97 300.37 205.43 300.36 205.88 300.35 206.33 300.33 206.77 300.32 207.19 300.3 207.6 300.27 208 300.24 208.36 300.21 208.71 300.17 209.02 300.12 209.31 300.07 209.57 300 209.79 299.94 209.98 299.86 210.13 299.78 210.25 299.69 210.33 299.59 210.37 299.48 210.38 299.36 210.34 299.24 210.27 299.11 210.16 298.97 210.01 298.82 209.84 298.66 209.62 298.5 209.38 298.33 209.11 298.16 208.81 297.98 208.49 297.8 208.14 297.61 207.78 297.42 207.4 297.23 207.01 297.03 206.6 296.83 206.19 296.64 205.78 296.44 205.37 296.24 204.96 296.05 204.56 295.85 204.16 295.66 203.78 295.47 203.42 295.29 203.07 295.11 202.75 294.94 202.45 294.77 202.18 294.61 201.94 294.45 201.73 294.31 201.55 294.17 201.4 294.03 201.29 293.91 201.22 293.79 201.19 293.69 201.19 293.59 201.23 293.49 201.31 293.41 201.43 293.33 201.58 293.27 201.77 293.21 202 293.15 202.25 293.11 202.54 293.06 202.86 293.03 203.2 293 203.57 292.98 203.96 292.96 204.37 292.94 204.79 292.92 205.23 292.91 205.68 292.9 206.13 292.89 206.59 292.88 207.05 292.87 207.5 292.86 207.95 292.84 208.39 292.83 208.81 292.81 209.22 292.78 209.61 292.75 209.98 292.72 210.32 292.68 210.64 292.63 210.93 292.58 211.18 292.52 211.41 292.45 211.6 292.37 211.75 292.29 211.87 292.2 211.95 292.1 211.99 291.99 211.99 291.87 211.96 291.75 211.88 291.62 211.78 291.48 211.63 291.33 211.45 291.17 211.24 291.01 211 290.85 210.73 290.67 210.43 290.49 210.1 290.31 209.76 290.12 209.4 289.93 209.02 289.74 208.62 289.54 208.22 289.34 207.81 289.15 207.4 288.95 206.99 288.75 206.58 288.55 206.17 288.36 205.78 288.17 205.4 287.98 205.04 287.8 204.69 287.62 204.37 287.45 204.07 287.28 203.8 287.12 203.56 286.96 203.34 286.82 203.16 286.68 203.02 286.54 202.91 286.42 202.84 286.3 202.81 286.19 202.81 286.1 202.85 286 202.93 285.92 203.05 285.84 203.2 285.78 203.39 285.71 203.61 285.66 203.87 285.62 204.16 285.57 204.47 285.54 204.82 285.51 205.19 285.49 205.58 285.46 205.98 285.45 206.41 285.43 206.85 285.42 207.3 285.41 207.75 285.4 208.21 285.39 208.66 285.38 209.12 285.37 209.57 285.35 210.01 285.34 210.43 285.32 210.84 285.29 211.23 285.26 211.6 285.23 211.94 285.19 212.26 285.14 212.54 285.09 212.8 285.03 213.03 284.96 213.22 284.88 213.37 284.8 213.48 284.71 213.56 284.61 213.6 284.5 213.61 284.38 213.57 284.26 213.5 284.13 213.39 283.99 213.25 283.84 213.07 283.68 212.86 283.52 212.62 283.36 212.34 283.18 212.05 283 211.72 282.82 211.38 282.63 211.01 282.44 210.63 282.25 210.24 282.05 209.84 281.85 209.43 281.66 209.02 281.46 208.6 281.26 208.19 281.06 207.79 280.87 207.4 280.68 207.02 280.49 206.65 280.31 206.31 280.13 205.99 279.96 205.69 279.79 205.42 279.63 205.17 279.47 204.96 279.33 204.78 279.19 204.64 279.05 204.53 278.93 204.46 278.81 204.42 278.7 204.43 278.61 204.47 278.51 204.55 278.43 204.66 278.35 204.82 278.29 205.01 278.23 205.23 278.17 205.49 278.13 205.78 278.08 206.09 278.05 206.44 278.02 206.8 278 207.19 277.98 207.6 277.96 208.03 277.94 208.47 277.93 208.91 277.92 209.37 277.91 209.82 277.9 210.28 277.89 210.74 277.88 211.18 277.86 211.62 277.85 212.05 277.82 212.46 277.8 212.85 277.77 213.22 277.74 213.56 277.7 213.88 277.65 214.16 277.6 214.42 277.54 214.64 277.47 214.83 277.39 214.99 277.31 215.1 277.21 215.18 277.12 215.22 277.01 215.23 276.89 215.19 276.77 215.12 276.63 215.01 276.5 214.87 276.35 214.69 276.19 214.48 276.03 214.23 275.86 213.96 275.69 213.66 275.51 213.34 275.33 213 275.14 212.63 274.95 212.25 274.76 211.86 274.56 211.46 274.36 211.05 274.17 210.63 273.97 210.22 273.77 209.81 273.57 209.41 273.38 209.02 273.19 208.63 273 208.27 272.82 207.93 272.64 207.6 272.47 207.31 272.3 207.03 272.14 206.79 271.98 206.58 271.83 206.4 271.7 206.25 271.56 206.15 271.44 206.07 271.32 206.04 271.21 206.04 271.12 206.09 271.02 206.16 270.94 206.28 270.86 206.44 270.8 206.62 270.74 206.85 270.68 207.1 270.63 207.39 270.6 207.71 270.56 208.05 270.53 208.42 270.5 208.81 270.48 209.22 270.47 209.65 270.45 210.08 270.44 210.53 270.43 210.98 270.42 211.44 260.06 213.68"/><text class="cls-1" transform="matrix(0.98, -0.21, 0.21, 0.98, 98.65, 256.19)">Received wave</text></g></svg>