<svg id="Capa_1" data-name="Capa 1" xmlns="http://www.w3.org/2000/svg" viewBox="0 0 472.91 193.09"><defs><style>.cls-1,.cls-10,.cls-15,.cls-18,.cls-2,.cls-9{fill:none;}.cls-1,.cls-10,.cls-18,.cls-19,.cls-2{stroke:#000;}.cls-1,.cls-19,.cls-9{stroke-miterlimit:10;}.cls-1{stroke-width:0.44px;}.cls-18,.cls-2{stroke-linecap:round;}.cls-10,.cls-15,.cls-18,.cls-2{stroke-linejoin:round;}.cls-2{stroke-width:0.35px;}.cls-12,.cls-3{font-size:12px;}.cls-13,.cls-19,.cls-3,.cls-5{font-family:Palatino-Roman, Palatino;}.cls-4{letter-spacing:0.3em;}.cls-19,.cls-5{font-size:7.61px;}.cls-19,.cls-6{letter-spacing:0.17em;}.cls-7{letter-spacing:0.17em;}.cls-8{fill:red;}.cls-8,.cls-9{opacity:0.24;}.cls-15,.cls-9{stroke:red;}.cls-9{stroke-width:0.22px;}.cls-10,.cls-18{stroke-width:0.52px;}.cls-11{fill-rule:evenodd;}.cls-12{font-family:LinLibertineI, Linux Libertine;}.cls-14{letter-spacing:-0.08em;}.cls-15{stroke-width:1.25px;}.cls-16{fill:#fff;}.cls-17{letter-spacing:0.25em;}.cls-19{stroke-width:0.25px;}.cls-20{letter-spacing:0.17em;}.cls-21{letter-spacing:0em;}</style></defs><title>rangeDopplerProcessing</title><line class="cls-1" x1="348.14" y1="161.93" x2="356.62" y2="161.93"/><path class="cls-2" d="M356.15,161.3a1.35,1.35,0,0,0,.59.63,1.33,1.33,0,0,0-.59.64"/><line class="cls-1" x1="348.14" y1="118.06" x2="356.62" y2="118.06"/><path class="cls-2" d="M356.15,117.42a1.33,1.33,0,0,0,.59.64c-.12,0-.55.39-.59.63"/><line class="cls-1" x1="348.14" y1="109.35" x2="356.62" y2="109.35"/><path class="cls-2" d="M356.15,108.72c0,.24.47.59.59.63a1.33,1.33,0,0,0-.59.64"/><text class="cls-3" transform="translate(345.8 142.06)">2</text><text class="cls-3" transform="translate(351.8 138.06) scale(0.58)">n<tspan class="cls-4" x="6.99" y="0">d</tspan></text><text class="cls-3" transform="translate(342.63 155.06)">FFT</text><path class="cls-1" d="M411,166.1v-8.7m-8.7,8.7v-8.7m-8.7,8.7v-8.7m-8.7,8.7v-8.7m-8.7,8.7v-8.7m-8.7,8.7v-8.7m0,0H411m-43.51,8.7H411"/><path class="cls-1" d="M411,131.29v-26.1m-8.7,26.1v-26.1m-8.7,26.1v-26.1m-8.7,26.1v-26.1m-8.7,26.1v-26.1m-8.7,26.1v-26.1m0,0H411m-43.51,8.7H411m-43.51,8.7H411m-43.51,8.7H411"/><path class="cls-1" d="M471.87,131.29v-26.1m-8.7,26.1v-26.1m-8.7,26.1v-26.1m0,0h17.41m-17.41,8.7h17.41m-17.41,8.7h17.41m-17.41,8.7h17.41"/><path class="cls-1" d="M471.87,166.1v-8.7m-8.7,8.7v-8.7m-8.7,8.7v-8.7m0,0h17.41m-17.41,8.7h17.41"/><line class="cls-1" x1="367.46" y1="157.4" x2="367.46" y2="131.29"/><line class="cls-1" x1="471.88" y1="157.4" x2="471.88" y2="131.29"/><line class="cls-1" x1="410.97" y1="166.1" x2="454.47" y2="166.1"/><line class="cls-1" x1="410.97" y1="157.4" x2="454.47" y2="157.4"/><line class="cls-1" x1="410.97" y1="131.29" x2="454.47" y2="131.29"/><line class="cls-1" x1="410.97" y1="122.59" x2="454.47" y2="122.59"/><line class="cls-1" x1="410.97" y1="113.89" x2="454.47" y2="113.89"/><line class="cls-1" x1="410.97" y1="105.19" x2="454.47" y2="105.19"/><text class="cls-5" transform="translate(428.35 109.91)"><tspan class="cls-6">.</tspan><tspan class="cls-7" x="3.17" y="0">.</tspan><tspan x="6.34" y="0">.</tspan></text><text class="cls-5" transform="translate(428.35 118.61)"><tspan class="cls-6">.</tspan><tspan class="cls-7" x="3.17" y="0">.</tspan><tspan x="6.34" y="0">.</tspan></text><text class="cls-5" transform="translate(428.35 127.31)"><tspan class="cls-6">.</tspan><tspan class="cls-7" x="3.17" y="0">.</tspan><tspan x="6.34" y="0">.</tspan></text><text class="cls-5" transform="translate(428.35 162.12)"><tspan class="cls-6">.</tspan><tspan class="cls-7" x="3.17" y="0">.</tspan><tspan x="6.34" y="0">.</tspan></text><text class="cls-5" transform="translate(385.66 148.72) rotate(-90)"><tspan class="cls-6">.</tspan><tspan class="cls-7" x="3.17" y="0">.</tspan><tspan x="6.34" y="0">.</tspan></text><polyline class="cls-8" points="393.56 131.29 393.56 122.59 402.26 122.59 402.26 131.29"/><polyline class="cls-9" points="393.56 131.29 393.56 122.59 402.26 122.59 402.26 131.29"/><text class="cls-3" transform="translate(397.39 186.98)">Velocity</text><text class="cls-3" transform="translate(220.56 151.44) rotate(-90)">Range</text><line class="cls-10" x1="367.46" y1="173.93" x2="469.47" y2="173.93"/><polyline class="cls-11" points="471.87 173.97 467.33 172.22 469.63 173.97 467.33 175.64 471.87 173.97"/><line class="cls-10" x1="226.75" y1="105.72" x2="226.75" y2="164.39"/><polyline class="cls-11" points="226.71 166.29 228.46 161.75 226.71 164.04 225.04 161.75 226.71 166.29"/><text class="cls-12" transform="translate(352.77 78.54) rotate(-90)">N<tspan class="cls-13" x="7.99" y="0" xml:space="preserve"> samples</tspan></text><text class="cls-3" transform="translate(221.62 96.9) rotate(-90)">Raw Data Matrix</text><line class="cls-1" x1="348.08" y1="127.13" x2="356.56" y2="127.13"/><path class="cls-2" d="M356.09,126.49a1.33,1.33,0,0,0,.59.64c-.12,0-.55.39-.59.63"/><text class="cls-3" transform="translate(420.51 147.33)"><tspan class="cls-14">T</tspan><tspan x="6.43" y="0">arget</tspan></text><path class="cls-1" d="M416.26,144.34H401.88a4,4,0,0,1-4-4v-3.59"/><path class="cls-2" d="M397.28,137.27c.24,0,.59-.48.63-.59,0,.11.4.55.64.59"/><path class="cls-1" d="M276.38,166.1v-8.7m-8.69,8.7v-8.7M259,166.1v-8.7m-8.7,8.7v-8.7m-8.7,8.7v-8.7m-8.7,8.7v-8.7m0,0h43.51m-43.51,8.7h43.51"/><path class="cls-1" d="M276.38,131.29v-26.1m-8.69,26.1v-26.1M259,131.29v-26.1m-8.7,26.1v-26.1m-8.7,26.1v-26.1m-8.7,26.1v-26.1m0,0h43.51m-43.51,8.7h43.51m-43.51,8.7h43.51m-43.51,8.7h43.51"/><path class="cls-1" d="M337.3,131.29v-26.1m-8.7,26.1v-26.1m-8.7,26.1v-26.1m0,0h17.4m-17.4,8.7h17.4m-17.4,8.7h17.4m-17.4,8.7h17.4"/><path class="cls-1" d="M337.3,166.1v-8.7m-8.7,8.7v-8.7m-8.7,8.7v-8.7m0,0h17.4m-17.4,8.7h17.4"/><line class="cls-1" x1="232.88" y1="157.4" x2="232.88" y2="131.29"/><line class="cls-1" x1="337.3" y1="157.4" x2="337.3" y2="131.29"/><line class="cls-1" x1="276.39" y1="166.1" x2="319.9" y2="166.1"/><line class="cls-1" x1="276.39" y1="157.4" x2="319.9" y2="157.4"/><line class="cls-1" x1="276.39" y1="131.29" x2="319.9" y2="131.29"/><line class="cls-1" x1="276.39" y1="122.59" x2="319.9" y2="122.59"/><line class="cls-1" x1="276.39" y1="113.89" x2="319.9" y2="113.89"/><line class="cls-1" x1="276.39" y1="105.19" x2="319.9" y2="105.19"/><text class="cls-5" transform="translate(293.77 109.91)"><tspan class="cls-6">.</tspan><tspan class="cls-7" x="3.17" y="0">.</tspan><tspan x="6.34" y="0">.</tspan></text><text class="cls-5" transform="translate(293.77 118.61)"><tspan class="cls-6">.</tspan><tspan class="cls-7" x="3.17" y="0">.</tspan><tspan x="6.34" y="0">.</tspan></text><text class="cls-5" transform="translate(293.77 127.31)"><tspan class="cls-6">.</tspan><tspan class="cls-7" x="3.17" y="0">.</tspan><tspan x="6.34" y="0">.</tspan></text><text class="cls-5" transform="translate(293.77 162.12)"><tspan class="cls-6">.</tspan><tspan class="cls-7" x="3.17" y="0">.</tspan><tspan x="6.34" y="0">.</tspan></text><text class="cls-5" transform="translate(251.09 148.72) rotate(-90)"><tspan class="cls-6">.</tspan><tspan class="cls-7" x="3.17" y="0">.</tspan><tspan x="6.34" y="0">.</tspan></text><polyline class="cls-8" points="232.88 122.59 337.3 122.59 337.3 131.29 232.88 131.29"/><polyline class="cls-9" points="232.88 122.59 337.3 122.59 337.3 131.29 232.88 131.29"/><text class="cls-3" transform="translate(286.09 147.33)"><tspan class="cls-14">T</tspan><tspan x="6.43" y="0">arget</tspan></text><path class="cls-1" d="M276.38,81.93V73.22m-8.69,8.71V73.22M259,81.93V73.22m-8.7,8.71V73.22m-8.7,8.71V73.22m-8.7,8.71V73.22m0,0h43.51m-43.51,8.7h43.51"/><path class="cls-1" d="M276.38,47.12V21m-8.69,26.11V21M259,47.12V21m-8.7,26.11V21m-8.7,26.11V21m-8.7,26.11V21m0,0h43.51m-43.51,8.7h43.51m-43.51,8.7h43.51m-43.51,8.7h43.51"/><path class="cls-1" d="M337.3,47.12V21m-8.7,26.11V21m-8.7,26.11V21m0,0h17.4m-17.4,8.7h17.4m-17.4,8.7h17.4m-17.4,8.7h17.4"/><path class="cls-1" d="M337.3,81.93V73.22m-8.7,8.71V73.22m-8.7,8.71V73.22m0,0h17.4m-17.4,8.7h17.4"/><line class="cls-1" x1="232.88" y1="73.22" x2="232.88" y2="47.12"/><line class="cls-1" x1="337.3" y1="73.22" x2="337.3" y2="47.12"/><line class="cls-1" x1="276.39" y1="81.93" x2="319.9" y2="81.93"/><line class="cls-1" x1="276.39" y1="73.22" x2="319.9" y2="73.22"/><line class="cls-1" x1="276.39" y1="47.12" x2="319.9" y2="47.12"/><line class="cls-1" x1="276.39" y1="38.42" x2="319.9" y2="38.42"/><line class="cls-1" x1="276.39" y1="29.72" x2="319.9" y2="29.72"/><line class="cls-1" x1="276.39" y1="21.01" x2="319.9" y2="21.01"/><text class="cls-5" transform="translate(293.77 25.74)"><tspan class="cls-6">.</tspan><tspan class="cls-7" x="3.17" y="0">.</tspan><tspan x="6.34" y="0">.</tspan></text><text class="cls-5" transform="translate(293.77 34.44)"><tspan class="cls-6">.</tspan><tspan class="cls-7" x="3.17" y="0">.</tspan><tspan x="6.34" y="0">.</tspan></text><text class="cls-5" transform="translate(293.77 43.14)"><tspan class="cls-6">.</tspan><tspan class="cls-7" x="3.17" y="0">.</tspan><tspan x="6.34" y="0">.</tspan></text><text class="cls-5" transform="translate(293.77 77.95)"><tspan class="cls-6">.</tspan><tspan class="cls-7" x="3.17" y="0">.</tspan><tspan x="6.34" y="0">.</tspan></text><text class="cls-5" transform="translate(255 64.54) rotate(-90)"><tspan class="cls-6">.</tspan><tspan class="cls-7" x="3.17" y="0">.</tspan><tspan x="6.34" y="0">.</tspan></text><line class="cls-1" x1="237.23" y1="89.2" x2="237.23" y2="97.68"/><path class="cls-2" d="M237.87,97.21a.64.64,0,0,1-1.28,0"/><line class="cls-1" x1="245.93" y1="89.2" x2="245.93" y2="97.68"/><path class="cls-2" d="M246.57,97.21a1.33,1.33,0,0,0-.64.59,1.35,1.35,0,0,0-.63-.59"/><line class="cls-1" x1="254.63" y1="89.2" x2="254.63" y2="97.68"/><path class="cls-2" d="M255.27,97.21a1.33,1.33,0,0,0-.64.59c0-.12-.39-.55-.63-.59"/><line class="cls-1" x1="263.34" y1="89.2" x2="263.34" y2="97.68"/><path class="cls-2" d="M264,97.21a1.26,1.26,0,0,0-.63.59,1.33,1.33,0,0,0-.64-.59"/><line class="cls-1" x1="272.04" y1="89.2" x2="272.04" y2="97.68"/><path class="cls-2" d="M272.67,97.21c-.24,0-.59.47-.63.59a1.33,1.33,0,0,0-.64-.59"/><line class="cls-1" x1="324.25" y1="89.2" x2="324.25" y2="97.68"/><path class="cls-2" d="M324.88,97.21c-.24,0-.59.47-.63.59a1.33,1.33,0,0,0-.64-.59"/><line class="cls-1" x1="332.95" y1="89.2" x2="332.95" y2="97.68"/><path class="cls-2" d="M333.58,97.21a1.35,1.35,0,0,0-.63.59,1.33,1.33,0,0,0-.64-.59"/><text class="cls-3" transform="translate(280.79 97.21)">1</text><text class="cls-3" transform="translate(286.79 93.21) scale(0.58)">st</text><text class="cls-3" transform="translate(292.03 97.21)"><tspan xml:space="preserve"> FFT</tspan></text><path class="cls-1" d="M281.53,144.4H267.14a4,4,0,0,1-4-4v-3.59"/><path class="cls-2" d="M262.54,137.33c.24,0,.6-.48.64-.59,0,.11.4.55.64.59"/><text class="cls-12" transform="translate(262.41 10.41)">N</text><text class="cls-12" transform="translate(270.39 14.41) scale(0.58)">c</text><text class="cls-12" transform="translate(273.11 10.41)"> <tspan class="cls-13" x="3" y="0">chirps</tspan></text><polyline class="cls-15" points="150.57 77.68 184.4 41.14 184.4 75.95"/><rect class="cls-16" x="148.61" y="76.14" width="46.41" height="4.96"/><polyline class="cls-15" points="26.12 75.39 57.84 41.14 57.84 75.39 89.55 41.14 89.55 75.39 121.27 41.14 121.27 75.95"/><line class="cls-10" x1="26.09" y1="75.95" x2="192.84" y2="75.95"/><text class="cls-3" transform="translate(31.85 95.7)">FFT</text><polygon class="cls-10" points="27.15 91.49 27.15 99.19 56.8 99.19 56.8 83.8 27.15 83.8 27.15 91.49"/><line class="cls-10" x1="41.98" y1="105.72" x2="41.98" y2="164.2"/><text class="cls-3" transform="translate(63.62 95.7)">FFT</text><polygon class="cls-10" points="58.87 91.49 58.87 99.19 88.52 99.19 88.52 83.8 58.87 83.8 58.87 91.49"/><line class="cls-10" x1="73.69" y1="105.72" x2="73.69" y2="164.2"/><text class="cls-3" transform="translate(95.41 95.7)">FFT</text><polygon class="cls-10" points="90.58 91.49 90.58 99.19 120.24 99.19 120.24 83.8 90.58 83.8 90.58 91.49"/><line class="cls-10" x1="105.41" y1="105.72" x2="105.41" y2="164.2"/><rect class="cls-16" x="23.52" y="69.91" width="2.6" height="6.63"/><text class="cls-3" transform="translate(158.71 95.7)">FFT</text><polygon class="cls-10" points="154.02 91.49 154.02 99.19 183.68 99.19 183.68 83.8 154.02 83.8 154.02 91.49"/><line class="cls-10" x1="168.85" y1="105.72" x2="168.85" y2="164.2"/><line class="cls-10" x1="25.98" y1="173.97" x2="192.73" y2="173.97"/><text class="cls-12" transform="translate(198.88 175.91)">t</text><text class="cls-3" transform="translate(76.34 186.98)">Dopple<tspan class="cls-17" x="39.5" y="0">r</tspan><tspan x="47.23" y="0">FFT</tspan></text><polyline class="cls-11" points="195.17 75.91 190.63 74.16 192.92 75.91 190.63 77.57 195.17 75.91"/><line class="cls-18" x1="26.12" y1="75.95" x2="26.12" y2="42.4"/><text class="cls-12" transform="translate(2.36 60.62)">B</text><text class="cls-12" transform="translate(197.04 77.23)">t</text><polyline class="cls-11" points="26.16 40.22 24.41 44.76 26.16 42.47 27.82 44.76 26.16 40.22"/><polyline class="cls-11" points="41.93 166.47 43.69 161.93 41.93 164.23 40.27 161.93 41.93 166.47"/><polyline class="cls-11" points="73.65 166.47 75.4 161.93 73.65 164.23 71.99 161.93 73.65 166.47"/><polyline class="cls-11" points="105.37 166.47 107.12 161.93 105.37 164.23 103.7 161.93 105.37 166.47"/><polyline class="cls-11" points="168.81 166.47 170.56 161.93 168.81 164.23 167.14 161.93 168.81 166.47"/><polyline class="cls-11" points="195.09 173.97 190.55 172.22 192.84 173.97 190.55 175.64 195.09 173.97"/><text class="cls-12" transform="translate(36.84 33.42)">T</text><text class="cls-12" transform="translate(43.37 37.42) scale(0.58)">c</text><line class="cls-18" x1="27.82" y1="40.11" x2="55.76" y2="40.11"/><line class="cls-18" x1="26.12" y1="21.98" x2="26.12" y2="39.84"/><line class="cls-18" x1="15.45" y1="74.71" x2="15.45" y2="41.89"/><polyline class="cls-11" points="15.5 40.13 13.75 44.67 15.5 42.38 17.16 44.67 15.5 40.13"/><polyline class="cls-11" points="15.41 76.54 17.16 72 15.41 74.3 13.75 72 15.41 76.54"/><line class="cls-18" x1="25.38" y1="75.95" x2="16.15" y2="75.95"/><line class="cls-18" x1="25.38" y1="40.22" x2="16.15" y2="40.22"/><polyline class="cls-11" points="26.75 40.06 31.3 41.82 29 40.06 31.3 38.4 26.75 40.06"/><polyline class="cls-11" points="57.16 40.15 52.62 38.4 54.91 40.15 52.62 41.82 57.16 40.15"/><text class="cls-12" transform="translate(100.54 10.41)">T</text><text class="cls-12" transform="translate(107.07 14.41) scale(0.58)">f</text><line class="cls-18" x1="28.2" y1="21.15" x2="182.76" y2="21.15"/><polyline class="cls-11" points="26.2 21.1 30.74 22.86 28.44 21.1 30.74 19.44 26.2 21.1"/><polyline class="cls-11" points="184.4 21.19 179.86 19.44 182.15 21.19 179.86 22.86 184.4 21.19"/><line class="cls-18" x1="184.4" y1="21.75" x2="184.4" y2="39.95"/><text class="cls-3" transform="translate(163.11 151.44) rotate(-90)">Range</text><text class="cls-3" transform="translate(99.76 151.44) rotate(-90)">Range</text><text class="cls-3" transform="translate(67.85 151.44) rotate(-90)">Range</text><text class="cls-3" transform="translate(36.25 151.44) rotate(-90)">Range</text><text class="cls-19" transform="translate(133.16 91.49)">.<tspan class="cls-20" x="3.17" y="0">.</tspan><tspan class="cls-21" x="6.34" y="0">.</tspan></text><rect class="cls-16" x="130.02" y="72.91" width="14.43" height="6.47"/><text class="cls-19" transform="translate(133.16 76.45)">.<tspan class="cls-20" x="3.17" y="0">.</tspan><tspan class="cls-21" x="6.34" y="0">.</tspan></text><text class="cls-19" transform="translate(133.16 58.55)">.<tspan class="cls-20" x="3.17" y="0">.</tspan><tspan class="cls-21" x="6.34" y="0">.</tspan></text></svg>