<svg id="Capa_1" data-name="Capa 1" xmlns="http://www.w3.org/2000/svg" viewBox="0 0 472.91 188.67"><defs><style>.cls-1,.cls-10,.cls-11,.cls-2,.cls-22,.cls-24{fill:none;}.cls-1,.cls-10{stroke:#03f;}.cls-1,.cls-10,.cls-11,.cls-2,.cls-22{stroke-miterlimit:10;}.cls-1,.cls-2,.cls-22{stroke-width:0.52px;}.cls-11,.cls-2{stroke:#f03;}.cls-13,.cls-14,.cls-15,.cls-20,.cls-3,.cls-5,.cls-9{font-size:12px;}.cls-14,.cls-17,.cls-18,.cls-20,.cls-3,.cls-7,.cls-9{font-family:Palatino-Roman, Palatino;}.cls-13,.cls-15,.cls-19,.cls-4,.cls-5{font-family:LinLibertineI, Linux Libertine;}.cls-5,.cls-9{fill:#f03;}.cls-6{letter-spacing:0.08em;}.cls-8{font-family:jsMath-cmsy10;}.cls-10,.cls-11{stroke-width:1.5px;}.cls-12{fill-rule:evenodd;}.cls-13,.cls-14{fill:#03f;}.cls-16{letter-spacing:0.2em;}.cls-17{letter-spacing:-0.08em;}.cls-18{letter-spacing:-0.03em;}.cls-19{letter-spacing:0.07em;}.cls-20{letter-spacing:-0.1em;}.cls-21{letter-spacing:-0.1em;}.cls-22,.cls-24{stroke:#000;}.cls-22{stroke-dasharray:2;}.cls-23{fill:#fff;}.cls-24{stroke-linecap:round;stroke-linejoin:round;stroke-width:0.52px;}</style></defs><title>rayleighDetection</title><g id="rayleighDistribution"><line class="cls-1" x1="99.94" y1="158.36" x2="96.67" y2="160.81"/><line class="cls-1" x1="103.3" y1="160.85" x2="109.27" y2="156.37"/><line class="cls-1" x1="109.93" y1="160.88" x2="122.3" y2="151.61"/><line class="cls-1" x1="150.29" y1="135.63" x2="116.57" y2="160.91"/><line class="cls-1" x1="123.21" y1="160.94" x2="153.7" y2="138.08"/><line class="cls-1" x1="129.84" y1="160.96" x2="157.25" y2="140.42"/><line class="cls-1" x1="136.48" y1="160.99" x2="160.95" y2="142.65"/><line class="cls-1" x1="143.12" y1="161.02" x2="164.83" y2="144.75"/><line class="cls-1" x1="149.77" y1="161.04" x2="168.87" y2="146.72"/><line class="cls-1" x1="156.41" y1="161.07" x2="173.09" y2="148.56"/><line class="cls-1" x1="163.05" y1="161.09" x2="177.48" y2="150.27"/><line class="cls-1" x1="169.7" y1="161.11" x2="182.06" y2="151.84"/><line class="cls-1" x1="176.35" y1="161.13" x2="186.81" y2="153.29"/><line class="cls-1" x1="183" y1="161.15" x2="191.75" y2="154.59"/><line class="cls-1" x1="189.65" y1="161.17" x2="196.85" y2="155.77"/><line class="cls-1" x1="196.3" y1="161.18" x2="202.14" y2="156.81"/><line class="cls-1" x1="202.96" y1="161.2" x2="207.58" y2="157.73"/><line class="cls-1" x1="209.61" y1="161.21" x2="213.2" y2="158.52"/><line class="cls-1" x1="216.27" y1="161.22" x2="218.98" y2="159.2"/><line class="cls-1" x1="222.94" y1="161.23" x2="224.9" y2="159.76"/><line class="cls-1" x1="229.61" y1="161.23" x2="230.99" y2="160.2"/><line class="cls-2" x1="99.94" y1="158.36" x2="96.67" y2="160.81"/><line class="cls-2" x1="103.3" y1="160.85" x2="109.27" y2="156.37"/><line class="cls-2" x1="109.93" y1="160.88" x2="122.3" y2="151.61"/><line class="cls-2" x1="146.41" y1="138.54" x2="116.57" y2="160.91"/><line class="cls-2" x1="123.21" y1="160.94" x2="146.41" y2="143.55"/><line class="cls-2" x1="129.84" y1="160.96" x2="146.4" y2="148.56"/><line class="cls-2" x1="136.48" y1="160.99" x2="146.4" y2="153.56"/><line class="cls-2" x1="143.12" y1="161.02" x2="146.37" y2="158.58"/><text class="cls-3" transform="translate(112.92 13.33)">Threshold: <tspan class="cls-4" x="60.27" y="0">γ</tspan></text><text class="cls-5" transform="translate(176.48 116.87)"><tspan class="cls-6">p</tspan><tspan class="cls-7" x="6.77" y="0">(</tspan><tspan class="cls-8" x="10.76" y="0">H</tspan></text><text class="cls-9" transform="translate(197.38 120.87) scale(0.58)">1</text><text class="cls-9" transform="translate(200.88 116.87)">)</text><path class="cls-10" d="M35.77,160.89C50.25,107,65.1,18.67,83.08,13.53s34.7,92,60.56,116.53,60.24,27.69,94.62,30.82"/><path class="cls-11" d="M35.77,160.9c4.54,0,54.56.06,69.16-3s27.81-11.77,37.24-20.47c16.53-15.25,25.22-64.6,48-64.6,24.33,0,28.2,48.73,56.87,67.23,17,11,34,13.34,59.35,16.53,30,3.78,90.27,5.14,99,4.83"/><polyline class="cls-12" points="35.85 20.06 32.59 28.52 35.85 24.25 38.95 28.52 35.85 20.06"/><text class="cls-13" transform="translate(71.64 116.87)"><tspan class="cls-6">p</tspan><tspan class="cls-7" x="6.77" y="0">(</tspan><tspan class="cls-8" x="10.76" y="0">H</tspan></text><text class="cls-14" transform="translate(92.54 120.87) scale(0.58)">1</text><text class="cls-14" transform="translate(96.04 116.87)">)</text><text class="cls-15" transform="translate(436.05 164.1)"><tspan class="cls-16">x</tspan><tspan class="cls-17" x="8.1" y="0">[</tspan><tspan x="11.19" y="0">n</tspan><tspan class="cls-7" x="17.4" y="0">]</tspan></text><text class="cls-15" transform="translate(17.2 12.46)"><tspan class="cls-16">p</tspan><tspan class="cls-18" x="8.27" y="0">(</tspan><tspan class="cls-16" x="11.96" y="0">x</tspan><tspan class="cls-17" x="20.06" y="0">[</tspan><tspan x="23.15" y="0">n</tspan><tspan class="cls-7" x="29.36" y="0">])</tspan></text><text class="cls-3" transform="translate(153.04 178.26)">P</text><text class="cls-3" transform="translate(160.29 182.25) scale(0.58)">FA</text><text class="cls-3" transform="translate(169.62 178.26)"><tspan xml:space="preserve"> = </tspan><tspan class="cls-19" x="13.27" y="0">p</tspan><tspan x="20.04" y="0">(</tspan><tspan class="cls-8" x="24.03" y="0">H</tspan></text><text class="cls-20" transform="translate(203.8 182.25) scale(0.58)">1</text><text class="cls-3" transform="translate(206.59 178.26)"><tspan class="cls-21">|</tspan><tspan class="cls-8" x="6.07" y="0">H</tspan></text><text class="cls-3" transform="translate(222.8 182.25) scale(0.58)">0</text><text class="cls-3" transform="translate(226.3 178.26)">)</text><text class="cls-3" transform="translate(64.83 178.26)">P</text><text class="cls-3" transform="translate(72.08 182.25) scale(0.58)">M</text><text class="cls-3" transform="translate(78.69 178.26)"><tspan xml:space="preserve"> = </tspan><tspan class="cls-19" x="13.27" y="0">p</tspan><tspan x="20.04" y="0">(</tspan><tspan class="cls-8" x="24.03" y="0">H</tspan></text><text class="cls-20" transform="translate(112.86 182.25) scale(0.58)">0</text><text class="cls-3" transform="translate(115.66 178.26)"><tspan class="cls-21">|</tspan><tspan class="cls-8" x="6.07" y="0">H</tspan></text><text class="cls-3" transform="translate(131.87 182.25) scale(0.58)">1</text><text class="cls-3" transform="translate(135.37 178.26)">)</text><line class="cls-10" x1="248.14" y1="161.69" x2="226.29" y2="159.76"/><line class="cls-22" x1="146.37" y1="18.86" x2="146.37" y2="160.96"/><rect class="cls-23" x="35.25" y="161.23" width="377.88" height="6.15"/><rect class="cls-23" x="31.63" y="155.26" width="4.14" height="10.58"/><line class="cls-24" x1="425.19" y1="160.92" x2="35.77" y2="160.92"/><polyline class="cls-12" points="429.42 161 420.96 157.74 425.23 161 420.96 164.1 429.42 161"/><line class="cls-24" x1="35.77" y1="24.29" x2="35.77" y2="160.92"/></g></svg>