<svg id="Capa_1" data-name="Capa 1" xmlns="http://www.w3.org/2000/svg" viewBox="0 0 141.68 136.15"><defs><style>.cls-1{fill:#fff;fill-rule:evenodd;}.cls-2,.cls-3,.cls-4,.cls-5{fill:none;stroke-linecap:square;stroke-linejoin:bevel;stroke-width:0.52px;}.cls-2{stroke:silver;}.cls-3{stroke:gray;stroke-dasharray:3.39 3.39;}.cls-4{stroke:#0070c0;}.cls-5{stroke:#000;}.cls-6{font-size:5.43px;letter-spacing:0.01em;}.cls-6,.cls-7,.cls-8{font-family:Palatino-Roman, Palatino;}.cls-7{font-size:12px;letter-spacing:0.01em;}.cls-8{font-size:11px;letter-spacing:0.01em;}</style></defs><title>RCS_4Lambda</title><g id="RCS_4Lambda"><polygon class="cls-1" points="128.59 68.5 128.57 69.89 128.51 71.27 128.43 72.65 128.3 74.01 128.15 75.37 127.95 76.71 127.73 78.04 127.47 79.36 127.18 80.67 126.86 81.97 126.51 83.25 126.12 84.52 125.71 85.78 125.26 87.02 124.79 88.25 124.28 89.47 123.75 90.67 123.19 91.85 122.6 93.01 121.98 94.16 121.34 95.3 120.66 96.41 119.97 97.51 119.24 98.58 118.49 99.64 117.72 100.69 116.92 101.7 116.1 102.7 115.25 103.69 114.38 104.64 113.49 105.58 112.57 106.5 111.64 107.39 110.68 108.26 109.7 109.1 108.7 109.93 107.68 110.73 106.64 111.5 105.58 112.25 104.5 112.97 103.4 113.67 102.29 114.34 101.16 114.99 100.01 115.6 98.84 116.19 97.66 116.76 96.46 117.29 95.25 117.79 94.02 118.27 92.78 118.71 91.52 119.13 90.25 119.51 88.96 119.87 87.67 120.19 86.36 120.48 85.04 120.73 83.7 120.96 82.36 121.15 81 121.31 79.64 121.43 78.27 121.52 76.88 121.57 75.49 121.59 74.1 121.57 72.72 121.52 71.34 121.43 69.98 121.31 68.63 121.15 67.28 120.96 65.95 120.73 64.63 120.48 63.32 120.19 62.02 119.87 60.74 119.51 59.47 119.13 58.21 118.71 56.97 118.27 55.74 117.79 54.52 117.29 53.33 116.76 52.14 116.19 50.98 115.6 49.83 114.99 48.7 114.34 47.58 113.67 46.48 112.97 45.41 112.25 44.35 111.5 43.31 110.73 42.28 109.93 41.28 109.1 40.31 108.26 39.35 107.39 38.41 106.5 37.49 105.58 36.6 104.64 35.73 103.69 34.89 102.7 34.06 101.7 33.27 100.69 32.49 99.64 31.74 98.58 31.02 97.51 30.32 96.41 29.65 95.3 29 94.16 28.39 93.01 27.8 91.85 27.23 90.67 26.7 89.47 26.2 88.25 25.72 87.02 25.28 85.78 24.86 84.52 24.48 83.25 24.12 81.97 23.8 80.67 23.51 79.36 23.25 78.04 23.03 76.71 22.84 75.37 22.68 74.01 22.56 72.65 22.47 71.27 22.42 69.89 22.4 68.5 22.42 67.11 22.47 65.72 22.56 64.35 22.68 62.98 22.84 61.63 23.03 60.29 23.25 58.95 23.51 57.63 23.8 56.33 24.12 55.03 24.48 53.74 24.86 52.47 25.28 51.22 25.72 49.97 26.2 48.74 26.7 47.53 27.23 46.33 27.8 45.15 28.39 43.98 29 42.83 29.65 41.7 30.32 40.59 31.02 39.49 31.74 38.41 32.49 37.35 33.27 36.31 34.06 35.29 34.89 34.29 35.73 33.31 36.6 32.35 37.49 31.42 38.41 30.5 39.35 29.61 40.31 28.74 41.28 27.89 42.28 27.07 43.31 26.27 44.35 25.5 45.41 24.75 46.48 24.02 47.58 23.33 48.7 22.65 49.83 22.01 50.98 21.39 52.14 20.8 53.33 20.24 54.52 19.71 55.74 19.2 56.97 18.73 58.21 18.28 59.47 17.87 60.74 17.48 62.02 17.13 63.32 16.81 64.63 16.52 65.95 16.26 67.28 16.04 68.63 15.85 69.98 15.69 71.34 15.57 72.72 15.48 74.1 15.42 75.49 15.41 76.88 15.42 78.27 15.48 79.64 15.57 81 15.69 82.36 15.85 83.7 16.04 85.04 16.26 86.36 16.52 87.67 16.81 88.96 17.13 90.25 17.48 91.52 17.87 92.78 18.28 94.02 18.73 95.25 19.2 96.46 19.71 97.66 20.24 98.84 20.8 100.01 21.39 101.16 22.01 102.29 22.65 103.4 23.33 104.5 24.02 105.58 24.75 106.64 25.5 107.68 26.27 108.7 27.07 109.7 27.89 110.68 28.74 111.64 29.61 112.57 30.5 113.49 31.42 114.38 32.35 115.25 33.31 116.1 34.29 116.92 35.29 117.72 36.31 118.49 37.35 119.24 38.41 119.97 39.49 120.66 40.59 121.34 41.7 121.98 42.83 122.6 43.98 123.19 45.15 123.75 46.33 124.28 47.53 124.79 48.74 125.26 49.97 125.71 51.22 126.12 52.47 126.51 53.74 126.86 55.03 127.18 56.33 127.47 57.63 127.73 58.95 127.95 60.29 128.15 61.63 128.3 62.98 128.43 64.35 128.51 65.72 128.57 67.11 128.59 68.5"/><line class="cls-2" x1="75.49" y1="68.5" x2="128.58" y2="68.5"/><line class="cls-2" x1="75.49" y1="68.5" x2="121.47" y2="41.95"/><line class="cls-2" x1="75.49" y1="68.5" x2="102.04" y2="22.52"/><line class="cls-2" x1="75.49" y1="68.5" x2="75.49" y2="15.41"/><line class="cls-2" x1="75.49" y1="68.5" x2="48.95" y2="22.52"/><line class="cls-2" x1="75.49" y1="68.5" x2="29.51" y2="41.95"/><line class="cls-2" x1="75.49" y1="68.5" x2="22.4" y2="68.5"/><line class="cls-2" x1="75.49" y1="68.5" x2="29.51" y2="95.04"/><line class="cls-2" x1="75.49" y1="68.5" x2="48.95" y2="114.48"/><line class="cls-2" x1="75.49" y1="68.5" x2="75.49" y2="121.59"/><line class="cls-2" x1="75.49" y1="68.5" x2="102.04" y2="114.48"/><line class="cls-2" x1="75.49" y1="68.5" x2="121.47" y2="95.04"/><line class="cls-2" x1="75.49" y1="68.5" x2="128.58" y2="68.5"/><circle class="cls-3" cx="75.49" cy="68.5" r="5.31"/><circle class="cls-3" cx="75.49" cy="68.5" r="10.62"/><circle class="cls-3" cx="75.49" cy="68.5" r="15.93"/><circle class="cls-3" cx="75.49" cy="68.5" r="21.24"/><circle class="cls-3" cx="75.49" cy="68.5" r="26.55"/><circle class="cls-3" cx="75.49" cy="68.5" r="31.86"/><circle class="cls-3" cx="75.49" cy="68.5" r="37.16"/><circle class="cls-3" cx="75.49" cy="68.5" r="42.47"/><circle class="cls-3" cx="75.49" cy="68.5" r="47.78"/><polyline class="cls-4" points="128.45 68.5 128.45 68.39 128.45 68.27 128.45 68.16 128.45 68.04 128.44 67.92 128.44 67.81 128.44 67.69 128.44 67.58 128.43 67.46 128.43 67.35 128.43 67.23 128.42 67.12 128.42 67 128.41 66.89 128.4 66.77 128.4 66.66 128.39 66.54 128.38 66.42 128.37 66.31 128.36 66.19 128.35 66.08 128.33 65.97 128.32 65.85 128.3 65.73 128.28 65.62 128.27 65.51 128.24 65.39 128.22 65.28 128.2 65.16 128.17 65.05 128.14 64.94 128.11 64.82 128.07 64.71 128.04 64.6 128 64.49 127.95 64.37 127.91 64.26 127.86 64.15 127.81 64.04 127.75 63.93 127.69 63.82 127.63 63.71 127.56 63.6 127.48 63.5 127.41 63.39 127.33 63.28 127.24 63.18 127.15 63.07 127.05 62.97 126.95 62.87 126.84 62.77 126.73 62.66 126.61 62.57 126.48 62.47 126.35 62.37 126.21 62.27 126.07 62.18 125.92 62.09 125.76 62 125.59 61.91 125.41 61.82 125.23 61.73 125.04 61.65 124.84 61.57 124.64 61.49 124.42 61.41 124.2 61.33 123.96 61.26 123.72 61.19 123.47 61.12 123.21 61.05 122.94 60.99 122.66 60.93 122.37 60.87 122.06 60.81 121.75 60.76 121.43 60.71 121.1 60.67 120.76 60.62 120.4 60.58 120.04 60.55 119.66 60.52 119.28 60.49 118.88 60.46 118.47 60.44 118.05 60.42 117.61 60.41 117.17 60.4 116.71 60.4 116.25 60.4 115.77 60.4 115.28 60.41 114.78 60.42 114.26 60.44 113.74 60.46 113.2 60.49 112.66 60.52 112.1 60.55 111.53 60.6 110.95 60.64 110.36 60.69 109.76 60.75 109.15 60.81 108.53 60.88 107.9 60.95 107.26 61.02 106.61 61.1 105.95 61.19 105.29 61.28 104.61 61.38 103.93 61.48 103.24 61.58 102.55 61.7 101.84 61.81 101.14 61.93 100.42 62.05 99.71 62.18 98.98 62.32 98.26 62.46 97.53 62.6 96.8 62.74 96.07 62.89 95.34 63.05 94.6 63.2 93.87 63.36 93.14 63.53 92.41 63.69 91.69 63.86 90.96 64.03 90.25 64.2 89.53 64.38 88.83 64.55 88.13 64.73 87.44 64.91 86.76 65.08 86.09 65.26 85.43 65.44 84.78 65.62 84.15 65.79 83.53 65.97 82.92 66.14 82.34 66.31 81.76 66.48 81.21 66.64 80.68 66.81 80.17 66.96 79.67 67.11 79.2 67.26 78.76 67.4 78.34 67.54 77.94 67.67 77.57 67.79 77.23 67.9 76.91 68.01 76.63 68.1 76.37 68.19 76.15 68.27 75.95 68.34 75.8 68.39 75.67 68.44 75.58 68.47 75.52 68.49 75.49 68.5 75.5 68.5 75.55 68.48 75.64 68.45 75.76 68.4 75.92 68.34 76.12 68.26 76.36 68.17 76.63 68.06 76.94 67.93 77.29 67.79 77.68 67.63 78.11 67.45 78.57 67.26 79.07 67.05 79.61 66.82 80.19 66.57 80.8 66.31 81.44 66.02 82.13 65.72 82.84 65.4 83.59 65.07 84.37 64.71 85.17 64.34 86.01 63.95 86.88 63.55 87.77 63.13 88.69 62.7 89.63 62.24 90.6 61.78 91.58 61.3 92.58 60.8 93.6 60.3 94.63 59.78 95.67 59.25 96.73 58.71 97.79 58.16 98.86 57.61 99.93 57.04 101 56.47 102.07 55.9 103.13 55.32 104.19 54.74 105.24 54.16 106.28 53.57 107.3 52.99 108.3 52.41 109.28 51.84 110.25 51.27 111.18 50.71 112.09 50.16 112.97 49.61 113.81 49.08 114.62 48.57 115.39 48.06 116.12 47.58 116.8 47.11 117.44 46.66 118.03 46.24 118.58 45.83 119.07 45.45 119.51 45.1 119.89 44.77 120.21 44.47 120.48 44.2 120.68 43.97 120.83 43.76 120.91 43.59 120.92 43.45 120.88 43.34 120.77 43.28 120.59 43.25 120.35 43.25 120.05 43.3 119.67 43.38 119.24 43.5 118.74 43.66 118.18 43.86 117.55 44.1 116.87 44.37 116.12 44.69 115.32 45.04 114.46 45.43 113.55 45.86 112.59 46.32 111.58 46.82 110.53 47.35 109.43 47.91 108.29 48.5 107.12 49.12 105.91 49.77 104.68 50.44 103.42 51.14 102.14 51.85 100.84 52.59 99.53 53.34 98.21 54.1 96.89 54.87 95.57 55.65 94.25 56.44 92.95 57.22 91.66 58.01 90.38 58.79 89.14 59.56 87.92 60.32 86.73 61.06 85.58 61.79 84.47 62.5 83.42 63.18 82.41 63.84 81.45 64.46 80.56 65.06 79.72 65.61 78.96 66.12 78.26 66.59 77.63 67.02 77.08 67.39 76.61 67.72 76.22 67.99 75.91 68.21 75.69 68.36 75.55 68.46 75.49 68.5 75.53 68.48 75.65 68.39 75.85 68.24 76.15 68.03 76.53 67.75 76.99 67.4 77.54 66.99 78.16 66.52 78.87 65.98 79.65 65.38 80.51 64.72 81.43 64.01 82.42 63.23 83.47 62.41 84.58 61.53 85.74 60.6 86.95 59.63 88.2 58.62 89.48 57.57 90.8 56.49 92.14 55.38 93.49 54.25 94.86 53.1 96.23 51.93 97.61 50.75 98.97 49.58 100.32 48.4 101.65 47.23 102.95 46.07 104.21 44.93 105.44 43.82 106.61 42.74 107.73 41.69 108.8 40.68 109.8 39.72 110.72 38.81 111.58 37.96 112.35 37.17 113.03 36.44 113.63 35.79 114.13 35.21 114.54 34.71 114.85 34.29 115.06 33.95 115.17 33.71 115.18 33.55 115.08 33.48 114.87 33.51 114.57 33.63 114.16 33.84 113.65 34.15 113.04 34.55 112.33 35.04 111.54 35.62 110.65 36.28 109.68 37.03 108.63 37.87 107.51 38.77 106.32 39.76 105.07 40.8 103.76 41.91 102.4 43.08 101 44.29 99.57 45.55 98.11 46.85 96.64 48.17 95.16 49.51 93.67 50.87 92.19 52.23 90.73 53.59 89.3 54.94 87.89 56.26 86.53 57.56 85.21 58.82 83.95 60.04 82.76 61.2 81.64 62.3 80.59 63.34 79.63 64.29 78.75 65.17 77.98 65.95 77.3 66.64 76.72 67.23 76.25 67.71 75.9 68.08 75.65 68.34 75.52 68.48 75.5 68.5 75.59 68.39 75.8 68.17 76.12 67.83 76.55 67.36 77.09 66.78 77.73 66.07 78.47 65.26 79.3 64.33 80.22 63.3 81.22 62.17 82.29 60.95 83.43 59.65 84.63 58.26 85.89 56.81 87.18 55.29 88.51 53.73 89.86 52.12 91.22 50.48 92.59 48.83 93.96 47.17 95.31 45.51 96.63 43.86 97.92 42.24 99.17 40.66 100.37 39.12 101.5 37.65 102.56 36.24 103.55 34.92 104.45 33.69 105.26 32.55 105.97 31.53 106.58 30.62 107.08 29.84 107.47 29.19 107.74 28.68 107.89 28.31 107.93 28.09 107.85 28.01 107.64 28.08 107.32 28.3 106.89 28.68 106.34 29.2 105.68 29.86 104.92 30.67 104.06 31.61 103.1 32.68 102.06 33.88 100.94 35.19 99.75 36.6 98.5 38.1 97.2 39.69 95.86 41.35 94.49 43.07 93.09 44.83 91.68 46.62 90.27 48.44 88.88 50.25 87.5 52.05 86.16 53.83 84.85 55.56 83.6 57.24 82.41 58.85 81.29 60.37 80.25 61.8 79.3 63.12 78.44 64.32 77.68 65.38 77.03 66.3 76.48 67.07 76.06 67.69 75.75 68.13 75.56 68.4 75.49 68.5 75.55 68.42 75.72 68.17 76.01 67.73 76.42 67.12 76.94 66.33 77.56 65.38 78.29 64.26 79.11 62.99 80.01 61.58 81 60.03 82.05 58.36 83.16 56.58 84.32 54.71 85.53 52.75 86.76 50.73 88.01 48.67 89.26 46.57 90.51 44.46 91.75 42.36 92.96 40.28 94.13 38.24 95.25 36.26 96.32 34.35 97.31 32.55 98.23 30.84 99.07 29.27 99.81 27.83 100.45 26.55 100.99 25.43 101.42 24.49 101.73 23.73 101.93 23.17 102.01 22.81 101.97 22.65 101.81 22.69 101.53 22.94 101.14 23.4 100.64 24.06 100.03 24.91 99.32 25.96 98.51 27.19 97.62 28.58 96.65 30.14 95.6 31.84 94.5 33.68 93.34 35.62 92.15 37.66 90.92 39.78 89.68 41.96 88.43 44.18 87.18 46.41 85.95 48.63 84.74 50.84 83.57 52.99 82.44 55.08 81.38 57.08 80.38 58.97 79.45 60.73 78.61 62.35 77.86 63.81 77.2 65.09 76.65 66.19 76.2 67.08 75.86 67.76 75.63 68.23 75.51 68.47 75.5 68.48 75.61 68.26 75.82 67.82 76.14 67.14 76.56 66.25 77.07 65.15 77.68 63.84 78.36 62.34 79.13 60.67 79.95 58.83 80.83 56.85 81.76 54.75 82.73 52.54 83.72 50.24 84.72 47.89 85.73 45.5 86.74 43.09 87.73 40.7 88.69 38.34 89.61 36.04 90.48 33.82 91.3 31.7 92.06 29.72 92.74 27.88 93.34 26.2 93.85 24.72 94.28 23.43 94.61 22.36 94.84 21.51 94.97 20.9 95 20.53 94.92 20.41 94.75 20.55 94.47 20.93 94.11 21.55 93.64 22.42 93.1 23.52 92.47 24.84 91.77 26.37 91 28.1 90.18 30 89.3 32.05 88.39 34.24 87.44 36.54 86.48 38.93 85.5 41.38 84.52 43.87 83.55 46.36 82.6 48.84 81.68 51.27 80.79 53.64 79.95 55.9 79.17 58.05 78.45 60.04 77.79 61.87 77.21 63.51 76.71 64.95 76.29 66.16 75.96 67.13 75.71 67.84 75.56 68.3 75.49 68.5 75.52 68.42 75.63 68.07 75.83 67.46 76.11 66.58 76.46 65.45 76.89 64.08 77.38 62.47 77.93 60.66 78.53 58.65 79.17 56.46 79.85 54.13 80.56 51.67 81.28 49.11 82.02 46.48 82.75 43.81 83.47 41.13 84.18 38.46 84.86 35.84 85.51 33.29 86.11 30.84 86.67 28.53 87.18 26.37 87.62 24.39 88 22.61 88.32 21.06 88.56 19.75 88.72 18.69 88.81 17.9 88.83 17.39 88.77 17.17 88.63 17.23 88.42 17.58 88.15 18.22 87.8 19.13 87.4 20.31 86.93 21.74 86.42 23.42 85.86 25.32 85.26 27.41 84.63 29.68 83.98 32.11 83.31 34.65 82.63 37.3 81.94 40 81.26 42.74 80.59 45.49 79.95 48.2 79.32 50.86 78.73 53.42 78.18 55.87 77.67 58.16 77.2 60.28 76.79 62.2 76.43 63.9 76.13 65.35 75.88 66.55 75.7 67.47 75.57 68.1 75.5 68.44 75.5 68.48 75.54 68.23 75.64 67.68 75.8 66.84 76 65.71 76.24 64.32 76.52 62.68 76.83 60.8 77.17 58.71 77.54 56.44 77.92 54 78.31 51.43 78.71 48.75 79.11 46.01 79.5 43.22 79.88 40.43 80.24 37.66 80.58 34.96 80.9 32.34 81.18 29.85 81.44 27.5 81.66 25.34 81.83 23.38 81.97 21.65 82.07 20.17 82.13 18.95 82.14 18.02 82.11 17.39 82.04 17.05 81.93 17.02 81.78 17.29 81.6 17.87 81.38 18.75 81.14 19.91 80.86 21.34 80.57 23.04 80.26 24.96 79.94 27.11 79.6 29.43 79.26 31.93 78.91 34.55 78.57 37.27 78.23 40.05 77.9 42.87 77.59 45.69 77.29 48.48 77.01 51.2 76.75 53.81 76.51 56.3 76.29 58.62 76.1 60.75 75.94 62.66 75.8 64.33 75.69 65.75 75.61 66.88 75.55 67.72 75.51 68.27 75.49 68.49 75.5 68.41 75.52 68.01 75.56 67.31 75.61 66.3 75.68 65.01 75.75 63.44 75.82 61.61 75.9 59.55 75.98 57.29 76.06 54.83 76.13 52.23 76.2 49.5 76.25 46.68 76.3 43.8 76.34 40.91 76.36 38.02 76.36 35.18 76.36 32.42 76.34 29.77 76.3 27.27 76.25 24.94 76.19 22.82 76.11 20.93 76.03 19.28 75.93 17.91 75.83 16.82 75.72 16.04 75.61 15.56 75.49 15.41 75.38 15.56 75.26 16.04 75.15 16.82 75.05 17.91 74.95 19.28 74.87 20.92 74.8 22.81 74.73 24.94 74.68 27.26 74.65 29.76 74.63 32.41 74.62 35.17 74.63 38.01 74.65 40.9 74.68 43.8 74.73 46.67 74.79 49.49 74.85 52.22 74.92 54.83 75 57.28 75.08 59.55 75.16 61.61 75.24 63.44 75.31 65.01 75.37 66.3 75.42 67.31 75.46 68.01 75.49 68.41 75.49 68.49 75.48 68.27 75.44 67.72 75.38 66.88 75.29 65.75 75.18 64.33 75.05 62.66 74.88 60.74 74.69 58.61 74.48 56.29 74.24 53.8 73.98 51.18 73.69 48.46 73.39 45.67 73.08 42.85 72.75 40.03 72.41 37.24 72.07 34.52 71.72 31.89 71.38 29.4 71.05 27.07 70.72 24.92 70.41 22.99 70.11 21.3 69.84 19.86 69.6 18.7 69.38 17.82 69.2 17.24 69.05 16.96 68.94 16.99 68.87 17.33 68.84 17.97 68.85 18.9 68.91 20.11 69 21.59 69.14 23.32 69.32 25.29 69.54 27.45 69.79 29.8 70.08 32.29 70.4 34.91 70.74 37.62 71.1 40.39 71.48 43.19 71.87 45.98 72.27 48.73 72.67 51.4 73.06 53.98 73.44 56.42 73.81 58.7 74.15 60.79 74.46 62.67 74.75 64.32 74.99 65.71 75.19 66.83 75.34 67.68 75.44 68.23 75.49 68.48 75.48 68.44 75.41 68.1 75.29 67.46 75.1 66.54 74.86 65.34 74.55 63.89 74.19 62.19 73.78 60.27 73.31 58.14 72.8 55.84 72.25 53.39 71.65 50.82 71.03 48.16 70.38 45.44 69.71 42.7 69.03 39.95 68.35 37.23 67.66 34.59 66.99 32.03 66.33 29.61 65.7 27.33 65.1 25.23 64.54 23.33 64.03 21.65 63.56 20.21 63.16 19.02 62.81 18.11 62.53 17.47 62.32 17.12 62.19 17.06 62.13 17.28 62.14 17.79 62.23 18.58 62.4 19.64 62.64 20.95 62.95 22.51 63.33 24.29 63.78 26.27 64.29 28.43 64.85 30.75 65.45 33.21 66.1 35.76 66.79 38.39 67.49 41.06 68.22 43.75 68.95 46.43 69.69 49.06 70.41 51.63 71.12 54.09 71.8 56.43 72.45 58.62 73.05 60.64 73.6 62.46 74.09 64.06 74.52 65.44 74.88 66.58 75.16 67.46 75.35 68.07 75.47 68.42 75.49 68.5 75.43 68.3 75.27 67.84 75.03 67.12 74.69 66.15 74.27 64.94 73.77 63.5 73.19 61.86 72.53 60.02 71.81 58.02 71.02 55.87 70.18 53.59 69.29 51.23 68.36 48.78 67.41 46.3 66.44 43.8 65.46 41.3 64.48 38.84 63.51 36.45 62.56 34.14 61.64 31.94 60.76 29.88 59.94 27.98 59.17 26.25 58.46 24.71 57.83 23.39 57.29 22.28 56.82 21.41 56.45 20.78 56.18 20.4 56 20.27 55.93 20.39 55.96 20.75 56.09 21.36 56.32 22.21 56.65 23.29 57.07 24.58 57.59 26.07 58.19 27.75 58.88 29.59 59.63 31.59 60.45 33.71 61.33 35.93 62.26 38.24 63.22 40.61 64.21 43.01 65.22 45.42 66.23 47.82 67.24 50.18 68.23 52.48 69.2 54.7 70.14 56.81 71.02 58.8 71.85 60.64 72.61 62.32 73.3 63.83 73.91 65.14 74.42 66.25 74.84 67.14 75.16 67.81 75.38 68.26 75.48 68.48 75.47 68.47 75.36 68.23 75.13 67.76 74.78 67.08 74.33 66.18 73.78 65.08 73.12 63.79 72.36 62.33 71.52 60.7 70.59 58.93 69.58 57.03 68.52 55.03 67.39 52.93 66.21 50.77 65 48.56 63.76 46.33 62.51 44.09 61.25 41.86 60 39.68 58.77 37.55 57.57 35.5 56.41 33.55 55.3 31.7 54.26 30 53.28 28.43 52.38 27.03 51.58 25.8 50.86 24.75 50.25 23.89 49.74 23.23 49.35 22.77 49.07 22.51 48.91 22.47 48.87 22.63 48.95 23 49.15 23.56 49.47 24.32 49.9 25.26 50.44 26.39 51.08 27.67 51.83 29.11 52.66 30.7 53.59 32.4 54.59 34.22 55.65 36.13 56.78 38.12 57.96 40.16 59.17 42.25 60.41 44.37 61.67 46.48 62.93 48.59 64.18 50.66 65.42 52.69 66.62 54.65 67.79 56.53 68.91 58.32 69.97 59.99 70.95 61.55 71.86 62.97 72.69 64.24 73.41 65.36 74.04 66.32 74.56 67.11 74.97 67.72 75.26 68.16 75.44 68.42 75.49 68.5 75.42 68.4 75.23 68.13 74.93 67.68 74.5 67.07 73.95 66.3 73.3 65.37 72.54 64.3 71.67 63.1 70.72 61.77 69.67 60.34 68.55 58.81 67.35 57.19 66.09 55.51 64.78 53.77 63.43 51.98 62.05 50.17 60.65 48.35 59.23 46.53 57.82 44.73 56.42 42.96 55.04 41.23 53.69 39.57 52.38 37.97 51.13 36.46 49.93 35.04 48.81 33.73 47.77 32.53 46.81 31.45 45.94 30.51 45.17 29.7 44.51 29.03 43.96 28.51 43.52 28.13 43.2 27.91 43 27.83 42.91 27.91 42.95 28.14 43.11 28.51 43.38 29.02 43.77 29.68 44.27 30.46 44.88 31.37 45.6 32.4 46.41 33.53 47.31 34.77 48.3 36.1 49.37 37.51 50.51 38.99 51.71 40.53 52.96 42.12 54.26 43.75 55.59 45.4 56.95 47.07 58.32 48.74 59.69 50.41 61.06 52.05 62.42 53.66 63.75 55.23 65.05 56.76 66.31 58.22 67.52 59.61 68.66 60.92 69.74 62.15 70.75 63.28 71.67 64.31 72.51 65.24 73.25 66.06 73.89 66.77 74.43 67.36 74.86 67.82 75.18 68.17 75.39 68.39 75.49 68.5 75.47 68.48 75.33 68.34 75.09 68.08 74.73 67.71 74.26 67.22 73.68 66.63 73 65.94 72.22 65.15 71.34 64.28 70.37 63.31 69.32 62.28 68.19 61.17 66.99 60 65.73 58.78 64.41 57.51 63.04 56.21 61.63 54.88 60.18 53.52 58.71 52.16 57.23 50.79 55.74 49.43 54.25 48.08 52.77 46.75 51.3 45.45 49.87 44.18 48.46 42.96 47.1 41.79 45.78 40.68 44.52 39.63 43.33 38.64 42.2 37.73 41.15 36.89 40.17 36.14 39.28 35.47 38.48 34.89 37.78 34.39 37.16 33.99 36.65 33.68 36.24 33.47 35.93 33.35 35.73 33.32 35.63 33.39 35.63 33.55 35.74 33.8 35.95 34.13 36.27 34.55 36.68 35.06 37.18 35.64 37.78 36.3 38.47 37.02 39.25 37.82 40.1 38.67 41.03 39.59 42.04 40.55 43.1 41.57 44.23 42.62 45.41 43.71 46.64 44.83 47.91 45.97 49.22 47.13 50.55 48.31 51.91 49.49 53.28 50.67 54.66 51.85 56.04 53.03 57.41 54.19 58.77 55.32 60.12 56.44 61.44 57.52 62.73 58.58 63.99 59.59 65.2 60.57 66.36 61.5 67.48 62.38 68.53 63.21 69.53 63.99 70.45 64.71 71.31 65.37 72.1 65.97 72.81 66.51 73.44 66.98 73.99 67.39 74.45 67.74 74.83 68.02 75.13 68.24 75.34 68.39 75.46 68.48 75.49 68.5 75.44 68.46 75.3 68.36 75.07 68.2 74.76 67.99 74.37 67.72 73.89 67.39 73.34 67.01 72.71 66.58 72.01 66.11 71.24 65.6 70.41 65.04 69.51 64.45 68.55 63.82 67.54 63.16 66.47 62.48 65.36 61.77 64.21 61.03 63.02 60.28 61.79 59.52 60.54 58.74 59.26 57.96 57.96 57.17 56.65 56.38 55.33 55.6 54.01 54.81 52.68 54.04 51.35 53.27 50.04 52.52 48.74 51.78 47.45 51.06 46.19 50.37 44.95 49.69 43.74 49.04 42.56 48.42 41.42 47.83 40.31 47.26 39.26 46.73 38.24 46.23 37.28 45.77 36.36 45.34 35.5 44.95 34.7 44.59 33.95 44.28 33.26 44 32.64 43.76 32.07 43.56 31.57 43.4 31.14 43.28 30.76 43.2 30.45 43.15 30.21 43.15 30.04 43.18 29.93 43.24 29.88 43.35 29.9 43.49 29.98 43.66 30.13 43.87 30.33 44.11 30.6 44.38 30.93 44.68 31.31 45.01 31.75 45.37 32.24 45.75 32.78 46.15 33.38 46.58 34.02 47.03 34.71 47.5 35.44 47.99 36.22 48.49 37.03 49.01 37.88 49.54 38.76 50.09 39.67 50.64 40.61 51.2 41.57 51.78 42.56 52.35 43.57 52.93 44.59 53.52 45.63 54.1 46.69 54.69 47.75 55.27 48.82 55.85 49.89 56.43 50.97 57 52.04 57.57 53.11 58.13 54.18 58.68 55.24 59.22 56.29 59.75 57.32 60.27 58.34 60.78 59.35 61.27 60.34 61.75 61.3 62.22 62.25 62.67 63.17 63.11 64.06 63.53 64.93 63.94 65.78 64.33 66.59 64.7 67.37 65.06 68.12 65.39 68.84 65.71 69.52 66.01 70.17 66.3 70.78 66.56 71.36 66.81 71.9 67.04 72.4 67.25 72.87 67.45 73.3 67.63 73.69 67.79 74.04 67.93 74.35 68.06 74.63 68.17 74.86 68.26 75.06 68.34 75.22 68.4 75.34 68.45 75.43 68.48 75.48 68.5 75.49 68.5 75.47 68.49 75.41 68.47 75.32 68.44 75.19 68.39 75.03 68.34 74.83 68.27 74.61 68.19 74.35 68.1 74.07 68 73.75 67.9 73.41 67.78 73.04 67.66 72.64 67.53 72.22 67.4 71.77 67.26 71.3 67.11 70.81 66.96 70.29 66.8 69.76 66.64 69.2 66.47 68.63 66.31 68.04 66.14 67.43 65.96 66.81 65.79 66.17 65.61 65.53 65.43 64.86 65.25 64.19 65.08 63.51 64.9 62.82 64.72 62.12 64.54 61.41 64.36 60.7 64.19 59.98 64.02 59.26 63.85 58.53 63.68 57.8 63.51 57.06 63.35 56.33 63.19 55.59 63.03 54.86 62.88 54.13 62.73 53.4 62.58 52.66 62.44 51.94 62.3 51.22 62.17 50.5 62.04 49.78 61.91 49.07 61.79 48.37 61.68 47.67 61.57 46.98 61.46 46.3 61.36 45.63 61.26 44.96 61.17 44.3 61.09 43.65 61.01 43.01 60.93 42.38 60.86 41.76 60.79 41.14 60.73 40.54 60.67 39.95 60.62 39.37 60.58 38.8 60.54 38.24 60.5 37.7 60.47 37.16 60.44 36.64 60.42 36.12 60.4 35.62 60.39 35.13 60.38 34.65 60.38 34.18 60.38 33.73 60.38 33.28 60.39 32.85 60.41 32.43 60.42 32.02 60.45 31.62 60.47 31.23 60.5 30.86 60.53 30.49 60.57 30.14 60.61 29.8 60.65 29.46 60.7 29.14 60.75 28.83 60.8 28.53 60.85 28.24 60.91 27.96 60.97 27.69 61.04 27.43 61.1 27.18 61.17 26.93 61.25 26.7 61.32 26.48 61.4 26.26 61.48 26.06 61.55 25.86 61.64 25.67 61.72 25.49 61.81 25.31 61.9 25.15 61.99 24.99 62.08 24.84 62.17 24.69 62.27 24.55 62.36 24.42 62.46 24.3 62.56 24.18 62.66 24.07 62.76 23.96 62.86 23.86 62.96 23.76 63.07 23.67 63.17 23.59 63.28 23.5 63.38 23.43 63.49 23.36 63.6 23.29 63.71 23.23 63.81 23.17 63.92 23.11 64.03 23.06 64.15 23.01 64.26 22.97 64.37 22.93 64.48 22.89 64.59 22.85 64.71 22.82 64.82 22.79 64.93 22.76 65.05 22.73 65.16 22.71 65.27 22.68 65.39 22.66 65.5 22.65 65.62 22.63 65.73 22.61 65.85 22.6 65.96 22.59 66.08 22.58 66.19 22.57 66.31 22.56 66.42 22.55 66.54 22.54 66.65 22.54 66.77 22.53 66.89 22.53 67 22.52 67.12 22.52 67.23 22.52 67.35 22.51 67.46 22.51 67.58 22.51 67.69 22.51 67.81 22.51 67.92 22.5 68.04 22.5 68.16 22.5 68.27 22.5 68.39 22.5 68.5 22.5 68.62 22.51 68.73 22.51 68.85 22.51 68.97 22.51 69.08 22.51 69.2 22.52 69.31 22.52 69.43 22.52 69.54 22.52 69.66 22.53 69.77 22.53 69.89 22.54 70 22.54 70.12 22.55 70.24 22.56 70.35 22.57 70.47 22.57 70.58 22.58 70.7 22.59 70.81 22.61 70.93 22.62 71.04 22.63 71.16 22.65 71.27 22.67 71.39 22.69 71.5 22.71 71.62 22.73 71.73 22.76 71.84 22.78 71.96 22.81 72.07 22.84 72.18 22.88 72.3 22.92 72.41 22.96 72.52 23 72.63 23.05 72.75 23.09 72.86 23.15 72.97 23.2 73.08 23.26 73.19 23.33 73.3 23.39 73.41 23.47 73.51 23.54 73.62 23.63 73.73 23.71 73.83 23.8 73.94 23.9 74.04 24 74.14 24.11 74.24 24.22 74.34 24.34 74.44 24.47 74.54 24.6 74.64 24.74 74.73 24.89 74.83 25.04 74.92 25.2 75.01 25.36 75.1 25.54 75.19 25.72 75.28 25.91 75.36 26.11 75.44 26.32 75.52 26.53 75.6 26.76 75.68 26.99 75.75 27.23 75.82 27.48 75.89 27.75 75.96 28.02 76.02 28.3 76.08 28.59 76.14 28.89 76.2 29.2 76.25 29.52 76.3 29.86 76.34 30.2 76.39 30.55 76.43 30.92 76.46 31.29 76.5 31.68 76.52 32.08 76.55 32.49 76.57 32.91 76.59 33.34 76.6 33.79 76.61 34.24 76.61 34.71 76.61 35.19 76.61 35.68 76.6 36.18 76.59 36.7 76.57 37.22 76.55 37.76 76.52 38.3 76.49 38.86 76.46 39.43 76.42 40.01 76.37 40.6 76.32 41.2 76.26 41.81 76.2 42.43 76.14 43.06 76.06 43.7 75.99 44.35 75.91 45.01 75.82 45.68 75.73 46.35 75.63 47.03 75.53 47.72 75.43 48.42 75.31 49.12 75.2 49.83 75.08 50.54 74.95 51.26 74.83 51.98 74.69 52.71 74.55 53.44 74.41 54.17 74.27 54.9 74.12 55.63 73.96 56.37 73.81 57.1 73.65 57.83 73.48 58.56 73.32 59.29 73.15 60.01 72.98 60.73 72.81 61.44 72.63 62.15 72.46 62.85 72.28 63.54 72.1 64.22 71.92 64.89 71.75 65.55 71.57 66.2 71.39 66.83 71.21 67.45 71.04 68.06 70.86 68.64 70.69 69.22 70.53 69.77 70.36 70.3 70.2 70.82 70.05 71.31 69.89 71.78 69.75 72.22 69.6 72.65 69.47 73.04 69.34 73.41 69.22 73.76 69.11 74.07 69 74.36 68.9 74.61 68.81 74.84 68.74 75.03 68.67 75.19 68.61 75.32 68.57 75.41 68.53 75.47 68.51 75.49 68.5 75.48 68.51 75.43 68.53 75.34 68.56 75.22 68.61 75.06 68.67 74.86 68.75 74.63 68.84 74.35 68.95 74.04 69.08 73.69 69.22 73.3 69.38 72.87 69.55 72.41 69.75 71.91 69.96 71.37 70.19 70.79 70.44 70.18 70.7 69.53 70.99 68.85 71.29 68.14 71.61 67.39 71.94 66.61 72.3 65.8 72.67 64.96 73.05 64.1 73.46 63.2 73.88 62.28 74.31 61.34 74.77 60.38 75.23 59.4 75.71 58.39 76.2 57.38 76.71 56.34 77.23 55.3 77.76 54.24 78.3 53.18 78.85 52.11 79.41 51.04 79.97 49.97 80.54 48.9 81.11 47.84 81.69 46.78 82.28 45.73 82.86 44.69 83.44 43.67 84.02 42.66 84.6 41.68 85.18 40.72 85.75 39.78 86.31 38.87 86.86 37.99 87.4 37.15 87.93 36.34 88.45 35.57 88.95 34.84 89.44 34.16 89.91 33.52 90.35 32.92 90.78 32.38 91.19 31.89 91.56 31.45 91.92 31.07 92.25 30.75 92.55 30.48 92.81 30.28 93.05 30.13 93.26 30.05 93.43 30.03 93.57 30.08 93.67 30.19 93.74 30.37 93.77 30.61 93.77 30.91 93.72 31.29 93.64 31.72 93.52 32.22 93.36 32.79 93.16 33.41 92.92 34.1 92.64 34.84 92.33 35.64 91.98 36.5 91.58 37.41 91.16 38.37 90.7 39.38 90.2 40.44 89.67 41.54 89.11 42.67 88.52 43.85 87.89 45.06 87.25 46.29 86.57 47.55 85.88 48.83 85.16 50.13 84.43 51.44 83.68 52.76 82.92 54.08 82.14 55.41 81.36 56.72 80.58 58.03 79.79 59.32 79 60.59 78.22 61.84 77.45 63.06 76.69 64.25 75.94 65.4 75.22 66.51 74.51 67.57 73.82 68.58 73.17 69.53 72.54 70.43 71.95 71.26 71.4 72.03 70.89 72.72 70.41 73.35 69.99 73.9 69.61 74.37 69.29 74.76 69.02 75.07 68.8 75.3 68.64 75.44 68.54 75.49 68.5 75.46 68.53 75.34 68.61 75.13 68.77 74.84 68.98 74.46 69.26 74 69.61 73.45 70.02 72.82 70.49 72.11 71.03 71.33 71.63 70.47 72.28 69.55 73 68.56 73.77 67.51 74.6 66.4 75.48 65.24 76.41 64.03 77.38 62.78 78.39 61.5 79.44 60.18 80.52 58.84 81.63 57.49 82.76 56.12 83.92 54.74 85.08 53.37 86.26 52.01 87.44 50.66 88.61 49.33 89.78 48.03 90.94 46.76 92.08 45.54 93.19 44.36 94.28 43.24 95.33 42.18 96.33 41.18 97.3 40.25 98.21 39.4 99.06 38.63 99.85 37.94 100.58 37.34 101.23 36.84 101.81 36.43 102.31 36.12 102.73 35.91 103.06 35.8 103.31 35.8 103.47 35.9 103.53 36.1 103.51 36.41 103.39 36.82 103.17 37.33 102.87 37.94 102.47 38.64 101.98 39.44 101.4 40.32 100.73 41.29 99.98 42.34 99.15 43.47 98.24 44.66 97.26 45.91 96.21 47.22 95.1 48.58 93.93 49.98 92.72 51.41 91.46 52.87 90.16 54.34 88.84 55.82 87.5 57.31 86.14 58.79 84.78 60.25 83.42 61.69 82.07 63.09 80.74 64.45 79.45 65.77 78.18 67.03 76.97 68.22 75.8 69.35 74.7 70.39 73.67 71.36 72.71 72.23 71.84 73.01 71.05 73.69 70.36 74.26 69.78 74.73 69.3 75.09 68.92 75.33 68.67 75.47 68.53 75.49 68.51 75.39 68.61 75.18 68.83 74.86 69.18 74.43 69.64 73.9 70.23 73.26 70.93 72.52 71.75 71.69 72.67 70.77 73.7 69.77 74.83 68.69 76.05 67.55 77.36 66.35 78.75 65.1 80.2 63.8 81.72 62.48 83.28 61.12 84.89 59.76 86.52 58.39 88.18 57.02 89.84 55.67 91.5 54.35 93.15 53.06 94.77 51.81 96.35 50.62 97.89 49.48 99.36 48.42 100.77 47.43 102.09 46.53 103.32 45.72 104.45 45.01 105.48 44.4 106.38 43.91 107.16 43.52 107.81 43.24 108.33 43.09 108.7 43.05 108.92 43.14 109 43.34 108.92 43.66 108.7 44.1 108.33 44.65 107.81 45.3 107.14 46.07 106.34 46.93 105.39 47.88 104.32 48.92 103.13 50.04 101.82 51.23 100.41 52.48 98.9 53.78 97.32 55.12 95.66 56.5 93.94 57.9 92.18 59.3 90.38 60.71 88.57 62.11 86.76 63.48 84.95 64.83 83.18 66.13 81.44 67.39 79.77 68.58 78.16 69.69 76.63 70.73 75.2 71.69 73.89 72.55 72.69 73.31 71.62 73.96 70.7 74.5 69.93 74.93 69.32 75.24 68.88 75.42 68.6 75.49 68.5 75.44 68.58 75.27 68.84 74.97 69.28 74.57 69.89 74.05 70.68 73.42 71.63 72.7 72.75 71.88 74.01 70.97 75.43 69.99 76.98 68.94 78.65 67.82 80.42 66.66 82.3 65.46 84.25 64.23 86.27 62.98 88.34 61.72 90.43 60.47 92.54 59.24 94.64 58.03 96.72 56.86 98.76 55.74 100.74 54.67 102.65 53.68 104.46 52.76 106.16 51.92 107.73 51.18 109.17 50.54 110.45 50 111.57 49.57 112.51 49.26 113.26 49.06 113.83 48.98 114.19 49.02 114.35 49.18 114.31 49.46 114.06 49.85 113.6 50.35 112.94 50.96 112.08 51.67 111.04 52.48 109.81 53.37 108.41 54.34 106.86 55.38 105.16 56.49 103.32 57.64 101.38 58.84 99.33 60.06 97.22 61.31 95.04 62.56 92.82 63.81 90.59 65.04 88.37 66.25 86.17 67.42 84.01 68.54 81.93 69.61 79.93 70.61 78.04 71.53 76.27 72.38 74.65 73.13 73.19 73.78 71.91 74.34 70.82 74.79 69.92 75.13 69.24 75.36 68.78 75.47 68.54 75.48 68.53 75.38 68.74 75.16 69.19 74.84 69.86 74.42 70.75 73.91 71.86 73.31 73.16 72.62 74.66 71.86 76.33 71.04 78.17 70.15 80.15 69.22 82.25 68.26 84.46 67.27 86.76 66.26 89.11 65.25 91.5 64.25 93.91 63.26 96.3 62.3 98.66 61.38 100.96 60.51 103.18 59.69 105.29 58.93 107.28 58.25 109.12 57.65 110.79 57.14 112.28 56.71 113.56 56.38 114.63 56.15 115.48 56.02 116.09 56 116.46 56.07 116.58 56.24 116.44 56.52 116.06 56.89 115.44 57.35 114.57 57.89 113.47 58.52 112.15 59.22 110.62 59.99 108.89 60.81 107 61.69 104.94 62.6 102.75 63.55 100.45 64.51 98.07 65.49 95.62 66.47 93.13 67.44 90.64 68.39 88.16 69.31 85.73 70.19 83.36 71.03 81.1 71.82 78.96 72.54 76.96 73.19 75.13 73.78 73.49 74.28 72.06 74.7 70.85 75.03 69.88 75.27 69.16 75.43 68.7 75.49 68.51 75.47 68.59 75.35 68.93 75.16 69.55 74.88 70.42 74.52 71.55 74.1 72.93 73.61 74.53 73.06 76.35 72.46 78.36 71.81 80.54 71.13 82.87 70.43 85.33 69.7 87.89 68.97 90.51 68.24 93.18 67.52 95.86 66.81 98.53 66.13 101.15 65.48 103.7 64.88 106.15 64.32 108.46 63.81 110.62 63.37 112.6 62.99 114.37 62.67 115.93 62.43 117.24 62.27 118.29 62.18 119.08 62.16 119.59 62.22 119.81 62.36 119.75 62.57 119.4 62.84 118.77 63.19 117.86 63.59 116.68 64.06 115.24 64.57 113.57 65.13 111.67 65.73 109.58 66.36 107.31 67.01 104.88 67.68 102.34 68.36 99.69 69.05 96.99 69.72 94.25 70.39 91.51 71.04 88.79 71.66 86.14 72.25 83.58 72.81 81.14 73.32 78.84 73.78 76.72 74.2 74.8 74.56 73.11 74.86 71.65 75.1 70.46 75.29 69.54 75.41 68.91 75.48 68.56 75.49 68.52 75.44 68.78 75.34 69.33 75.19 70.17 74.99 71.29 74.75 72.68 74.47 74.32 74.15 76.2 73.81 78.29 73.45 80.56 73.07 83 72.67 85.57 72.28 88.24 71.88 90.99 71.49 93.77 71.11 96.56 70.75 99.33 70.41 102.03 70.09 104.65 69.8 107.14 69.55 109.48 69.33 111.65 69.15 113.6 69.02 115.33 68.92 116.81 68.86 118.03 68.85 118.96 68.88 119.59 68.95 119.93 69.06 119.96 69.21 119.69 69.39 119.11 69.61 118.23 69.85 117.07 70.12 115.64 70.42 113.95 70.73 112.02 71.05 109.88 71.39 107.55 71.73 105.06 72.08 102.44 72.42 99.72 72.75 96.94 73.08 94.12 73.4 91.3 73.7 88.52 73.98 85.8 74.24 83.19 74.48 80.7 74.69 78.38 74.88 76.25 75.05 74.34 75.18 72.67 75.29 71.26 75.38 70.12 75.44 69.28 75.48 68.74 75.49 68.51 75.49 68.59 75.46 68.99 75.42 69.7 75.37 70.7 75.31 72 75.24 73.56 75.16 75.39 75.08 77.45 75 79.71 74.93 82.16 74.85 84.77 74.79 87.5 74.73 90.31 74.68 93.19 74.65 96.09 74.63 98.97 74.62 101.81 74.63 104.57 74.65 107.22 74.68 109.72 74.73 112.04 74.8 114.16 74.87 116.06 74.96 117.7 75.05 119.07 75.15 120.16 75.26 120.94 75.38 121.41 75.49 121.57 75.61 121.42 75.72 120.94 75.83 120.16 75.93 119.07 76.03 117.7 76.11 116.06 76.19 114.17 76.25 112.05 76.3 109.72 76.34 107.22 76.36 104.58 76.36 101.82 76.36 98.98 76.33 96.09 76.3 93.2 76.25 90.32 76.2 87.5 76.13 84.78 76.06 82.17 75.98 79.72 75.9 77.45 75.82 75.39 75.75 73.57 75.68 72 75.61 70.7 75.56 69.7 75.52 68.99 75.5 68.59 75.49 68.51 75.51 68.74 75.55 69.28 75.61 70.12 75.69 71.26 75.8 72.67 75.94 74.35 76.1 76.26 76.29 78.39 76.51 80.71 76.75 83.2 77.01 85.82 77.29 88.53 77.59 91.32 77.91 94.14 78.23 96.96 78.57 99.75 78.91 102.47 79.26 105.09 79.6 107.59 79.94 109.92 80.26 112.06 80.58 113.99 80.87 115.69 81.14 117.12 81.39 118.29 81.6 119.16 81.78 119.74 81.93 120.02 82.04 119.99 82.11 119.65 82.14 119.02 82.13 118.08 82.08 116.87 81.98 115.39 81.84 113.66 81.66 111.7 81.44 109.53 81.19 107.19 80.9 104.69 80.58 102.08 80.24 99.37 79.88 96.6 79.5 93.81 79.11 91.02 78.71 88.27 78.31 85.59 77.92 83.02 77.54 80.58 77.18 78.3 76.83 76.21 76.52 74.33 76.24 72.69 76 71.3 75.8 70.17 75.64 69.33 75.54 68.78 75.5 68.52 75.5 68.56 75.57 68.91 75.7 69.54 75.88 70.46 76.13 71.66 76.43 73.11 76.79 74.81 77.2 76.74 77.67 78.86 78.18 81.16 78.74 83.61 79.33 86.17 79.95 88.83 80.6 91.55 81.27 94.3 81.95 97.05 82.64 99.76 83.32 102.4 83.99 104.95 84.65 107.38 85.28 109.66 85.88 111.76 86.44 113.66 86.95 115.34 87.42 116.78 87.82 117.96 88.17 118.88 88.45 119.51 88.66 119.86 88.79 119.93 88.85 119.7 88.84 119.19 88.75 118.41 88.58 117.35 88.34 116.03 88.03 114.48 87.65 112.7 87.2 110.72 86.69 108.56 86.13 106.23 85.53 103.78 84.88 101.23 84.19 98.61 83.49 95.93 82.76 93.24 82.03 90.57 81.29 87.93 80.57 85.37 79.86 82.91 79.18 80.57 78.54 78.38 77.93 76.37 77.38 74.55 76.89 72.94 76.46 71.56 76.11 70.43 75.83 69.55 75.63 68.93 75.52 68.59 75.49 68.51 75.56 68.7 75.71 69.16 75.96 69.88 76.29 70.86 76.71 72.07 77.21 73.5 77.8 75.15 78.45 76.98 79.18 78.98 79.97 81.13 80.81 83.41 81.69 85.77 82.62 88.21 83.57 90.7 84.54 93.2 85.52 95.69 86.5 98.15 87.47 100.55 88.42 102.85 89.34 105.05 90.22 107.11 91.04 109.01 91.81 110.74 92.52 112.28 93.14 113.6 93.69 114.71 94.16 115.58 94.53 116.21 94.8 116.59 94.97 116.72 95.05 116.6 95.02 116.24 94.89 115.63 94.66 114.78 94.33 113.7 93.91 112.41 93.39 110.92 92.79 109.24 92.1 107.4 91.35 105.41 90.53 103.29 89.65 101.06 88.72 98.75 87.76 96.39 86.77 93.99 85.77 91.58 84.75 89.18 83.74 86.82 82.75 84.52 81.78 82.3 80.85 80.19 79.96 78.2 79.14 76.36 78.37 74.68 77.69 73.18 77.08 71.87 76.56 70.76 76.14 69.87 75.82 69.19 75.61 68.74 75.5 68.53 75.51 68.54 75.63 68.78 75.86 69.24 76.2 69.93 76.65 70.83 77.21 71.92 77.87 73.21 78.62 74.68 79.47 76.3 80.39 78.07 81.4 79.97 82.47 81.97 83.6 84.07 84.77 86.23 85.98 88.44 87.22 90.67 88.47 92.91 89.73 95.14 90.98 97.32 92.21 99.45 93.41 101.5 94.57 103.45 95.68 105.29 96.72 107 97.7 108.56 98.59 109.97 99.4 111.2 100.12 112.25 100.73 113.11 101.23 113.77 101.63 114.23 101.9 114.48 102.06 114.53 102.11 114.37 102.03 114 101.83 113.44 101.51 112.68 101.08 111.73 100.55 110.61 99.9 109.33 99.16 107.88 98.32 106.3 97.39 104.6 96.39 102.78 95.33 100.87 94.2 98.88 93.03 96.83 91.81 94.75 90.57 92.64 89.32 90.52 88.06 88.42 86.8 86.34 85.57 84.31 84.36 82.35 83.19 80.47 82.07 78.69 81.02 77.01 80.03 75.46 79.12 74.04 78.3 72.76 77.57 71.64 76.94 70.69 76.42 69.9 76.01 69.28 75.72 68.84 75.55 68.58 75.49 68.5 75.56 68.6 75.75 68.88 76.06 69.32 76.49 69.94 77.03 70.71 77.69 71.64 78.45 72.7 79.31 73.91 80.27 75.23 81.31 76.66 82.44 78.19 83.63 79.81 84.89 81.5 86.2 83.24 87.55 85.02 88.93 86.83 90.33 88.65 91.75 90.47 93.16 92.27 94.56 94.04 95.94 95.77 97.29 97.43 98.6 99.03 99.86 100.54 101.05 101.96 102.17 103.27 103.22 104.47 104.17 105.55 105.04 106.49 105.81 107.3 106.47 107.97 107.02 108.49 107.46 108.87 107.78 109.09 107.98 109.17 108.07 109.09 108.03 108.86 107.88 108.49 107.6 107.98 107.21 107.33 106.71 106.54 106.1 105.63 105.39 104.61 104.57 103.47 103.67 102.23 102.68 100.9 101.61 99.49 100.47 98.01 99.27 96.47 98.02 94.88 96.72 93.25 95.39 91.6 94.04 89.93 92.67 88.26 91.29 86.6 89.92 84.95 88.56 83.34 87.23 81.77 85.93 80.25 84.67 78.79 83.47 77.4 82.32 76.09 81.24 74.86 80.24 73.72 79.31 72.69 78.48 71.76 77.74 70.94 77.09 70.24 76.56 69.65 76.13 69.18 75.8 68.83 75.59 68.61 75.5 68.51 75.52 68.53 75.65 68.67 75.9 68.93 76.26 69.3 76.73 69.78 77.31 70.37 77.99 71.06 78.77 71.85 79.65 72.73 80.61 73.69 81.67 74.73 82.79 75.84 83.99 77 85.26 78.23 86.58 79.49 87.95 80.8 89.36 82.13 90.8 83.48 92.27 84.85 93.75 86.22 95.25 87.58 96.73 88.93 98.22 90.26 99.68 91.56 101.12 92.82 102.52 94.04 103.89 95.21 105.2 96.33 106.46 97.38 107.65 98.36 108.78 99.28 109.84 100.11 110.81 100.86 111.7 101.53 112.5 102.12 113.21 102.61 113.82 103.01 114.33 103.32 114.74 103.53 115.05 103.65 115.25 103.68 115.35 103.61 115.35 103.45 115.24 103.21 115.03 102.87 114.72 102.45 114.31 101.95 113.8 101.36 113.2 100.71 112.51 99.98 111.73 99.19 110.88 98.33 109.95 97.42 108.95 96.45 107.88 95.44 106.75 94.39 105.57 93.3 104.34 92.18 103.07 91.03 101.76 89.87 100.43 88.7 99.08 87.51 97.7 86.33 96.33 85.15 94.95 83.98 93.57 82.82 92.21 81.68 90.86 80.57 89.54 79.48 88.25 78.43 87 77.41 85.79 76.44 84.62 75.51 83.51 74.63 82.45 73.8 81.46 73.02 80.53 72.3 79.67 71.64 78.89 71.04 78.18 70.5 77.55 70.02 77 69.61 76.53 69.26 76.15 68.98 75.85 68.77 75.65 68.61 75.53 68.53 75.49 68.5 75.55 68.54 75.69 68.64 75.91 68.8 76.22 69.02 76.62 69.29 77.09 69.62 77.64 70 78.27 70.42 78.97 70.89 79.74 71.41 80.58 71.97 81.48 72.56 82.43 73.19 83.45 73.84 84.51 74.53 85.62 75.24 86.78 75.97 87.97 76.72 89.19 77.48 90.44 78.26 91.72 79.04 93.02 79.83 94.33 80.62 95.65 81.41 96.98 82.19 98.31 82.97 99.63 83.73 100.94 84.48 102.25 85.22 103.53 85.94 104.8 86.64 106.04 87.31 107.25 87.96 108.42 88.58 109.56 89.18 110.67 89.74 111.73 90.27 112.74 90.77 113.7 91.24 114.62 91.66 115.48 92.06 116.28 92.41 117.03 92.73 117.72 93 118.34 93.24 118.91 93.44 119.41 93.6 119.84 93.72 120.22 93.81 120.53 93.85 120.77 93.86 120.94 93.83 121.05 93.76 121.1 93.65 121.08 93.51 121 93.34 120.85 93.13 120.65 92.89 120.38 92.62 120.06 92.32 119.67 91.99 119.23 91.64 118.74 91.26 118.19 90.85 117.6 90.42 116.96 89.97 116.27 89.5 115.53 89.02 114.76 88.51 113.95 87.99 113.1 87.46 112.22 86.92 111.31 86.36 110.37 85.8 109.41 85.23 108.42 84.65 107.41 84.07 106.39 83.49 105.34 82.9 104.29 82.32 103.23 81.73 102.16 81.15 101.09 80.58 100.01 80 98.94 79.44 97.87 78.88 96.8 78.33 95.74 77.78 94.7 77.25 93.66 76.73 92.64 76.23 91.63 75.73 90.65 75.25 89.68 74.78 88.73 74.33 87.81 73.89 86.92 73.47 86.05 73.06 85.21 72.68 84.39 72.31 83.61 71.95 82.86 71.61 82.15 71.29 81.46 70.99 80.82 70.71 80.2 70.44 79.63 70.19 79.09 69.96 78.58 69.75 78.12 69.56 77.69 69.38 77.3 69.22 76.95 69.08 76.63 68.95 76.36 68.84 76.12 68.75 75.92 68.67 75.76 68.61 75.64 68.56 75.55 68.53 75.5 68.51 75.49 68.5 75.52 68.51 75.58 68.53 75.67 68.57 75.8 68.61 75.96 68.67 76.15 68.74 76.38 68.81 76.63 68.9 76.92 69 77.23 69.11 77.58 69.22 77.95 69.34 78.34 69.47 78.77 69.61 79.21 69.75 79.69 69.89 80.18 70.05 80.69 70.2 81.23 70.37 81.78 70.53 82.35 70.7 82.94 70.87 83.55 71.04 84.17 71.22 84.81 71.39 85.46 71.57 86.12 71.75 86.79 71.93 87.47 72.11 88.16 72.29 88.86 72.46 89.57 72.64 90.28 72.81 91 72.99 91.72 73.16 92.45 73.33 93.18 73.49 93.92 73.66 94.65 73.82 95.38 73.97 96.12 74.13 96.85 74.28 97.58 74.42 98.31 74.56 99.04 74.7 99.76 74.84 100.48 74.97 101.19 75.09 101.9 75.21 102.61 75.33 103.3 75.44 103.99 75.54 104.67 75.64 105.35 75.74 106.02 75.83 106.67 75.92 107.33 76 107.97 76.07 108.6 76.14 109.22 76.21 109.83 76.27 110.43 76.33 111.02 76.38 111.6 76.42 112.17 76.47 112.73 76.5 113.28 76.53 113.81 76.56 114.33 76.58 114.85 76.6 115.35 76.61 115.84 76.62 116.32 76.62 116.79 76.62 117.24 76.62 117.69 76.61 118.12 76.6 118.54 76.58 118.95 76.56 119.35 76.53 119.73 76.5 120.11 76.47 120.47 76.43 120.83 76.39 121.17 76.35 121.5 76.31 121.82 76.26 122.14 76.2 122.44 76.15 122.73 76.09 123.01 76.03 123.28 75.96 123.54 75.9 123.79 75.83 124.03 75.76 124.26 75.68 124.49 75.61 124.7 75.53 124.91 75.45 125.11 75.36 125.29 75.28 125.48 75.19 125.65 75.11 125.82 75.02 125.97 74.92 126.13 74.83 126.27 74.74 126.41 74.64 126.54 74.55 126.66 74.45 126.78 74.35 126.89 74.25 127 74.14 127.1 74.04 127.2 73.94 127.29 73.83 127.38 73.73 127.45 73.62 127.53 73.51 127.6 73.41 127.67 73.3 127.73 73.19 127.79 73.08 127.85 72.97 127.9 72.86 127.95 72.75 127.99 72.64 128.03 72.52 128.07 72.41 128.11 72.3 128.14 72.18 128.17 72.07 128.2 71.96 128.23 71.84 128.25 71.73 128.27 71.62 128.29 71.5 128.31 71.39 128.33 71.27 128.34 71.16 128.36 71.04 128.37 70.93 128.38 70.81 128.39 70.7 128.4 70.58 128.41 70.47 128.41 70.35 128.42 70.24 128.43 70.12 128.43 70 128.44 69.89 128.44 69.77 128.44 69.66 128.44 69.54 128.45 69.43 128.45 69.31 128.45 69.2 128.45 69.08 128.45 68.97 128.45 68.85 128.45 68.73 128.45 68.62 128.45 68.5"/><polygon class="cls-5" points="128.59 68.5 128.57 69.89 128.51 71.27 128.43 72.65 128.3 74.01 128.15 75.37 127.95 76.71 127.73 78.04 127.47 79.36 127.18 80.67 126.86 81.97 126.51 83.25 126.12 84.52 125.71 85.78 125.26 87.02 124.79 88.25 124.28 89.47 123.75 90.67 123.19 91.85 122.6 93.01 121.98 94.16 121.34 95.3 120.66 96.41 119.97 97.51 119.24 98.58 118.49 99.64 117.72 100.69 116.92 101.7 116.1 102.7 115.25 103.69 114.38 104.64 113.49 105.58 112.57 106.5 111.64 107.39 110.68 108.26 109.7 109.1 108.7 109.93 107.68 110.73 106.64 111.5 105.58 112.25 104.5 112.97 103.4 113.67 102.29 114.34 101.16 114.99 100.01 115.6 98.84 116.19 97.66 116.76 96.46 117.29 95.25 117.79 94.02 118.27 92.78 118.71 91.52 119.13 90.25 119.51 88.96 119.87 87.67 120.19 86.36 120.48 85.04 120.73 83.7 120.96 82.36 121.15 81 121.31 79.64 121.43 78.27 121.52 76.88 121.57 75.49 121.59 74.1 121.57 72.72 121.52 71.34 121.43 69.98 121.31 68.63 121.15 67.28 120.96 65.95 120.73 64.63 120.48 63.32 120.19 62.02 119.87 60.74 119.51 59.47 119.13 58.21 118.71 56.97 118.27 55.74 117.79 54.52 117.29 53.33 116.76 52.14 116.19 50.98 115.6 49.83 114.99 48.7 114.34 47.58 113.67 46.48 112.97 45.41 112.25 44.35 111.5 43.31 110.73 42.28 109.93 41.28 109.1 40.31 108.26 39.35 107.39 38.41 106.5 37.49 105.58 36.6 104.64 35.73 103.69 34.89 102.7 34.06 101.7 33.27 100.69 32.49 99.64 31.74 98.58 31.02 97.51 30.32 96.41 29.65 95.3 29 94.16 28.39 93.01 27.8 91.85 27.23 90.67 26.7 89.47 26.2 88.25 25.72 87.02 25.28 85.78 24.86 84.52 24.48 83.25 24.12 81.97 23.8 80.67 23.51 79.36 23.25 78.04 23.03 76.71 22.84 75.37 22.68 74.01 22.56 72.65 22.47 71.27 22.42 69.89 22.4 68.5 22.42 67.11 22.47 65.72 22.56 64.35 22.68 62.98 22.84 61.63 23.03 60.29 23.25 58.95 23.51 57.63 23.8 56.33 24.12 55.03 24.48 53.74 24.86 52.47 25.28 51.22 25.72 49.97 26.2 48.74 26.7 47.53 27.23 46.33 27.8 45.15 28.39 43.98 29 42.83 29.65 41.7 30.32 40.59 31.02 39.49 31.74 38.41 32.49 37.35 33.27 36.31 34.06 35.29 34.89 34.29 35.73 33.31 36.6 32.35 37.49 31.42 38.41 30.5 39.35 29.61 40.31 28.74 41.28 27.89 42.28 27.07 43.31 26.27 44.35 25.5 45.41 24.75 46.48 24.02 47.58 23.33 48.7 22.65 49.83 22.01 50.98 21.39 52.14 20.8 53.33 20.24 54.52 19.71 55.74 19.2 56.97 18.73 58.21 18.28 59.47 17.87 60.74 17.48 62.02 17.13 63.32 16.81 64.63 16.52 65.95 16.26 67.28 16.04 68.63 15.85 69.98 15.69 71.34 15.57 72.72 15.48 74.1 15.42 75.49 15.41 76.88 15.42 78.27 15.48 79.64 15.57 81 15.69 82.36 15.85 83.7 16.04 85.04 16.26 86.36 16.52 87.67 16.81 88.96 17.13 90.25 17.48 91.52 17.87 92.78 18.28 94.02 18.73 95.25 19.2 96.46 19.71 97.66 20.24 98.84 20.8 100.01 21.39 101.16 22.01 102.29 22.65 103.4 23.33 104.5 24.02 105.58 24.75 106.64 25.5 107.68 26.27 108.7 27.07 109.7 27.89 110.68 28.74 111.64 29.61 112.57 30.5 113.49 31.42 114.38 32.35 115.25 33.31 116.1 34.29 116.92 35.29 117.72 36.31 118.49 37.35 119.24 38.41 119.97 39.49 120.66 40.59 121.34 41.7 121.98 42.83 122.6 43.98 123.19 45.15 123.75 46.33 124.28 47.53 124.79 48.74 125.26 49.97 125.71 51.22 126.12 52.47 126.51 53.74 126.86 55.03 127.18 56.33 127.47 57.63 127.73 58.95 127.95 60.29 128.15 61.63 128.3 62.98 128.43 64.35 128.51 65.72 128.57 67.11 128.59 68.5"/><text class="cls-6" transform="translate(45.29 70.26) scale(1.06 1)">0.5</text><text class="cls-6" transform="translate(66.53 70.26) scale(1.06 1)">0.1</text><text class="cls-6" transform="translate(24.06 70.26) scale(1.06 1)">0.9</text><text class="cls-7" transform="translate(69.06 10.73) scale(1.06 1)">90</text><text class="cls-7" transform="translate(65.82 133.33) scale(1.06 1)">270</text><text class="cls-8" transform="translate(0.73 71.23) scale(1.06 1)">180</text><text class="cls-7" transform="translate(134.15 71.39) scale(1.06 1)">0</text></g></svg>