<svg id="Capa_1" data-name="Capa 1" xmlns="http://www.w3.org/2000/svg" viewBox="0 0 141.68 136.15"><defs><style>.cls-1{fill:#fff;fill-rule:evenodd;}.cls-2,.cls-3,.cls-4,.cls-5{fill:none;stroke-linecap:square;stroke-linejoin:bevel;stroke-width:0.52px;}.cls-2{stroke:silver;}.cls-3{stroke:gray;stroke-dasharray:3.39 3.39;}.cls-4{stroke:#0070c0;}.cls-5{stroke:#000;}.cls-6{font-size:5.43px;letter-spacing:0.01em;}.cls-6,.cls-7,.cls-8{font-family:Palatino-Roman, Palatino;}.cls-7{font-size:12px;letter-spacing:0.01em;}.cls-8{font-size:11px;letter-spacing:0.01em;}</style></defs><title>RCS_halfLambda</title><g id="RCS_halfLambda"><polygon class="cls-1" points="128.59 68.5 128.57 69.89 128.51 71.27 128.43 72.65 128.3 74.01 128.15 75.37 127.95 76.71 127.73 78.04 127.47 79.36 127.18 80.67 126.86 81.97 126.51 83.25 126.12 84.52 125.71 85.78 125.26 87.02 124.79 88.25 124.28 89.47 123.75 90.67 123.19 91.85 122.6 93.01 121.98 94.16 121.34 95.3 120.66 96.41 119.97 97.51 119.24 98.58 118.49 99.64 117.72 100.69 116.92 101.7 116.1 102.7 115.25 103.69 114.38 104.64 113.49 105.58 112.57 106.5 111.64 107.39 110.68 108.26 109.7 109.1 108.7 109.93 107.68 110.73 106.64 111.5 105.58 112.25 104.5 112.97 103.4 113.67 102.29 114.34 101.16 114.99 100.01 115.6 98.84 116.19 97.66 116.76 96.46 117.29 95.25 117.79 94.02 118.27 92.78 118.71 91.52 119.13 90.25 119.51 88.96 119.87 87.67 120.19 86.36 120.48 85.04 120.73 83.7 120.96 82.36 121.15 81 121.31 79.64 121.43 78.27 121.52 76.88 121.57 75.49 121.59 74.1 121.57 72.72 121.52 71.34 121.43 69.98 121.31 68.63 121.15 67.28 120.96 65.95 120.73 64.63 120.48 63.32 120.19 62.02 119.87 60.74 119.51 59.47 119.13 58.21 118.71 56.97 118.27 55.74 117.79 54.52 117.29 53.33 116.76 52.14 116.19 50.98 115.6 49.83 114.99 48.7 114.34 47.58 113.67 46.48 112.97 45.41 112.25 44.35 111.5 43.31 110.73 42.28 109.93 41.28 109.1 40.31 108.26 39.35 107.39 38.41 106.5 37.49 105.58 36.6 104.64 35.73 103.69 34.89 102.7 34.06 101.7 33.27 100.69 32.49 99.64 31.74 98.58 31.02 97.51 30.32 96.41 29.65 95.3 29 94.16 28.39 93.01 27.8 91.85 27.23 90.67 26.7 89.47 26.2 88.25 25.72 87.02 25.28 85.78 24.86 84.52 24.48 83.25 24.12 81.97 23.8 80.67 23.51 79.36 23.25 78.04 23.03 76.71 22.84 75.37 22.68 74.01 22.56 72.65 22.47 71.27 22.42 69.89 22.4 68.5 22.42 67.11 22.47 65.72 22.56 64.35 22.68 62.98 22.84 61.63 23.03 60.29 23.25 58.95 23.51 57.63 23.8 56.33 24.12 55.03 24.48 53.74 24.86 52.47 25.28 51.22 25.72 49.97 26.2 48.74 26.7 47.53 27.23 46.33 27.8 45.15 28.39 43.98 29 42.83 29.65 41.7 30.32 40.59 31.02 39.49 31.74 38.41 32.49 37.35 33.27 36.31 34.06 35.29 34.89 34.29 35.73 33.31 36.6 32.35 37.49 31.42 38.41 30.5 39.35 29.61 40.31 28.74 41.28 27.89 42.28 27.07 43.31 26.27 44.35 25.5 45.41 24.75 46.48 24.02 47.58 23.33 48.7 22.65 49.83 22.01 50.98 21.39 52.14 20.8 53.33 20.24 54.52 19.71 55.74 19.2 56.97 18.73 58.21 18.28 59.47 17.87 60.74 17.48 62.02 17.13 63.32 16.81 64.63 16.52 65.95 16.26 67.28 16.04 68.63 15.85 69.98 15.69 71.34 15.57 72.72 15.48 74.1 15.42 75.49 15.41 76.88 15.42 78.27 15.48 79.64 15.57 81 15.69 82.36 15.85 83.7 16.04 85.04 16.26 86.36 16.52 87.67 16.81 88.96 17.13 90.25 17.48 91.52 17.87 92.78 18.28 94.02 18.73 95.25 19.2 96.46 19.71 97.66 20.24 98.84 20.8 100.01 21.39 101.16 22.01 102.29 22.65 103.4 23.33 104.5 24.02 105.58 24.75 106.64 25.5 107.68 26.27 108.7 27.07 109.7 27.89 110.68 28.74 111.64 29.61 112.57 30.5 113.49 31.42 114.38 32.35 115.25 33.31 116.1 34.29 116.92 35.29 117.72 36.31 118.49 37.35 119.24 38.41 119.97 39.49 120.66 40.59 121.34 41.7 121.98 42.83 122.6 43.98 123.19 45.15 123.75 46.33 124.28 47.53 124.79 48.74 125.26 49.97 125.71 51.22 126.12 52.47 126.51 53.74 126.86 55.03 127.18 56.33 127.47 57.63 127.73 58.95 127.95 60.29 128.15 61.63 128.3 62.98 128.43 64.35 128.51 65.72 128.57 67.11 128.59 68.5"/><line class="cls-2" x1="75.49" y1="68.5" x2="128.58" y2="68.5"/><line class="cls-2" x1="75.49" y1="68.5" x2="121.47" y2="41.95"/><line class="cls-2" x1="75.49" y1="68.5" x2="102.04" y2="22.52"/><line class="cls-2" x1="75.49" y1="68.5" x2="75.49" y2="15.41"/><line class="cls-2" x1="75.49" y1="68.5" x2="48.95" y2="22.52"/><line class="cls-2" x1="75.49" y1="68.5" x2="29.51" y2="41.95"/><line class="cls-2" x1="75.49" y1="68.5" x2="22.4" y2="68.5"/><line class="cls-2" x1="75.49" y1="68.5" x2="29.51" y2="95.04"/><line class="cls-2" x1="75.49" y1="68.5" x2="48.95" y2="114.48"/><line class="cls-2" x1="75.49" y1="68.5" x2="75.49" y2="121.59"/><line class="cls-2" x1="75.49" y1="68.5" x2="102.04" y2="114.48"/><line class="cls-2" x1="75.49" y1="68.5" x2="121.47" y2="95.04"/><line class="cls-2" x1="75.49" y1="68.5" x2="128.58" y2="68.5"/><circle class="cls-3" cx="75.49" cy="68.5" r="5.31"/><circle class="cls-3" cx="75.49" cy="68.5" r="10.62"/><circle class="cls-3" cx="75.49" cy="68.5" r="15.93"/><circle class="cls-3" cx="75.49" cy="68.5" r="21.24"/><circle class="cls-3" cx="75.49" cy="68.5" r="26.55"/><circle class="cls-3" cx="75.49" cy="68.5" r="31.86"/><circle class="cls-3" cx="75.49" cy="68.5" r="37.16"/><circle class="cls-3" cx="75.49" cy="68.5" r="42.47"/><circle class="cls-3" cx="75.49" cy="68.5" r="47.78"/><polyline class="cls-4" points="128.71 68.5 128.71 68.38 128.71 68.27 128.71 68.15 128.71 68.03 128.71 67.92 128.71 67.8 128.71 67.69 128.71 67.57 128.7 67.46 128.7 67.34 128.7 67.22 128.7 67.11 128.69 66.99 128.69 66.88 128.69 66.76 128.68 66.65 128.68 66.53 128.68 66.42 128.67 66.3 128.67 66.18 128.66 66.07 128.66 65.95 128.65 65.84 128.65 65.72 128.64 65.61 128.63 65.49 128.63 65.38 128.62 65.26 128.61 65.14 128.6 65.03 128.6 64.91 128.59 64.8 128.58 64.68 128.57 64.57 128.56 64.45 128.56 64.33 128.55 64.22 128.54 64.11 128.53 63.99 128.52 63.87 128.51 63.76 128.5 63.64 128.48 63.53 128.47 63.41 128.46 63.3 128.45 63.18 128.44 63.07 128.42 62.95 128.41 62.84 128.4 62.72 128.38 62.61 128.37 62.49 128.36 62.38 128.34 62.26 128.33 62.15 128.31 62.03 128.3 61.92 128.28 61.8 128.26 61.69 128.25 61.58 128.23 61.46 128.21 61.35 128.19 61.23 128.18 61.12 128.16 61 128.14 60.89 128.12 60.77 128.1 60.66 128.08 60.55 128.06 60.43 128.04 60.32 128.02 60.21 128 60.09 127.97 59.98 127.95 59.87 127.93 59.75 127.9 59.64 127.88 59.53 127.86 59.41 127.83 59.3 127.81 59.19 127.78 59.07 127.75 58.96 127.73 58.85 127.7 58.74 127.67 58.62 127.64 58.51 127.62 58.4 127.59 58.29 127.56 58.17 127.53 58.06 127.5 57.95 127.47 57.84 127.44 57.73 127.4 57.62 127.37 57.51 127.34 57.4 127.3 57.29 127.27 57.17 127.23 57.06 127.2 56.95 127.16 56.84 127.13 56.73 127.09 56.63 127.05 56.52 127.01 56.41 126.98 56.3 126.94 56.19 126.9 56.08 126.86 55.97 126.81 55.86 126.77 55.76 126.73 55.65 126.69 55.54 126.64 55.43 126.6 55.33 126.56 55.22 126.51 55.11 126.46 55.01 126.42 54.9 126.37 54.79 126.32 54.69 126.27 54.58 126.22 54.48 126.17 54.37 126.12 54.27 126.07 54.16 126.02 54.06 125.96 53.96 125.91 53.85 125.85 53.75 125.8 53.65 125.74 53.55 125.69 53.44 125.63 53.34 125.57 53.24 125.51 53.14 125.45 53.04 125.39 52.94 125.33 52.84 125.27 52.74 125.2 52.64 125.14 52.54 125.07 52.44 125.01 52.34 124.94 52.25 124.88 52.15 124.81 52.05 124.74 51.96 124.67 51.86 124.6 51.77 124.53 51.67 124.45 51.58 124.38 51.48 124.31 51.39 124.23 51.3 124.16 51.21 124.08 51.11 124 51.02 123.92 50.93 123.84 50.84 123.76 50.75 123.68 50.66 123.6 50.58 123.52 50.49 123.43 50.4 123.35 50.31 123.26 50.23 123.18 50.14 123.09 50.05 123 49.97 122.91 49.89 122.82 49.8 122.73 49.72 122.64 49.64 122.54 49.56 122.45 49.48 122.35 49.4 122.25 49.32 122.16 49.24 122.06 49.16 121.96 49.08 121.86 49.01 121.76 48.93 121.66 48.86 121.55 48.78 121.45 48.71 121.34 48.64 121.23 48.56 121.13 48.49 121.02 48.42 120.91 48.35 120.8 48.28 120.69 48.22 120.57 48.15 120.46 48.08 120.34 48.02 120.23 47.95 120.11 47.89 119.99 47.83 119.87 47.77 119.75 47.7 119.63 47.64 119.51 47.59 119.39 47.53 119.26 47.47 119.13 47.41 119.01 47.36 118.88 47.3 118.75 47.25 118.62 47.2 118.49 47.15 118.36 47.09 118.22 47.05 118.09 47 117.95 46.95 117.82 46.9 117.68 46.86 117.54 46.81 117.4 46.77 117.26 46.73 117.12 46.69 116.98 46.65 116.83 46.61 116.69 46.57 116.54 46.53 116.39 46.5 116.24 46.46 116.09 46.43 115.94 46.4 115.79 46.37 115.64 46.34 115.49 46.31 115.33 46.28 115.18 46.26 115.02 46.23 114.86 46.21 114.7 46.19 114.54 46.16 114.38 46.14 114.22 46.13 114.06 46.11 113.89 46.09 113.72 46.08 113.56 46.06 113.39 46.05 113.22 46.04 113.05 46.03 112.88 46.02 112.71 46.02 112.54 46.01 112.37 46.01 112.19 46 112.02 46 111.84 46 111.66 46 111.49 46 111.31 46.01 111.13 46.01 110.94 46.02 110.76 46.03 110.58 46.04 110.4 46.05 110.21 46.06 110.03 46.08 109.84 46.09 109.65 46.11 109.47 46.12 109.28 46.14 109.09 46.16 108.89 46.19 108.7 46.21 108.51 46.24 108.32 46.26 108.12 46.29 107.93 46.32 107.73 46.35 107.54 46.38 107.34 46.42 107.14 46.45 106.94 46.49 106.74 46.53 106.54 46.57 106.34 46.61 106.14 46.66 105.94 46.7 105.74 46.75 105.53 46.8 105.33 46.84 105.13 46.9 104.92 46.95 104.71 47 104.51 47.06 104.3 47.11 104.09 47.17 103.89 47.23 103.68 47.29 103.47 47.35 103.26 47.42 103.05 47.48 102.84 47.55 102.63 47.62 102.41 47.69 102.2 47.76 101.99 47.84 101.78 47.91 101.56 47.99 101.35 48.06 101.14 48.14 100.92 48.23 100.71 48.31 100.49 48.39 100.28 48.48 100.06 48.56 99.85 48.65 99.63 48.74 99.42 48.83 99.2 48.92 98.98 49.02 98.77 49.11 98.55 49.21 98.33 49.3 98.12 49.4 97.9 49.5 97.68 49.61 97.47 49.71 97.25 49.81 97.03 49.92 96.82 50.03 96.6 50.14 96.38 50.25 96.17 50.36 95.95 50.47 95.73 50.58 95.52 50.7 95.3 50.81 95.08 50.93 94.87 51.05 94.65 51.17 94.44 51.29 94.22 51.41 94.01 51.54 93.8 51.66 93.58 51.79 93.37 51.91 93.15 52.04 92.94 52.17 92.73 52.3 92.52 52.43 92.31 52.56 92.09 52.7 91.88 52.83 91.67 52.97 91.47 53.1 91.26 53.24 91.05 53.38 90.84 53.52 90.63 53.66 90.43 53.8 90.22 53.94 90.02 54.08 89.81 54.23 89.61 54.37 89.41 54.51 89.2 54.66 89 54.8 88.8 54.95 88.6 55.1 88.4 55.25 88.21 55.4 88.01 55.54 87.81 55.69 87.62 55.84 87.42 55.99 87.23 56.15 87.04 56.3 86.85 56.45 86.66 56.6 86.47 56.76 86.28 56.91 86.09 57.06 85.91 57.22 85.73 57.37 85.54 57.52 85.36 57.68 85.18 57.83 85 57.99 84.82 58.14 84.65 58.3 84.47 58.45 84.3 58.61 84.12 58.76 83.95 58.92 83.78 59.07 83.61 59.23 83.45 59.38 83.28 59.54 83.12 59.69 82.95 59.85 82.79 60 82.63 60.16 82.47 60.31 82.32 60.46 82.16 60.61 82.01 60.77 81.86 60.92 81.7 61.07 81.56 61.22 81.41 61.37 81.26 61.52 81.12 61.67 80.98 61.82 80.84 61.96 80.7 62.11 80.56 62.26 80.42 62.4 80.29 62.55 80.16 62.69 80.03 62.83 79.9 62.98 79.77 63.12 79.65 63.26 79.53 63.39 79.4 63.53 79.28 63.67 79.17 63.8 79.05 63.94 78.94 64.07 78.83 64.2 78.72 64.33 78.61 64.46 78.5 64.59 78.4 64.71 78.3 64.84 78.19 64.96 78.1 65.08 78 65.2 77.91 65.32 77.81 65.44 77.72 65.55 77.63 65.67 77.55 65.78 77.46 65.89 77.38 66 77.3 66.1 77.22 66.21 77.14 66.31 77.07 66.41 77 66.51 76.93 66.61 76.86 66.7 76.79 66.79 76.72 66.88 76.66 66.97 76.6 67.06 76.54 67.14 76.49 67.22 76.43 67.3 76.38 67.38 76.33 67.45 76.28 67.53 76.23 67.6 76.19 67.66 76.14 67.73 76.1 67.79 76.06 67.85 76.03 67.91 75.99 67.96 75.96 68.01 75.93 68.06 75.9 68.11 75.87 68.15 75.84 68.19 75.82 68.23 75.8 68.27 75.78 68.3 75.76 68.33 75.74 68.36 75.73 68.38 75.72 68.4 75.7 68.42 75.7 68.44 75.69 68.45 75.68 68.46 75.68 68.47 75.68 68.47 75.68 68.47 75.68 68.47 75.68 68.46 75.69 68.45 75.69 68.44 75.7 68.42 75.71 68.4 75.72 68.38 75.74 68.36 75.75 68.33 75.77 68.3 75.79 68.26 75.81 68.22 75.83 68.18 75.85 68.14 75.87 68.09 75.9 68.04 75.92 67.98 75.95 67.92 75.98 67.86 76.01 67.8 76.05 67.73 76.08 67.66 76.11 67.58 76.15 67.5 76.19 67.42 76.23 67.33 76.27 67.25 76.31 67.15 76.35 67.06 76.39 66.96 76.44 66.86 76.48 66.75 76.53 66.64 76.58 66.53 76.62 66.41 76.67 66.29 76.72 66.17 76.77 66.04 76.83 65.91 76.88 65.78 76.93 65.64 76.99 65.5 77.04 65.36 77.1 65.21 77.16 65.06 77.21 64.91 77.27 64.75 77.33 64.59 77.39 64.43 77.45 64.26 77.51 64.09 77.57 63.92 77.63 63.74 77.69 63.56 77.75 63.38 77.82 63.2 77.88 63.01 77.94 62.81 78.01 62.62 78.07 62.42 78.14 62.22 78.2 62.01 78.26 61.8 78.33 61.59 78.39 61.38 78.46 61.16 78.52 60.95 78.59 60.72 78.65 60.5 78.72 60.27 78.78 60.04 78.85 59.8 78.91 59.57 78.98 59.33 79.04 59.09 79.1 58.84 79.17 58.6 79.23 58.35 79.3 58.09 79.36 57.84 79.42 57.58 79.48 57.32 79.54 57.06 79.61 56.8 79.67 56.53 79.72 56.26 79.78 55.99 79.84 55.72 79.9 55.45 79.96 55.17 80.02 54.89 80.07 54.61 80.13 54.33 80.19 54.04 80.24 53.76 80.29 53.47 80.35 53.18 80.4 52.89 80.45 52.59 80.5 52.3 80.55 52 80.6 51.7 80.64 51.41 80.69 51.1 80.73 50.8 80.78 50.5 80.82 50.2 80.86 49.89 80.91 49.59 80.95 49.28 80.99 48.97 81.02 48.66 81.06 48.35 81.1 48.04 81.13 47.73 81.16 47.42 81.19 47.1 81.22 46.79 81.25 46.48 81.28 46.16 81.31 45.85 81.33 45.53 81.36 45.22 81.38 44.9 81.4 44.59 81.42 44.27 81.44 43.96 81.46 43.64 81.47 43.33 81.49 43.01 81.5 42.7 81.51 42.38 81.52 42.07 81.53 41.76 81.53 41.45 81.54 41.13 81.54 40.82 81.55 40.51 81.55 40.2 81.55 39.89 81.54 39.58 81.54 39.28 81.53 38.97 81.53 38.66 81.52 38.36 81.51 38.06 81.5 37.76 81.48 37.46 81.47 37.16 81.45 36.86 81.44 36.57 81.42 36.27 81.4 35.98 81.37 35.69 81.35 35.4 81.32 35.11 81.3 34.83 81.27 34.55 81.24 34.27 81.2 33.99 81.17 33.71 81.14 33.44 81.1 33.16 81.06 32.89 81.02 32.63 80.98 32.36 80.94 32.1 80.89 31.84 80.85 31.58 80.8 31.33 80.75 31.07 80.7 30.83 80.65 30.58 80.6 30.34 80.55 30.1 80.49 29.86 80.44 29.63 80.38 29.39 80.32 29.17 80.26 28.94 80.19 28.72 80.13 28.5 80.06 28.29 80 28.08 79.93 27.87 79.86 27.67 79.79 27.46 79.72 27.27 79.65 27.07 79.58 26.89 79.5 26.7 79.43 26.52 79.35 26.34 79.27 26.16 79.19 25.99 79.11 25.83 79.03 25.66 78.95 25.51 78.87 25.35 78.78 25.2 78.7 25.05 78.61 24.91 78.53 24.77 78.44 24.64 78.35 24.51 78.26 24.39 78.17 24.27 78.08 24.15 77.99 24.04 77.9 23.93 77.81 23.83 77.71 23.73 77.62 23.63 77.53 23.54 77.43 23.46 77.34 23.38 77.24 23.3 77.14 23.23 77.05 23.16 76.95 23.1 76.85 23.04 76.75 22.99 76.66 22.94 76.56 22.89 76.46 22.85 76.36 22.82 76.26 22.79 76.16 22.76 76.06 22.74 75.96 22.73 75.86 22.71 75.76 22.71 75.66 22.7 75.56 22.71 75.46 22.71 75.36 22.73 75.26 22.74 75.16 22.77 75.06 22.79 74.96 22.82 74.86 22.86 74.77 22.9 74.67 22.94 74.57 22.99 74.47 23.05 74.37 23.1 74.28 23.17 74.18 23.23 74.08 23.31 73.99 23.38 73.89 23.46 73.8 23.55 73.7 23.64 73.61 23.74 73.52 23.84 73.42 23.94 73.33 24.05 73.24 24.16 73.15 24.28 73.06 24.4 72.97 24.52 72.88 24.65 72.8 24.79 72.71 24.93 72.63 25.07 72.54 25.21 72.46 25.36 72.37 25.52 72.29 25.68 72.21 25.84 72.13 26.01 72.05 26.18 71.97 26.35 71.9 26.53 71.82 26.71 71.75 26.9 71.67 27.09 71.6 27.28 71.53 27.48 71.46 27.68 71.39 27.89 71.33 28.09 71.26 28.31 71.19 28.52 71.13 28.74 71.07 28.96 71.01 29.18 70.95 29.41 70.89 29.64 70.83 29.88 70.78 30.12 70.72 30.36 70.67 30.6 70.62 30.85 70.57 31.09 70.52 31.35 70.48 31.6 70.43 31.86 70.39 32.12 70.34 32.38 70.3 32.65 70.26 32.91 70.23 33.18 70.19 33.46 70.16 33.73 70.12 34.01 70.09 34.29 70.06 34.57 70.03 34.85 70 35.13 69.98 35.42 69.95 35.71 69.93 36 69.91 36.29 69.89 36.59 69.87 36.88 69.86 37.18 69.84 37.48 69.83 37.78 69.82 38.08 69.81 38.38 69.8 38.69 69.79 38.99 69.79 39.3 69.78 39.61 69.78 39.91 69.78 40.22 69.78 40.53 69.78 40.84 69.79 41.16 69.79 41.47 69.8 41.78 69.81 42.09 69.82 42.41 69.83 42.72 69.84 43.03 69.86 43.35 69.87 43.66 69.89 43.98 69.91 44.3 69.93 44.61 69.95 44.92 69.97 45.24 69.99 45.55 70.02 45.87 70.05 46.18 70.07 46.5 70.1 46.81 70.13 47.12 70.17 47.44 70.2 47.75 70.23 48.06 70.27 48.37 70.31 48.68 70.34 48.99 70.38 49.3 70.42 49.6 70.46 49.91 70.5 50.21 70.55 50.52 70.59 50.82 70.64 51.12 70.68 51.42 70.73 51.72 70.78 52.02 70.83 52.31 70.88 52.61 70.93 52.9 70.98 53.19 71.03 53.48 71.09 53.77 71.14 54.06 71.2 54.34 71.25 54.62 71.31 54.9 71.37 55.18 71.42 55.46 71.48 55.73 71.54 56.01 71.6 56.28 71.66 56.55 71.72 56.81 71.78 57.08 71.84 57.34 71.91 57.59 71.97 57.85 72.03 58.11 72.09 58.36 72.16 58.61 72.22 58.85 72.29 59.1 72.35 59.34 72.42 59.58 72.48 59.81 72.54 60.05 72.61 60.28 72.67 60.51 72.74 60.73 72.8 60.95 72.87 61.17 72.93 61.39 73 61.6 73.06 61.81 73.13 62.02 73.19 62.22 73.25 62.43 73.32 62.62 73.38 62.82 73.44 63.01 73.51 63.2 73.57 63.39 73.63 63.57 73.69 63.75 73.75 63.92 73.82 64.1 73.88 64.27 73.94 64.43 74 64.6 74.05 64.76 74.11 64.91 74.17 65.07 74.23 65.22 74.28 65.36 74.34 65.51 74.39 65.65 74.45 65.78 74.5 65.92 74.55 66.05 74.6 66.17 74.65 66.3 74.7 66.41 74.75 66.53 74.8 66.64 74.84 66.75 74.89 66.86 74.93 66.96 74.97 67.06 75.02 67.16 75.06 67.25 75.1 67.34 75.14 67.42 75.17 67.5 75.21 67.58 75.24 67.66 75.28 67.73 75.31 67.8 75.34 67.86 75.37 67.92 75.4 67.98 75.42 68.04 75.45 68.09 75.47 68.14 75.5 68.18 75.52 68.22 75.54 68.26 75.56 68.3 75.57 68.33 75.59 68.36 75.6 68.38 75.61 68.4 75.62 68.42 75.63 68.44 75.64 68.45 75.64 68.46 75.64 68.47 75.64 68.47 75.64 68.47 75.64 68.47 75.64 68.46 75.63 68.45 75.63 68.44 75.62 68.42 75.61 68.4 75.59 68.38 75.58 68.36 75.56 68.33 75.55 68.3 75.53 68.27 75.5 68.23 75.48 68.19 75.45 68.15 75.43 68.11 75.4 68.06 75.37 68.02 75.33 67.96 75.3 67.91 75.26 67.85 75.22 67.79 75.18 67.73 75.14 67.67 75.09 67.6 75.05 67.53 75 67.46 74.95 67.38 74.89 67.31 74.84 67.23 74.78 67.14 74.72 67.06 74.66 66.98 74.6 66.89 74.54 66.8 74.47 66.71 74.4 66.61 74.33 66.52 74.26 66.42 74.18 66.32 74.11 66.21 74.03 66.11 73.95 66 73.86 65.9 73.78 65.79 73.69 65.67 73.61 65.56 73.52 65.45 73.42 65.33 73.33 65.21 73.23 65.09 73.13 64.97 73.03 64.85 72.93 64.72 72.83 64.6 72.72 64.47 72.61 64.34 72.5 64.21 72.39 64.08 72.28 63.95 72.16 63.81 72.05 63.68 71.93 63.54 71.81 63.41 71.68 63.27 71.56 63.13 71.43 62.99 71.3 62.84 71.17 62.7 71.04 62.56 70.91 62.42 70.77 62.27 70.64 62.13 70.5 61.98 70.36 61.83 70.22 61.68 70.07 61.53 69.93 61.38 69.78 61.23 69.63 61.09 69.48 60.93 69.33 60.78 69.18 60.63 69.02 60.48 68.86 60.33 68.71 60.17 68.55 60.02 68.39 59.87 68.22 59.71 68.06 59.56 67.89 59.4 67.73 59.25 67.56 59.09 67.39 58.94 67.22 58.78 67.04 58.63 66.87 58.47 66.69 58.32 66.52 58.16 66.34 58.01 66.16 57.85 65.98 57.7 65.8 57.55 65.62 57.39 65.43 57.24 65.25 57.08 65.06 56.93 64.87 56.78 64.69 56.63 64.5 56.47 64.31 56.32 64.11 56.17 63.92 56.02 63.73 55.87 63.53 55.72 63.34 55.57 63.14 55.42 62.94 55.27 62.75 55.12 62.55 54.98 62.35 54.83 62.15 54.68 61.94 54.54 61.74 54.4 61.54 54.25 61.33 54.11 61.13 53.97 60.92 53.83 60.72 53.69 60.51 53.55 60.3 53.41 60.1 53.27 59.89 53.13 59.68 53 59.47 52.86 59.26 52.73 59.05 52.59 58.84 52.46 58.63 52.33 58.41 52.2 58.2 52.07 57.99 51.94 57.77 51.82 57.56 51.69 57.35 51.57 57.13 51.44 56.92 51.32 56.7 51.2 56.49 51.08 56.27 50.96 56.06 50.84 55.84 50.73 55.62 50.61 55.41 50.5 55.19 50.39 54.98 50.28 54.76 50.17 54.54 50.06 54.33 49.95 54.11 49.85 53.89 49.74 53.68 49.64 53.46 49.54 53.24 49.44 53.03 49.34 52.81 49.24 52.59 49.14 52.38 49.05 52.16 48.95 51.95 48.86 51.73 48.77 51.52 48.68 51.3 48.59 51.09 48.51 50.87 48.42 50.66 48.34 50.44 48.26 50.23 48.18 50.01 48.1 49.8 48.02 49.59 47.94 49.38 47.87 49.16 47.8 48.95 47.72 48.74 47.65 48.53 47.58 48.32 47.52 48.11 47.45 47.9 47.39 47.69 47.32 47.48 47.26 47.27 47.2 47.07 47.15 46.86 47.09 46.65 47.03 46.45 46.98 46.24 46.93 46.04 46.88 45.83 46.83 45.63 46.78 45.43 46.73 45.23 46.69 45.02 46.65 44.82 46.6 44.62 46.56 44.42 46.52 44.23 46.49 44.03 46.45 43.83 46.42 43.63 46.38 43.44 46.35 43.24 46.32 43.05 46.29 42.86 46.27 42.66 46.24 42.47 46.22 42.28 46.2 42.09 46.17 41.9 46.16 41.72 46.14 41.53 46.12 41.34 46.1 41.16 46.09 40.97 46.08 40.79 46.07 40.61 46.06 40.42 46.05 40.24 46.04 40.06 46.04 39.88 46.03 39.7 46.03 39.53 46.03 39.35 46.03 39.18 46.03 39 46.03 38.83 46.04 38.66 46.04 38.48 46.05 38.31 46.06 38.15 46.07 37.98 46.08 37.81 46.09 37.64 46.1 37.48 46.12 37.31 46.13 37.15 46.15 36.99 46.17 36.83 46.19 36.67 46.21 36.51 46.23 36.35 46.26 36.19 46.28 36.04 46.31 35.88 46.34 35.73 46.36 35.58 46.39 35.42 46.42 35.27 46.45 35.12 46.49 34.98 46.52 34.83 46.56 34.68 46.59 34.54 46.63 34.39 46.67 34.25 46.71 34.11 46.75 33.97 46.79 33.83 46.84 33.69 46.88 33.55 46.92 33.41 46.97 33.28 47.02 33.14 47.07 33.01 47.12 32.88 47.17 32.74 47.22 32.62 47.27 32.49 47.32 32.36 47.38 32.23 47.43 32.1 47.49 31.98 47.55 31.86 47.6 31.73 47.66 31.61 47.72 31.49 47.78 31.37 47.85 31.25 47.91 31.14 47.97 31.02 48.04 30.91 48.1 30.79 48.17 30.68 48.23 30.57 48.3 30.45 48.37 30.34 48.44 30.23 48.51 30.13 48.58 30.02 48.65 29.91 48.73 29.81 48.8 29.71 48.87 29.6 48.95 29.5 49.02 29.4 49.1 29.3 49.18 29.2 49.25 29.1 49.33 29.01 49.41 28.91 49.49 28.82 49.57 28.72 49.65 28.63 49.73 28.54 49.82 28.45 49.9 28.36 49.98 28.27 50.07 28.18 50.15 28.09 50.24 28.01 50.33 27.92 50.41 27.84 50.5 27.75 50.59 27.67 50.67 27.59 50.76 27.51 50.85 27.43 50.94 27.35 51.03 27.27 51.13 27.2 51.22 27.12 51.31 27.05 51.4 26.97 51.49 26.9 51.59 26.83 51.68 26.75 51.78 26.68 51.87 26.61 51.97 26.54 52.06 26.48 52.16 26.41 52.26 26.34 52.35 26.28 52.45 26.21 52.55 26.15 52.65 26.08 52.75 26.02 52.85 25.96 52.95 25.9 53.05 25.84 53.15 25.78 53.25 25.72 53.35 25.66 53.45 25.6 53.55 25.55 53.65 25.49 53.76 25.44 53.86 25.38 53.96 25.33 54.07 25.28 54.17 25.23 54.27 25.17 54.38 25.12 54.48 25.07 54.59 25.02 54.69 24.98 54.8 24.93 54.9 24.88 55.01 24.83 55.12 24.79 55.22 24.74 55.33 24.7 55.44 24.65 55.54 24.61 55.65 24.57 55.76 24.52 55.87 24.48 55.98 24.44 56.08 24.4 56.19 24.36 56.3 24.32 56.41 24.29 56.52 24.25 56.63 24.21 56.74 24.17 56.85 24.14 56.96 24.1 57.07 24.07 57.18 24.03 57.29 24 57.4 23.96 57.51 23.93 57.62 23.9 57.73 23.87 57.84 23.84 57.95 23.81 58.07 23.78 58.18 23.75 58.29 23.72 58.4 23.69 58.51 23.66 58.63 23.63 58.74 23.6 58.85 23.58 58.96 23.55 59.08 23.52 59.19 23.5 59.3 23.47 59.41 23.45 59.53 23.43 59.64 23.4 59.75 23.38 59.87 23.36 59.98 23.33 60.09 23.31 60.21 23.29 60.32 23.27 60.43 23.25 60.55 23.23 60.66 23.21 60.78 23.19 60.89 23.17 61 23.15 61.12 23.13 61.23 23.11 61.35 23.09 61.46 23.08 61.58 23.06 61.69 23.04 61.8 23.03 61.92 23.01 62.03 23 62.15 22.98 62.26 22.97 62.38 22.95 62.49 22.94 62.61 22.92 62.72 22.91 62.84 22.9 62.95 22.88 63.07 22.87 63.18 22.86 63.3 22.85 63.41 22.84 63.53 22.82 63.64 22.81 63.76 22.8 63.87 22.79 63.99 22.78 64.1 22.77 64.22 22.76 64.33 22.75 64.45 22.74 64.57 22.73 64.68 22.73 64.8 22.72 64.91 22.71 65.03 22.7 65.14 22.7 65.26 22.69 65.37 22.68 65.49 22.67 65.61 22.67 65.72 22.66 65.84 22.66 65.95 22.65 66.07 22.64 66.18 22.64 66.3 22.64 66.42 22.63 66.53 22.63 66.65 22.62 66.76 22.62 66.88 22.62 66.99 22.61 67.11 22.61 67.22 22.61 67.34 22.6 67.46 22.6 67.57 22.6 67.69 22.6 67.8 22.6 67.92 22.6 68.03 22.59 68.15 22.59 68.27 22.59 68.38 22.59 68.5 22.59 68.61 22.59 68.73 22.59 68.85 22.59 68.96 22.59 69.08 22.6 69.19 22.6 69.31 22.6 69.42 22.6 69.54 22.6 69.66 22.61 69.77 22.61 69.89 22.61 70 22.61 70.12 22.62 70.23 22.62 70.35 22.63 70.47 22.63 70.58 22.64 70.7 22.64 70.81 22.64 70.93 22.65 71.05 22.66 71.16 22.66 71.28 22.67 71.39 22.67 71.51 22.68 71.62 22.69 71.74 22.69 71.85 22.7 71.97 22.71 72.08 22.72 72.2 22.72 72.32 22.73 72.43 22.74 72.55 22.75 72.66 22.76 72.78 22.77 72.89 22.78 73.01 22.79 73.12 22.8 73.24 22.81 73.36 22.82 73.47 22.83 73.58 22.84 73.7 22.86 73.81 22.87 73.93 22.88 74.05 22.89 74.16 22.91 74.28 22.92 74.39 22.94 74.51 22.95 74.62 22.96 74.73 22.98 74.85 23 74.97 23.01 75.08 23.03 75.19 23.04 75.31 23.06 75.42 23.08 75.54 23.09 75.65 23.11 75.77 23.13 75.88 23.15 76 23.17 76.11 23.19 76.22 23.21 76.34 23.23 76.45 23.25 76.57 23.27 76.68 23.29 76.79 23.31 76.91 23.33 77.02 23.36 77.13 23.38 77.25 23.4 77.36 23.43 77.47 23.45 77.59 23.48 77.7 23.5 77.81 23.53 77.93 23.55 78.04 23.58 78.15 23.61 78.26 23.63 78.38 23.66 78.49 23.69 78.6 23.72 78.71 23.75 78.82 23.78 78.94 23.81 79.05 23.84 79.16 23.87 79.27 23.9 79.38 23.94 79.49 23.97 79.6 24 79.71 24.04 79.83 24.07 79.94 24.11 80.05 24.14 80.16 24.18 80.27 24.22 80.38 24.25 80.48 24.29 80.59 24.33 80.7 24.37 80.81 24.41 80.92 24.45 81.03 24.49 81.14 24.54 81.25 24.58 81.35 24.62 81.46 24.66 81.57 24.71 81.68 24.75 81.78 24.8 81.89 24.84 82 24.89 82.1 24.94 82.21 24.99 82.31 25.04 82.42 25.09 82.52 25.14 82.63 25.19 82.73 25.24 82.84 25.29 82.94 25.35 83.05 25.4 83.15 25.45 83.25 25.51 83.35 25.57 83.46 25.62 83.56 25.68 83.66 25.74 83.76 25.8 83.86 25.86 83.96 25.92 84.06 25.98 84.16 26.04 84.26 26.11 84.36 26.17 84.46 26.23 84.56 26.3 84.66 26.37 84.75 26.43 84.85 26.5 84.95 26.57 85.04 26.64 85.14 26.71 85.23 26.78 85.33 26.86 85.42 26.93 85.52 27 85.61 27.08 85.7 27.15 85.8 27.23 85.89 27.31 85.98 27.39 86.07 27.47 86.16 27.55 86.25 27.63 86.34 27.71 86.43 27.79 86.52 27.88 86.6 27.96 86.69 28.05 86.78 28.13 86.86 28.22 86.95 28.31 87.03 28.4 87.11 28.49 87.2 28.58 87.28 28.68 87.36 28.77 87.44 28.86 87.53 28.96 87.61 29.06 87.68 29.15 87.76 29.25 87.84 29.35 87.92 29.45 87.99 29.55 88.07 29.66 88.14 29.76 88.22 29.86 88.29 29.97 88.36 30.08 88.44 30.18 88.51 30.29 88.58 30.4 88.65 30.52 88.72 30.63 88.78 30.74 88.85 30.85 88.92 30.97 88.98 31.09 89.05 31.2 89.11 31.32 89.17 31.44 89.24 31.56 89.3 31.68 89.36 31.8 89.42 31.93 89.47 32.05 89.53 32.18 89.59 32.31 89.64 32.43 89.7 32.56 89.75 32.69 89.81 32.82 89.86 32.96 89.91 33.09 89.96 33.22 90 33.36 90.05 33.5 90.1 33.63 90.14 33.77 90.19 33.91 90.23 34.05 90.27 34.2 90.31 34.34 90.36 34.48 90.39 34.63 90.43 34.77 90.47 34.92 90.5 35.07 90.54 35.22 90.57 35.37 90.6 35.52 90.63 35.67 90.66 35.83 90.69 35.98 90.72 36.14 90.75 36.3 90.77 36.45 90.79 36.61 90.82 36.77 90.84 36.94 90.86 37.1 90.88 37.26 90.89 37.42 90.91 37.59 90.92 37.76 90.94 37.92 90.95 38.09 90.96 38.26 90.97 38.43 90.98 38.6 90.99 38.77 90.99 38.95 91 39.12 91 39.3 91 39.48 91 39.65 91 39.83 91 40.01 90.99 40.19 90.99 40.37 90.98 40.55 90.97 40.74 90.96 40.92 90.95 41.1 90.94 41.29 90.93 41.48 90.91 41.66 90.89 41.85 90.88 42.04 90.86 42.23 90.84 42.42 90.81 42.61 90.79 42.81 90.76 43 90.74 43.19 90.71 43.39 90.68 43.58 90.65 43.78 90.61 43.98 90.58 44.17 90.55 44.37 90.51 44.57 90.47 44.77 90.43 44.97 90.39 45.18 90.34 45.38 90.3 45.58 90.25 45.78 90.21 45.99 90.16 46.19 90.11 46.4 90.05 46.6 90 46.81 89.94 47.02 89.89 47.23 89.83 47.43 89.77 47.64 89.71 47.85 89.64 48.06 89.58 48.27 89.52 48.48 89.45 48.69 89.38 48.91 89.31 49.12 89.24 49.33 89.16 49.54 89.09 49.76 89.01 49.97 88.94 50.18 88.86 50.4 88.78 50.61 88.69 50.83 88.61 51.04 88.53 51.26 88.44 51.47 88.35 51.69 88.26 51.9 88.17 52.12 88.08 52.34 87.98 52.55 87.89 52.77 87.79 52.99 87.69 53.2 87.6 53.42 87.5 53.64 87.39 53.85 87.29 54.07 87.19 54.29 87.08 54.5 86.97 54.72 86.86 54.94 86.75 55.15 86.64 55.37 86.53 55.59 86.42 55.8 86.3 56.02 86.18 56.23 86.07 56.45 85.95 56.67 85.83 56.88 85.71 57.1 85.58 57.31 85.46 57.53 85.34 57.74 85.21 57.95 85.08 58.17 84.96 58.38 84.83 58.59 84.7 58.8 84.57 59.02 84.43 59.23 84.3 59.44 84.17 59.65 84.03 59.86 83.89 60.06 83.76 60.27 83.62 60.48 83.48 60.69 83.34 60.9 83.2 61.1 83.06 61.31 82.92 61.51 82.77 61.71 82.63 61.92 82.48 62.12 82.34 62.32 82.19 62.52 82.05 62.72 81.9 62.92 81.75 63.12 81.6 63.31 81.45 63.51 81.31 63.7 81.15 63.9 81 64.09 80.85 64.28 80.7 64.47 80.55 64.66 80.4 64.85 80.24 65.04 80.09 65.23 79.94 65.41 79.78 65.6 79.63 65.78 79.47 65.96 79.32 66.14 79.16 66.32 79.01 66.5 78.85 66.68 78.7 66.85 78.54 67.03 78.39 67.2 78.23 67.37 78.08 67.54 77.92 67.71 77.77 67.88 77.61 68.04 77.46 68.21 77.3 68.37 77.15 68.53 77 68.69 76.84 68.85 76.69 69.01 76.54 69.16 76.38 69.32 76.23 69.47 76.08 69.62 75.93 69.77 75.78 69.92 75.63 70.06 75.48 70.2 75.33 70.35 75.18 70.49 75.03 70.63 74.89 70.76 74.74 70.9 74.59 71.03 74.45 71.17 74.31 71.3 74.16 71.42 74.02 71.55 73.88 71.67 73.74 71.8 73.6 71.92 73.47 72.04 73.33 72.16 73.19 72.27 73.06 72.39 72.93 72.5 72.8 72.61 72.67 72.72 72.54 72.82 72.41 72.92 72.28 73.03 72.16 73.13 72.03 73.23 71.91 73.32 71.79 73.42 71.67 73.51 71.56 73.6 71.44 73.69 71.33 73.78 71.22 73.86 71.11 73.94 71 74.02 70.89 74.1 70.79 74.18 70.69 74.25 70.58 74.33 70.49 74.4 70.39 74.47 70.3 74.53 70.2 74.6 70.11 74.66 70.02 74.72 69.94 74.78 69.86 74.84 69.77 74.89 69.69 74.94 69.62 75 69.54 75.05 69.47 75.09 69.4 75.14 69.33 75.18 69.27 75.22 69.21 75.26 69.15 75.3 69.09 75.33 69.03 75.37 68.98 75.4 68.93 75.43 68.89 75.45 68.84 75.48 68.8 75.5 68.76 75.53 68.73 75.55 68.69 75.56 68.67 75.58 68.64 75.59 68.61 75.61 68.59 75.62 68.57 75.63 68.56 75.63 68.55 75.64 68.54 75.64 68.53 75.64 68.53 75.64 68.53 75.64 68.53 75.64 68.54 75.64 68.55 75.63 68.56 75.62 68.57 75.61 68.59 75.6 68.61 75.59 68.64 75.57 68.67 75.56 68.7 75.54 68.74 75.52 68.77 75.5 68.82 75.47 68.86 75.45 68.91 75.42 68.96 75.4 69.02 75.37 69.07 75.34 69.14 75.31 69.2 75.28 69.27 75.24 69.34 75.21 69.42 75.17 69.5 75.14 69.58 75.1 69.66 75.06 69.75 75.02 69.84 74.97 69.94 74.93 70.04 74.89 70.14 74.84 70.25 74.8 70.36 74.75 70.47 74.7 70.58 74.65 70.7 74.6 70.83 74.55 70.95 74.5 71.08 74.44 71.22 74.39 71.36 74.33 71.5 74.28 71.64 74.22 71.78 74.17 71.94 74.11 72.09 74.05 72.25 73.99 72.41 73.93 72.57 73.87 72.74 73.81 72.91 73.75 73.08 73.69 73.26 73.63 73.44 73.57 73.62 73.5 73.81 73.44 73.99 73.38 74.19 73.31 74.38 73.25 74.58 73.19 74.78 73.12 74.99 73.06 75.19 72.99 75.41 72.93 75.62 72.86 75.84 72.8 76.06 72.73 76.28 72.67 76.5 72.6 76.73 72.54 76.96 72.47 77.2 72.41 77.43 72.34 77.67 72.28 77.92 72.22 78.16 72.15 78.41 72.09 78.66 72.03 78.91 71.96 79.16 71.9 79.42 71.84 79.68 71.78 79.94 71.72 80.2 71.66 80.47 71.59 80.74 71.54 81.01 71.48 81.28 71.42 81.56 71.36 81.83 71.3 82.11 71.25 82.39 71.19 82.68 71.14 82.96 71.08 83.25 71.03 83.54 70.97 83.83 70.92 84.12 70.87 84.41 70.82 84.71 70.77 85 70.72 85.3 70.68 85.6 70.63 85.9 70.58 86.2 70.54 86.51 70.5 86.81 70.45 87.11 70.41 87.42 70.37 87.73 70.33 88.04 70.3 88.35 70.26 88.66 70.22 88.97 70.19 89.28 70.16 89.59 70.13 89.9 70.09 90.22 70.07 90.53 70.04 90.85 70.01 91.16 69.99 91.47 69.96 91.79 69.94 92.11 69.92 92.42 69.9 92.74 69.88 93.05 69.86 93.37 69.85 93.68 69.83 94 69.82 94.31 69.81 94.63 69.8 94.94 69.79 95.25 69.78 95.57 69.78 95.88 69.78 96.19 69.77 96.5 69.77 96.81 69.77 97.12 69.78 97.43 69.78 97.74 69.78 98.04 69.79 98.35 69.8 98.65 69.81 98.95 69.82 99.26 69.83 99.56 69.85 99.86 69.87 100.15 69.88 100.45 69.9 100.74 69.92 101.03 69.95 101.33 69.97 101.61 70 101.9 70.02 102.19 70.05 102.47 70.08 102.75 70.11 103.03 70.15 103.31 70.18 103.58 70.22 103.85 70.26 104.12 70.3 104.39 70.34 104.66 70.38 104.92 70.42 105.18 70.47 105.44 70.52 105.69 70.57 105.94 70.62 106.19 70.67 106.44 70.72 106.68 70.77 106.92 70.83 107.16 70.89 107.39 70.94 107.62 71 107.85 71.06 108.08 71.13 108.3 71.19 108.52 71.25 108.73 71.32 108.94 71.39 109.15 71.46 109.35 71.53 109.55 71.6 109.75 71.67 109.94 71.74 110.13 71.82 110.32 71.89 110.5 71.97 110.68 72.05 110.86 72.13 111.03 72.21 111.19 72.29 111.36 72.37 111.51 72.45 111.67 72.54 111.82 72.62 111.97 72.71 112.11 72.79 112.25 72.88 112.38 72.97 112.51 73.06 112.63 73.15 112.75 73.24 112.87 73.33 112.98 73.42 113.09 73.52 113.19 73.61 113.29 73.7 113.39 73.8 113.48 73.89 113.56 73.99 113.65 74.08 113.72 74.18 113.79 74.28 113.86 74.37 113.92 74.47 113.98 74.57 114.04 74.67 114.08 74.77 114.13 74.86 114.17 74.96 114.2 75.06 114.23 75.16 114.26 75.26 114.28 75.36 114.3 75.46 114.31 75.56 114.31 75.66 114.32 75.76 114.31 75.86 114.31 75.96 114.3 76.06 114.28 76.16 114.26 76.26 114.23 76.36 114.2 76.46 114.17 76.56 114.13 76.66 114.08 76.75 114.03 76.85 113.98 76.95 113.92 77.05 113.86 77.14 113.79 77.24 113.72 77.34 113.64 77.43 113.56 77.53 113.47 77.62 113.38 77.72 113.29 77.81 113.19 77.9 113.08 77.99 112.97 78.08 112.86 78.17 112.75 78.26 112.62 78.35 112.5 78.44 112.37 78.53 112.23 78.61 112.09 78.7 111.95 78.78 111.81 78.87 111.66 78.95 111.5 79.03 111.34 79.11 111.18 79.19 111.01 79.27 110.84 79.35 110.67 79.43 110.49 79.5 110.3 79.58 110.12 79.65 109.93 79.72 109.73 79.79 109.54 79.86 109.34 79.93 109.13 80 108.92 80.07 108.71 80.13 108.5 80.19 108.28 80.26 108.06 80.32 107.83 80.38 107.6 80.44 107.37 80.49 107.14 80.55 106.9 80.6 106.66 80.65 106.42 80.7 106.17 80.75 105.92 80.8 105.67 80.85 105.41 80.89 105.16 80.94 104.9 80.98 104.63 81.02 104.37 81.06 104.1 81.1 103.83 81.14 103.56 81.17 103.28 81.2 103.01 81.24 102.73 81.27 102.45 81.3 102.16 81.32 101.88 81.35 101.59 81.37 101.3 81.39 101.01 81.42 100.72 81.44 100.42 81.45 100.13 81.47 99.83 81.48 99.53 81.5 99.23 81.51 98.93 81.52 98.63 81.53 98.32 81.53 98.02 81.54 97.71 81.54 97.41 81.55 97.1 81.55 96.79 81.55 96.48 81.54 96.17 81.54 95.86 81.53 95.54 81.53 95.23 81.52 94.92 81.51 94.6 81.5 94.29 81.48 93.97 81.47 93.66 81.45 93.34 81.44 93.03 81.42 92.71 81.4 92.4 81.38 92.08 81.36 91.77 81.33 91.45 81.31 91.14 81.28 90.82 81.25 90.51 81.22 90.2 81.19 89.88 81.16 89.57 81.13 89.26 81.09 88.95 81.06 88.64 81.02 88.33 80.98 88.02 80.94 87.71 80.9 87.4 80.86 87.09 80.82 86.79 80.78 86.49 80.73 86.18 80.69 85.88 80.64 85.58 80.59 85.28 80.55 84.98 80.5 84.69 80.45 84.39 80.39 84.1 80.34 83.81 80.29 83.52 80.24 83.23 80.18 82.94 80.13 82.66 80.07 82.38 80.02 82.1 79.96 81.82 79.9 81.54 79.84 81.27 79.78 81 79.72 80.72 79.66 80.46 79.6 80.19 79.54 79.93 79.48 79.66 79.42 79.41 79.36 79.15 79.29 78.89 79.23 78.64 79.17 78.39 79.1 78.15 79.04 77.9 78.97 77.66 78.91 77.42 78.84 77.19 78.78 76.95 78.72 76.72 78.65 76.49 78.59 76.27 78.52 76.05 78.46 75.83 78.39 75.61 78.33 75.4 78.26 75.19 78.2 74.98 78.13 74.77 78.07 74.57 78.01 74.37 77.94 74.18 77.88 73.99 77.82 73.8 77.75 73.61 77.69 73.43 77.63 73.25 77.57 73.07 77.51 72.9 77.45 72.73 77.39 72.56 77.33 72.4 77.27 72.24 77.21 72.08 77.15 71.93 77.1 71.78 77.04 71.63 76.99 71.49 76.93 71.35 76.88 71.21 76.83 71.08 76.77 70.95 76.72 70.82 76.67 70.7 76.62 70.58 76.57 70.47 76.53 70.35 76.48 70.24 76.44 70.14 76.39 70.03 76.35 69.94 76.31 69.84 76.27 69.75 76.22 69.66 76.19 69.58 76.15 69.49 76.11 69.41 76.08 69.34 76.05 69.27 76.01 69.2 75.98 69.13 75.95 69.07 75.92 69.01 75.9 68.96 75.87 68.91 75.85 68.86 75.83 68.81 75.81 68.77 75.79 68.73 75.77 68.7 75.75 68.67 75.74 68.64 75.72 68.61 75.71 68.59 75.7 68.57 75.69 68.56 75.69 68.55 75.68 68.54 75.68 68.53 75.68 68.53 75.68 68.53 75.68 68.53 75.68 68.54 75.69 68.55 75.7 68.56 75.7 68.57 75.72 68.59 75.73 68.61 75.74 68.64 75.76 68.67 75.78 68.69 75.8 68.73 75.82 68.76 75.84 68.8 75.87 68.84 75.9 68.89 75.92 68.93 75.96 68.98 75.99 69.03 76.03 69.09 76.06 69.15 76.1 69.2 76.14 69.27 76.19 69.33 76.23 69.4 76.28 69.47 76.33 69.54 76.38 69.61 76.43 69.69 76.48 69.77 76.54 69.85 76.6 69.94 76.66 70.02 76.72 70.11 76.79 70.2 76.86 70.29 76.92 70.39 76.99 70.48 77.07 70.58 77.14 70.68 77.22 70.78 77.3 70.89 77.38 71 77.46 71.1 77.55 71.21 77.63 71.32 77.72 71.44 77.81 71.55 77.9 71.67 78 71.79 78.09 71.91 78.19 72.03 78.29 72.15 78.39 72.28 78.5 72.4 78.6 72.53 78.71 72.66 78.82 72.79 78.93 72.92 79.05 73.05 79.16 73.19 79.28 73.32 79.4 73.46 79.52 73.59 79.64 73.73 79.77 73.87 79.89 74.01 80.02 74.16 80.15 74.3 80.28 74.44 80.42 74.58 80.55 74.73 80.69 74.88 80.83 75.02 80.97 75.17 81.11 75.32 81.25 75.47 81.4 75.62 81.55 75.77 81.69 75.92 81.85 76.07 82 76.22 82.15 76.37 82.31 76.52 82.46 76.68 82.62 76.83 82.78 76.98 82.94 77.14 83.11 77.29 83.27 77.44 83.43 77.6 83.6 77.75 83.77 77.91 83.94 78.06 84.11 78.22 84.28 78.37 84.46 78.53 84.63 78.68 84.81 78.84 84.99 78.99 85.17 79.15 85.35 79.3 85.53 79.46 85.71 79.61 85.89 79.76 86.08 79.92 86.27 80.07 86.45 80.22 86.64 80.38 86.83 80.53 87.02 80.68 87.21 80.83 87.41 80.98 87.6 81.13 87.79 81.28 87.99 81.43 88.19 81.58 88.38 81.73 88.58 81.88 88.78 82.03 88.98 82.17 89.18 82.32 89.38 82.46 89.59 82.61 89.79 82.75 89.99 82.89 90.2 83.03 90.4 83.18 90.61 83.32 90.82 83.46 91.02 83.59 91.23 83.73 91.44 83.87 91.65 84.01 91.86 84.14 92.07 84.28 92.28 84.41 92.49 84.54 92.7 84.67 92.92 84.8 93.13 84.93 93.34 85.06 93.56 85.18 93.77 85.31 93.98 85.43 94.2 85.56 94.41 85.68 94.63 85.8 94.84 85.92 95.06 86.04 95.27 86.16 95.49 86.27 95.7 86.39 95.92 86.5 96.14 86.61 96.35 86.72 96.57 86.83 96.79 86.94 97 87.05 97.22 87.16 97.44 87.26 97.65 87.36 97.87 87.47 98.08 87.56 98.3 87.66 98.52 87.76 98.73 87.86 98.95 87.95 99.17 88.05 99.38 88.14 99.6 88.23 99.81 88.32 100.03 88.41 100.24 88.49 100.46 88.58 100.67 88.66 100.89 88.74 101.1 88.82 101.31 88.9 101.53 88.98 101.74 89.06 101.95 89.13 102.17 89.2 102.38 89.28 102.59 89.35 102.8 89.42 103.01 89.48 103.22 89.55 103.43 89.61 103.64 89.68 103.85 89.74 104.05 89.8 104.26 89.86 104.47 89.91 104.67 89.97 104.88 90.02 105.08 90.07 105.29 90.12 105.49 90.17 105.7 90.22 105.9 90.27 106.1 90.31 106.3 90.35 106.5 90.4 106.7 90.44 106.9 90.47 107.1 90.51 107.3 90.55 107.5 90.58 107.69 90.61 107.89 90.65 108.08 90.68 108.28 90.7 108.47 90.73 108.66 90.76 108.85 90.78 109.04 90.8 109.23 90.82 109.42 90.84 109.61 90.86 109.8 90.88 109.98 90.89 110.17 90.91 110.35 90.92 110.54 90.93 110.72 90.94 110.9 90.95 111.08 90.95 111.26 90.96 111.44 90.97 111.62 90.97 111.8 90.97 111.97 90.97 112.15 90.97 112.32 90.96 112.5 90.96 112.67 90.95 112.84 90.95 113.01 90.94 113.18 90.93 113.35 90.92 113.51 90.91 113.68 90.89 113.84 90.88 114.01 90.86 114.17 90.84 114.33 90.83 114.5 90.81 114.66 90.78 114.81 90.76 114.97 90.74 115.13 90.72 115.29 90.69 115.44 90.66 115.59 90.63 115.75 90.6 115.9 90.57 116.05 90.54 116.2 90.51 116.35 90.47 116.49 90.44 116.64 90.4 116.79 90.36 116.93 90.33 117.07 90.29 117.22 90.25 117.36 90.2 117.5 90.16 117.63 90.12 117.77 90.07 117.91 90.02 118.04 89.98 118.18 89.93 118.31 89.88 118.44 89.83 118.58 89.78 118.7 89.72 118.83 89.67 118.96 89.62 119.09 89.56 119.22 89.51 119.34 89.45 119.46 89.39 119.59 89.33 119.71 89.27 119.83 89.21 119.95 89.15 120.07 89.09 120.18 89.02 120.3 88.96 120.41 88.89 120.53 88.83 120.64 88.76 120.75 88.69 120.86 88.62 120.97 88.55 121.08 88.48 121.19 88.41 121.3 88.34 121.4 88.27 121.51 88.2 121.61 88.12 121.71 88.05 121.82 87.97 121.92 87.89 122.02 87.82 122.11 87.74 122.21 87.66 122.31 87.58 122.41 87.5 122.5 87.42 122.59 87.34 122.69 87.26 122.78 87.18 122.87 87.09 122.96 87.01 123.05 86.93 123.14 86.84 123.22 86.75 123.31 86.67 123.39 86.58 123.48 86.5 123.56 86.41 123.64 86.32 123.72 86.23 123.81 86.14 123.88 86.05 123.96 85.96 124.04 85.87 124.12 85.78 124.19 85.68 124.27 85.59 124.34 85.5 124.42 85.41 124.49 85.31 124.56 85.22 124.63 85.12 124.7 85.03 124.77 84.93 124.84 84.83 124.91 84.74 124.97 84.64 125.04 84.54 125.1 84.44 125.17 84.34 125.23 84.25 125.29 84.15 125.35 84.05 125.42 83.95 125.47 83.85 125.53 83.75 125.59 83.64 125.65 83.54 125.71 83.44 125.77 83.34 125.82 83.24 125.88 83.13 125.93 83.03 125.98 82.93 126.03 82.82 126.09 82.72 126.14 82.61 126.19 82.51 126.24 82.41 126.29 82.3 126.34 82.19 126.39 82.09 126.43 81.98 126.48 81.88 126.52 81.77 126.57 81.66 126.61 81.56 126.66 81.45 126.7 81.34 126.74 81.23 126.79 81.13 126.83 81.02 126.87 80.91 126.91 80.8 126.95 80.69 126.99 80.58 127.03 80.47 127.06 80.36 127.1 80.26 127.14 80.15 127.17 80.04 127.21 79.93 127.24 79.82 127.28 79.7 127.31 79.59 127.34 79.48 127.38 79.37 127.41 79.26 127.44 79.15 127.47 79.04 127.5 78.93 127.53 78.82 127.56 78.7 127.59 78.59 127.62 78.48 127.65 78.37 127.68 78.26 127.7 78.14 127.73 78.03 127.76 77.92 127.78 77.81 127.81 77.69 127.83 77.58 127.86 77.47 127.88 77.35 127.91 77.24 127.93 77.13 127.95 77.01 127.97 76.9 128 76.79 128.02 76.67 128.04 76.56 128.06 76.45 128.08 76.33 128.1 76.22 128.12 76.11 128.14 75.99 128.16 75.88 128.18 75.76 128.19 75.65 128.21 75.53 128.23 75.42 128.25 75.31 128.26 75.19 128.28 75.08 128.3 74.96 128.31 74.85 128.33 74.73 128.34 74.62 128.36 74.5 128.37 74.39 128.38 74.27 128.4 74.16 128.41 74.04 128.42 73.93 128.44 73.81 128.45 73.7 128.46 73.58 128.47 73.47 128.48 73.35 128.5 73.24 128.51 73.12 128.52 73.01 128.53 72.89 128.54 72.78 128.55 72.66 128.56 72.55 128.56 72.43 128.57 72.31 128.58 72.2 128.59 72.08 128.6 71.97 128.6 71.85 128.61 71.74 128.62 71.62 128.63 71.51 128.63 71.39 128.64 71.28 128.65 71.16 128.65 71.04 128.66 70.93 128.66 70.81 128.67 70.7 128.67 70.58 128.68 70.47 128.68 70.35 128.68 70.23 128.69 70.12 128.69 70 128.69 69.89 128.7 69.77 128.7 69.66 128.7 69.54 128.7 69.42 128.71 69.31 128.71 69.19 128.71 69.08 128.71 68.96 128.71 68.85 128.71 68.73 128.71 68.61 128.71 68.5"/><polygon class="cls-5" points="128.59 68.5 128.57 69.89 128.51 71.27 128.43 72.65 128.3 74.01 128.15 75.37 127.95 76.71 127.73 78.04 127.47 79.36 127.18 80.67 126.86 81.97 126.51 83.25 126.12 84.52 125.71 85.78 125.26 87.02 124.79 88.25 124.28 89.47 123.75 90.67 123.19 91.85 122.6 93.01 121.98 94.16 121.34 95.3 120.66 96.41 119.97 97.51 119.24 98.58 118.49 99.64 117.72 100.69 116.92 101.7 116.1 102.7 115.25 103.69 114.38 104.64 113.49 105.58 112.57 106.5 111.64 107.39 110.68 108.26 109.7 109.1 108.7 109.93 107.68 110.73 106.64 111.5 105.58 112.25 104.5 112.97 103.4 113.67 102.29 114.34 101.16 114.99 100.01 115.6 98.84 116.19 97.66 116.76 96.46 117.29 95.25 117.79 94.02 118.27 92.78 118.71 91.52 119.13 90.25 119.51 88.96 119.87 87.67 120.19 86.36 120.48 85.04 120.73 83.7 120.96 82.36 121.15 81 121.31 79.64 121.43 78.27 121.52 76.88 121.57 75.49 121.59 74.1 121.57 72.72 121.52 71.34 121.43 69.98 121.31 68.63 121.15 67.28 120.96 65.95 120.73 64.63 120.48 63.32 120.19 62.02 119.87 60.74 119.51 59.47 119.13 58.21 118.71 56.97 118.27 55.74 117.79 54.52 117.29 53.33 116.76 52.14 116.19 50.98 115.6 49.83 114.99 48.7 114.34 47.58 113.67 46.48 112.97 45.41 112.25 44.35 111.5 43.31 110.73 42.28 109.93 41.28 109.1 40.31 108.26 39.35 107.39 38.41 106.5 37.49 105.58 36.6 104.64 35.73 103.69 34.89 102.7 34.06 101.7 33.27 100.69 32.49 99.64 31.74 98.58 31.02 97.51 30.32 96.41 29.65 95.3 29 94.16 28.39 93.01 27.8 91.85 27.23 90.67 26.7 89.47 26.2 88.25 25.72 87.02 25.28 85.78 24.86 84.52 24.48 83.25 24.12 81.97 23.8 80.67 23.51 79.36 23.25 78.04 23.03 76.71 22.84 75.37 22.68 74.01 22.56 72.65 22.47 71.27 22.42 69.89 22.4 68.5 22.42 67.11 22.47 65.72 22.56 64.35 22.68 62.98 22.84 61.63 23.03 60.29 23.25 58.95 23.51 57.63 23.8 56.33 24.12 55.03 24.48 53.74 24.86 52.47 25.28 51.22 25.72 49.97 26.2 48.74 26.7 47.53 27.23 46.33 27.8 45.15 28.39 43.98 29 42.83 29.65 41.7 30.32 40.59 31.02 39.49 31.74 38.41 32.49 37.35 33.27 36.31 34.06 35.29 34.89 34.29 35.73 33.31 36.6 32.35 37.49 31.42 38.41 30.5 39.35 29.61 40.31 28.74 41.28 27.89 42.28 27.07 43.31 26.27 44.35 25.5 45.41 24.75 46.48 24.02 47.58 23.33 48.7 22.65 49.83 22.01 50.98 21.39 52.14 20.8 53.33 20.24 54.52 19.71 55.74 19.2 56.97 18.73 58.21 18.28 59.47 17.87 60.74 17.48 62.02 17.13 63.32 16.81 64.63 16.52 65.95 16.26 67.28 16.04 68.63 15.85 69.98 15.69 71.34 15.57 72.72 15.48 74.1 15.42 75.49 15.41 76.88 15.42 78.27 15.48 79.64 15.57 81 15.69 82.36 15.85 83.7 16.04 85.04 16.26 86.36 16.52 87.67 16.81 88.96 17.13 90.25 17.48 91.52 17.87 92.78 18.28 94.02 18.73 95.25 19.2 96.46 19.71 97.66 20.24 98.84 20.8 100.01 21.39 101.16 22.01 102.29 22.65 103.4 23.33 104.5 24.02 105.58 24.75 106.64 25.5 107.68 26.27 108.7 27.07 109.7 27.89 110.68 28.74 111.64 29.61 112.57 30.5 113.49 31.42 114.38 32.35 115.25 33.31 116.1 34.29 116.92 35.29 117.72 36.31 118.49 37.35 119.24 38.41 119.97 39.49 120.66 40.59 121.34 41.7 121.98 42.83 122.6 43.98 123.19 45.15 123.75 46.33 124.28 47.53 124.79 48.74 125.26 49.97 125.71 51.22 126.12 52.47 126.51 53.74 126.86 55.03 127.18 56.33 127.47 57.63 127.73 58.95 127.95 60.29 128.15 61.63 128.3 62.98 128.43 64.35 128.51 65.72 128.57 67.11 128.59 68.5"/><text class="cls-6" transform="translate(45.29 70.26) scale(1.06 1)">0.5</text><text class="cls-6" transform="translate(66.53 70.26) scale(1.06 1)">0.1</text><text class="cls-6" transform="translate(24.06 70.26) scale(1.06 1)">0.9</text><text class="cls-7" transform="translate(69.06 10.73) scale(1.06 1)">90</text><text class="cls-7" transform="translate(65.82 133.33) scale(1.06 1)">270</text><text class="cls-8" transform="translate(0.73 71.23) scale(1.06 1)">180</text><text class="cls-7" transform="translate(134.15 71.39) scale(1.06 1)">0</text></g></svg>