<svg id="Capa_1" data-name="Capa 1" xmlns="http://www.w3.org/2000/svg" viewBox="0 0 141.68 136.15"><defs><style>.cls-1{fill:#fff;fill-rule:evenodd;}.cls-2,.cls-3,.cls-4,.cls-5{fill:none;stroke-linecap:square;stroke-linejoin:bevel;stroke-width:0.52px;}.cls-2{stroke:silver;}.cls-3{stroke:gray;stroke-dasharray:3.39 3.39;}.cls-4{stroke:#0070c0;}.cls-5{stroke:#000;}.cls-6{font-size:5.43px;letter-spacing:0.01em;}.cls-6,.cls-7,.cls-8{font-family:Palatino-Roman, Palatino;}.cls-7{font-size:12px;letter-spacing:0.01em;}.cls-8{font-size:11px;letter-spacing:0.01em;}</style></defs><title>RCS_Lambda</title><g id="RCS_Lambda"><polygon class="cls-1" points="128.59 68.5 128.57 69.89 128.51 71.27 128.43 72.65 128.3 74.01 128.15 75.37 127.95 76.71 127.73 78.04 127.47 79.36 127.18 80.67 126.86 81.97 126.51 83.25 126.12 84.52 125.71 85.78 125.26 87.02 124.79 88.25 124.28 89.47 123.75 90.67 123.19 91.85 122.6 93.01 121.98 94.16 121.34 95.3 120.66 96.41 119.97 97.51 119.24 98.58 118.49 99.64 117.72 100.69 116.92 101.7 116.1 102.7 115.25 103.69 114.38 104.64 113.49 105.58 112.57 106.5 111.64 107.39 110.68 108.26 109.7 109.1 108.7 109.93 107.68 110.73 106.64 111.5 105.58 112.25 104.5 112.97 103.4 113.67 102.29 114.34 101.16 114.99 100.01 115.6 98.84 116.19 97.66 116.76 96.46 117.29 95.25 117.79 94.02 118.27 92.78 118.71 91.52 119.13 90.25 119.51 88.96 119.87 87.67 120.19 86.36 120.48 85.04 120.73 83.7 120.96 82.36 121.15 81 121.31 79.64 121.43 78.27 121.52 76.88 121.57 75.49 121.59 74.1 121.57 72.72 121.52 71.34 121.43 69.98 121.31 68.63 121.15 67.28 120.96 65.95 120.73 64.63 120.48 63.32 120.19 62.02 119.87 60.74 119.51 59.47 119.13 58.21 118.71 56.97 118.27 55.74 117.79 54.52 117.29 53.33 116.76 52.14 116.19 50.98 115.6 49.83 114.99 48.7 114.34 47.58 113.67 46.48 112.97 45.41 112.25 44.35 111.5 43.31 110.73 42.28 109.93 41.28 109.1 40.31 108.26 39.35 107.39 38.41 106.5 37.49 105.58 36.6 104.64 35.73 103.69 34.89 102.7 34.06 101.7 33.27 100.69 32.49 99.64 31.74 98.58 31.02 97.51 30.32 96.41 29.65 95.3 29 94.16 28.39 93.01 27.8 91.85 27.23 90.67 26.7 89.47 26.2 88.25 25.72 87.02 25.28 85.78 24.86 84.52 24.48 83.25 24.12 81.97 23.8 80.67 23.51 79.36 23.25 78.04 23.03 76.71 22.84 75.37 22.68 74.01 22.56 72.65 22.47 71.27 22.42 69.89 22.4 68.5 22.42 67.11 22.47 65.72 22.56 64.35 22.68 62.98 22.84 61.63 23.03 60.29 23.25 58.95 23.51 57.63 23.8 56.33 24.12 55.03 24.48 53.74 24.86 52.47 25.28 51.22 25.72 49.97 26.2 48.74 26.7 47.53 27.23 46.33 27.8 45.15 28.39 43.98 29 42.83 29.65 41.7 30.32 40.59 31.02 39.49 31.74 38.41 32.49 37.35 33.27 36.31 34.06 35.29 34.89 34.29 35.73 33.31 36.6 32.35 37.49 31.42 38.41 30.5 39.35 29.61 40.31 28.74 41.28 27.89 42.28 27.07 43.31 26.27 44.35 25.5 45.41 24.75 46.48 24.02 47.58 23.33 48.7 22.65 49.83 22.01 50.98 21.39 52.14 20.8 53.33 20.24 54.52 19.71 55.74 19.2 56.97 18.73 58.21 18.28 59.47 17.87 60.74 17.48 62.02 17.13 63.32 16.81 64.63 16.52 65.95 16.26 67.28 16.04 68.63 15.85 69.98 15.69 71.34 15.57 72.72 15.48 74.1 15.42 75.49 15.41 76.88 15.42 78.27 15.48 79.64 15.57 81 15.69 82.36 15.85 83.7 16.04 85.04 16.26 86.36 16.52 87.67 16.81 88.96 17.13 90.25 17.48 91.52 17.87 92.78 18.28 94.02 18.73 95.25 19.2 96.46 19.71 97.66 20.24 98.84 20.8 100.01 21.39 101.16 22.01 102.29 22.65 103.4 23.33 104.5 24.02 105.58 24.75 106.64 25.5 107.68 26.27 108.7 27.07 109.7 27.89 110.68 28.74 111.64 29.61 112.57 30.5 113.49 31.42 114.38 32.35 115.25 33.31 116.1 34.29 116.92 35.29 117.72 36.31 118.49 37.35 119.24 38.41 119.97 39.49 120.66 40.59 121.34 41.7 121.98 42.83 122.6 43.98 123.19 45.15 123.75 46.33 124.28 47.53 124.79 48.74 125.26 49.97 125.71 51.22 126.12 52.47 126.51 53.74 126.86 55.03 127.18 56.33 127.47 57.63 127.73 58.95 127.95 60.29 128.15 61.63 128.3 62.98 128.43 64.35 128.51 65.72 128.57 67.11 128.59 68.5"/><line class="cls-2" x1="75.49" y1="68.5" x2="128.58" y2="68.5"/><line class="cls-2" x1="75.49" y1="68.5" x2="121.47" y2="41.95"/><line class="cls-2" x1="75.49" y1="68.5" x2="102.04" y2="22.52"/><line class="cls-2" x1="75.49" y1="68.5" x2="75.49" y2="15.41"/><line class="cls-2" x1="75.49" y1="68.5" x2="48.95" y2="22.52"/><line class="cls-2" x1="75.49" y1="68.5" x2="29.51" y2="41.95"/><line class="cls-2" x1="75.49" y1="68.5" x2="22.4" y2="68.5"/><line class="cls-2" x1="75.49" y1="68.5" x2="29.51" y2="95.04"/><line class="cls-2" x1="75.49" y1="68.5" x2="48.95" y2="114.48"/><line class="cls-2" x1="75.49" y1="68.5" x2="75.49" y2="121.59"/><line class="cls-2" x1="75.49" y1="68.5" x2="102.04" y2="114.48"/><line class="cls-2" x1="75.49" y1="68.5" x2="121.47" y2="95.04"/><line class="cls-2" x1="75.49" y1="68.5" x2="128.58" y2="68.5"/><circle class="cls-3" cx="75.49" cy="68.5" r="5.31"/><circle class="cls-3" cx="75.49" cy="68.5" r="10.62"/><circle class="cls-3" cx="75.49" cy="68.5" r="15.93"/><circle class="cls-3" cx="75.49" cy="68.5" r="21.24"/><circle class="cls-3" cx="75.49" cy="68.5" r="26.55"/><circle class="cls-3" cx="75.49" cy="68.5" r="31.86"/><circle class="cls-3" cx="75.49" cy="68.5" r="37.16"/><circle class="cls-3" cx="75.49" cy="68.5" r="42.47"/><circle class="cls-3" cx="75.49" cy="68.5" r="47.78"/><polyline class="cls-4" points="128.16 68.52 128.16 68.41 128.16 68.29 128.16 68.18 128.16 68.06 128.16 67.95 128.15 67.83 128.15 67.72 128.15 67.6 128.15 67.49 128.14 67.37 128.14 67.26 128.14 67.14 128.13 67.03 128.13 66.91 128.13 66.8 128.12 66.68 128.12 66.57 128.11 66.45 128.11 66.34 128.1 66.22 128.09 66.11 128.09 66 128.08 65.88 128.07 65.77 128.07 65.65 128.06 65.54 128.05 65.42 128.04 65.31 128.03 65.19 128.03 65.08 128.02 64.96 128.01 64.85 128 64.74 127.99 64.62 127.97 64.51 127.96 64.39 127.95 64.28 127.94 64.16 127.93 64.05 127.91 63.94 127.9 63.82 127.89 63.71 127.87 63.59 127.86 63.48 127.84 63.37 127.83 63.25 127.81 63.14 127.79 63.03 127.77 62.91 127.76 62.8 127.74 62.69 127.72 62.57 127.7 62.46 127.68 62.35 127.66 62.23 127.63 62.12 127.61 62.01 127.59 61.9 127.56 61.78 127.54 61.67 127.51 61.56 127.49 61.45 127.46 61.34 127.43 61.22 127.4 61.11 127.38 61 127.34 60.89 127.31 60.78 127.28 60.67 127.25 60.56 127.22 60.45 127.18 60.34 127.15 60.23 127.11 60.12 127.07 60.01 127.03 59.9 127 59.79 126.95 59.68 126.91 59.57 126.87 59.46 126.83 59.36 126.78 59.25 126.74 59.14 126.69 59.03 126.64 58.93 126.59 58.82 126.54 58.72 126.49 58.61 126.44 58.51 126.39 58.4 126.33 58.3 126.27 58.19 126.22 58.09 126.16 57.99 126.09 57.88 126.03 57.78 125.97 57.68 125.91 57.58 125.84 57.48 125.77 57.38 125.7 57.28 125.63 57.18 125.56 57.08 125.49 56.98 125.41 56.88 125.33 56.79 125.25 56.69 125.18 56.6 125.09 56.5 125.01 56.41 124.93 56.31 124.84 56.22 124.75 56.13 124.66 56.04 124.57 55.95 124.47 55.86 124.38 55.77 124.28 55.68 124.18 55.59 124.08 55.51 123.98 55.42 123.87 55.33 123.77 55.25 123.66 55.17 123.55 55.09 123.44 55 123.32 54.92 123.2 54.84 123.08 54.77 122.96 54.69 122.84 54.61 122.72 54.54 122.59 54.46 122.46 54.39 122.33 54.32 122.2 54.25 122.06 54.18 121.92 54.11 121.78 54.04 121.64 53.98 121.5 53.91 121.35 53.85 121.2 53.78 121.05 53.72 120.89 53.66 120.74 53.61 120.58 53.55 120.42 53.49 120.26 53.44 120.09 53.39 119.92 53.34 119.75 53.28 119.58 53.24 119.41 53.19 119.23 53.15 119.05 53.1 118.87 53.06 118.68 53.02 118.5 52.98 118.31 52.94 118.11 52.91 117.92 52.87 117.72 52.84 117.53 52.81 117.32 52.78 117.12 52.76 116.91 52.73 116.7 52.71 116.49 52.69 116.28 52.67 116.06 52.65 115.84 52.63 115.62 52.62 115.4 52.61 115.17 52.6 114.94 52.59 114.71 52.58 114.48 52.58 114.24 52.58 114 52.58 113.76 52.58 113.52 52.58 113.27 52.59 113.02 52.6 112.77 52.61 112.52 52.62 112.27 52.63 112.01 52.65 111.75 52.67 111.48 52.69 111.22 52.71 110.95 52.74 110.69 52.77 110.41 52.8 110.14 52.83 109.86 52.86 109.59 52.9 109.31 52.94 109.03 52.98 108.74 53.02 108.45 53.07 108.17 53.12 107.88 53.17 107.58 53.22 107.29 53.28 106.99 53.33 106.7 53.39 106.4 53.45 106.09 53.52 105.79 53.59 105.49 53.66 105.18 53.73 104.87 53.8 104.56 53.88 104.25 53.95 103.94 54.03 103.62 54.12 103.31 54.2 102.99 54.29 102.67 54.38 102.35 54.47 102.03 54.57 101.71 54.66 101.39 54.76 101.06 54.86 100.74 54.97 100.41 55.07 100.08 55.18 99.75 55.29 99.42 55.4 99.09 55.51 98.77 55.63 98.43 55.75 98.1 55.87 97.77 55.99 97.44 56.11 97.11 56.24 96.77 56.37 96.44 56.5 96.11 56.63 95.77 56.76 95.44 56.9 95.11 57.03 94.77 57.17 94.44 57.31 94.11 57.45 93.78 57.6 93.44 57.74 93.11 57.89 92.78 58.04 92.45 58.19 92.12 58.34 91.79 58.49 91.47 58.65 91.14 58.8 90.81 58.96 90.49 59.11 90.17 59.27 89.84 59.43 89.52 59.59 89.2 59.75 88.89 59.91 88.57 60.08 88.26 60.24 87.94 60.4 87.64 60.57 87.33 60.73 87.02 60.9 86.72 61.07 86.41 61.23 86.11 61.4 85.82 61.56 85.52 61.73 85.23 61.9 84.94 62.07 84.66 62.23 84.37 62.4 84.09 62.56 83.81 62.73 83.54 62.9 83.27 63.06 83 63.22 82.74 63.39 82.48 63.55 82.22 63.71 81.97 63.87 81.72 64.03 81.47 64.19 81.23 64.35 80.99 64.5 80.75 64.66 80.52 64.81 80.3 64.96 80.08 65.11 79.86 65.26 79.65 65.4 79.44 65.55 79.23 65.69 79.03 65.83 78.84 65.96 78.65 66.1 78.47 66.23 78.29 66.36 78.11 66.48 77.94 66.61 77.78 66.73 77.62 66.84 77.47 66.96 77.32 67.07 77.18 67.18 77.04 67.28 76.91 67.39 76.78 67.48 76.66 67.58 76.55 67.67 76.44 67.75 76.34 67.83 76.24 67.91 76.15 67.98 76.06 68.05 75.98 68.12 75.91 68.18 75.84 68.23 75.78 68.29 75.73 68.33 75.68 68.37 75.63 68.41 75.6 68.44 75.57 68.47 75.54 68.49 75.53 68.5 75.51 68.51 75.51 68.52 75.51 68.52 75.52 68.51 75.53 68.5 75.55 68.48 75.58 68.46 75.61 68.43 75.65 68.39 75.69 68.35 75.74 68.3 75.8 68.25 75.86 68.19 75.93 68.12 76.01 68.05 76.09 67.97 76.18 67.88 76.28 67.79 76.38 67.69 76.48 67.58 76.59 67.47 76.71 67.35 76.84 67.22 76.97 67.09 77.1 66.95 77.25 66.81 77.39 66.65 77.55 66.49 77.7 66.32 77.87 66.15 78.04 65.97 78.21 65.78 78.39 65.59 78.57 65.39 78.76 65.18 78.96 64.96 79.16 64.74 79.36 64.51 79.57 64.27 79.79 64.03 80 63.78 80.23 63.52 80.45 63.26 80.68 62.99 80.92 62.72 81.16 62.43 81.4 62.14 81.65 61.85 81.9 61.55 82.15 61.24 82.41 60.92 82.67 60.6 82.93 60.27 83.2 59.94 83.47 59.6 83.74 59.26 84.01 58.91 84.29 58.55 84.57 58.19 84.85 57.82 85.13 57.45 85.41 57.07 85.7 56.69 85.99 56.3 86.28 55.91 86.56 55.52 86.86 55.11 87.15 54.71 87.44 54.3 87.73 53.88 88.03 53.47 88.32 53.05 88.61 52.62 88.91 52.19 89.2 51.76 89.49 51.33 89.78 50.89 90.08 50.45 90.37 50 90.66 49.56 90.94 49.11 91.23 48.66 91.52 48.21 91.8 47.76 92.08 47.31 92.36 46.85 92.64 46.4 92.91 45.94 93.18 45.48 93.45 45.03 93.72 44.57 93.98 44.11 94.24 43.66 94.5 43.2 94.75 42.75 95 42.29 95.25 41.84 95.49 41.39 95.73 40.94 95.96 40.5 96.19 40.05 96.41 39.61 96.63 39.18 96.85 38.74 97.06 38.31 97.26 37.88 97.46 37.46 97.65 37.04 97.84 36.62 98.03 36.21 98.2 35.8 98.37 35.4 98.54 35.01 98.7 34.62 98.85 34.23 99 33.85 99.14 33.48 99.27 33.12 99.4 32.76 99.52 32.41 99.64 32.06 99.74 31.73 99.84 31.4 99.94 31.08 100.03 30.77 100.1 30.46 100.18 30.16 100.24 29.88 100.3 29.6 100.35 29.33 100.39 29.07 100.43 28.82 100.46 28.59 100.48 28.36 100.5 28.14 100.5 27.93 100.5 27.73 100.5 27.54 100.48 27.37 100.46 27.2 100.43 27.05 100.39 26.9 100.34 26.77 100.29 26.65 100.23 26.55 100.16 26.45 100.09 26.37 100.01 26.3 99.92 26.24 99.82 26.19 99.72 26.16 99.61 26.13 99.49 26.12 99.37 26.13 99.24 26.14 99.1 26.17 98.96 26.21 98.81 26.27 98.65 26.34 98.48 26.42 98.32 26.51 98.14 26.62 97.96 26.74 97.77 26.87 97.58 27.01 97.38 27.17 97.17 27.34 96.96 27.52 96.75 27.72 96.53 27.93 96.3 28.15 96.07 28.38 95.83 28.63 95.59 28.89 95.35 29.16 95.1 29.44 94.84 29.73 94.59 30.04 94.33 30.36 94.06 30.68 93.79 31.02 93.52 31.38 93.25 31.74 92.97 32.11 92.69 32.49 92.41 32.88 92.12 33.29 91.83 33.7 91.55 34.13 91.25 34.56 90.96 35 90.67 35.45 90.37 35.91 90.07 36.37 89.77 36.85 89.47 37.33 89.17 37.82 88.88 38.32 88.57 38.82 88.27 39.33 87.97 39.85 87.67 40.37 87.37 40.9 87.08 41.43 86.78 41.97 86.48 42.51 86.19 43.05 85.89 43.6 85.6 44.16 85.31 44.71 85.02 45.27 84.73 45.83 84.45 46.39 84.17 46.95 83.89 47.52 83.61 48.08 83.33 48.65 83.06 49.21 82.8 49.78 82.53 50.34 82.27 50.9 82.01 51.46 81.76 52.02 81.51 52.57 81.26 53.12 81.02 53.67 80.78 54.22 80.55 54.76 80.32 55.29 80.1 55.82 79.88 56.34 79.66 56.86 79.45 57.37 79.25 57.88 79.05 58.37 78.86 58.86 78.67 59.34 78.48 59.82 78.3 60.28 78.13 60.74 77.96 61.18 77.8 61.62 77.64 62.04 77.49 62.46 77.34 62.86 77.2 63.26 77.07 63.64 76.94 64 76.82 64.36 76.7 64.7 76.59 65.03 76.48 65.35 76.38 65.66 76.29 65.94 76.2 66.22 76.11 66.48 76.04 66.73 75.97 66.96 75.9 67.17 75.84 67.38 75.78 67.56 75.73 67.73 75.69 67.88 75.64 68.02 75.61 68.14 75.58 68.25 75.56 68.33 75.54 68.4 75.52 68.46 75.51 68.5 75.51 68.51 75.51 68.52 75.51 68.5 75.52 68.47 75.53 68.42 75.55 68.35 75.57 68.27 75.59 68.16 75.62 68.04 75.66 67.91 75.69 67.75 75.73 67.58 75.77 67.39 75.82 67.18 75.87 66.96 75.92 66.72 75.97 66.46 76.03 66.18 76.09 65.89 76.15 65.58 76.22 65.26 76.28 64.91 76.35 64.56 76.42 64.18 76.49 63.79 76.56 63.39 76.64 62.97 76.71 62.54 76.79 62.09 76.86 61.62 76.94 61.15 77.02 60.65 77.09 60.15 77.17 59.63 77.25 59.1 77.33 58.56 77.41 58 77.48 57.44 77.56 56.86 77.64 56.27 77.71 55.67 77.79 55.06 77.86 54.44 77.94 53.81 78 53.17 78.08 52.53 78.14 51.87 78.21 51.21 78.27 50.54 78.33 49.87 78.39 49.19 78.45 48.5 78.51 47.81 78.56 47.11 78.61 46.41 78.66 45.7 78.71 45 78.75 44.29 78.79 43.58 78.83 42.86 78.86 42.15 78.89 41.43 78.92 40.72 78.94 40 78.97 39.29 78.98 38.58 79 37.87 79.01 37.16 79.02 36.46 79.02 35.76 79.02 35.06 79.02 34.37 79.01 33.69 79 33.01 78.99 32.33 78.97 31.67 78.95 31.01 78.93 30.36 78.9 29.71 78.87 29.08 78.83 28.45 78.8 27.84 78.75 27.23 78.71 26.64 78.66 26.05 78.61 25.48 78.55 24.92 78.5 24.38 78.43 23.84 78.37 23.32 78.3 22.81 78.23 22.32 78.16 21.84 78.08 21.38 78 20.93 77.92 20.5 77.83 20.08 77.75 19.68 77.66 19.29 77.56 18.93 77.47 18.57 77.37 18.24 77.27 17.93 77.17 17.63 77.07 17.35 76.97 17.09 76.86 16.84 76.75 16.62 76.64 16.41 76.53 16.23 76.42 16.06 76.31 15.91 76.2 15.78 76.08 15.67 75.97 15.58 75.85 15.51 75.74 15.46 75.62 15.43 75.51 15.42 75.39 15.43 75.27 15.46 75.16 15.51 75.04 15.58 74.93 15.67 74.81 15.78 74.7 15.9 74.59 16.05 74.48 16.22 74.37 16.4 74.26 16.61 74.15 16.83 74.05 17.07 73.94 17.33 73.84 17.61 73.74 17.91 73.64 18.22 73.54 18.56 73.45 18.91 73.36 19.27 73.27 19.66 73.18 20.06 73.09 20.47 73.01 20.91 72.93 21.35 72.85 21.82 72.78 22.3 72.71 22.79 72.64 23.3 72.58 23.82 72.51 24.35 72.45 24.89 72.4 25.45 72.35 26.03 72.3 26.61 72.25 27.2 72.21 27.81 72.17 28.42 72.14 29.05 72.11 29.68 72.08 30.32 72.06 30.98 72.03 31.63 72.02 32.3 72 32.97 72 33.65 71.99 34.34 71.99 35.03 71.99 35.73 71.99 36.43 72 37.13 72.01 37.84 72.02 38.55 72.04 39.26 72.06 39.97 72.09 40.69 72.12 41.4 72.15 42.12 72.18 42.83 72.22 43.55 72.26 44.26 72.3 44.97 72.35 45.68 72.39 46.38 72.44 47.08 72.5 47.78 72.55 48.47 72.61 49.16 72.67 49.84 72.73 50.52 72.8 51.19 72.86 51.85 72.93 52.5 73 53.15 73.07 53.79 73.14 54.42 73.22 55.04 73.29 55.65 73.37 56.25 73.45 56.84 73.52 57.42 73.6 57.98 73.68 58.54 73.76 59.09 73.83 59.62 73.91 60.13 73.99 60.64 74.07 61.13 74.15 61.61 74.22 62.08 74.3 62.52 74.37 62.96 74.45 63.38 74.52 63.78 74.59 64.17 74.66 64.55 74.73 64.91 74.8 65.25 74.86 65.58 74.92 65.88 74.98 66.18 75.04 66.45 75.09 66.71 75.14 66.95 75.19 67.18 75.24 67.39 75.28 67.58 75.32 67.75 75.36 67.9 75.39 68.04 75.42 68.16 75.44 68.27 75.46 68.35 75.48 68.42 75.49 68.47 75.5 68.5 75.5 68.52 75.5 68.51 75.5 68.5 75.49 68.46 75.47 68.4 75.45 68.33 75.43 68.25 75.4 68.14 75.37 68.02 75.33 67.88 75.28 67.73 75.23 67.56 75.17 67.37 75.11 67.17 75.05 66.96 74.97 66.72 74.89 66.48 74.81 66.22 74.72 65.94 74.63 65.65 74.53 65.34 74.42 65.03 74.31 64.69 74.19 64.35 74.07 63.99 73.94 63.62 73.8 63.24 73.66 62.85 73.52 62.44 73.36 62.03 73.21 61.6 73.04 61.16 72.88 60.72 72.7 60.26 72.52 59.8 72.34 59.32 72.15 58.84 71.95 58.35 71.75 57.85 71.55 57.34 71.34 56.83 71.12 56.31 70.9 55.78 70.68 55.25 70.45 54.72 70.21 54.18 69.97 53.63 69.73 53.08 69.49 52.53 69.24 51.97 68.98 51.41 68.72 50.85 68.46 50.29 68.19 49.72 67.93 49.16 67.66 48.59 67.38 48.02 67.1 47.46 66.82 46.89 66.54 46.33 66.25 45.76 65.96 45.2 65.67 44.64 65.38 44.08 65.09 43.53 64.79 42.98 64.5 42.43 64.2 41.88 63.9 41.34 63.6 40.81 63.3 40.28 63 39.76 62.7 39.24 62.4 38.73 62.09 38.22 61.79 37.72 61.49 37.23 61.19 36.75 60.89 36.27 60.59 35.8 60.3 35.34 60 34.89 59.71 34.45 59.41 34.01 59.12 33.59 58.83 33.17 58.55 32.77 58.26 32.37 57.98 31.99 57.7 31.61 57.43 31.25 57.16 30.9 56.89 30.55 56.62 30.23 56.36 29.91 56.1 29.6 55.84 29.3 55.59 29.02 55.35 28.75 55.11 28.49 54.87 28.24 54.64 28.01 54.41 27.79 54.19 27.58 53.97 27.38 53.76 27.19 53.56 27.02 53.36 26.86 53.16 26.72 52.97 26.59 52.79 26.46 52.61 26.36 52.44 26.26 52.28 26.18 52.12 26.11 51.97 26.06 51.82 26.02 51.69 25.99 51.55 25.97 51.43 25.97 51.31 25.98 51.2 26 51.1 26.03 51 26.08 50.91 26.14 50.83 26.21 50.76 26.29 50.69 26.39 50.63 26.5 50.57 26.61 50.53 26.75 50.49 26.89 50.46 27.04 50.44 27.21 50.42 27.39 50.41 27.57 50.41 27.77 50.42 27.98 50.43 28.2 50.45 28.43 50.48 28.67 50.52 28.92 50.56 29.18 50.61 29.45 50.67 29.73 50.74 30.01 50.81 30.31 50.89 30.62 50.98 30.93 51.07 31.25 51.17 31.58 51.28 31.92 51.39 32.26 51.52 32.62 51.64 32.98 51.78 33.34 51.92 33.72 52.07 34.09 52.22 34.48 52.38 34.87 52.55 35.27 52.72 35.67 52.9 36.08 53.08 36.49 53.27 36.91 53.46 37.33 53.66 37.76 53.87 38.19 54.08 38.62 54.29 39.05 54.51 39.49 54.74 39.94 54.97 40.38 55.2 40.83 55.44 41.28 55.68 41.73 55.93 42.19 56.18 42.64 56.43 43.1 56.69 43.55 56.95 44.01 57.22 44.47 57.48 44.93 57.75 45.39 58.03 45.84 58.3 46.3 58.58 46.76 58.86 47.22 59.14 47.67 59.43 48.13 59.71 48.58 60 49.03 60.29 49.48 60.58 49.93 60.87 50.37 61.17 50.81 61.46 51.25 61.75 51.69 62.05 52.12 62.34 52.55 62.64 52.98 62.93 53.4 63.23 53.82 63.52 54.24 63.81 54.65 64.11 55.06 64.4 55.46 64.69 55.86 64.98 56.25 65.27 56.64 65.56 57.02 65.84 57.4 66.13 57.78 66.41 58.15 66.69 58.51 66.96 58.87 67.24 59.22 67.51 59.56 67.78 59.91 68.05 60.24 68.31 60.57 68.57 60.89 68.83 61.21 69.09 61.52 69.34 61.82 69.58 62.12 69.83 62.41 70.07 62.69 70.31 62.97 70.54 63.24 70.77 63.5 70.99 63.76 71.21 64.01 71.42 64.26 71.63 64.49 71.84 64.72 72.04 64.95 72.23 65.16 72.42 65.37 72.61 65.57 72.79 65.77 72.97 65.96 73.14 66.14 73.3 66.31 73.46 66.48 73.61 66.64 73.76 66.8 73.9 66.94 74.04 67.08 74.17 67.22 74.29 67.35 74.41 67.47 74.53 67.58 74.63 67.69 74.73 67.78 74.83 67.88 74.92 67.97 75 68.05 75.08 68.12 75.15 68.19 75.21 68.25 75.27 68.3 75.32 68.35 75.36 68.39 75.4 68.43 75.44 68.46 75.46 68.48 75.48 68.5 75.5 68.51 75.5 68.52 75.5 68.52 75.5 68.51 75.49 68.5 75.47 68.49 75.44 68.47 75.41 68.44 75.38 68.41 75.33 68.37 75.28 68.33 75.23 68.28 75.17 68.23 75.1 68.18 75.03 68.12 74.95 68.05 74.86 67.98 74.77 67.91 74.67 67.83 74.57 67.75 74.46 67.66 74.34 67.57 74.22 67.48 74.1 67.38 73.96 67.28 73.83 67.17 73.68 67.06 73.53 66.95 73.38 66.84 73.22 66.72 73.06 66.6 72.89 66.47 72.71 66.35 72.53 66.22 72.34 66.08 72.15 65.95 71.96 65.81 71.76 65.67 71.56 65.53 71.35 65.39 71.13 65.24 70.91 65.09 70.69 64.94 70.47 64.79 70.23 64.64 70 64.48 69.76 64.33 69.52 64.17 69.27 64.01 69.02 63.85 68.76 63.69 68.5 63.53 68.24 63.36 67.98 63.2 67.71 63.03 67.44 62.87 67.16 62.7 66.88 62.54 66.6 62.37 66.31 62.2 66.03 62.04 65.74 61.87 65.44 61.7 65.15 61.53 64.85 61.37 64.55 61.2 64.25 61.03 63.94 60.87 63.63 60.7 63.32 60.53 63.01 60.37 62.7 60.2 62.38 60.04 62.07 59.88 61.75 59.71 61.43 59.55 61.1 59.39 60.78 59.23 60.46 59.07 60.13 58.91 59.8 58.76 59.48 58.6 59.15 58.45 58.82 58.3 58.49 58.14 58.16 57.99 57.83 57.84 57.49 57.7 57.16 57.55 56.83 57.41 56.49 57.27 56.16 57.12 55.82 56.98 55.49 56.85 55.15 56.71 54.82 56.58 54.48 56.45 54.15 56.32 53.82 56.19 53.48 56.06 53.15 55.94 52.82 55.81 52.48 55.69 52.15 55.58 51.82 55.46 51.49 55.34 51.16 55.23 50.83 55.12 50.5 55.02 50.17 54.91 49.85 54.81 49.52 54.7 49.2 54.61 48.87 54.51 48.55 54.41 48.23 54.32 47.91 54.23 47.59 54.15 47.28 54.06 46.96 53.98 46.65 53.9 46.34 53.82 46.02 53.74 45.72 53.67 45.41 53.6 45.1 53.53 44.8 53.46 44.5 53.4 44.2 53.34 43.9 53.27 43.6 53.22 43.3 53.16 43.01 53.11 42.72 53.06 42.43 53.01 42.15 52.97 41.86 52.92 41.58 52.88 41.3 52.84 41.02 52.8 40.74 52.77 40.47 52.74 40.2 52.71 39.93 52.68 39.66 52.66 39.4 52.63 39.13 52.61 38.87 52.59 38.61 52.58 38.36 52.56 38.1 52.55 37.85 52.54 37.6 52.53 37.36 52.52 37.12 52.52 36.87 52.52 36.63 52.52 36.4 52.52 36.16 52.53 35.93 52.53 35.7 52.54 35.48 52.55 35.25 52.56 35.03 52.58 34.81 52.59 34.6 52.61 34.38 52.63 34.17 52.65 33.96 52.68 33.75 52.7 33.55 52.73 33.35 52.76 33.15 52.79 32.95 52.82 32.76 52.86 32.56 52.89 32.38 52.93 32.19 52.97 32.01 53.01 31.82 53.05 31.64 53.1 31.47 53.14 31.29 53.19 31.12 53.24 30.95 53.29 30.78 53.34 30.62 53.39 30.45 53.45 30.29 53.5 30.14 53.56 29.98 53.62 29.83 53.68 29.68 53.74 29.53 53.8 29.38 53.87 29.23 53.93 29.09 54 28.95 54.07 28.82 54.13 28.68 54.2 28.55 54.28 28.42 54.35 28.29 54.42 28.16 54.5 28.04 54.57 27.91 54.65 27.79 54.73 27.68 54.81 27.56 54.89 27.45 54.97 27.33 55.05 27.22 55.13 27.11 55.22 27.01 55.3 26.9 55.38 26.8 55.47 26.7 55.56 26.6 55.65 26.5 55.73 26.41 55.82 26.32 55.91 26.23 56.01 26.14 56.1 26.05 56.19 25.96 56.28 25.88 56.38 25.8 56.47 25.71 56.57 25.63 56.66 25.56 56.76 25.48 56.86 25.41 56.95 25.33 57.05 25.26 57.15 25.19 57.25 25.12 57.35 25.06 57.45 24.99 57.55 24.93 57.66 24.86 57.76 24.8 57.86 24.74 57.96 24.68 58.07 24.63 58.17 24.57 58.27 24.52 58.38 24.46 58.48 24.41 58.59 24.36 58.7 24.31 58.8 24.26 58.91 24.22 59.02 24.17 59.12 24.13 59.23 24.08 59.34 24.04 59.45 24 59.55 23.96 59.66 23.92 59.77 23.88 59.88 23.84 59.99 23.8 60.1 23.77 60.21 23.73 60.32 23.7 60.43 23.67 60.54 23.64 60.65 23.61 60.77 23.57 60.88 23.55 60.99 23.52 61.1 23.49 61.21 23.46 61.32 23.44 61.44 23.41 61.55 23.39 61.66 23.36 61.77 23.34 61.88 23.32 62 23.3 62.11 23.27 62.22 23.25 62.34 23.23 62.45 23.22 62.56 23.2 62.68 23.18 62.79 23.16 62.9 23.14 63.02 23.13 63.13 23.11 63.25 23.1 63.36 23.08 63.47 23.07 63.59 23.06 63.7 23.04 63.82 23.03 63.93 23.02 64.05 23.01 64.16 23 64.27 22.98 64.39 22.98 64.5 22.96 64.62 22.95 64.73 22.95 64.85 22.94 64.96 22.93 65.08 22.92 65.19 22.91 65.3 22.91 65.42 22.9 65.53 22.89 65.65 22.89 65.76 22.88 65.88 22.87 65.99 22.87 66.11 22.86 66.22 22.86 66.34 22.86 66.45 22.85 66.57 22.85 66.68 22.84 66.8 22.84 66.91 22.84 67.03 22.84 67.14 22.83 67.26 22.83 67.37 22.83 67.49 22.83 67.6 22.82 67.72 22.82 67.83 22.82 67.95 22.82 68.06 22.82 68.18 22.82 68.29 22.82 68.41 22.82 68.52 22.82 68.64 22.82 68.75 22.82 68.87 22.83 68.98 22.83 69.1 22.83 69.21 22.83 69.33 22.83 69.44 22.84 69.56 22.84 69.67 22.84 69.78 22.84 69.9 22.85 70.02 22.85 70.13 22.86 70.25 22.86 70.36 22.87 70.47 22.87 70.59 22.88 70.7 22.88 70.82 22.89 70.93 22.89 71.05 22.9 71.16 22.91 71.28 22.91 71.39 22.92 71.51 22.93 71.62 22.94 71.74 22.95 71.85 22.96 71.97 22.96 72.08 22.98 72.19 22.98 72.31 23 72.42 23.01 72.54 23.02 72.65 23.03 72.77 23.04 72.88 23.05 73 23.07 73.11 23.08 73.22 23.09 73.34 23.11 73.45 23.12 73.56 23.14 73.68 23.16 73.79 23.17 73.91 23.19 74.02 23.21 74.13 23.22 74.25 23.24 74.36 23.26 74.47 23.28 74.59 23.3 74.7 23.32 74.81 23.35 74.93 23.37 75.04 23.39 75.15 23.42 75.26 23.44 75.38 23.47 75.49 23.49 75.6 23.52 75.71 23.55 75.82 23.57 75.94 23.61 76.05 23.64 76.16 23.67 76.27 23.7 76.38 23.73 76.49 23.76 76.6 23.8 76.71 23.83 76.82 23.87 76.93 23.91 77.04 23.95 77.15 23.98 77.26 24.02 77.37 24.07 77.48 24.11 77.58 24.15 77.69 24.2 77.8 24.24 77.91 24.29 78.01 24.34 78.12 24.39 78.23 24.44 78.33 24.49 78.44 24.54 78.54 24.59 78.65 24.65 78.75 24.71 78.86 24.77 78.96 24.82 79.06 24.88 79.17 24.95 79.27 25.01 79.37 25.07 79.47 25.14 79.57 25.21 79.67 25.28 79.77 25.35 79.87 25.42 79.97 25.49 80.07 25.57 80.17 25.65 80.26 25.72 80.36 25.8 80.45 25.89 80.55 25.97 80.64 26.05 80.74 26.14 80.83 26.23 80.92 26.32 81.01 26.41 81.1 26.51 81.19 26.6 81.28 26.7 81.37 26.8 81.46 26.9 81.55 27 81.63 27.11 81.72 27.21 81.8 27.32 81.88 27.43 81.97 27.55 82.05 27.66 82.13 27.78 82.21 27.9 82.28 28.02 82.36 28.14 82.44 28.27 82.52 28.39 82.59 28.52 82.66 28.65 82.73 28.79 82.81 28.92 82.87 29.06 82.94 29.2 83.01 29.34 83.08 29.49 83.14 29.63 83.2 29.78 83.27 29.93 83.33 30.09 83.39 30.24 83.45 30.4 83.5 30.56 83.56 30.73 83.61 30.89 83.67 31.06 83.72 31.23 83.77 31.4 83.81 31.58 83.86 31.75 83.91 31.93 83.95 32.12 83.99 32.3 84.03 32.49 84.07 32.68 84.11 32.87 84.14 33.06 84.18 33.26 84.21 33.46 84.24 33.66 84.27 33.87 84.3 34.07 84.32 34.28 84.34 34.49 84.37 34.71 84.39 34.92 84.4 35.14 84.42 35.37 84.43 35.59 84.45 35.82 84.46 36.05 84.46 36.28 84.47 36.51 84.47 36.75 84.48 36.99 84.48 37.23 84.47 37.47 84.47 37.72 84.46 37.97 84.46 38.22 84.45 38.47 84.43 38.72 84.42 38.98 84.4 39.24 84.38 39.51 84.36 39.77 84.34 40.04 84.31 40.31 84.28 40.58 84.25 40.85 84.22 41.13 84.19 41.41 84.15 41.69 84.11 41.97 84.07 42.25 84.03 42.54 83.98 42.83 83.93 43.12 83.88 43.41 83.83 43.7 83.78 44 83.72 44.3 83.66 44.6 83.6 44.9 83.53 45.2 83.47 45.51 83.4 45.81 83.32 46.12 83.25 46.43 83.17 46.74 83.1 47.06 83.02 47.37 82.93 47.69 82.85 48.01 82.76 48.33 82.67 48.65 82.58 48.97 82.48 49.29 82.39 49.61 82.29 49.94 82.19 50.26 82.08 50.59 81.98 50.92 81.87 51.24 81.76 51.57 81.65 51.9 81.54 52.23 81.42 52.57 81.3 52.9 81.18 53.23 81.06 53.56 80.94 53.9 80.81 54.23 80.68 54.56 80.55 54.9 80.42 55.23 80.29 55.56 80.15 55.9 80.02 56.23 79.88 56.56 79.73 56.9 79.59 57.23 79.45 57.56 79.3 57.89 79.16 58.22 79.01 58.55 78.86 58.88 78.71 59.21 78.56 59.54 78.4 59.87 78.25 60.19 78.09 60.52 77.93 60.84 77.78 61.16 77.62 61.48 77.45 61.8 77.29 62.12 77.13 62.44 76.97 62.75 76.81 63.06 76.64 63.37 76.48 63.68 76.31 63.99 76.15 64.29 75.98 64.59 75.81 64.89 75.65 65.19 75.48 65.48 75.31 65.78 75.15 66.06 74.98 66.35 74.81 66.64 74.65 66.92 74.48 67.19 74.31 67.47 74.15 67.74 73.98 68.01 73.82 68.27 73.66 68.53 73.5 68.79 73.33 69.05 73.17 69.3 73.01 69.54 72.86 69.78 72.7 70.02 72.54 70.26 72.39 70.49 72.23 70.71 72.08 70.93 71.94 71.15 71.79 71.36 71.64 71.57 71.5 71.78 71.36 71.97 71.22 72.17 71.08 72.36 70.95 72.54 70.81 72.72 70.69 72.9 70.56 73.07 70.44 73.23 70.31 73.39 70.2 73.54 70.08 73.69 69.97 73.83 69.86 73.97 69.76 74.1 69.66 74.23 69.56 74.35 69.47 74.46 69.38 74.57 69.29 74.67 69.21 74.77 69.13 74.86 69.06 74.95 68.99 75.03 68.92 75.1 68.86 75.17 68.81 75.23 68.76 75.29 68.71 75.33 68.67 75.38 68.63 75.41 68.6 75.44 68.58 75.47 68.55 75.49 68.54 75.5 68.53 75.5 68.52 75.5 68.52 75.5 68.53 75.48 68.54 75.46 68.56 75.44 68.58 75.4 68.61 75.36 68.65 75.32 68.69 75.27 68.74 75.21 68.8 75.15 68.86 75.08 68.92 75 69 74.92 69.08 74.83 69.16 74.74 69.25 74.64 69.35 74.53 69.46 74.42 69.57 74.3 69.69 74.17 69.82 74.04 69.95 73.91 70.09 73.77 70.24 73.62 70.39 73.47 70.55 73.31 70.72 73.14 70.89 72.97 71.07 72.8 71.26 72.62 71.46 72.44 71.66 72.25 71.87 72.05 72.08 71.85 72.31 71.65 72.53 71.44 72.77 71.22 73.01 71.01 73.26 70.78 73.52 70.56 73.78 70.33 74.05 70.09 74.33 69.85 74.61 69.61 74.9 69.36 75.2 69.11 75.5 68.86 75.81 68.6 76.12 68.34 76.44 68.08 76.77 67.81 77.1 67.54 77.44 67.27 77.79 67 78.14 66.72 78.49 66.44 78.85 66.16 79.22 65.88 79.59 65.6 79.97 65.31 80.35 65.02 80.74 64.73 81.13 64.44 81.53 64.15 81.93 63.86 82.34 63.57 82.75 63.28 83.16 62.98 83.58 62.69 84 62.4 84.42 62.1 84.85 61.81 85.28 61.52 85.72 61.22 86.16 60.93 86.6 60.64 87.04 60.35 87.48 60.06 87.93 59.78 88.38 59.49 88.83 59.21 89.28 58.93 89.74 58.65 90.19 58.37 90.65 58.1 91.1 57.83 91.56 57.56 92.02 57.29 92.47 57.03 92.93 56.77 93.39 56.51 93.84 56.26 94.3 56.01 94.75 55.76 95.2 55.52 95.65 55.28 96.1 55.05 96.55 54.82 96.99 54.6 97.43 54.38 97.87 54.16 98.3 53.95 98.73 53.75 99.16 53.55 99.58 53.36 100 53.17 100.42 52.99 100.83 52.81 101.24 52.64 101.64 52.47 102.03 52.31 102.42 52.16 102.81 52.01 103.19 51.87 103.56 51.74 103.92 51.61 104.28 51.49 104.63 51.38 104.98 51.27 105.31 51.17 105.64 51.08 105.96 50.99 106.28 50.91 106.58 50.84 106.87 50.77 107.16 50.71 107.44 50.66 107.71 50.62 107.97 50.58 108.22 50.55 108.45 50.53 108.68 50.52 108.9 50.51 109.11 50.51 109.31 50.52 109.5 50.53 109.67 50.56 109.84 50.59 109.99 50.63 110.13 50.67 110.26 50.72 110.38 50.78 110.49 50.85 110.59 50.92 110.67 51.01 110.74 51.1 110.8 51.19 110.85 51.3 110.88 51.41 110.9 51.52 110.91 51.65 110.91 51.78 110.89 51.91 110.86 52.06 110.82 52.21 110.77 52.37 110.7 52.53 110.62 52.7 110.53 52.88 110.42 53.06 110.3 53.24 110.17 53.44 110.02 53.64 109.86 53.84 109.69 54.05 109.51 54.27 109.31 54.49 109.11 54.72 108.89 54.95 108.65 55.18 108.41 55.42 108.15 55.67 107.88 55.92 107.6 56.17 107.3 56.43 107 56.69 106.68 56.95 106.35 57.22 106.01 57.49 105.66 57.77 105.3 58.04 104.92 58.33 104.54 58.61 104.15 58.89 103.75 59.18 103.33 59.47 102.91 59.76 102.48 60.05 102.04 60.35 101.59 60.65 101.13 60.94 100.66 61.24 100.19 61.54 99.7 61.84 99.22 62.14 98.72 62.44 98.21 62.74 97.7 63.04 97.19 63.34 96.67 63.64 96.14 63.94 95.61 64.24 95.07 64.53 94.53 64.83 93.98 65.12 93.43 65.42 92.88 65.71 92.33 66 91.77 66.28 91.21 66.57 90.64 66.85 90.08 67.13 89.52 67.41 88.95 67.68 88.39 67.95 87.82 68.22 87.26 68.48 86.7 68.74 86.14 69 85.58 69.25 85.02 69.5 84.47 69.75 83.91 69.99 83.37 70.23 82.82 70.46 82.28 70.69 81.75 70.92 81.22 71.13 80.7 71.35 80.18 71.56 79.67 71.76 79.16 71.96 78.67 72.16 78.18 72.35 77.69 72.53 77.22 72.71 76.76 72.88 76.3 73.05 75.86 73.21 75.42 73.37 75 73.52 74.58 73.67 74.18 73.81 73.79 73.94 73.41 74.07 73.04 74.19 72.68 74.31 72.34 74.42 72.01 74.53 71.69 74.63 71.39 74.72 71.1 74.81 70.82 74.9 70.56 74.97 70.31 75.05 70.08 75.11 69.87 75.17 69.67 75.23 69.48 75.28 69.31 75.33 69.16 75.37 69.02 75.4 68.9 75.43 68.8 75.45 68.71 75.47 68.64 75.49 68.58 75.5 68.55 75.5 68.53 75.5 68.53 75.5 68.54 75.49 68.57 75.48 68.62 75.46 68.69 75.44 68.78 75.42 68.88 75.39 69 75.36 69.14 75.32 69.29 75.28 69.46 75.24 69.65 75.19 69.86 75.14 70.08 75.09 70.33 75.04 70.58 74.98 70.86 74.92 71.15 74.86 71.46 74.8 71.78 74.73 72.13 74.66 72.48 74.59 72.86 74.52 73.25 74.45 73.65 74.38 74.07 74.3 74.5 74.23 74.95 74.15 75.42 74.07 75.89 74 76.38 73.92 76.89 73.84 77.41 73.76 77.94 73.68 78.48 73.61 79.03 73.53 79.6 73.45 80.18 73.37 80.77 73.3 81.37 73.22 81.98 73.15 82.6 73.08 83.22 73.01 83.86 72.94 84.51 72.87 85.16 72.8 85.82 72.74 86.49 72.68 87.17 72.62 87.85 72.56 88.53 72.5 89.22 72.45 89.92 72.4 90.62 72.35 91.33 72.31 92.03 72.26 92.74 72.22 93.45 72.19 94.17 72.15 94.88 72.12 95.6 72.09 96.31 72.07 97.02 72.05 97.74 72.03 98.45 72.02 99.16 72 99.86 72 100.57 71.99 101.27 71.99 101.96 71.99 102.65 72 103.34 72.01 104.02 72.02 104.69 72.04 105.36 72.06 106.02 72.08 106.67 72.11 107.31 72.14 107.94 72.18 108.57 72.22 109.18 72.26 109.79 72.3 110.38 72.35 110.97 72.4 111.54 72.46 112.1 72.52 112.64 72.58 113.18 72.64 113.7 72.71 114.2 72.78 114.7 72.86 115.18 72.93 115.64 73.01 116.09 73.09 116.52 73.18 116.94 73.27 117.34 73.36 117.72 73.45 118.09 73.54 118.44 73.64 118.78 73.74 119.09 73.84 119.39 73.94 119.67 74.05 119.93 74.15 120.17 74.26 120.4 74.37 120.6 74.48 120.79 74.59 120.96 74.7 121.1 74.82 121.23 74.93 121.34 75.04 121.43 75.16 121.5 75.27 121.55 75.39 121.58 75.51 121.59 75.62 121.58 75.74 121.55 75.85 121.5 75.97 121.44 76.08 121.35 76.2 121.24 76.31 121.11 76.42 120.96 76.53 120.8 76.64 120.61 76.75 120.41 76.86 120.19 76.96 119.94 77.07 119.68 77.17 119.4 77.27 119.11 77.37 118.79 77.47 118.46 77.56 118.11 77.66 117.74 77.75 117.36 77.83 116.96 77.92 116.54 78 116.11 78.08 115.66 78.16 115.2 78.23 114.72 78.3 114.23 78.37 113.72 78.43 113.2 78.5 112.67 78.56 112.13 78.61 111.57 78.66 111 78.71 110.41 78.76 109.82 78.8 109.22 78.84 108.6 78.87 107.98 78.9 107.34 78.93 106.7 78.95 106.05 78.97 105.39 78.99 104.72 79 104.05 79.02 103.37 79.02 102.69 79.02 102 79.02 101.3 79.02 100.6 79.01 99.9 79 99.19 78.98 98.48 78.97 97.77 78.95 97.06 78.92 96.34 78.89 95.63 78.86 94.91 78.83 94.2 78.79 93.48 78.75 92.77 78.71 92.06 78.66 91.36 78.62 90.65 78.56 89.95 78.51 89.25 78.46 88.56 78.4 87.87 78.34 87.19 78.28 86.52 78.21 85.85 78.14 85.19 78.08 84.53 78.01 83.89 77.94 83.25 77.86 82.62 77.79 82 77.72 81.39 77.64 80.79 77.56 80.2 77.49 79.62 77.41 79.05 77.33 78.5 77.25 77.95 77.17 77.42 77.1 76.9 77.02 76.4 76.94 75.91 76.86 75.43 76.79 74.96 76.71 74.52 76.64 74.08 76.56 73.66 76.49 73.25 76.42 72.86 76.35 72.49 76.28 72.13 76.22 71.79 76.15 71.47 76.09 71.16 76.03 70.86 75.97 70.59 75.92 70.33 75.87 70.09 75.82 69.86 75.77 69.66 75.73 69.47 75.69 69.29 75.66 69.14 75.62 69 75.59 68.88 75.57 68.78 75.55 68.69 75.53 68.62 75.52 68.57 75.51 68.54 75.51 68.53 75.51 68.53 75.51 68.55 75.52 68.58 75.54 68.64 75.56 68.71 75.58 68.8 75.61 68.9 75.65 69.02 75.69 69.16 75.73 69.31 75.78 69.48 75.84 69.67 75.9 69.87 75.97 70.09 76.04 70.32 76.12 70.56 76.2 70.83 76.29 71.1 76.38 71.39 76.48 71.7 76.59 72.02 76.7 72.35 76.82 72.69 76.94 73.05 77.07 73.42 77.21 73.8 77.35 74.19 77.49 74.6 77.65 75.01 77.8 75.44 77.97 75.88 78.14 76.32 78.31 76.78 78.49 77.24 78.67 77.72 78.86 78.2 79.06 78.69 79.26 79.19 79.46 79.7 79.67 80.21 79.89 80.73 80.11 81.25 80.33 81.78 80.56 82.32 80.8 82.86 81.03 83.41 81.28 83.96 81.52 84.51 81.77 85.06 82.03 85.62 82.29 86.19 82.55 86.75 82.81 87.31 83.08 87.88 83.35 88.44 83.63 89.01 83.91 89.58 84.19 90.14 84.47 90.71 84.76 91.27 85.04 91.84 85.33 92.4 85.63 92.95 85.92 93.51 86.21 94.06 86.51 94.61 86.81 95.15 87.11 95.69 87.41 96.22 87.71 96.75 88.01 97.28 88.31 97.8 88.61 98.31 88.91 98.81 89.21 99.31 89.52 99.8 89.81 100.29 90.11 100.76 90.41 101.23 90.71 101.69 91.01 102.14 91.3 102.59 91.59 103.02 91.88 103.45 92.17 103.86 92.46 104.27 92.74 104.66 93.03 105.05 93.3 105.42 93.58 105.78 93.85 106.14 94.12 106.48 94.39 106.81 94.65 107.13 94.91 107.43 95.16 107.73 95.41 108.01 95.66 108.28 95.9 108.54 96.13 108.79 96.37 109.02 96.59 109.25 96.81 109.46 97.03 109.65 97.24 109.84 97.45 110.01 97.65 110.17 97.84 110.31 98.03 110.45 98.22 110.57 98.39 110.67 98.56 110.77 98.73 110.85 98.89 110.92 99.04 110.97 99.18 111.02 99.32 111.04 99.45 111.06 99.58 111.06 99.69 111.06 99.8 111.03 99.91 111 100 110.95 100.09 110.9 100.18 110.82 100.25 110.74 100.32 110.64 100.38 110.54 100.43 110.42 100.48 110.29 100.52 110.14 100.55 109.99 100.57 109.83 100.58 109.65 100.59 109.46 100.59 109.26 100.59 109.05 100.57 108.83 100.55 108.6 100.52 108.36 100.49 108.11 100.44 107.86 100.39 107.59 100.33 107.31 100.27 107.02 100.2 106.72 100.12 106.42 100.03 106.11 99.94 105.78 99.83 105.45 99.73 105.12 99.61 104.77 99.49 104.42 99.36 104.06 99.23 103.69 99.09 103.32 98.94 102.94 98.79 102.56 98.63 102.16 98.46 101.77 98.29 101.36 98.11 100.96 97.93 100.55 97.74 100.13 97.55 99.71 97.34 99.28 97.14 98.85 96.93 98.42 96.71 97.98 96.49 97.54 96.27 97.1 96.04 96.66 95.81 96.21 95.57 95.76 95.33 95.31 95.08 94.85 94.83 94.4 94.57 93.94 94.32 93.48 94.06 93.03 93.79 92.57 93.52 92.11 93.25 91.65 92.98 91.19 92.71 90.73 92.43 90.28 92.15 89.82 91.86 89.37 91.58 88.91 91.3 88.46 91.01 88.01 90.72 87.56 90.43 87.11 90.14 86.67 89.84 86.23 89.55 85.79 89.26 85.35 88.96 84.92 88.67 84.49 88.37 84.06 88.08 83.64 87.78 83.22 87.49 82.8 87.19 82.39 86.9 81.98 86.61 81.58 86.32 81.18 86.03 80.79 85.74 80.4 85.45 80.02 85.17 79.64 84.89 79.26 84.6 78.89 84.32 78.53 84.05 78.17 83.77 77.82 83.5 77.48 83.23 77.14 82.96 76.8 82.7 76.47 82.44 76.15 82.18 75.83 81.92 75.53 81.67 75.22 81.42 74.92 81.18 74.63 80.94 74.35 80.7 74.07 80.47 73.8 80.25 73.54 80.02 73.28 79.8 73.03 79.59 72.79 79.38 72.55 79.17 72.32 78.97 72.1 78.78 71.88 78.59 71.67 78.4 71.47 78.22 71.27 78.05 71.08 77.88 70.9 77.71 70.73 77.55 70.56 77.4 70.4 77.25 70.24 77.11 70.1 76.97 69.96 76.84 69.82 76.72 69.7 76.6 69.58 76.49 69.46 76.38 69.36 76.28 69.26 76.18 69.16 76.09 69.08 76.01 69 75.94 68.92 75.86 68.86 75.8 68.8 75.74 68.74 75.69 68.69 75.65 68.65 75.61 68.61 75.58 68.58 75.55 68.56 75.53 68.54 75.52 68.53 75.51 68.52 75.51 68.52 75.51 68.53 75.53 68.54 75.54 68.55 75.57 68.58 75.6 68.6 75.64 68.63 75.68 68.67 75.73 68.71 75.78 68.76 75.84 68.81 75.91 68.86 75.98 68.92 76.06 68.99 76.15 69.06 76.24 69.13 76.34 69.21 76.44 69.3 76.55 69.38 76.67 69.47 76.79 69.56 76.92 69.66 77.05 69.77 77.19 69.87 77.33 69.98 77.48 70.09 77.63 70.2 77.79 70.32 77.96 70.44 78.13 70.57 78.3 70.7 78.48 70.83 78.67 70.96 78.86 71.09 79.05 71.23 79.25 71.37 79.46 71.51 79.67 71.66 79.88 71.8 80.1 71.95 80.32 72.1 80.55 72.25 80.78 72.41 81.01 72.56 81.25 72.72 81.5 72.87 81.74 73.03 81.99 73.19 82.25 73.35 82.51 73.52 82.77 73.68 83.03 73.84 83.3 74.01 83.58 74.17 83.85 74.34 84.13 74.5 84.41 74.67 84.7 74.84 84.98 75.01 85.28 75.17 85.57 75.34 85.86 75.51 86.16 75.67 86.46 75.84 86.77 76.01 87.07 76.18 87.38 76.34 87.69 76.51 88 76.67 88.31 76.84 88.63 77 88.94 77.17 89.26 77.33 89.58 77.49 89.91 77.65 90.23 77.81 90.55 77.97 90.88 78.13 91.21 78.28 91.53 78.44 91.86 78.59 92.19 78.75 92.52 78.9 92.85 79.05 93.19 79.2 93.52 79.34 93.85 79.49 94.19 79.63 94.52 79.78 94.85 79.92 95.19 80.06 95.52 80.19 95.86 80.33 96.19 80.46 96.53 80.6 96.86 80.73 97.19 80.85 97.53 80.98 97.86 81.11 98.19 81.23 98.53 81.35 98.86 81.47 99.19 81.58 99.52 81.7 99.85 81.81 100.18 81.92 100.51 82.03 100.84 82.13 101.16 82.23 101.49 82.34 101.81 82.44 102.14 82.53 102.46 82.63 102.78 82.72 103.1 82.81 103.42 82.89 103.73 82.98 104.05 83.06 104.36 83.14 104.67 83.22 104.98 83.3 105.29 83.37 105.6 83.44 105.91 83.51 106.21 83.58 106.51 83.64 106.81 83.71 107.11 83.77 107.41 83.82 107.7 83.88 108 83.93 108.29 83.98 108.58 84.03 108.86 84.08 109.15 84.12 109.43 84.16 109.71 84.2 109.99 84.24 110.26 84.27 110.54 84.3 110.81 84.33 111.08 84.36 111.35 84.39 111.61 84.41 111.87 84.43 112.14 84.45 112.39 84.46 112.65 84.48 112.9 84.49 113.15 84.5 113.4 84.51 113.65 84.52 113.89 84.52 114.13 84.52 114.37 84.52 114.61 84.52 114.84 84.51 115.07 84.51 115.3 84.5 115.53 84.49 115.75 84.48 115.97 84.46 116.19 84.45 116.41 84.43 116.62 84.41 116.83 84.39 117.04 84.36 117.25 84.34 117.45 84.31 117.66 84.28 117.86 84.25 118.05 84.22 118.25 84.18 118.44 84.15 118.63 84.11 118.81 84.07 119 84.03 119.18 83.99 119.36 83.94 119.54 83.9 119.71 83.85 119.88 83.8 120.05 83.75 120.22 83.7 120.39 83.65 120.55 83.59 120.71 83.54 120.87 83.48 121.02 83.42 121.18 83.36 121.33 83.3 121.47 83.24 121.62 83.17 121.77 83.11 121.91 83.04 122.05 82.97 122.19 82.9 122.32 82.83 122.45 82.76 122.58 82.69 122.71 82.62 122.84 82.54 122.96 82.47 123.09 82.39 123.21 82.31 123.32 82.23 123.44 82.15 123.56 82.07 123.67 81.99 123.78 81.91 123.89 81.82 123.99 81.74 124.09 81.65 124.2 81.57 124.3 81.48 124.4 81.39 124.49 81.3 124.59 81.22 124.68 81.12 124.77 81.03 124.86 80.94 124.95 80.85 125.03 80.76 125.12 80.66 125.2 80.57 125.28 80.47 125.36 80.38 125.44 80.28 125.52 80.18 125.59 80.08 125.66 79.99 125.73 79.89 125.81 79.79 125.87 79.69 125.94 79.59 126 79.49 126.07 79.38 126.13 79.28 126.19 79.18 126.25 79.08 126.31 78.97 126.37 78.87 126.42 78.77 126.48 78.66 126.53 78.56 126.58 78.45 126.63 78.34 126.68 78.24 126.73 78.13 126.78 78.02 126.82 77.92 126.87 77.81 126.91 77.7 126.95 77.59 127 77.48 127.04 77.38 127.08 77.27 127.11 77.16 127.15 77.05 127.19 76.94 127.22 76.83 127.26 76.72 127.29 76.61 127.32 76.5 127.36 76.39 127.39 76.28 127.42 76.16 127.45 76.05 127.47 75.94 127.5 75.83 127.53 75.72 127.55 75.61 127.58 75.49 127.6 75.38 127.63 75.27 127.65 75.16 127.67 75.04 127.69 74.93 127.72 74.82 127.73 74.7 127.75 74.59 127.77 74.48 127.79 74.36 127.81 74.25 127.83 74.14 127.84 74.02 127.86 73.91 127.88 73.8 127.89 73.68 127.91 73.57 127.92 73.45 127.93 73.34 127.94 73.22 127.96 73.11 127.97 73 127.98 72.88 127.99 72.77 128 72.65 128.01 72.54 128.02 72.42 128.03 72.31 128.04 72.19 128.05 72.08 128.06 71.97 128.07 71.85 128.07 71.74 128.08 71.62 128.09 71.51 128.09 71.39 128.1 71.28 128.11 71.16 128.11 71.05 128.12 70.93 128.12 70.82 128.13 70.7 128.13 70.59 128.13 70.47 128.14 70.36 128.14 70.24 128.15 70.13 128.15 70.02 128.15 69.9 128.15 69.78 128.16 69.67 128.16 69.56 128.16 69.44 128.16 69.33 128.16 69.21 128.16 69.1 128.16 68.98 128.16 68.87 128.16 68.75 128.16 68.64 128.16 68.52"/><polygon class="cls-5" points="128.59 68.5 128.57 69.89 128.51 71.27 128.43 72.65 128.3 74.01 128.15 75.37 127.95 76.71 127.73 78.04 127.47 79.36 127.18 80.67 126.86 81.97 126.51 83.25 126.12 84.52 125.71 85.78 125.26 87.02 124.79 88.25 124.28 89.47 123.75 90.67 123.19 91.85 122.6 93.01 121.98 94.16 121.34 95.3 120.66 96.41 119.97 97.51 119.24 98.58 118.49 99.64 117.72 100.69 116.92 101.7 116.1 102.7 115.25 103.69 114.38 104.64 113.49 105.58 112.57 106.5 111.64 107.39 110.68 108.26 109.7 109.1 108.7 109.93 107.68 110.73 106.64 111.5 105.58 112.25 104.5 112.97 103.4 113.67 102.29 114.34 101.16 114.99 100.01 115.6 98.84 116.19 97.66 116.76 96.46 117.29 95.25 117.79 94.02 118.27 92.78 118.71 91.52 119.13 90.25 119.51 88.96 119.87 87.67 120.19 86.36 120.48 85.04 120.73 83.7 120.96 82.36 121.15 81 121.31 79.64 121.43 78.27 121.52 76.88 121.57 75.49 121.59 74.1 121.57 72.72 121.52 71.34 121.43 69.98 121.31 68.63 121.15 67.28 120.96 65.95 120.73 64.63 120.48 63.32 120.19 62.02 119.87 60.74 119.51 59.47 119.13 58.21 118.71 56.97 118.27 55.74 117.79 54.52 117.29 53.33 116.76 52.14 116.19 50.98 115.6 49.83 114.99 48.7 114.34 47.58 113.67 46.48 112.97 45.41 112.25 44.35 111.5 43.31 110.73 42.28 109.93 41.28 109.1 40.31 108.26 39.35 107.39 38.41 106.5 37.49 105.58 36.6 104.64 35.73 103.69 34.89 102.7 34.06 101.7 33.27 100.69 32.49 99.64 31.74 98.58 31.02 97.51 30.32 96.41 29.65 95.3 29 94.16 28.39 93.01 27.8 91.85 27.23 90.67 26.7 89.47 26.2 88.25 25.72 87.02 25.28 85.78 24.86 84.52 24.48 83.25 24.12 81.97 23.8 80.67 23.51 79.36 23.25 78.04 23.03 76.71 22.84 75.37 22.68 74.01 22.56 72.65 22.47 71.27 22.42 69.89 22.4 68.5 22.42 67.11 22.47 65.72 22.56 64.35 22.68 62.98 22.84 61.63 23.03 60.29 23.25 58.95 23.51 57.63 23.8 56.33 24.12 55.03 24.48 53.74 24.86 52.47 25.28 51.22 25.72 49.97 26.2 48.74 26.7 47.53 27.23 46.33 27.8 45.15 28.39 43.98 29 42.83 29.65 41.7 30.32 40.59 31.02 39.49 31.74 38.41 32.49 37.35 33.27 36.31 34.06 35.29 34.89 34.29 35.73 33.31 36.6 32.35 37.49 31.42 38.41 30.5 39.35 29.61 40.31 28.74 41.28 27.89 42.28 27.07 43.31 26.27 44.35 25.5 45.41 24.75 46.48 24.02 47.58 23.33 48.7 22.65 49.83 22.01 50.98 21.39 52.14 20.8 53.33 20.24 54.52 19.71 55.74 19.2 56.97 18.73 58.21 18.28 59.47 17.87 60.74 17.48 62.02 17.13 63.32 16.81 64.63 16.52 65.95 16.26 67.28 16.04 68.63 15.85 69.98 15.69 71.34 15.57 72.72 15.48 74.1 15.42 75.49 15.41 76.88 15.42 78.27 15.48 79.64 15.57 81 15.69 82.36 15.85 83.7 16.04 85.04 16.26 86.36 16.52 87.67 16.81 88.96 17.13 90.25 17.48 91.52 17.87 92.78 18.28 94.02 18.73 95.25 19.2 96.46 19.71 97.66 20.24 98.84 20.8 100.01 21.39 101.16 22.01 102.29 22.65 103.4 23.33 104.5 24.02 105.58 24.75 106.64 25.5 107.68 26.27 108.7 27.07 109.7 27.89 110.68 28.74 111.64 29.61 112.57 30.5 113.49 31.42 114.38 32.35 115.25 33.31 116.1 34.29 116.92 35.29 117.72 36.31 118.49 37.35 119.24 38.41 119.97 39.49 120.66 40.59 121.34 41.7 121.98 42.83 122.6 43.98 123.19 45.15 123.75 46.33 124.28 47.53 124.79 48.74 125.26 49.97 125.71 51.22 126.12 52.47 126.51 53.74 126.86 55.03 127.18 56.33 127.47 57.63 127.73 58.95 127.95 60.29 128.15 61.63 128.3 62.98 128.43 64.35 128.51 65.72 128.57 67.11 128.59 68.5"/><text class="cls-6" transform="translate(45.29 70.26) scale(1.06 1)">0.5</text><text class="cls-6" transform="translate(66.53 70.26) scale(1.06 1)">0.1</text><text class="cls-6" transform="translate(24.06 70.26) scale(1.06 1)">0.9</text><text class="cls-7" transform="translate(69.06 10.73) scale(1.06 1)">90</text><text class="cls-7" transform="translate(65.82 133.33) scale(1.06 1)">270</text><text class="cls-8" transform="translate(0.73 71.23) scale(1.06 1)">180</text><text class="cls-7" transform="translate(134.15 71.39) scale(1.06 1)">0</text></g></svg>