<svg id="Capa_1" data-name="Capa 1" xmlns="http://www.w3.org/2000/svg" viewBox="0 0 141.68 136.15"><defs><style>.cls-1{fill:#fff;fill-rule:evenodd;}.cls-2,.cls-3,.cls-4,.cls-5{fill:none;stroke-linecap:square;stroke-linejoin:bevel;stroke-width:0.52px;}.cls-2{stroke:silver;}.cls-3{stroke:gray;stroke-dasharray:3.39 3.39;}.cls-4{stroke:#0070c0;}.cls-5{stroke:#000;}.cls-6{font-size:5.43px;letter-spacing:0.01em;}.cls-6,.cls-7,.cls-8{font-family:Palatino-Roman, Palatino;}.cls-7{font-size:12px;letter-spacing:0.01em;}.cls-8{font-size:11px;letter-spacing:0.01em;}</style></defs><title>RCS_2Lambda</title><g id="RCS_2Lambda"><polygon class="cls-1" points="128.59 68.5 128.57 69.89 128.51 71.27 128.43 72.65 128.3 74.01 128.15 75.37 127.95 76.71 127.73 78.04 127.47 79.36 127.18 80.67 126.86 81.97 126.51 83.25 126.12 84.52 125.71 85.78 125.26 87.02 124.79 88.25 124.28 89.47 123.75 90.67 123.19 91.85 122.6 93.01 121.98 94.16 121.34 95.3 120.66 96.41 119.97 97.51 119.24 98.58 118.49 99.64 117.72 100.69 116.92 101.7 116.1 102.7 115.25 103.69 114.38 104.64 113.49 105.58 112.57 106.5 111.64 107.39 110.68 108.26 109.7 109.1 108.7 109.93 107.68 110.73 106.64 111.5 105.58 112.25 104.5 112.97 103.4 113.67 102.29 114.34 101.16 114.99 100.01 115.6 98.84 116.19 97.66 116.76 96.46 117.29 95.25 117.79 94.02 118.27 92.78 118.71 91.52 119.13 90.25 119.51 88.96 119.87 87.67 120.19 86.36 120.48 85.04 120.73 83.7 120.96 82.36 121.15 81 121.31 79.64 121.43 78.27 121.52 76.88 121.57 75.49 121.59 74.1 121.57 72.72 121.52 71.34 121.43 69.98 121.31 68.63 121.15 67.28 120.96 65.95 120.73 64.63 120.48 63.32 120.19 62.02 119.87 60.74 119.51 59.47 119.13 58.21 118.71 56.97 118.27 55.74 117.79 54.52 117.29 53.33 116.76 52.14 116.19 50.98 115.6 49.83 114.99 48.7 114.34 47.58 113.67 46.48 112.97 45.41 112.25 44.35 111.5 43.31 110.73 42.28 109.93 41.28 109.1 40.31 108.26 39.35 107.39 38.41 106.5 37.49 105.58 36.6 104.64 35.73 103.69 34.89 102.7 34.06 101.7 33.27 100.69 32.49 99.64 31.74 98.58 31.02 97.51 30.32 96.41 29.65 95.3 29 94.16 28.39 93.01 27.8 91.85 27.23 90.67 26.7 89.47 26.2 88.25 25.72 87.02 25.28 85.78 24.86 84.52 24.48 83.25 24.12 81.97 23.8 80.67 23.51 79.36 23.25 78.04 23.03 76.71 22.84 75.37 22.68 74.01 22.56 72.65 22.47 71.27 22.42 69.89 22.4 68.5 22.42 67.11 22.47 65.72 22.56 64.35 22.68 62.98 22.84 61.63 23.03 60.29 23.25 58.95 23.51 57.63 23.8 56.33 24.12 55.03 24.48 53.74 24.86 52.47 25.28 51.22 25.72 49.97 26.2 48.74 26.7 47.53 27.23 46.33 27.8 45.15 28.39 43.98 29 42.83 29.65 41.7 30.32 40.59 31.02 39.49 31.74 38.41 32.49 37.35 33.27 36.31 34.06 35.29 34.89 34.29 35.73 33.31 36.6 32.35 37.49 31.42 38.41 30.5 39.35 29.61 40.31 28.74 41.28 27.89 42.28 27.07 43.31 26.27 44.35 25.5 45.41 24.75 46.48 24.02 47.58 23.33 48.7 22.65 49.83 22.01 50.98 21.39 52.14 20.8 53.33 20.24 54.52 19.71 55.74 19.2 56.97 18.73 58.21 18.28 59.47 17.87 60.74 17.48 62.02 17.13 63.32 16.81 64.63 16.52 65.95 16.26 67.28 16.04 68.63 15.85 69.98 15.69 71.34 15.57 72.72 15.48 74.1 15.42 75.49 15.41 76.88 15.42 78.27 15.48 79.64 15.57 81 15.69 82.36 15.85 83.7 16.04 85.04 16.26 86.36 16.52 87.67 16.81 88.96 17.13 90.25 17.48 91.52 17.87 92.78 18.28 94.02 18.73 95.25 19.2 96.46 19.71 97.66 20.24 98.84 20.8 100.01 21.39 101.16 22.01 102.29 22.65 103.4 23.33 104.5 24.02 105.58 24.75 106.64 25.5 107.68 26.27 108.7 27.07 109.7 27.89 110.68 28.74 111.64 29.61 112.57 30.5 113.49 31.42 114.38 32.35 115.25 33.31 116.1 34.29 116.92 35.29 117.72 36.31 118.49 37.35 119.24 38.41 119.97 39.49 120.66 40.59 121.34 41.7 121.98 42.83 122.6 43.98 123.19 45.15 123.75 46.33 124.28 47.53 124.79 48.74 125.26 49.97 125.71 51.22 126.12 52.47 126.51 53.74 126.86 55.03 127.18 56.33 127.47 57.63 127.73 58.95 127.95 60.29 128.15 61.63 128.3 62.98 128.43 64.35 128.51 65.72 128.57 67.11 128.59 68.5"/><line class="cls-2" x1="75.49" y1="68.5" x2="128.58" y2="68.5"/><line class="cls-2" x1="75.49" y1="68.5" x2="121.47" y2="41.95"/><line class="cls-2" x1="75.49" y1="68.5" x2="102.04" y2="22.52"/><line class="cls-2" x1="75.49" y1="68.5" x2="75.49" y2="15.41"/><line class="cls-2" x1="75.49" y1="68.5" x2="48.95" y2="22.52"/><line class="cls-2" x1="75.49" y1="68.5" x2="29.51" y2="41.95"/><line class="cls-2" x1="75.49" y1="68.5" x2="22.4" y2="68.5"/><line class="cls-2" x1="75.49" y1="68.5" x2="29.51" y2="95.04"/><line class="cls-2" x1="75.49" y1="68.5" x2="48.95" y2="114.48"/><line class="cls-2" x1="75.49" y1="68.5" x2="75.49" y2="121.59"/><line class="cls-2" x1="75.49" y1="68.5" x2="102.04" y2="114.48"/><line class="cls-2" x1="75.49" y1="68.5" x2="121.47" y2="95.04"/><line class="cls-2" x1="75.49" y1="68.5" x2="128.58" y2="68.5"/><circle class="cls-3" cx="75.49" cy="68.5" r="5.31"/><circle class="cls-3" cx="75.49" cy="68.5" r="10.62"/><circle class="cls-3" cx="75.49" cy="68.5" r="15.93"/><circle class="cls-3" cx="75.49" cy="68.5" r="21.24"/><circle class="cls-3" cx="75.49" cy="68.5" r="26.55"/><circle class="cls-3" cx="75.49" cy="68.5" r="31.86"/><circle class="cls-3" cx="75.49" cy="68.5" r="37.16"/><circle class="cls-3" cx="75.49" cy="68.5" r="42.47"/><circle class="cls-3" cx="75.49" cy="68.5" r="47.78"/><polyline class="cls-4" points="128.35 68.51 128.35 68.4 128.35 68.28 128.35 68.17 128.34 68.05 128.34 67.94 128.34 67.82 128.34 67.7 128.34 67.59 128.33 67.47 128.33 67.36 128.33 67.24 128.32 67.13 128.32 67.01 128.31 66.9 128.31 66.78 128.31 66.67 128.3 66.55 128.29 66.44 128.29 66.32 128.28 66.21 128.27 66.09 128.26 65.98 128.26 65.86 128.25 65.75 128.24 65.63 128.23 65.52 128.22 65.4 128.21 65.29 128.19 65.17 128.18 65.06 128.17 64.94 128.16 64.83 128.14 64.72 128.12 64.6 128.11 64.49 128.09 64.37 128.07 64.26 128.05 64.15 128.03 64.03 128.01 63.92 127.99 63.8 127.96 63.69 127.94 63.58 127.91 63.47 127.88 63.35 127.85 63.24 127.82 63.13 127.79 63.02 127.76 62.91 127.72 62.79 127.68 62.68 127.64 62.57 127.61 62.46 127.56 62.35 127.52 62.24 127.47 62.13 127.43 62.02 127.38 61.91 127.33 61.8 127.27 61.7 127.22 61.59 127.16 61.48 127.1 61.38 127.03 61.27 126.97 61.16 126.9 61.06 126.83 60.96 126.76 60.85 126.68 60.75 126.6 60.65 126.52 60.55 126.44 60.45 126.35 60.34 126.26 60.25 126.17 60.15 126.07 60.05 125.97 59.95 125.87 59.86 125.76 59.76 125.65 59.67 125.54 59.58 125.42 59.48 125.31 59.4 125.18 59.3 125.05 59.22 124.92 59.13 124.79 59.04 124.65 58.96 124.51 58.88 124.36 58.79 124.21 58.71 124.05 58.63 123.89 58.56 123.73 58.48 123.56 58.41 123.39 58.33 123.21 58.26 123.03 58.19 122.84 58.13 122.65 58.06 122.46 58 122.26 57.93 122.05 57.87 121.84 57.81 121.63 57.76 121.41 57.7 121.18 57.65 120.95 57.6 120.72 57.55 120.48 57.51 120.23 57.46 119.98 57.42 119.72 57.38 119.46 57.35 119.2 57.31 118.93 57.28 118.65 57.25 118.37 57.23 118.08 57.2 117.78 57.18 117.49 57.16 117.18 57.15 116.87 57.14 116.56 57.13 116.24 57.12 115.91 57.12 115.58 57.12 115.24 57.12 114.9 57.12 114.55 57.13 114.2 57.14 113.84 57.16 113.48 57.17 113.11 57.2 112.73 57.22 112.35 57.25 111.97 57.28 111.58 57.31 111.18 57.35 110.78 57.39 110.38 57.43 109.97 57.48 109.55 57.53 109.13 57.59 108.71 57.64 108.28 57.7 107.85 57.77 107.41 57.84 106.97 57.91 106.52 57.98 106.07 58.06 105.61 58.15 105.16 58.23 104.69 58.32 104.23 58.41 103.76 58.51 103.29 58.61 102.81 58.71 102.33 58.81 101.85 58.92 101.37 59.03 100.88 59.15 100.39 59.27 99.9 59.39 99.41 59.52 98.91 59.64 98.42 59.77 97.92 59.91 97.42 60.05 96.92 60.18 96.42 60.33 95.92 60.47 95.42 60.62 94.92 60.77 94.42 60.92 93.92 61.07 93.42 61.23 92.92 61.39 92.42 61.55 91.92 61.71 91.43 61.88 90.93 62.04 90.44 62.21 89.96 62.38 89.47 62.55 88.99 62.72 88.51 62.89 88.04 63.06 87.57 63.24 87.1 63.41 86.64 63.59 86.18 63.76 85.73 63.93 85.28 64.11 84.84 64.28 84.41 64.45 83.98 64.63 83.56 64.8 83.15 64.97 82.75 65.14 82.35 65.3 81.96 65.47 81.58 65.63 81.2 65.8 80.84 65.95 80.48 66.11 80.14 66.26 79.81 66.42 79.48 66.56 79.17 66.71 78.86 66.85 78.57 66.98 78.29 67.11 78.02 67.24 77.77 67.37 77.52 67.48 77.29 67.6 77.08 67.7 76.87 67.81 76.68 67.9 76.5 67.99 76.34 68.08 76.19 68.15 76.05 68.22 75.93 68.29 75.82 68.34 75.73 68.39 75.66 68.43 75.59 68.46 75.55 68.49 75.52 68.5 75.51 68.51 75.51 68.51 75.53 68.5 75.56 68.48 75.61 68.45 75.68 68.41 75.77 68.36 75.87 68.3 75.98 68.24 76.12 68.16 76.27 68.07 76.44 67.97 76.62 67.86 76.82 67.73 77.04 67.6 77.27 67.46 77.52 67.3 77.79 67.14 78.07 66.96 78.36 66.77 78.68 66.57 79.01 66.36 79.35 66.13 79.71 65.9 80.09 65.65 80.48 65.39 80.88 65.12 81.3 64.84 81.73 64.55 82.18 64.24 82.64 63.92 83.11 63.6 83.6 63.26 84.09 62.91 84.6 62.55 85.12 62.18 85.65 61.8 86.19 61.41 86.75 61 87.31 60.59 87.87 60.17 88.45 59.74 89.04 59.3 89.63 58.85 90.23 58.39 90.84 57.93 91.45 57.45 92.06 56.97 92.68 56.48 93.31 55.99 93.93 55.49 94.56 54.98 95.19 54.47 95.82 53.95 96.45 53.43 97.09 52.91 97.72 52.38 98.34 51.84 98.97 51.31 99.59 50.77 100.21 50.23 100.82 49.7 101.43 49.16 102.03 48.62 102.62 48.08 103.2 47.55 103.78 47.01 104.35 46.48 104.91 45.95 105.45 45.43 105.99 44.91 106.51 44.4 107.02 43.89 107.51 43.39 108 42.9 108.46 42.42 108.91 41.94 109.34 41.48 109.76 41.02 110.16 40.57 110.54 40.14 110.9 39.72 111.25 39.31 111.57 38.92 111.87 38.54 112.15 38.17 112.41 37.82 112.65 37.49 112.86 37.17 113.05 36.87 113.22 36.59 113.36 36.32 113.48 36.08 113.58 35.85 113.65 35.64 113.7 35.46 113.72 35.29 113.72 35.15 113.69 35.02 113.64 34.92 113.56 34.85 113.45 34.79 113.32 34.76 113.17 34.75 112.98 34.77 112.78 34.8 112.55 34.87 112.29 34.95 112.01 35.06 111.7 35.2 111.37 35.36 111.02 35.54 110.64 35.75 110.24 35.98 109.82 36.23 109.38 36.51 108.91 36.81 108.42 37.14 107.92 37.49 107.39 37.86 106.84 38.25 106.28 38.67 105.7 39.1 105.1 39.56 104.48 40.04 103.85 40.53 103.21 41.05 102.55 41.59 101.88 42.14 101.2 42.71 100.5 43.3 99.8 43.9 99.09 44.51 98.37 45.14 97.65 45.78 96.92 46.44 96.18 47.1 95.45 47.77 94.71 48.45 93.97 49.15 93.22 49.84 92.48 50.54 91.75 51.25 91.02 51.95 90.29 52.66 89.56 53.37 88.85 54.08 88.14 54.78 87.44 55.49 86.75 56.18 86.08 56.88 85.41 57.56 84.76 58.23 84.13 58.9 83.51 59.55 82.9 60.19 82.32 60.81 81.75 61.42 81.2 62.01 80.68 62.59 80.17 63.14 79.69 63.68 79.23 64.19 78.8 64.68 78.39 65.14 78 65.58 77.64 65.99 77.31 66.38 77 66.73 76.72 67.06 76.47 67.35 76.25 67.62 76.05 67.85 75.89 68.05 75.75 68.21 75.65 68.34 75.57 68.43 75.52 68.49 75.51 68.51 75.52 68.5 75.56 68.44 75.63 68.35 75.73 68.22 75.86 68.06 76.02 67.85 76.21 67.61 76.42 67.33 76.67 67.01 76.93 66.65 77.23 66.26 77.55 65.83 77.89 65.36 78.26 64.85 78.66 64.31 79.07 63.74 79.51 63.13 79.96 62.49 80.44 61.81 80.94 61.11 81.45 60.37 81.98 59.6 82.52 58.81 83.08 57.99 83.65 57.15 84.23 56.28 84.83 55.39 85.43 54.48 86.04 53.54 86.65 52.59 87.27 51.63 87.9 50.65 88.52 49.66 89.15 48.66 89.78 47.65 90.4 46.64 91.02 45.62 91.64 44.6 92.25 43.57 92.85 42.55 93.44 41.54 94.03 40.53 94.6 39.52 95.16 38.53 95.71 37.55 96.24 36.59 96.75 35.64 97.25 34.71 97.73 33.8 98.18 32.92 98.62 32.05 99.04 31.22 99.43 30.41 99.8 29.64 100.14 28.9 100.46 28.19 100.75 27.51 101.02 26.88 101.26 26.28 101.47 25.73 101.65 25.21 101.8 24.75 101.93 24.32 102.02 23.94 102.09 23.61 102.12 23.33 102.13 23.09 102.1 22.91 102.05 22.77 101.96 22.69 101.85 22.65 101.7 22.67 101.53 22.74 101.33 22.87 101.1 23.04 100.84 23.27 100.56 23.55 100.25 23.88 99.91 24.25 99.55 24.68 99.17 25.16 98.76 25.69 98.33 26.27 97.87 26.89 97.4 27.55 96.91 28.26 96.4 29.01 95.87 29.8 95.33 30.64 94.77 31.5 94.2 32.41 93.62 33.34 93.03 34.31 92.43 35.3 91.82 36.32 91.2 37.37 90.58 38.43 89.96 39.52 89.34 40.62 88.71 41.74 88.08 42.86 87.46 44 86.84 45.14 86.23 46.28 85.62 47.43 85.02 48.57 84.43 49.7 83.85 50.83 83.28 51.94 82.72 53.04 82.18 54.12 81.65 55.18 81.14 56.22 80.65 57.23 80.17 58.22 79.71 59.17 79.28 60.09 78.86 60.98 78.47 61.82 78.1 62.62 77.75 63.38 77.42 64.1 77.13 64.77 76.85 65.39 76.6 65.95 76.37 66.47 76.17 66.93 76 67.33 75.86 67.68 75.73 67.96 75.64 68.19 75.57 68.36 75.53 68.47 75.51 68.51 75.51 68.49 75.55 68.41 75.6 68.27 75.68 68.07 75.78 67.8 75.91 67.47 76.06 67.08 76.23 66.63 76.42 66.13 76.63 65.56 76.85 64.94 77.1 64.26 77.36 63.52 77.64 62.74 77.93 61.9 78.23 61.02 78.55 60.09 78.88 59.12 79.22 58.1 79.57 57.05 79.92 55.96 80.28 54.83 80.65 53.68 81.02 52.5 81.39 51.29 81.77 50.07 82.14 48.82 82.52 47.56 82.89 46.3 83.25 45.02 83.62 43.74 83.97 42.45 84.32 41.17 84.67 39.9 85 38.64 85.32 37.39 85.63 36.15 85.93 34.94 86.22 33.75 86.49 32.59 86.75 31.46 86.99 30.36 87.22 29.3 87.42 28.27 87.62 27.3 87.79 26.36 87.95 25.48 88.09 24.64 88.2 23.86 88.3 23.13 88.38 22.47 88.44 21.86 88.48 21.31 88.51 20.83 88.51 20.41 88.49 20.06 88.45 19.78 88.39 19.57 88.32 19.42 88.22 19.34 88.11 19.34 87.98 19.4 87.83 19.54 87.67 19.74 87.48 20.02 87.29 20.36 87.08 20.77 86.85 21.25 86.61 21.8 86.36 22.41 86.1 23.08 85.83 23.82 85.54 24.61 85.25 25.46 84.95 26.36 84.64 27.32 84.32 28.32 84 29.38 83.68 30.47 83.35 31.61 83.02 32.78 82.69 33.98 82.36 35.22 82.02 36.48 81.69 37.77 81.36 39.07 81.04 40.39 80.71 41.72 80.4 43.06 80.08 44.4 79.78 45.74 79.48 47.08 79.19 48.4 78.91 49.72 78.63 51.02 78.37 52.3 78.11 53.55 77.87 54.78 77.63 55.97 77.41 57.13 77.2 58.25 77 59.33 76.82 60.36 76.64 61.34 76.48 62.27 76.33 63.14 76.2 63.96 76.07 64.72 75.96 65.41 75.86 66.04 75.78 66.6 75.71 67.09 75.64 67.51 75.59 67.86 75.56 68.13 75.53 68.33 75.51 68.46 75.51 68.51 75.51 68.48 75.52 68.38 75.54 68.2 75.57 67.95 75.61 67.62 75.65 67.22 75.7 66.74 75.76 66.19 75.82 65.57 75.89 64.88 75.96 64.12 76.03 63.3 76.11 62.41 76.18 61.47 76.26 60.47 76.34 59.41 76.42 58.3 76.5 57.15 76.58 55.95 76.65 54.7 76.73 53.42 76.8 52.1 76.86 50.76 76.93 49.39 76.99 47.99 77.04 46.58 77.09 45.15 77.13 43.72 77.17 42.27 77.2 40.83 77.22 39.39 77.24 37.95 77.25 36.53 77.26 35.13 77.25 33.74 77.24 32.38 77.22 31.04 77.2 29.74 77.17 28.48 77.13 27.25 77.08 26.07 77.03 24.93 76.97 23.85 76.9 22.82 76.83 21.84 76.75 20.93 76.67 20.08 76.58 19.29 76.49 18.57 76.39 17.92 76.29 17.34 76.18 16.84 76.08 16.41 75.96 16.06 75.85 15.78 75.74 15.58 75.62 15.46 75.51 15.42 75.39 15.46 75.28 15.58 75.16 15.78 75.05 16.05 74.94 16.41 74.83 16.83 74.72 17.34 74.62 17.91 74.53 18.56 74.43 19.28 74.34 20.07 74.26 20.92 74.18 21.83 74.11 22.8 74.04 23.83 73.98 24.92 73.93 26.05 73.89 27.23 73.84 28.46 73.81 29.73 73.79 31.03 73.77 32.36 73.76 33.72 73.76 35.11 73.76 36.52 73.77 37.94 73.79 39.37 73.81 40.81 73.84 42.26 73.88 43.7 73.92 45.14 73.97 46.57 74.03 47.98 74.08 49.37 74.15 50.75 74.21 52.09 74.28 53.41 74.36 54.69 74.43 55.94 74.51 57.14 74.59 58.3 74.67 59.41 74.75 60.46 74.83 61.47 74.91 62.41 74.98 63.3 75.05 64.12 75.12 64.87 75.19 65.56 75.25 66.19 75.31 66.73 75.36 67.21 75.4 67.62 75.44 67.95 75.47 68.2 75.49 68.38 75.5 68.48 75.51 68.51 75.5 68.46 75.48 68.33 75.46 68.13 75.42 67.86 75.37 67.51 75.31 67.09 75.23 66.59 75.15 66.03 75.05 65.4 74.94 64.71 74.81 63.95 74.68 63.13 74.53 62.26 74.37 61.33 74.19 60.34 74.01 59.31 73.81 58.23 73.6 57.11 73.38 55.95 73.14 54.76 72.9 53.53 72.64 52.27 72.38 50.99 72.1 49.69 71.82 48.37 71.53 47.04 71.23 45.7 70.92 44.36 70.61 43.02 70.29 41.68 69.97 40.34 69.64 39.02 69.31 37.71 68.98 36.43 68.64 35.16 68.31 33.92 67.98 32.72 67.65 31.54 67.32 30.4 66.99 29.3 66.67 28.25 66.36 27.24 66.05 26.29 65.75 25.38 65.45 24.53 65.17 23.73 64.89 23 64.63 22.32 64.38 21.71 64.14 21.16 63.91 20.68 63.7 20.27 63.5 19.92 63.32 19.64 63.16 19.44 63.01 19.3 62.88 19.23 62.76 19.24 62.67 19.32 62.59 19.46 62.53 19.67 62.5 19.96 62.48 20.31 62.48 20.73 62.5 21.21 62.54 21.75 62.6 22.36 62.68 23.03 62.78 23.76 62.9 24.54 63.03 25.38 63.19 26.26 63.37 27.2 63.56 28.18 63.77 29.2 64 30.27 64.24 31.37 64.5 32.5 64.77 33.67 65.06 34.86 65.36 36.07 65.67 37.31 65.99 38.56 66.33 39.83 66.67 41.1 67.02 42.39 67.38 43.67 67.74 44.96 68.11 46.24 68.48 47.51 68.85 48.77 69.23 50.02 69.6 51.25 69.98 52.46 70.35 53.64 70.72 54.8 71.08 55.92 71.44 57.02 71.78 58.07 72.12 59.09 72.45 60.07 72.77 61 73.08 61.88 73.37 62.72 73.65 63.51 73.91 64.25 74.16 64.93 74.39 65.55 74.59 66.12 74.78 66.63 74.95 67.08 75.1 67.47 75.23 67.8 75.33 68.06 75.41 68.27 75.47 68.41 75.5 68.49 75.51 68.51 75.49 68.47 75.44 68.36 75.37 68.19 75.28 67.96 75.16 67.67 75.01 67.33 74.83 66.92 74.64 66.46 74.41 65.94 74.16 65.38 73.88 64.75 73.58 64.08 73.26 63.37 72.91 62.6 72.53 61.8 72.14 60.95 71.72 60.06 71.28 59.14 70.83 58.18 70.35 57.2 69.85 56.18 69.34 55.14 68.81 54.07 68.27 52.98 67.71 51.88 67.14 50.76 66.55 49.63 65.96 48.49 65.36 47.35 64.75 46.2 64.13 45.06 63.51 43.91 62.88 42.77 62.26 41.64 61.63 40.52 61 39.41 60.37 38.33 59.75 37.25 59.13 36.2 58.52 35.18 57.92 34.18 57.33 33.21 56.74 32.27 56.17 31.37 55.61 30.5 55.07 29.66 54.54 28.87 54.02 28.11 53.53 27.4 53.06 26.73 52.6 26.11 52.17 25.53 51.76 25 51.37 24.52 51.01 24.09 50.67 23.7 50.36 23.37 50.07 23.09 49.81 22.87 49.58 22.69 49.38 22.57 49.21 22.5 49.06 22.48 48.95 22.51 48.86 22.59 48.81 22.73 48.78 22.91 48.78 23.15 48.82 23.43 48.88 23.77 48.98 24.14 49.1 24.57 49.26 25.04 49.44 25.56 49.65 26.11 49.89 26.71 50.16 27.35 50.45 28.02 50.77 28.73 51.12 29.48 51.49 30.26 51.88 31.07 52.3 31.91 52.74 32.77 53.2 33.66 53.67 34.57 54.17 35.51 54.69 36.46 55.22 37.43 55.77 38.41 56.33 39.41 56.91 40.41 57.49 41.42 58.09 42.45 58.7 43.47 59.31 44.5 59.93 45.52 60.55 46.55 61.18 47.56 61.81 48.58 62.44 49.58 63.06 50.58 63.69 51.56 64.31 52.53 64.93 53.48 65.54 54.41 66.15 55.33 66.74 56.23 67.33 57.1 67.9 57.95 68.46 58.77 69.01 59.57 69.54 60.34 70.05 61.07 70.55 61.78 71.03 62.46 71.49 63.1 71.93 63.72 72.34 64.29 72.74 64.84 73.11 65.34 73.45 65.81 73.78 66.25 74.07 66.64 74.34 67 74.58 67.32 74.8 67.6 74.99 67.85 75.15 68.05 75.28 68.22 75.38 68.35 75.45 68.44 75.49 68.5 75.51 68.51 75.49 68.49 75.44 68.43 75.36 68.34 75.26 68.21 75.12 68.04 74.96 67.85 74.76 67.61 74.54 67.35 74.29 67.05 74.01 66.72 73.7 66.37 73.36 65.98 73 65.57 72.61 65.13 72.2 64.66 71.77 64.17 71.3 63.66 70.82 63.12 70.31 62.56 69.78 61.99 69.23 61.39 68.67 60.78 68.08 60.15 67.47 59.51 66.85 58.85 66.21 58.19 65.56 57.51 64.89 56.82 64.21 56.13 63.52 55.43 62.82 54.73 62.11 54.02 61.39 53.3 60.66 52.59 59.93 51.88 59.19 51.17 58.45 50.46 57.71 49.76 56.97 49.06 56.22 48.37 55.48 47.68 54.74 47.01 54 46.34 53.27 45.68 52.54 45.04 51.82 44.41 51.1 43.79 50.4 43.18 49.7 42.59 49.02 42.02 48.34 41.47 47.68 40.93 47.03 40.41 46.4 39.91 45.78 39.43 45.18 38.97 44.6 38.53 44.03 38.12 43.48 37.72 42.95 37.35 42.44 37 41.95 36.67 41.49 36.37 41.04 36.09 40.62 35.83 40.21 35.6 39.84 35.39 39.48 35.21 39.15 35.05 38.84 34.91 38.56 34.8 38.3 34.72 38.07 34.65 37.86 34.62 37.68 34.6 37.52 34.61 37.39 34.64 37.29 34.7 37.21 34.78 37.15 34.88 37.13 35 37.12 35.14 37.14 35.31 37.19 35.5 37.26 35.7 37.36 35.93 37.48 36.18 37.63 36.44 37.8 36.73 37.99 37.03 38.2 37.35 38.44 37.69 38.7 38.04 38.98 38.41 39.29 38.79 39.61 39.18 39.95 39.59 40.32 40.02 40.7 40.45 41.1 40.9 41.52 41.36 41.96 41.82 42.41 42.3 42.88 42.79 43.36 43.28 43.86 43.78 44.37 44.29 44.89 44.81 45.43 45.33 45.98 45.85 46.54 46.38 47.11 46.92 47.69 47.45 48.28 47.99 48.87 48.53 49.48 49.07 50.09 49.62 50.7 50.16 51.32 50.7 51.95 51.24 52.57 51.77 53.2 52.31 53.84 52.84 54.47 53.37 55.1 53.89 55.74 54.41 56.37 54.92 57 55.43 57.63 55.94 58.26 56.43 58.88 56.92 59.5 57.41 60.11 57.88 60.72 58.35 61.32 58.81 61.92 59.26 62.51 59.7 63.09 60.13 63.66 60.56 64.22 60.97 64.78 61.38 65.32 61.77 65.85 62.15 66.37 62.52 66.89 62.89 67.38 63.24 67.87 63.58 68.34 63.91 68.81 64.22 69.25 64.53 69.69 64.82 70.11 65.11 70.52 65.38 70.91 65.64 71.28 65.89 71.64 66.12 71.99 66.35 72.32 66.56 72.64 66.76 72.94 66.95 73.22 67.13 73.48 67.3 73.74 67.45 73.97 67.6 74.19 67.73 74.39 67.85 74.57 67.97 74.74 68.06 74.89 68.16 75.03 68.23 75.14 68.3 75.25 68.36 75.33 68.41 75.4 68.45 75.45 68.48 75.48 68.5 75.5 68.51 75.5 68.51 75.49 68.5 75.46 68.49 75.42 68.46 75.36 68.43 75.28 68.39 75.19 68.34 75.08 68.28 74.96 68.22 74.82 68.15 74.67 68.07 74.51 67.99 74.33 67.9 74.14 67.8 73.93 67.7 73.71 67.59 73.48 67.48 73.24 67.36 72.98 67.24 72.71 67.11 72.43 66.98 72.14 66.84 71.83 66.7 71.52 66.56 71.19 66.41 70.86 66.26 70.51 66.1 70.15 65.94 69.79 65.78 69.41 65.62 69.03 65.46 68.64 65.29 68.24 65.12 67.83 64.95 67.42 64.78 67 64.61 66.57 64.44 66.13 64.27 65.69 64.09 65.25 63.92 64.79 63.74 64.33 63.57 63.87 63.39 63.4 63.22 62.93 63.04 62.45 62.87 61.98 62.7 61.49 62.53 61.01 62.36 60.52 62.19 60.02 62.02 59.53 61.85 59.03 61.69 58.54 61.53 58.04 61.37 57.54 61.21 57.03 61.05 56.53 60.89 56.03 60.74 55.53 60.59 55.02 60.44 54.52 60.3 54.02 60.16 53.52 60.02 53.02 59.88 52.52 59.74 52.02 59.61 51.52 59.49 51.03 59.36 50.54 59.24 50.05 59.12 49.56 59 49.08 58.89 48.59 58.78 48.11 58.68 47.64 58.57 47.16 58.48 46.69 58.38 46.23 58.29 45.76 58.2 45.3 58.11 44.85 58.03 44.4 57.95 43.95 57.88 43.51 57.8 43.07 57.74 42.63 57.67 42.2 57.61 41.78 57.55 41.36 57.5 40.94 57.45 40.53 57.4 40.13 57.36 39.73 57.32 39.33 57.28 38.94 57.24 38.55 57.21 38.17 57.19 37.8 57.16 37.43 57.14 37.06 57.13 36.7 57.11 36.35 57.1 36 57.09 35.66 57.09 35.32 57.08 34.99 57.09 34.67 57.09 34.34 57.1 34.03 57.11 33.72 57.12 33.41 57.13 33.12 57.15 32.82 57.17 32.53 57.2 32.25 57.23 31.98 57.25 31.7 57.28 31.44 57.32 31.18 57.36 30.92 57.4 30.67 57.44 30.42 57.48 30.18 57.53 29.95 57.57 29.72 57.63 29.5 57.68 29.27 57.73 29.06 57.79 28.85 57.85 28.64 57.91 28.45 57.97 28.25 58.03 28.06 58.1 27.87 58.17 27.69 58.24 27.52 58.31 27.34 58.38 27.18 58.46 27.01 58.53 26.85 58.61 26.7 58.69 26.55 58.77 26.4 58.86 26.26 58.94 26.12 59.02 25.99 59.11 25.86 59.2 25.73 59.29 25.61 59.38 25.49 59.47 25.37 59.56 25.26 59.65 25.15 59.75 25.05 59.84 24.94 59.94 24.84 60.03 24.75 60.13 24.66 60.23 24.57 60.33 24.48 60.43 24.4 60.53 24.32 60.63 24.24 60.74 24.16 60.84 24.09 60.94 24.02 61.05 23.96 61.15 23.89 61.26 23.83 61.36 23.77 61.47 23.71 61.58 23.66 61.69 23.6 61.79 23.55 61.9 23.5 62.01 23.46 62.12 23.41 62.23 23.37 62.34 23.33 62.45 23.29 62.56 23.25 62.67 23.22 62.78 23.18 62.9 23.15 63.01 23.12 63.12 23.09 63.23 23.06 63.35 23.03 63.46 23.01 63.57 22.98 63.69 22.96 63.8 22.94 63.91 22.92 64.03 22.9 64.14 22.88 64.25 22.86 64.37 22.84 64.48 22.83 64.6 22.81 64.71 22.8 64.83 22.79 64.94 22.77 65.06 22.76 65.17 22.75 65.28 22.74 65.4 22.73 65.52 22.72 65.63 22.71 65.75 22.7 65.86 22.7 65.97 22.69 66.09 22.68 66.21 22.68 66.32 22.67 66.44 22.67 66.55 22.66 66.67 22.66 66.78 22.66 66.9 22.65 67.01 22.65 67.13 22.65 67.24 22.64 67.36 22.64 67.47 22.64 67.59 22.64 67.7 22.64 67.82 22.64 67.94 22.64 68.05 22.64 68.17 22.64 68.28 22.64 68.4 22.64 68.51 22.64 68.63 22.64 68.74 22.64 68.86 22.64 68.97 22.64 69.09 22.64 69.2 22.64 69.32 22.65 69.44 22.65 69.55 22.65 69.67 22.66 69.78 22.66 69.9 22.66 70.01 22.67 70.13 22.67 70.24 22.68 70.36 22.68 70.47 22.69 70.59 22.7 70.7 22.7 70.82 22.71 70.93 22.72 71.05 22.73 71.16 22.73 71.28 22.74 71.39 22.75 71.51 22.76 71.62 22.77 71.74 22.79 71.85 22.8 71.97 22.81 72.08 22.83 72.2 22.84 72.31 22.86 72.42 22.87 72.54 22.89 72.65 22.91 72.77 22.93 72.88 22.95 72.99 22.97 73.11 23 73.22 23.02 73.33 23.05 73.45 23.07 73.56 23.1 73.67 23.13 73.79 23.16 73.9 23.19 74.01 23.23 74.12 23.26 74.23 23.3 74.34 23.34 74.46 23.38 74.57 23.42 74.68 23.46 74.79 23.51 74.9 23.55 75.01 23.6 75.11 23.66 75.22 23.71 75.33 23.77 75.44 23.82 75.55 23.88 75.65 23.95 75.76 24.01 75.86 24.08 75.97 24.15 76.07 24.22 76.18 24.3 76.28 24.38 76.38 24.46 76.48 24.54 76.58 24.63 76.68 24.72 76.78 24.81 76.88 24.91 76.98 25.01 77.08 25.11 77.17 25.22 77.27 25.33 77.36 25.44 77.45 25.55 77.55 25.68 77.64 25.8 77.72 25.93 77.81 26.06 77.9 26.19 77.99 26.33 78.07 26.47 78.15 26.62 78.24 26.77 78.32 26.93 78.39 27.09 78.47 27.25 78.55 27.42 78.62 27.59 78.7 27.77 78.77 27.95 78.84 28.14 78.91 28.33 78.97 28.52 79.03 28.73 79.1 28.93 79.16 29.14 79.22 29.36 79.27 29.57 79.33 29.8 79.38 30.03 79.43 30.27 79.48 30.51 79.52 30.75 79.57 31 79.61 31.26 79.65 31.52 79.68 31.79 79.72 32.06 79.75 32.34 79.78 32.62 79.8 32.91 79.83 33.2 79.85 33.5 79.87 33.8 79.88 34.11 79.89 34.43 79.9 34.75 79.91 35.08 79.91 35.41 79.92 35.74 79.91 36.09 79.91 36.44 79.9 36.79 79.89 37.15 79.87 37.51 79.86 37.88 79.84 38.26 79.81 38.64 79.78 39.02 79.75 39.41 79.72 39.81 79.68 40.21 79.64 40.61 79.6 41.02 79.55 41.44 79.5 41.86 79.44 42.28 79.39 42.71 79.33 43.15 79.26 43.58 79.19 44.03 79.12 44.47 79.05 44.92 78.97 45.38 78.89 45.84 78.8 46.3 78.71 46.77 78.62 47.23 78.52 47.71 78.42 48.18 78.32 48.66 78.22 49.14 78.11 49.63 78 50.12 77.88 50.6 77.76 51.09 77.64 51.59 77.51 52.08 77.39 52.58 77.25 53.08 77.12 53.58 76.98 54.08 76.84 54.58 76.7 55.08 76.56 55.58 76.41 56.08 76.26 56.59 76.11 57.09 75.95 57.59 75.8 58.09 75.64 58.58 75.48 59.08 75.31 59.58 75.15 60.07 74.98 60.56 74.82 61.05 74.65 61.53 74.48 62.02 74.31 62.49 74.14 62.97 73.96 63.44 73.79 63.91 73.62 64.37 73.44 64.83 73.27 65.28 73.09 65.72 72.92 66.16 72.75 66.6 72.57 67.02 72.4 67.44 72.23 67.86 72.06 68.26 71.89 68.66 71.72 69.05 71.56 69.43 71.39 69.81 71.23 70.17 71.07 70.53 70.91 70.87 70.76 71.2 70.61 71.53 70.46 71.84 70.32 72.15 70.18 72.44 70.04 72.72 69.91 72.99 69.78 73.24 69.66 73.49 69.54 73.72 69.43 73.94 69.32 74.14 69.22 74.33 69.12 74.51 69.03 74.68 68.95 74.83 68.87 74.96 68.8 75.08 68.74 75.19 68.68 75.28 68.63 75.36 68.59 75.42 68.56 75.46 68.54 75.49 68.52 75.5 68.51 75.5 68.51 75.48 68.53 75.45 68.54 75.4 68.57 75.33 68.61 75.25 68.66 75.14 68.72 75.03 68.79 74.89 68.87 74.74 68.96 74.58 69.06 74.39 69.17 74.19 69.29 73.97 69.42 73.74 69.57 73.49 69.72 73.23 69.89 72.94 70.07 72.65 70.26 72.33 70.46 72 70.67 71.66 70.89 71.3 71.13 70.92 71.38 70.53 71.64 70.13 71.91 69.71 72.19 69.28 72.48 68.83 72.79 68.37 73.1 67.9 73.43 67.41 73.77 66.92 74.12 66.41 74.48 65.89 74.85 65.36 75.23 64.81 75.62 64.26 76.03 63.7 76.44 63.13 76.86 62.55 77.29 61.97 77.73 61.38 78.18 60.78 78.64 60.17 79.1 59.56 79.58 58.94 80.06 58.32 80.54 57.7 81.04 57.07 81.54 56.44 82.05 55.81 82.56 55.18 83.08 54.55 83.6 53.92 84.13 53.29 84.66 52.66 85.19 52.03 85.72 51.41 86.26 50.8 86.8 50.18 87.34 49.58 87.88 48.98 88.41 48.38 88.95 47.8 89.49 47.22 90.02 46.65 90.55 46.1 91.08 45.55 91.6 45.01 92.12 44.49 92.63 43.98 93.14 43.49 93.64 43.01 94.13 42.54 94.62 42.09 95.09 41.66 95.56 41.24 96.02 40.84 96.46 40.46 96.89 40.1 97.31 39.75 97.72 39.43 98.12 39.13 98.5 38.85 98.86 38.59 99.21 38.35 99.55 38.14 99.87 37.95 100.17 37.78 100.45 37.64 100.71 37.52 100.96 37.42 101.19 37.35 101.39 37.3 101.58 37.28 101.74 37.28 101.89 37.31 102.01 37.36 102.11 37.44 102.19 37.55 102.24 37.68 102.27 37.84 102.28 38.02 102.27 38.22 102.23 38.45 102.17 38.71 102.08 38.99 101.97 39.3 101.84 39.63 101.68 39.98 101.49 40.36 101.29 40.76 101.06 41.18 100.8 41.63 100.52 42.09 100.22 42.58 99.89 43.09 99.55 43.62 99.17 44.16 98.78 44.73 98.36 45.31 97.93 45.91 97.47 46.52 96.99 47.15 96.5 47.8 95.98 48.46 95.44 49.13 94.89 49.81 94.32 50.5 93.73 51.2 93.13 51.92 92.52 52.63 91.89 53.36 91.25 54.09 90.59 54.83 89.93 55.56 89.25 56.3 88.57 57.04 87.88 57.78 87.19 58.52 86.48 59.26 85.78 59.99 85.07 60.72 84.36 61.45 83.66 62.16 82.95 62.87 82.24 63.57 81.54 64.26 80.84 64.94 80.15 65.6 79.47 66.25 78.79 66.89 78.13 67.5 77.48 68.11 76.84 68.69 76.21 69.26 75.6 69.81 75.01 70.33 74.44 70.84 73.88 71.32 73.35 71.78 72.84 72.22 72.35 72.63 71.88 73.01 71.44 73.37 71.03 73.71 70.65 74.01 70.29 74.29 69.97 74.54 69.67 74.77 69.41 74.96 69.18 75.12 68.98 75.26 68.81 75.37 68.69 75.44 68.59 75.49 68.53 75.51 68.51 75.49 68.53 75.45 68.58 75.38 68.67 75.28 68.8 75.15 68.97 74.99 69.17 74.8 69.42 74.59 69.7 74.35 70.02 74.08 70.37 73.78 70.77 73.46 71.2 73.12 71.67 72.75 72.17 72.36 72.71 71.94 73.28 71.51 73.89 71.05 74.54 70.57 75.21 70.08 75.92 69.56 76.65 69.04 77.42 68.49 78.21 67.93 79.03 67.36 79.88 66.78 80.75 66.19 81.64 65.59 82.55 64.98 83.48 64.36 84.43 63.74 85.39 63.12 86.37 62.49 87.36 61.87 88.36 61.24 89.37 60.61 90.38 59.99 91.4 59.38 92.42 58.77 93.45 58.16 94.47 57.57 95.48 56.99 96.49 56.41 97.5 55.85 98.49 55.31 99.47 54.78 100.43 54.26 101.38 53.77 102.31 53.29 103.22 52.83 104.1 52.4 104.97 51.98 105.8 51.59 106.61 51.22 107.38 50.88 108.12 50.56 108.83 50.26 109.5 50 110.14 49.76 110.73 49.55 111.29 49.37 111.8 49.21 112.27 49.09 112.7 48.99 113.08 48.93 113.41 48.9 113.69 48.89 113.92 48.91 114.11 48.97 114.25 49.05 114.33 49.17 114.36 49.31 114.34 49.48 114.27 49.69 114.15 49.92 113.97 50.17 113.75 50.46 113.47 50.77 113.14 51.11 112.76 51.47 112.33 51.85 111.85 52.26 111.32 52.69 110.75 53.15 110.13 53.62 109.46 54.11 108.75 54.62 108 55.15 107.21 55.69 106.38 56.24 105.51 56.81 104.61 57.4 103.67 57.99 102.71 58.59 101.72 59.2 100.69 59.81 99.65 60.43 98.58 61.05 97.5 61.68 96.39 62.31 95.28 62.93 94.15 63.55 93.02 64.17 91.88 64.79 90.73 65.39 89.59 66 88.45 66.59 87.32 67.17 86.19 67.74 85.08 68.29 83.98 68.84 82.9 69.36 81.84 69.88 80.8 70.37 79.79 70.84 78.8 71.3 77.85 71.74 76.93 72.15 76.05 72.55 75.2 72.92 74.4 73.27 73.64 73.59 72.92 73.89 72.25 74.16 71.64 74.41 71.07 74.64 70.56 74.84 70.1 75.01 69.69 75.16 69.35 75.28 69.06 75.38 68.83 75.44 68.67 75.49 68.56 75.51 68.51 75.5 68.53 75.47 68.61 75.41 68.75 75.33 68.96 75.23 69.22 75.1 69.55 74.95 69.94 74.79 70.39 74.6 70.9 74.39 71.46 74.16 72.09 73.92 72.77 73.65 73.5 73.38 74.28 73.08 75.12 72.78 76 72.46 76.93 72.13 77.91 71.8 78.92 71.45 79.97 71.09 81.06 70.73 82.19 70.36 83.34 70 84.52 69.62 85.72 69.25 86.95 68.87 88.19 68.5 89.45 68.13 90.72 67.76 92 67.4 93.28 67.04 94.56 66.69 95.84 66.35 97.11 66.02 98.37 65.7 99.62 65.39 100.86 65.09 102.07 64.8 103.26 64.53 104.42 64.27 105.55 64.03 106.65 63.8 107.71 63.59 108.73 63.4 109.71 63.23 110.65 63.07 111.53 62.93 112.36 62.81 113.15 62.71 113.87 62.63 114.54 62.57 115.14 62.53 115.69 62.51 116.17 62.51 116.59 62.53 116.94 62.57 117.22 62.63 117.44 62.7 117.58 62.8 117.66 62.91 117.66 63.04 117.6 63.19 117.46 63.35 117.26 63.53 116.98 63.73 116.64 63.94 116.23 64.17 115.75 64.41 115.2 64.66 114.59 64.92 113.92 65.19 113.19 65.48 112.39 65.77 111.55 66.07 110.64 66.38 109.69 66.69 108.68 67.01 107.63 67.34 106.54 67.67 105.4 68 104.23 68.33 103.03 68.66 101.79 68.99 100.53 69.32 99.24 69.65 97.94 69.98 96.62 70.3 95.29 70.62 93.95 70.93 92.61 71.24 91.27 71.54 89.94 71.83 88.61 72.11 87.3 72.38 86 72.65 84.72 72.9 83.47 73.15 82.24 73.38 81.05 73.6 79.89 73.81 78.77 74.01 77.69 74.2 76.66 74.37 75.68 74.53 74.75 74.68 73.88 74.82 73.06 74.94 72.31 75.05 71.61 75.15 70.99 75.23 70.43 75.31 69.94 75.37 69.51 75.42 69.17 75.46 68.89 75.48 68.69 75.5 68.56 75.51 68.51 75.5 68.54 75.49 68.64 75.47 68.82 75.44 69.08 75.4 69.4 75.36 69.81 75.31 70.28 75.25 70.83 75.19 71.45 75.13 72.14 75.06 72.9 74.98 73.72 74.91 74.61 74.83 75.55 74.75 76.55 74.67 77.61 74.59 78.71 74.51 79.87 74.44 81.07 74.36 82.31 74.29 83.59 74.22 84.91 74.15 86.25 74.09 87.63 74.03 89.02 73.97 90.43 73.92 91.86 73.88 93.3 73.84 94.74 73.81 96.18 73.79 97.62 73.77 99.05 73.76 100.47 73.76 101.88 73.76 103.27 73.77 104.63 73.79 105.96 73.81 107.26 73.85 108.53 73.89 109.75 73.93 110.93 73.98 112.07 74.05 113.15 74.11 114.18 74.18 115.16 74.26 116.07 74.34 116.92 74.43 117.71 74.53 118.43 74.62 119.08 74.72 119.65 74.83 120.16 74.94 120.59 75.05 120.94 75.16 121.22 75.28 121.41 75.39 121.53 75.51 121.57 75.62 121.53 75.74 121.42 75.85 121.22 75.96 120.94 76.08 120.59 76.18 120.16 76.29 119.66 76.39 119.08 76.49 118.44 76.58 117.72 76.67 116.93 76.75 116.08 76.83 115.17 76.9 114.2 76.97 113.17 77.03 112.08 77.08 110.95 77.13 109.77 77.17 108.54 77.2 107.28 77.22 105.98 77.24 104.64 77.25 103.28 77.26 101.9 77.25 100.49 77.24 99.07 77.22 97.64 77.2 96.2 77.17 94.75 77.13 93.31 77.09 91.87 77.04 90.45 76.99 89.03 76.93 87.64 76.86 86.27 76.8 84.92 76.73 83.61 76.65 82.33 76.58 81.08 76.5 79.88 76.42 78.72 76.34 77.61 76.26 76.56 76.19 75.56 76.11 74.61 76.03 73.73 75.96 72.9 75.89 72.15 75.82 71.46 75.76 70.84 75.7 70.29 75.65 69.81 75.61 69.41 75.57 69.08 75.54 68.82 75.52 68.64 75.51 68.54 75.51 68.51 75.51 68.56 75.53 68.69 75.56 68.89 75.59 69.17 75.64 69.52 75.71 69.94 75.78 70.43 75.87 70.99 75.96 71.62 76.07 72.31 76.2 73.07 76.33 73.89 76.48 74.76 76.64 75.69 76.82 76.67 77 77.71 77.2 78.78 77.41 79.91 77.64 81.06 77.87 82.26 78.11 83.49 78.37 84.74 78.63 86.02 78.91 87.32 79.19 88.64 79.48 89.97 79.78 91.31 80.09 92.65 80.4 94 80.72 95.34 81.04 96.67 81.37 97.99 81.7 99.3 82.03 100.58 82.36 101.85 82.7 103.09 83.03 104.29 83.36 105.47 83.69 106.61 84.02 107.7 84.34 108.76 84.65 109.76 84.96 110.72 85.26 111.63 85.56 112.48 85.84 113.27 86.11 114.01 86.38 114.68 86.63 115.3 86.87 115.84 87.09 116.32 87.31 116.74 87.5 117.08 87.69 117.36 87.85 117.57 88 117.7 88.13 117.77 88.24 117.76 88.34 117.69 88.42 117.54 88.47 117.33 88.51 117.05 88.53 116.7 88.53 116.28 88.51 115.8 88.47 115.25 88.41 114.64 88.33 113.97 88.23 113.25 88.11 112.47 87.97 111.63 87.82 110.75 87.64 109.81 87.45 108.83 87.24 107.81 87.01 106.74 86.77 105.64 86.51 104.51 86.24 103.34 85.95 102.15 85.65 100.94 85.34 99.7 85.02 98.45 84.68 97.18 84.34 95.91 83.99 94.63 83.63 93.34 83.27 92.06 82.9 90.78 82.53 89.5 82.16 88.24 81.78 87 81.41 85.77 81.03 84.56 80.66 83.38 80.29 82.22 79.93 81.1 79.58 80 79.23 78.95 78.89 77.93 78.56 76.95 78.24 76.02 77.93 75.14 77.64 74.3 77.36 73.51 77.1 72.78 76.86 72.1 76.63 71.47 76.42 70.9 76.23 70.39 76.06 69.94 75.91 69.55 75.79 69.22 75.68 68.96 75.6 68.75 75.55 68.61 75.51 68.53 75.51 68.51 75.53 68.56 75.57 68.67 75.64 68.83 75.73 69.06 75.86 69.35 76 69.7 76.18 70.1 76.38 70.56 76.6 71.08 76.85 71.65 77.13 72.27 77.43 72.94 77.76 73.66 78.11 74.42 78.48 75.22 78.87 76.07 79.29 76.96 79.73 77.88 80.19 78.84 80.66 79.83 81.16 80.84 81.67 81.88 82.2 82.95 82.75 84.03 83.3 85.14 83.88 86.25 84.46 87.39 85.05 88.52 85.65 89.67 86.26 90.81 86.88 91.96 87.5 93.11 88.13 94.25 88.75 95.38 89.38 96.5 90.01 97.6 90.64 98.69 91.26 99.76 91.88 100.81 92.49 101.84 93.09 102.83 93.68 103.8 94.27 104.74 94.84 105.65 95.4 106.52 95.94 107.35 96.47 108.15 96.98 108.9 97.48 109.61 97.95 110.28 98.41 110.91 98.84 111.48 99.25 112.01 99.64 112.5 100 112.93 100.34 113.31 100.65 113.64 100.94 113.92 101.19 114.15 101.42 114.32 101.63 114.45 101.8 114.52 101.95 114.54 102.06 114.51 102.15 114.42 102.2 114.29 102.23 114.1 102.22 113.87 102.19 113.58 102.12 113.25 102.03 112.87 101.9 112.44 101.75 111.97 101.57 111.46 101.36 110.9 101.12 110.3 100.85 109.67 100.56 108.99 100.24 108.28 99.89 107.53 99.52 106.76 99.13 105.95 98.71 105.11 98.27 104.25 97.81 103.36 97.33 102.45 96.83 101.51 96.32 100.56 95.79 99.59 95.24 98.61 94.68 97.61 94.1 96.61 93.52 95.59 92.92 94.57 92.32 93.55 91.7 92.52 91.08 91.5 90.46 90.47 89.83 89.46 89.2 88.44 88.58 87.44 87.95 86.44 87.32 85.46 86.7 84.49 86.08 83.54 85.47 82.61 84.86 81.69 84.27 80.8 83.68 79.92 83.11 79.08 82.55 78.25 82 77.46 81.47 76.69 80.96 75.95 80.46 75.24 79.98 74.56 79.53 73.92 79.09 73.31 78.67 72.73 78.28 72.19 77.91 71.68 77.56 71.21 77.24 70.78 76.94 70.38 76.67 70.02 76.43 69.7 76.21 69.42 76.03 69.17 75.87 68.97 75.73 68.8 75.63 68.67 75.56 68.58 75.52 68.53 75.51 68.51 75.52 68.53 75.57 68.59 75.65 68.69 75.75 68.81 75.89 68.98 76.06 69.18 76.25 69.41 76.47 69.67 76.73 69.97 77.01 70.3 77.31 70.66 77.65 71.04 78.01 71.46 78.4 71.9 78.81 72.36 79.25 72.85 79.71 73.37 80.19 73.9 80.7 74.46 81.23 75.04 81.78 75.63 82.35 76.24 82.94 76.87 83.54 77.51 84.16 78.17 84.8 78.83 85.45 79.51 86.12 80.2 86.8 80.89 87.49 81.59 88.19 82.3 88.9 83.01 89.62 83.72 90.35 84.43 91.08 85.14 91.82 85.85 92.56 86.56 93.3 87.26 94.05 87.96 94.79 88.66 95.53 89.34 96.27 90.02 97.01 90.68 97.74 91.34 98.47 91.98 99.19 92.62 99.91 93.23 100.61 93.84 101.31 94.43 101.99 95 102.67 95.55 103.33 96.09 103.97 96.61 104.61 97.11 105.23 97.59 105.83 98.05 106.41 98.49 106.98 98.91 107.53 99.3 108.06 99.67 108.57 100.02 109.06 100.35 109.52 100.65 109.97 100.93 110.39 101.19 110.8 101.42 111.18 101.63 111.53 101.81 111.86 101.97 112.17 102.11 112.45 102.22 112.71 102.3 112.94 102.37 113.15 102.41 113.33 102.42 113.49 102.41 113.62 102.38 113.72 102.32 113.8 102.25 113.86 102.14 113.89 102.02 113.89 101.88 113.87 101.71 113.82 101.52 113.75 101.32 113.65 101.09 113.53 100.84 113.38 100.58 113.22 100.29 113.02 99.99 112.81 99.67 112.57 99.34 112.31 98.98 112.03 98.62 111.72 98.23 111.4 97.84 111.06 97.43 110.69 97 110.31 96.57 109.91 96.12 109.49 95.67 109.06 95.2 108.6 94.72 108.13 94.23 107.65 93.74 107.15 93.24 106.64 92.73 106.12 92.21 105.58 91.69 105.03 91.17 104.47 90.64 103.9 90.1 103.32 89.57 102.73 89.03 102.14 88.49 101.54 87.95 100.93 87.41 100.31 86.87 99.69 86.33 99.07 85.79 98.44 85.25 97.81 84.72 97.18 84.18 96.54 83.66 95.91 83.13 95.27 82.61 94.64 82.1 94.01 81.59 93.38 81.08 92.75 80.59 92.13 80.1 91.51 79.62 90.9 79.14 90.29 78.67 89.69 78.21 89.09 77.76 88.5 77.32 87.92 76.89 87.35 76.47 86.79 76.05 86.24 75.65 85.69 75.25 85.16 74.87 84.64 74.5 84.13 74.14 83.63 73.79 83.14 73.45 82.67 73.12 82.21 72.8 81.76 72.49 81.32 72.2 80.9 71.92 80.5 71.65 80.11 71.39 79.73 71.14 79.37 70.9 79.02 70.68 78.69 70.46 78.38 70.26 78.08 70.07 77.79 69.89 77.53 69.73 77.28 69.57 77.04 69.43 76.83 69.29 76.62 69.17 76.44 69.06 76.27 68.96 76.12 68.87 75.99 68.79 75.87 68.72 75.77 68.66 75.68 68.61 75.62 68.57 75.56 68.54 75.53 68.53 75.51 68.51 75.51 68.51 75.52 68.52 75.55 68.54 75.6 68.56 75.66 68.59 75.73 68.63 75.82 68.68 75.93 68.74 76.05 68.8 76.19 68.87 76.34 68.95 76.5 69.03 76.68 69.12 76.88 69.22 77.08 69.32 77.3 69.43 77.53 69.54 77.78 69.66 78.03 69.79 78.3 69.91 78.58 70.05 78.88 70.18 79.18 70.32 79.5 70.47 79.82 70.62 80.16 70.77 80.5 70.92 80.86 71.08 81.22 71.24 81.6 71.4 81.98 71.56 82.37 71.73 82.77 71.9 83.18 72.07 83.59 72.24 84.01 72.41 84.44 72.58 84.88 72.76 85.32 72.93 85.77 73.11 86.22 73.28 86.68 73.46 87.14 73.63 87.61 73.81 88.08 73.98 88.56 74.15 89.04 74.33 89.52 74.5 90 74.67 90.5 74.83 90.99 75 91.48 75.17 91.98 75.33 92.47 75.5 92.97 75.66 93.47 75.82 93.97 75.97 94.48 76.13 94.98 76.28 95.48 76.43 95.98 76.58 96.49 76.72 96.99 76.87 97.49 77.01 97.99 77.14 98.49 77.28 98.99 77.41 99.48 77.54 99.98 77.66 100.47 77.78 100.96 77.9 101.45 78.02 101.93 78.13 102.42 78.24 102.89 78.34 103.37 78.45 103.84 78.55 104.31 78.64 104.78 78.73 105.24 78.82 105.7 78.91 106.16 78.99 106.61 79.07 107.06 79.14 107.5 79.22 107.94 79.28 108.37 79.35 108.8 79.41 109.23 79.47 109.65 79.52 110.06 79.57 110.47 79.62 110.88 79.66 111.28 79.7 111.67 79.74 112.06 79.78 112.45 79.81 112.83 79.83 113.2 79.86 113.57 79.88 113.94 79.9 114.3 79.91 114.65 79.92 115 79.93 115.34 79.93 115.68 79.94 116.01 79.94 116.34 79.93 116.66 79.92 116.97 79.91 117.28 79.9 117.59 79.89 117.88 79.87 118.18 79.85 118.47 79.82 118.75 79.8 119.03 79.77 119.3 79.73 119.56 79.7 119.82 79.66 120.08 79.63 120.33 79.58 120.58 79.54 120.81 79.49 121.05 79.45 121.28 79.39 121.5 79.34 121.72 79.29 121.94 79.23 122.15 79.17 122.35 79.11 122.55 79.05 122.75 78.98 122.94 78.92 123.12 78.85 123.3 78.78 123.48 78.71 123.65 78.64 123.82 78.56 123.98 78.48 124.14 78.41 124.3 78.33 124.45 78.25 124.59 78.17 124.74 78.08 124.87 78 125.01 77.91 125.14 77.82 125.27 77.73 125.39 77.64 125.51 77.55 125.62 77.46 125.73 77.37 125.84 77.28 125.95 77.18 126.05 77.08 126.15 76.99 126.25 76.89 126.34 76.79 126.43 76.69 126.51 76.59 126.59 76.49 126.67 76.39 126.75 76.28 126.83 76.18 126.9 76.08 126.97 75.97 127.04 75.87 127.1 75.76 127.16 75.66 127.22 75.55 127.28 75.44 127.33 75.33 127.39 75.23 127.44 75.12 127.49 75.01 127.53 74.9 127.58 74.79 127.62 74.68 127.66 74.57 127.7 74.46 127.74 74.35 127.77 74.24 127.81 74.12 127.84 74.01 127.87 73.9 127.9 73.79 127.93 73.67 127.96 73.56 127.98 73.45 128.01 73.34 128.03 73.22 128.05 73.11 128.07 73 128.09 72.88 128.11 72.77 128.13 72.65 128.15 72.54 128.16 72.42 128.18 72.31 128.19 72.2 128.2 72.08 128.22 71.97 128.23 71.85 128.24 71.74 128.25 71.62 128.26 71.51 128.27 71.39 128.27 71.28 128.28 71.16 128.29 71.05 128.3 70.93 128.3 70.82 128.31 70.7 128.31 70.59 128.32 70.47 128.32 70.36 128.33 70.24 128.33 70.13 128.33 70.01 128.34 69.89 128.34 69.78 128.34 69.67 128.34 69.55 128.34 69.43 128.35 69.32 128.35 69.2 128.35 69.09 128.35 68.97 128.35 68.86 128.35 68.74 128.35 68.63 128.35 68.51"/><polygon class="cls-5" points="128.59 68.5 128.57 69.89 128.51 71.27 128.43 72.65 128.3 74.01 128.15 75.37 127.95 76.71 127.73 78.04 127.47 79.36 127.18 80.67 126.86 81.97 126.51 83.25 126.12 84.52 125.71 85.78 125.26 87.02 124.79 88.25 124.28 89.47 123.75 90.67 123.19 91.85 122.6 93.01 121.98 94.16 121.34 95.3 120.66 96.41 119.97 97.51 119.24 98.58 118.49 99.64 117.72 100.69 116.92 101.7 116.1 102.7 115.25 103.69 114.38 104.64 113.49 105.58 112.57 106.5 111.64 107.39 110.68 108.26 109.7 109.1 108.7 109.93 107.68 110.73 106.64 111.5 105.58 112.25 104.5 112.97 103.4 113.67 102.29 114.34 101.16 114.99 100.01 115.6 98.84 116.19 97.66 116.76 96.46 117.29 95.25 117.79 94.02 118.27 92.78 118.71 91.52 119.13 90.25 119.51 88.96 119.87 87.67 120.19 86.36 120.48 85.04 120.73 83.7 120.96 82.36 121.15 81 121.31 79.64 121.43 78.27 121.52 76.88 121.57 75.49 121.59 74.1 121.57 72.72 121.52 71.34 121.43 69.98 121.31 68.63 121.15 67.28 120.96 65.95 120.73 64.63 120.48 63.32 120.19 62.02 119.87 60.74 119.51 59.47 119.13 58.21 118.71 56.97 118.27 55.74 117.79 54.52 117.29 53.33 116.76 52.14 116.19 50.98 115.6 49.83 114.99 48.7 114.34 47.58 113.67 46.48 112.97 45.41 112.25 44.35 111.5 43.31 110.73 42.28 109.93 41.28 109.1 40.31 108.26 39.35 107.39 38.41 106.5 37.49 105.58 36.6 104.64 35.73 103.69 34.89 102.7 34.06 101.7 33.27 100.69 32.49 99.64 31.74 98.58 31.02 97.51 30.32 96.41 29.65 95.3 29 94.16 28.39 93.01 27.8 91.85 27.23 90.67 26.7 89.47 26.2 88.25 25.72 87.02 25.28 85.78 24.86 84.52 24.48 83.25 24.12 81.97 23.8 80.67 23.51 79.36 23.25 78.04 23.03 76.71 22.84 75.37 22.68 74.01 22.56 72.65 22.47 71.27 22.42 69.89 22.4 68.5 22.42 67.11 22.47 65.72 22.56 64.35 22.68 62.98 22.84 61.63 23.03 60.29 23.25 58.95 23.51 57.63 23.8 56.33 24.12 55.03 24.48 53.74 24.86 52.47 25.28 51.22 25.72 49.97 26.2 48.74 26.7 47.53 27.23 46.33 27.8 45.15 28.39 43.98 29 42.83 29.65 41.7 30.32 40.59 31.02 39.49 31.74 38.41 32.49 37.35 33.27 36.31 34.06 35.29 34.89 34.29 35.73 33.31 36.6 32.35 37.49 31.42 38.41 30.5 39.35 29.61 40.31 28.74 41.28 27.89 42.28 27.07 43.31 26.27 44.35 25.5 45.41 24.75 46.48 24.02 47.58 23.33 48.7 22.65 49.83 22.01 50.98 21.39 52.14 20.8 53.33 20.24 54.52 19.71 55.74 19.2 56.97 18.73 58.21 18.28 59.47 17.87 60.74 17.48 62.02 17.13 63.32 16.81 64.63 16.52 65.95 16.26 67.28 16.04 68.63 15.85 69.98 15.69 71.34 15.57 72.72 15.48 74.1 15.42 75.49 15.41 76.88 15.42 78.27 15.48 79.64 15.57 81 15.69 82.36 15.85 83.7 16.04 85.04 16.26 86.36 16.52 87.67 16.81 88.96 17.13 90.25 17.48 91.52 17.87 92.78 18.28 94.02 18.73 95.25 19.2 96.46 19.71 97.66 20.24 98.84 20.8 100.01 21.39 101.16 22.01 102.29 22.65 103.4 23.33 104.5 24.02 105.58 24.75 106.64 25.5 107.68 26.27 108.7 27.07 109.7 27.89 110.68 28.74 111.64 29.61 112.57 30.5 113.49 31.42 114.38 32.35 115.25 33.31 116.1 34.29 116.92 35.29 117.72 36.31 118.49 37.35 119.24 38.41 119.97 39.49 120.66 40.59 121.34 41.7 121.98 42.83 122.6 43.98 123.19 45.15 123.75 46.33 124.28 47.53 124.79 48.74 125.26 49.97 125.71 51.22 126.12 52.47 126.51 53.74 126.86 55.03 127.18 56.33 127.47 57.63 127.73 58.95 127.95 60.29 128.15 61.63 128.3 62.98 128.43 64.35 128.51 65.72 128.57 67.11 128.59 68.5"/><text class="cls-6" transform="translate(45.29 70.26) scale(1.06 1)">0.5</text><text class="cls-6" transform="translate(66.53 70.26) scale(1.06 1)">0.1</text><text class="cls-6" transform="translate(24.06 70.26) scale(1.06 1)">0.9</text><text class="cls-7" transform="translate(69.06 10.73) scale(1.06 1)">90</text><text class="cls-7" transform="translate(65.82 133.33) scale(1.06 1)">270</text><text class="cls-8" transform="translate(0.73 71.23) scale(1.06 1)">180</text><text class="cls-7" transform="translate(134.15 71.39) scale(1.06 1)">0</text></g></svg>