<svg id="Capa_1" data-name="Capa 1" xmlns="http://www.w3.org/2000/svg" viewBox="0 0 472.58 186.8"><defs><style>.cls-1,.cls-9{font-size:12px;}.cls-1{font-family:LinLibertine, Linux Libertine;}.cls-2{fill-rule:evenodd;}.cls-3,.cls-5,.cls-6,.cls-7,.cls-8{fill:none;stroke-linecap:round;stroke-linejoin:round;}.cls-3{stroke:#0037ff;stroke-width:0.25px;}.cls-4{fill:#fff;}.cls-5,.cls-6,.cls-7{stroke:#000;stroke-width:0.52px;}.cls-6{stroke-dasharray:3;}.cls-7{stroke-dasharray:3.03 3.03;}.cls-8{stroke:#03f;stroke-width:1.5px;}.cls-10,.cls-9{font-family:LinLibertineI, Linux Libertine;}.cls-11{fill:#0000fe;}</style></defs><title>segmentedLFM</title><text class="cls-1" transform="translate(444.1 69.38)">Time</text><text class="cls-1" transform="translate(444.1 161.1)">Time</text><polyline class="cls-2" points="437.11 66.83 430.17 64.16 433.67 66.83 430.17 69.38 437.11 66.83"/><path class="cls-3" d="M317.4,141.48c1.63,0,1.63,34,3.25,34s1.63-34,3.25-34,1.63,34,3.25,34,1.63-34,3.25-34,1.62,34,3.25,34,1.62-34,3.25-34,1.62,34,3.25,34,1.62-34,3.25-34,1.62,34,3.25,34,1.62-34,3.25-34,1.62,34,3.25,34,1.62-34,3.25-34,1.62,34,3.25,34,1.62-34,3.24-34,1.63,34,3.25,34,1.62-34,3.25-34,1.62,34,3.25,34,1.62-34,3.25-34,1.62,34,3.25,34,1.62-34,3.25-34,1.62,34,3.25,34,1.63-34,3.25-34,1.63,34,3.25,34,1.63-34,3.26-34,1.62,34,3.25,34,1.62-34,3.25-34,1.63,34,3.25,34,1.63-34,3.26-34,1.63,34,3.26,34,1.63-34,3.26-34"/><rect class="cls-4" x="407.5" y="158.48" width="7.62" height="25.09"/><rect class="cls-4" x="410.52" y="136.68" width="7.62" height="45.06"/><rect class="cls-4" x="311.27" y="137.7" width="9.22" height="20.78"/><line class="cls-5" x1="31.71" y1="66.77" x2="433.67" y2="66.77"/><path class="cls-3" d="M135.74,141.48c1.62,0,1.62,34,3.25,34s1.62-34,3.25-34,1.62,34,3.24,34,1.63-34,3.25-34,1.63,34,3.25,34,1.63-34,3.25-34,1.63,34,3.25,34,1.63-34,3.25-34,1.63,34,3.25,34,1.63-34,3.25-34,1.63,34,3.25,34,1.63-34,3.25-34,1.63,34,3.25,34,1.62-34,3.25-34,1.62,34,3.24,34,1.63-34,3.25-34,1.63,34,3.25,34,1.63-34,3.25-34,1.63,34,3.25,34,1.63-34,3.25-34,1.63,34,3.25,34,1.63-34,3.25-34,1.63,34,3.26,34,1.62-34,3.25-34,1.63,34,3.25,34,1.63-34,3.25-34,1.63,34,3.26,34,1.62-34,3.25-34,1.63,34,3.26,34,1.63-34,3.26-34"/><rect class="cls-4" x="225.84" y="158.48" width="7.62" height="25.09"/><rect class="cls-4" x="228.41" y="136.68" width="7.62" height="45.06"/><rect class="cls-4" x="129.61" y="137.7" width="9.22" height="20.78"/><polyline class="cls-2" points="48.12 4.71 45.44 11.65 48.12 8.15 50.66 11.65 48.12 4.71"/><line class="cls-6" x1="88.75" y1="20.54" x2="48.05" y2="20.54"/><line class="cls-6" x1="91.99" y1="178.63" x2="91.99" y2="21.19"/><line class="cls-6" x1="318.89" y1="178.54" x2="318.89" y2="111.54"/><line class="cls-6" x1="273.65" y1="178.63" x2="273.65" y2="21.19"/><line class="cls-6" x1="410.52" y1="178.54" x2="410.52" y2="111.54"/><line class="cls-6" x1="228.42" y1="178.54" x2="228.42" y2="111.54"/><line class="cls-6" x1="137.22" y1="178.54" x2="137.22" y2="111.54"/><line class="cls-5" x1="134.35" y1="111.61" x2="132.85" y2="111.61"/><line class="cls-7" x1="129.83" y1="111.61" x2="52.63" y2="111.61"/><line class="cls-5" x1="51.12" y1="111.61" x2="49.62" y2="111.61"/><line class="cls-8" x1="228.41" y1="111.28" x2="273.61" y2="20.95"/><line class="cls-8" x1="318.89" y1="111.28" x2="273.69" y2="20.95"/><line class="cls-8" x1="46.74" y1="111.28" x2="91.95" y2="20.95"/><line class="cls-8" x1="137.23" y1="111.28" x2="92.02" y2="20.95"/><line class="cls-8" x1="137.23" y1="111.28" x2="228.41" y2="111.28"/><line class="cls-8" x1="318.89" y1="111.28" x2="410.08" y2="111.28"/><rect class="cls-4" x="35.92" y="83.83" width="12.18" height="38.05"/><line class="cls-5" x1="48.05" y1="117.32" x2="48.05" y2="8.18"/><text class="cls-9" transform="translate(4.5 27.61)">f</text><text class="cls-1" transform="translate(8.26 31.61) scale(0.58)">0</text><text class="cls-1" transform="translate(11.52 27.61)"><tspan xml:space="preserve"> + Δ</tspan><tspan class="cls-10" x="20.23" y="0">f</tspan></text><text class="cls-9" transform="translate(5.77 112.57)">f</text><text class="cls-1" transform="translate(9.53 116.57) scale(0.58)">0</text><text class="cls-1" transform="translate(12.79 112.57)"><tspan xml:space="preserve"> - Δ</tspan><tspan class="cls-10" x="17.68" y="0">f</tspan></text><text class="cls-9" transform="translate(16.49 68.78)">f</text><text class="cls-1" transform="translate(20.26 72.78) scale(0.58)">0</text><path class="cls-11" d="M92.9,156.26v2.62c-.08.08-.11,0-.13-.16a1.71,1.71,0,0,1,0-.39c0-1.23-.06-2.45,0-3.67,0-2.58,0-5.16,0-7.75v-1.59c0-1.23,0-2.45,0-3.68,0-.11,0-.23,0-.29,0,.62,0,1.3,0,2,0,2.26,0,4.52,0,6.77,0,1.76,0,3.52,0,5.28,0,1.1,0,2.21,0,3.32v.38c0,.71,0,1.43,0,2.15,0,.15,0,.31,0,.46,0,2.91,0,5.82,0,8.73,0,1.31,0,2.64,0,4s0,2.42-.07,3.63a2.85,2.85,0,0,1,0,.42c0,.11,0,.22-.11.23s-.12-.1-.15-.22a.86.86,0,0,1,0-.23c0-.62-.05-1.24-.05-1.87,0-1.75,0-3.5,0-5.24,0-1.45,0-2.9,0-4.34,0-1.84,0-3.68,0-5.52,0-1.59,0-3.18,0-4.77,0-1.84,0-3.68,0-5.51-.06-3.11,0-6.21,0-9.32a1.05,1.05,0,0,1,0-.18v.28c0,2.68,0,5.37,0,8.06,0,1.73,0,3.47,0,5.2,0,1.28,0,2.56,0,3.83,0,.74,0,1.49,0,2.23,0,2.88,0,5.76-.06,8.64,0,1.36,0,2.72,0,4.07s0,2.87-.08,4.3c0,.25,0,.56-.16.58s-.16-.31-.16-.55c0-1.72-.06-3.44-.09-5.16s0-3.39,0-5.08c0-1.39,0-2.77,0-4.15,0-1.94,0-3.89,0-5.83,0-1.64,0-3.28,0-4.92s0-3.16,0-4.74c0-2.24,0-4.48,0-6.72v-.75c0-.09,0-.2,0-.25a2.49,2.49,0,0,0,0,.41v.89c0,1.95,0,3.91,0,5.86,0,1.56,0,3.11,0,4.66s0,3,0,4.57c0,.51,0,1,0,1.52,0,1,0,2,0,3.05,0,1.93,0,3.86,0,5.79,0,1.38,0,2.76,0,4.14-.05,2-.05,3.94-.08,5.9,0,.33,0,.65,0,1s0,.43-.14.44-.17-.22-.18-.43c0-.53,0-1.07,0-1.6,0-1.76,0-3.52-.06-5.28,0-1.51,0-3,0-4.53s0-3.06,0-4.58c-.05-1.76,0-3.52,0-5.28,0-1.59,0-3.18,0-4.77s0-3.15,0-4.73c0-1.22,0-2.45,0-3.67,0-.73,0-1.46,0-2.19v-.69a2.62,2.62,0,0,1,0-.4c0,.14,0,.35,0,.56v.9c0,1.76,0,3.53,0,5.28,0,1.57,0,3.13,0,4.7,0,1.12,0,2.24,0,3.36s0,2.32-.06,3.47c0,.29,0,.57,0,.86,0,2.31,0,4.62-.05,6.92,0,1.37,0,2.74,0,4.11s0,2.5,0,3.75,0,2.45-.08,3.67a1.56,1.56,0,0,1,0,.31c0,.14-.08.25-.17.23s-.12-.15-.12-.3c0-.35,0-.7,0-1.05,0-1,0-2.06,0-3.09,0-1.95,0-3.91,0-5.86,0-1.49,0-3,0-4.46,0-1.72,0-3.45,0-5.16,0-1.53,0-3.05,0-4.58s0-3.23,0-4.85c0-1.33,0-2.66,0-4s0-2.56,0-3.9c0,0,0,0,0,0s0,0,0,0c0,1,0,2.09,0,3.13,0,1.46,0,2.92,0,4.38s0,3.15,0,4.73,0,3.39,0,5.08,0,3.18,0,4.77c0,1.38,0,2.76,0,4.14s0,2.85,0,4.27c0,1,0,2.06,0,3.08s0,2.12-.07,3.17c0,.21,0,.46-.16.44s-.16-.24-.16-.46c0-.64,0-1.27,0-1.91,0-1.45,0-2.9,0-4.34,0-1.19,0-2.38,0-3.56,0-1.72,0-3.44,0-5.16,0-1.52,0-3,0-4.54,0-1.67,0-3.34,0-5,0-1.44,0-2.87,0-4.31-.06-2.43,0-4.87-.05-7.31,0-.28,0-.57,0-.86,0,2.35,0,4.7,0,7,0,1.52,0,3,0,4.54s0,3,0,4.54c0,.3,0,.6,0,.89s0,.89,0,1.33c0,2.4,0,4.8,0,7.19,0,1.29,0,2.59,0,3.87s0,2.35,0,3.52,0,2.58-.08,3.87v.16c0,.21,0,.48-.18.47s-.13-.28-.14-.48c-.08-.8-.06-1.61-.07-2.41,0-1.48,0-2.95-.06-4.42,0-1.89,0-3.78,0-5.67,0-1.45,0-2.9,0-4.34-.05-1.63,0-3.26-.05-4.89,0-1.47,0-2.94,0-4.41s0-2.88,0-4.31,0-3.1,0-4.65c0-.3,0-.6,0-.89,0-.49,0-1,0-1.45a2.76,2.76,0,0,1,0-.29,2.19,2.19,0,0,0,0,.26c0,.13,0,.26,0,.39,0,1.42,0,2.84,0,4.26,0,1.22,0,2.43,0,3.64,0,1.45,0,2.9,0,4.34s0,3.16,0,4.73,0,2.92,0,4.38,0,3.08,0,4.62c0,1.3,0,2.6,0,3.91,0,1.91,0,3.83-.08,5.74,0,.47,0,.94,0,1.41a1.09,1.09,0,0,1,0,.26c0,.15-.07.3-.16.28s-.12-.16-.13-.31,0-.35,0-.54c0-.86,0-1.71,0-2.58,0-1.55,0-3.1,0-4.65,0-1.3,0-2.61,0-3.91,0-1.59,0-3.18,0-4.77,0-1,0-2,0-3,0-.75,0-1.51,0-2.26,0-2.43,0-4.85-.06-7.28,0-1.53,0-3.07,0-4.61,0-.74,0-1.48,0-2.23a10.2,10.2,0,0,1,0-1.36c0-.12,0-.06,0-.07h0c0,1,0,1.95,0,2.92,0,.44,0,.89,0,1.33,0,1.93,0,3.86-.05,5.79,0,1.34,0,2.68,0,4,0,1.61,0,3.21,0,4.81,0,1.41,0,2.82,0,4.22s0,2.95,0,4.42c0,1.12,0,2.25,0,3.37,0,1.74,0,3.49-.08,5.23,0,.33,0,.65,0,1s0,.45-.16.46-.15-.23-.17-.44c-.07-.87-.06-1.75-.06-2.62,0-1.61,0-3.23-.07-4.85s0-3.08,0-4.61c0-1.36,0-2.71,0-4.07,0-1.59,0-3.18,0-4.77,0-1.38,0-2.76,0-4.14s0-3,0-4.46,0-3.15-.05-4.73c0-1,0-2,0-3v-.41a2.42,2.42,0,0,1,0-.27c0,.07,0,.17,0,.26v.41c0,.47,0,.94,0,1.4,0,1.49,0,3,0,4.46a1.21,1.21,0,0,0,0,.19c0,2.23,0,4.46,0,6.69,0,1.72,0,3.45,0,5.16,0,1.36,0,2.72,0,4.07s0,2.66,0,4,0,2.59,0,3.88c0,1,0,2.08,0,3.12,0,1.33,0,2.66-.08,4a4.07,4.07,0,0,1,0,.61c0,.12-.06.21-.13.21s-.09-.08-.12-.18a2.52,2.52,0,0,1-.06-.41c0-.43,0-.86,0-1.29,0-1.14,0-2.29,0-3.44,0-1.56,0-3.13,0-4.69,0-1.22,0-2.45,0-3.67,0-1.52,0-3,0-4.54,0-1.32,0-2.63,0-3.94,0-1.5,0-3,0-4.5,0-1.25,0-2.51,0-3.75s0-2.74,0-4.11c0-.63,0-1.27,0-1.91,0-.38,0-.75,0-1.13,0,.36,0,.72,0,1.08,0,1.26,0,2.51,0,3.76s0,2.5,0,3.75,0,2.48,0,3.72c0,1.47,0,3,0,4.41s0,2.66,0,4,0,2.92,0,4.38c0,1.21,0,2.42,0,3.64,0,2,0,4-.08,6,0,.78,0,1.57-.07,2.34,0,.21,0,.47-.15.48s-.17-.22-.18-.46C83,177.12,83,176,83,175c0-1.49,0-3,0-4.46,0-1.16,0-2.32,0-3.48,0-1.39,0-2.79,0-4.18s0-2.71,0-4.07,0-2.84,0-4.26c0-1.24,0-2.48,0-3.71s0-2.61,0-3.91c0-2,0-4,0-5.38,0,1.08,0,2.81,0,4.53,0,1.26,0,2.53,0,3.79s0,2.37,0,3.56c0,1.47,0,2.94,0,4.42,0,1.25,0,2.5,0,3.74,0,1.46,0,2.93,0,4.38,0,1.14,0,2.27,0,3.4,0,2,0,4-.08,6.06,0,.91,0,1.83-.08,2.73a2.35,2.35,0,0,1,0,.27c0,.16-.08.33-.18.31s-.12-.19-.13-.36c-.07-.66-.06-1.33-.07-2,0-1.16-.05-2.32-.05-3.48,0-1.45,0-2.9,0-4.34,0-1.17,0-2.35,0-3.52,0-1.43,0-2.87,0-4.3,0-.57,0-1.14,0-1.72v-.22c0-.1,0-.21,0-.31,0-1.34-.06-2.68,0-4,0-1.78,0-3.56-.05-5.35,0-1.11,0-2.24,0-3.35s0-2.21,0-3.31c0-.33,0-.65,0-1s0-.66,0-1c0,0,0,.11,0,.18,0,2,0,4,0,6,0,1.11,0,2.22,0,3.32s0,2.46,0,3.68,0,2.68,0,4,0,2.66,0,4,0,2.61,0,3.91,0,2.42,0,3.64c0,1.9,0,3.8-.08,5.7,0,1,0,2.08-.08,3.12a1.34,1.34,0,0,1,0,.2c0,.2,0,.49-.18.46s-.15-.29-.16-.51c0-.42,0-.84,0-1.25,0-1,0-2,0-3,0-2.46-.07-4.92-.09-7.39,0-1,0-2,0-3,0-1.54,0-3.08,0-4.61,0-1.29,0-2.58,0-3.86s0-2.54,0-3.8,0-2.29,0-3.44c-.05-1.95,0-3.9-.07-5.85,0-.34,0-.68,0-1s0-.46,0-.68c0-.05,0,0,0,0s0,0,0,0,0,.33,0,.5c0,1.9,0,3.81,0,5.71,0,1.13,0,2.27,0,3.4s0,2.35,0,3.51c0,1.31,0,2.62,0,3.91s0,2.51,0,3.76,0,2.58,0,3.87c0,1.13,0,2.27,0,3.4,0,2,0,4-.08,6,0,1.29,0,2.58-.11,3.86,0,.21,0,.47-.14.48s-.17-.27-.19-.52c-.06-.71,0-1.43-.06-2.14,0-1.15,0-2.29-.06-3.44,0-1.34,0-2.69-.05-4,0-1,0-2,0-3,0-1.38,0-2.76,0-4.14,0-1.19,0-2.37,0-3.55s0-2.64,0-4c0-1.08,0-2.17,0-3.25,0-2,0-4.11-.09-6.17,0-1.25,0-2.5,0-3.75a3.43,3.43,0,0,0,0-.64c0-.05,0,0,0,0s0,0,0,0a2.36,2.36,0,0,1,0,.46c0,1.81,0,3.62,0,5.43,0,1.07,0,2.14,0,3.21s0,2.22,0,3.32,0,2.48,0,3.71,0,2.43,0,3.64,0,2.48,0,3.71,0,2.3,0,3.44c0,2,0,4-.09,6,0,1.33,0,2.66-.07,4,0,.36,0,.72,0,1.09a1.23,1.23,0,0,1,0,.19c0,.16-.06.34-.16.33s-.16-.18-.17-.37c0-.39,0-.77,0-1.16,0-1.89-.07-3.78-.09-5.67,0-1,0-2,0-3.05s0-2.3,0-3.44,0-2.35,0-3.52,0-2.45,0-3.67,0-2.32,0-3.48,0-2.27,0-3.4,0-2.19,0-3.28c0-1.51,0-3-.07-4.54,0-.79,0-1.58,0-2.28,0,.66,0,1.42,0,2.17,0,1.29-.05,2.58-.06,3.87,0,2.4-.06,4.8-.08,7.2,0,.92,0,1.85,0,2.77,0,1.41,0,2.82,0,4.22,0,1.05,0,2.09,0,3.13,0,1.2,0,2.4,0,3.6,0,1.82,0,3.65-.08,5.47,0,1.6,0,3.2-.11,4.8,0,.14,0,.28,0,.42s-.06.27-.15.26-.14-.14-.15-.3c0-.39-.05-.78-.06-1.17l-.09-5c0-1.94,0-3.88-.07-5.82,0-1.22,0-2.43,0-3.64s0-2.14,0-3.2,0-2.4,0-3.6,0-2.11,0-3.17c0-2-.06-4.06-.09-6.09,0-1.53-.06-3.05-.06-4.57,0-.39,0-.78,0-1.14a2.18,2.18,0,0,0,0,.27c0,.73,0,1.46,0,2.19,0,2.2-.06,4.4-.09,6.6,0,1.06,0,2.12,0,3.17-.06,1.6,0,3.2-.06,4.8s0,3.47-.06,5.2c0,1.06,0,2.11,0,3.17,0,1.95-.06,3.91-.09,5.86,0,1.32,0,2.63-.07,3.94,0,.69,0,1.38-.08,2.07a2.06,2.06,0,0,1,0,.26c0,.13-.09.24-.17.21s-.11-.13-.13-.27c0-.5-.06-1-.07-1.52,0-1.66-.07-3.33-.09-5s0-3.49-.07-5.23c0-2.27,0-4.54-.09-6.81,0-1,0-1.92,0-2.88,0-2.23,0-4.46-.08-6.68,0-1.7,0-3.39-.08-5.08,0-1.06,0-2.11,0-3.17,0-.65,0-1.3,0-1.95v.31c0,1.48,0,3,0,4.45,0,1.76-.05,3.52-.07,5.28,0,2,0,4.09-.09,6.13,0,1.07,0,2.14,0,3.21,0,2.12,0,4.25-.08,6.37,0,1.82,0,3.65-.08,5.47s-.06,3.8-.12,5.7a10.2,10.2,0,0,1-.06,1.24c0,.2-.06.39-.19.38s-.13-.21-.15-.39a12.38,12.38,0,0,1-.06-1.36c0-.69,0-1.38,0-2.07,0-1.91-.07-3.83-.09-5.74,0-.82,0-1.64,0-2.46,0-2.15-.06-4.3-.09-6.45,0-1,0-1.93,0-2.89,0-2.06,0-4.12-.08-6.18,0-1.69,0-3.38-.08-5.08,0-1.4,0-2.81-.08-4.21,0-.53,0-1.05,0-1.37,0,1.61,0,3.42-.08,5.22,0,.81,0,1.62,0,2.42,0,1.48,0,3,0,4.42q0,3-.08,5.94c0,1,0,2.09,0,3.13,0,2-.05,4-.08,6,0,1.61,0,3.21-.08,4.81,0,1.89,0,3.78-.15,5.66a1.21,1.21,0,0,1,0,.19c0,.17-.06.37-.17.37s-.16-.19-.18-.39c-.05-.48-.06-1-.07-1.44,0-.73,0-1.46-.06-2.19,0-1.68-.06-3.36-.08-5l0-2-.09-6.25c0-.9,0-1.8,0-2.7,0-2-.05-4-.08-6.06,0-1.7,0-3.41-.08-5.12,0-2-.06-4.06-.13-6.09,0-.38,0-.78,0-1,0,.69,0,1.56,0,2.43,0,.66,0,1.32,0,2,0,1,0,2.11-.06,3.16,0,2-.06,4-.09,6,0,.8,0,1.59,0,2.39,0,2-.06,4-.09,6,0,.81,0,1.62,0,2.43,0,1.81-.06,3.62-.09,5.43,0,1.27,0,2.55-.07,3.82s-.06,2.58-.12,3.86c0,.15,0,.29,0,.43s-.07.28-.16.29-.15-.12-.17-.28c0-.37-.06-.75-.07-1.12-.05-1.84-.1-3.67-.12-5.51,0-1.51-.06-3-.08-4.53,0-1.82,0-3.65-.08-5.47,0-.93,0-1.86,0-2.77-.06-1.81,0-3.62-.09-5.43,0-1.46,0-2.92-.07-4.37,0-1.72-.06-3.44-.1-5.16,0-1.1-.08-2.21-.06-3.31v-.46c0,.62,0,1.34,0,2.05s0,1.2,0,1.8c0,.93,0,1.87-.06,2.81,0,1.76,0,3.52-.08,5.27,0,1.54-.06,3.08-.07,4.61,0,.66-.05,1.3-.05,1.95s0,1.23,0,1.84c0,1.21,0,2.42-.06,3.63,0,1.86-.06,3.73-.08,5.59,0,1.22,0,2.45-.08,3.67,0,1.53,0,3.07-.15,4.6a1.45,1.45,0,0,1,0,.3c0,.16-.09.3-.19.29s-.12-.16-.15-.32a7.18,7.18,0,0,1-.06-.81q-.06-1.31-.09-2.61c0-1.55-.07-3.1-.09-4.65s0-2.94-.07-4.41c0-1.68-.06-3.36-.08-5,0-.61-.05-1.22,0-1.84a.81.81,0,0,0,0-.22q0-1.05-.06-2.1c0-1.87,0-3.73-.08-5.59,0-1.35,0-2.71-.07-4.06,0-1.85-.06-3.7-.15-5.54,0-.35,0-.71,0-.94,0,.37,0,.85,0,1.33q-.08,2.46-.12,4.92c0,1.32-.05,2.65-.07,4L68,155.61c0,.71,0,1.41,0,2.11,0,1.68,0,3.36-.08,5,0,1.42,0,2.84-.08,4.26,0,1.61,0,3.23-.1,4.84,0,.75,0,1.51,0,2.26,0,1.36-.06,2.71-.15,4a2.43,2.43,0,0,1,0,.3c0,.14-.09.24-.17.23s-.13-.11-.16-.25a5.42,5.42,0,0,1-.07-.81L67,175.1c0-1.32-.06-2.63-.11-3.94,0-.72,0-1.44,0-2.15l-.06-3.09c0-1.66,0-3.33-.08-5,0-1.38,0-2.76-.07-4.14,0-1.56-.06-3.12-.08-4.69,0-1.28-.05-2.57-.08-3.86,0-1.81-.08-3.62-.14-5.42,0-.95-.09-1.89-.07-2.83v0c-.05,1.69-.11,3.36-.16,5,0,.61,0,1.22,0,1.83,0,1,0,1.93-.06,2.89,0,1.58,0,3.15-.09,4.73,0,.9,0,1.82,0,2.73l-.09,5.3c0,1.27,0,2.53-.07,3.79l-.12,5.62c0,1.32-.07,2.63-.12,3.94,0,.74,0,1.48-.11,2.21,0,.27,0,.61-.22.61s-.19-.35-.21-.61c-.07-.86-.1-1.73-.13-2.6,0-1.21-.06-2.42-.11-3.63,0-.6,0-1.2,0-1.79,0-1,0-1.91,0-2.86,0-1.49,0-3-.11-4.48,0-.69,0-1.38,0-2.07,0-1.07,0-2.14-.06-3.21,0-2-.07-3.95-.12-5.93,0-1.13,0-2.27-.07-3.4,0-1.63-.08-3.27-.14-4.91,0-1-.08-2-.12-2.86-.06,1-.08,2-.13,3.05,0,.52,0,1-.05,1.56,0,1.29-.07,2.58-.09,3.87l-.12,5.34c0,1.15,0,2.29-.07,3.44,0,1.94-.09,3.88-.12,5.81,0,1.08,0,2.16-.08,3.24-.05,1.77-.08,3.54-.14,5.31l-.09,2.92c0,1.07-.08,2.13-.16,3.19,0,0,0,.08,0,.11,0,.24-.07.51-.23.5s-.18-.26-.21-.49c-.08-.73-.11-1.47-.14-2.21-.07-1.4-.1-2.8-.15-4.21,0-.52,0-1,0-1.56,0-1.34-.07-2.68-.1-4,0-1.62-.08-3.25-.11-4.88l-.12-5.07c0-1.62-.07-3.25-.11-4.88-.06-1.88-.1-3.77-.16-5.65s-.11-3.48-.23-5.21a3.47,3.47,0,0,0,0-.42c-.08,1.15-.13,2.27-.18,3.39-.05,1.31-.08,2.63-.14,3.94,0,.49,0,1,0,1.48,0,1.21-.07,2.42-.1,3.63,0,1.53-.08,3.07-.11,4.6l-.12,4.41c0,1.51-.07,3-.12,4.53,0,1.67-.09,3.35-.15,5-.08,2.16-.14,4.34-.31,6.49a5,5,0,0,1-.11.87c0,.18-.1.3-.21.29s-.16-.15-.19-.34a23.38,23.38,0,0,1-.2-2.38c-.1-1.72-.17-3.45-.23-5.18L58.94,168c0-1.46-.08-2.92-.15-4.37,0-.43,0-.86,0-1.29,0-1,0-2-.09-3,0-.1,0-.21,0-.31v-.21a20.28,20.28,0,0,1-.09-2.06c0-1.48-.09-3-.13-4.45-.06-1.84-.12-3.69-.2-5.53s-.15-3.95-.3-5.9c0-.32-.06-.64-.12-1a9,9,0,0,0-.16,1.41c-.1,1.24-.15,2.48-.22,3.73-.08,1.65-.15,3.31-.22,5,0,1.2-.08,2.39-.13,3.59S57,156,57,157.27c0,.84,0,1.68-.09,2.53,0,1.3-.09,2.6-.14,3.89,0,1.11-.08,2.21-.13,3.31-.06,1.36-.11,2.73-.18,4.09s-.13,2.54-.21,3.8c-.07,1-.14,2-.27,3a4.6,4.6,0,0,1-.11.58c-.14.46-.36.45-.49,0a8.34,8.34,0,0,1-.22-1.37c-.19-1.75-.29-3.52-.4-5.29s-.21-3.6-.3-5.4c-.08-1.41-.15-2.82-.22-4.23,0-.87-.07-1.74-.14-2.6a2.9,2.9,0,0,1,0-.51,1.56,1.56,0,0,0-.05-.44c-.07-1.45-.15-2.9-.23-4.35s-.15-2.9-.25-4.34c-.18-2.79-.34-5.58-.7-8.31a8.75,8.75,0,0,0-.33-1.75c-.13-.4-.24-.4-.38,0a12.65,12.65,0,0,0-.49,2.16c-.36,2.09-.64,4.22-1,6.32-.42,2.68-.86,5.36-1.43,7.94q-.19.87-.42,1.71a7.27,7.27,0,0,1-.28.79c-.06.15-.12.27-.22.23a.54.54,0,0,1,0-.43,26.8,26.8,0,0,0,.84-3.29c.7-3.38,1.23-6.88,1.75-10.38.24-1.66.46-3.34.85-4.9a5.51,5.51,0,0,1,.21-.65c.21-.52.52-.51.71,0a7.66,7.66,0,0,1,.36,1.6c.26,1.87.41,3.79.56,5.71q.16,2.31.3,4.65c.09,1.51.17,3,.25,4.54s.17,3.29.25,4.93c.08,1.41.14,2.83.22,4.24.08,1.58.16,3.16.25,4.73.09,1.73.2,3.44.33,5.16.07.94.15,1.88.28,2.79,0,.11,0,.27.09.28s.09-.16.11-.28c.11-.82.18-1.67.24-2.53.15-2.14.25-4.29.34-6.44.07-1.44.12-2.88.18-4.32.07-1.84.13-3.69.21-5.53,0-1.32.09-2.65.14-4,0-1.57.12-3.14.17-4.71.05-1.11.09-2.23.14-3.34.1-2.23.18-4.47.39-6.67a6.54,6.54,0,0,1,.11-.79c0-.21.1-.37.22-.37s.19.15.23.36a11,11,0,0,1,.18,1.64c.11,1.6.18,3.2.25,4.81l.15,4.25c.06,1.69.11,3.38.16,5.07,0,1.24.07,2.49.11,3.74.07,1.9.11,3.82.18,5.72,0,1,.07,2.06.1,3.08,0,1.33.08,2.65.14,4l.12,3c0,1,.11,2.07.21,3.18.09-.85.13-1.65.17-2.44.08-1.54.13-3.09.18-4.63,0-.93.06-1.87.09-2.81,0-1.32.06-2.65.11-4,0-.51,0-1,0-1.52,0-1.19.07-2.37.1-3.55s0-2.11.07-3.16c0-1.69.08-3.38.14-5.07,0-.54,0-1.09,0-1.63,0-1.6.1-3.2.16-4.8,0-1.43.1-2.85.2-4.27,0-.21,0-.41.07-.61s.07-.37.19-.37.19.16.22.37c.07.43.09.87.12,1.31.09,1.74.15,3.48.2,5.22l.12,4.17.12,4.95c0,1.24.06,2.47.08,3.71a1.7,1.7,0,0,0,0,.22c0,.54,0,1.09,0,1.63l.06,2.58c0,1.3,0,2.6.1,3.9,0,.57,0,1.15,0,1.72,0,2,.11,3.93.18,5.89,0,1,.06,1.94.14,2.88.05-1.11.1-2.24.15-3.37.06-1.54.08-3.09.14-4.64,0-.55,0-1.12,0-1.67,0-1.51.07-3,.09-4.53,0-1.89.08-3.78.12-5.66,0-1.19,0-2.37.07-3.56l.12-5.3c0-1.46.07-2.92.12-4.37s.08-3.07.19-4.6c0-.14,0-.28,0-.42s.07-.41.2-.41.17.2.2.41,0,.51.07.77c.05,1.06.09,2.13.13,3.19,0,1.26.06,2.53.11,3.79,0,.62,0,1.25,0,1.87l.06,2.85c0,1.52,0,3.05.1,4.57,0,.67,0,1.35,0,2,0,1,0,2.06.06,3.08,0,1.58,0,3.15.1,4.73,0,.64,0,1.3,0,1.95,0,1.44.07,2.89.1,4.33s.08,3,.16,4.56c0,.16,0,.31,0,.47,0-1.42.11-2.84.14-4.26,0-1.68.08-3.35.11-5,0-1.3.05-2.6.08-3.91s.05-2.81.08-4.21,0-2.89.07-4.34,0-2.76.08-4.14,0-2.57.08-3.86c0-1.57.06-3.15.12-4.72,0-1.17,0-2.34.15-3.5,0-.26,0-.61.2-.62s.19.34.22.6c.05.68.08,1.37.1,2.06,0,1.69.1,3.38.13,5.07,0,1.28,0,2.55.07,3.83,0,1.51.06,3,.08,4.53s0,2.84.08,4.26,0,3.15.08,4.72c0,1.34,0,2.68.07,4,0,1.84.07,3.67.12,5.51,0,1.27.07,2.54.12,3.82a1.79,1.79,0,0,1,0,.23v.06h0c0-.41,0-.83,0-1.25,0-1.13.07-2.26.1-3.39q.06-3,.11-6c0-1.46,0-2.92.08-4.38,0-1.64.05-3.28.08-4.92s0-3.07.08-4.61,0-3,.08-4.53c0-1.21,0-2.42.07-3.63,0-1.81.07-3.62.19-5.42,0,0,0-.08,0-.11,0-.21.06-.41.17-.43s.16.18.19.38a6.52,6.52,0,0,1,.07.88l.09,3.08c0,1.53.05,3,.11,4.57,0,.77,0,1.54,0,2.31l.06,3.71.06,4c0,2.11.08,4.22.1,6.33,0,1.46,0,2.92.07,4.38,0,2,.07,4,.12,5.93,0,.89,0,1.77.07,2.66,0-.71,0-1.41,0-2.1s0-1.43,0-2.15c0-1,0-1.92.06-2.89,0-1.75.06-3.51.08-5.27,0-1.54,0-3.07.08-4.61,0-1.93,0-3.85.08-5.78,0-1.55,0-3.1.07-4.65s0-3.07.09-4.61.06-2.89.11-4.33c0-.46,0-.93.07-1.4,0-.2,0-.4.17-.41s.17.19.19.41c.06.54.06,1.09.08,1.63,0,.39,0,.78,0,1.17,0,.84,0,1.67,0,2.5,0,1.67.06,3.34.08,5,0,1.51,0,3,.08,4.53,0,1.27,0,2.53.07,3.79,0,.38,0,.75,0,1.13,0,.85,0,1.69,0,2.54,0,2.1.06,4.19.09,6.29,0,1.46,0,2.92.07,4.38,0,1.27,0,2.55.1,3.82,0,.53,0,1.07,0,1.6V178c0-.14,0-.29,0-.44,0-1.23,0-2.45.06-3.67,0-.09,0-.18,0-.27,0-1.09,0-2.17.05-3.25,0-1.83,0-3.67.08-5.51l0-2.18c0-2.09,0-4.17.09-6.26,0-.78,0-1.56,0-2.34,0-1.88.05-3.75.08-5.63,0-1.38,0-2.76.08-4.14,0-1.57,0-3.15.15-4.71a.81.81,0,0,1,0-.16c0-.19.06-.37.16-.38s.17.19.18.39,0,.47,0,.7c0,.87.06,1.74.07,2.61,0,1,0,2,.06,3.05,0,1.79,0,3.57.08,5.35,0,.84,0,1.68,0,2.5,0,1.25,0,2.51.06,3.75,0,.69,0,1.38,0,2.07.06,2,.06,4,.09,5.94,0,1.75,0,3.5.08,5.24,0,1.53,0,3.07.1,4.6,0,.64,0,1.28,0,1.82,0-.42,0-.93,0-1.45,0-.89,0-1.79,0-2.69l.09-5.63c0-.79,0-1.59,0-2.38,0-2,0-4,.09-5.94v-.22c0-1.22,0-2.45,0-3.67a2.53,2.53,0,0,0,0-.28c0-1.56,0-3.12,0-4.69,0-1.72,0-3.43.08-5.15,0-1.16,0-2.32.07-3.48,0-.66,0-1.32.08-2,0-.22,0-.45.17-.45s.17.24.19.48c0,.61.06,1.24.07,1.86,0,.82,0,1.64.06,2.46,0,1.92.06,3.83.08,5.75l0,2.26q0,3.41.08,6.8c0,1.93,0,3.86.08,5.78s0,3.81.08,5.71c0,1.46.05,2.92.08,4.37,0,1,0,1.9,0,2.85a2.86,2.86,0,0,0,0,.51s0,0,0,0,0,0,0,0a1.27,1.27,0,0,1,0-.34c0-1.33,0-2.66,0-4,0-1.68,0-3.36.07-5,0-2,0-4.06.09-6.09,0-1.1,0-2.19,0-3.28,0-2.07.05-4.15.08-6.22,0-1.88,0-3.77.08-5.66,0-1.52,0-3.05.08-4.57,0-1.06,0-2.13.1-3.19,0-.2,0-.42.16-.43s.16.21.19.42c0,.41,0,.83.06,1.24s0,1,0,1.53c0,1.17,0,2.34.06,3.51,0,2,0,4,.08,6,0,1,0,2,0,3,.06,1.35,0,2.69.06,4V159a2,2,0,0,1,0,.35c0,1.54,0,3.08,0,4.62,0,1.26,0,2.52,0,3.79,0,1.72.05,3.44.08,5.16,0,.88,0,1.77,0,2.65,0,.46,0,.94,0,1.26,0-.86,0-1.87,0-2.88,0-.08,0-.16,0-.24,0-1.18,0-2.37,0-3.55,0-1.35,0-2.69,0-4,0-1,0-2,0-3.05,0-2.27,0-4.53.09-6.8,0-1,0-2,0-3,0-2.1,0-4.2.08-6.29,0-1.51,0-3,.08-4.53,0-.92,0-1.83.08-2.73,0-.24,0-.61.17-.6s.17.32.19.59c0,.94.06,1.89.08,2.84,0,1.83.06,3.65.09,5.47,0,.83,0,1.65,0,2.47,0,2.37.06,4.74.09,7.11,0,1.08,0,2.17,0,3.25,0,2.3.06,4.61.08,6.91,0,1.8,0,3.6.09,5.4,0,1.08,0,2.16,0,3.24a4.06,4.06,0,0,1,0,.62c0-.41,0-.9,0-1.39,0-.88,0-1.77,0-2.65,0-.12,0-.24,0-.35,0-1.45,0-2.9,0-4.34s0-2.82,0-4.23c0-1.05,0-2.11,0-3.16,0-1.27,0-2.53,0-3.79,0-1.1,0-2.2,0-3.29s0-2.4,0-3.6c0-1.87.05-3.75.08-5.62,0-1.62.05-3.23.12-4.84a2.45,2.45,0,0,1,0-.27c0-.17.05-.39.17-.36s.15.22.16.43,0,.67,0,1,0,1,0,1.44c0,1.14,0,2.27,0,3.4,0,2.35.06,4.69.09,7,0,1,0,2.06,0,3.09s0,1.82,0,2.73c0,1.63,0,3.26,0,4.88,0,1.1,0,2.19,0,3.29,0,2.07,0,4.14.09,6.21,0,1.25,0,2.5,0,3.75a5,5,0,0,1,0,.56c0-.12,0-.27,0-.42,0-1.07,0-2.13,0-3.2,0-2.22.06-4.43.09-6.65,0-1,0-1.95,0-2.93,0-1.38,0-2.76,0-4.14a5.25,5.25,0,0,1,0-.57v-.23c0-1.13,0-2.27,0-3.4v-.23c0-1.93,0-3.86,0-5.79s0-4,.08-6c0-1.11,0-2.21.07-3.32,0-.22,0-.44,0-.66s0-.32.13-.32.16.13.17.31,0,.55.05.82c0,.45,0,.91,0,1.36,0,1.1,0,2.19,0,3.29,0,2.43.06,4.87.09,7.31,0,1.06,0,2.13,0,3.2s.05,1.88,0,2.82c0,1.72,0,3.43,0,5.15,0,1.1,0,2.19,0,3.29,0,2.12,0,4.24.09,6.37,0,1.31,0,2.63,0,3.94V177c0-1.85,0-3.7,0-5.55,0-1.11,0-2.22,0-3.32s0-2.3,0-3.44c0-1.31,0-2.61,0-3.91,0-.6,0-1.2,0-1.8v-.22c0-.8,0-1.59,0-2.38s0-1.65,0-2.47c0-1.45,0-2.89,0-4.34,0-1,0-2,0-3,0-1.69,0-3.39.09-5.08,0-.66,0-1.33.07-2,0-.2,0-.44.14-.45s.17.23.18.47c0,.94.07,1.89.08,2.84,0,2.38.07,4.75.09,7.12,0,1,0,2.06,0,3.09,0,1.47,0,2.95,0,4.42,0,1.12,0,2.24,0,3.35,0,1.45,0,2.9,0,4.34,0,1.19,0,2.38,0,3.56.06,2.88.08,5.76.08,8.64a1.28,1.28,0,0,1,0,.28c0-.75,0-1.56,0-2.37,0-1.08,0-2.16,0-3.24v-.2c0-1.65,0-3.31.05-5s0-3.45,0-5.16c0-1.27,0-2.53,0-3.79s0-2.77,0-4.15c0-1.17,0-2.34,0-3.51,0-2.1,0-4.2.08-6.3,0-1.17,0-2.34.08-3.51,0-.22,0-.44.05-.66s0-.25.12-.26.12.1.15.22a1.09,1.09,0,0,1,0,.26c0,.32,0,.65,0,1,0,1,0,1.93,0,2.89,0,2.45.06,4.9.08,7.35,0,1,0,2,0,3,0,1.68,0,3.37.05,5.05,0,1.31,0,2.63,0,3.94s0,2.45,0,3.67,0,2.51,0,3.76c0,1.42,0,2.84,0,4.26,0,.84,0,1.69,0,2.53a2.06,2.06,0,0,1,0,.35,1.79,1.79,0,0,0,0,.4,1.85,1.85,0,0,1,0-.41,10,10,0,0,0,0-1.1c0-1.38,0-2.76,0-4.14a1.93,1.93,0,0,0,0-.24c0-1.65,0-3.3,0-5,0-1.85,0-3.7,0-5.55,0-1.31,0-2.61,0-3.91s0-2.77,0-4.14,0-2.53,0-3.8c0-2.09,0-4.19.08-6.29,0-1.11,0-2.24.08-3.35a3.45,3.45,0,0,1,.05-.57c0-.12.07-.21.13-.21s.1.09.12.19a2.53,2.53,0,0,1,.06.49c0,.43,0,.86,0,1.29,0,1.14.05,2.29.06,3.43,0,1.39,0,2.77,0,4.15,0,1.21,0,2.42,0,3.63,0,1.47,0,3,0,4.42,0,1.29,0,2.58,0,3.87s0,2.84,0,4.26c0,1.24,0,2.48,0,3.71.06,2.25,0,4.51.07,6.76,0,.42,0,.84,0,1.25v.73c0,.13,0,.27,0,.37s0-.13,0-.21v-.72c0-1,0-2.06,0-3.09,0-1.3,0-2.61,0-3.91s0-2.48,0-3.71c0-1.5,0-3,0-4.5,0-1.3,0-2.61,0-3.91,0-1.46,0-2.92,0-4.38,0-1.25,0-2.5,0-3.75s0-2.48,0-3.71c0-1.62.06-3.23.08-4.85,0-.43,0-.85,0-1.28a.85.85,0,0,1,0-.23c0-.15.06-.31.16-.28s.11.16.12.31a4.93,4.93,0,0,1,0,.54c0,.74,0,1.48,0,2.22,0,1.37,0,2.74,0,4.11,0,1.2,0,2.4,0,3.59,0,1.39,0,2.77,0,4.15,0,1.62,0,3.23,0,4.85a.76.76,0,0,0,0,.15c0,.33,0,.67,0,1,0,2.26,0,4.51,0,6.77,0,1.25,0,2.5,0,3.75.06,1.68,0,3.36,0,5,0,.29,0,.57,0,.95,0-2.09,0-4.1,0-6.1,0-1.12,0-2.24,0-3.36,0-1.6,0-3.2,0-4.81,0-1.12,0-2.24,0-3.35.05-1.81,0-3.63.06-5.43,0-.88,0-1.75,0-2.62,0-1.63,0-3.26,0-4.89,0-1,0-2,0-3s0-2.27.08-3.39a2,2,0,0,1,0-.27c0-.14.07-.27.15-.26s.13.16.14.33,0,.41,0,.62c0,.8.05,1.61.05,2.42,0,1.48,0,3,0,4.45,0,1.2,0,2.4,0,3.6,0,1.54,0,3.08,0,4.61,0,1.23,0,2.45,0,3.68V159c0,.73.07,1.45.06,2.19,0,2.29,0,4.58,0,6.88,0,2,0,4.06,0,6.09,0,.86,0,1.72,0,2.58,0,.24,0,.48,0,.63,0-.26,0-.6,0-.94,0-1.5,0-3,0-4.49,0-2.74,0-5.48.08-8.22,0-.85,0-1.71,0-2.57,0-2.1,0-4.2.06-6.3,0-1.36,0-2.72,0-4.07s0-2.69,0-4c0-1.05,0-2.11,0-3.16,0-1.3,0-2.61.08-3.91a.49.49,0,0,1,0-.12c0-.2,0-.46.16-.47s.14.24.16.45a20.25,20.25,0,0,1,.06,2.06c0,1.34,0,2.69.06,4,0,1.75,0,3.49.05,5.24,0,1.33,0,2.66,0,4,0,1.64,0,3.29,0,4.93,0,1.39,0,2.79,0,4.18,0,1.58,0,3.16,0,4.73,0,1.16,0,2.33,0,3.48,0,1.32-.06,2.63,0,3.67,0-1.22,0-2.71,0-4.21,0-1.72,0-3.44,0-5.16,0-1.41,0-2.82,0-4.22,0-1.62,0-3.24,0-4.85,0-1.42,0-2.85,0-4.26s0-3.06,0-4.58c0-1.2,0-2.4,0-3.6,0-1.6,0-3.2.07-4.8,0-.23,0-.44,0-.66s0-.39.15-.38.16.19.16.38c0,.52.05,1,.05,1.56,0,1.54,0,3.08,0,4.61,0,1.32,0,2.64,0,4,0,1.49,0,3,0,4.46,0,1.31,0,2.61,0,3.91,0,1.82,0,3.65,0,5.46,0,1.48,0,3,0,4.42.06,1.7,0,3.39,0,5.09,0,1,0,2.06,0,2.85-.06-1.13,0-2.51,0-3.9,0-1.95,0-3.91,0-5.86,0-1.28,0-2.56,0-3.84,0-1.81,0-3.62,0-5.43,0-1.45,0-2.9,0-4.34s0-3,.05-4.54c0-1.12,0-2.24,0-3.36,0-1.58,0-3.15.08-4.73,0-.16,0-.31,0-.46s.05-.29.13-.3.14.14.16.3,0,.43,0,.66c0,1.16,0,2.32,0,3.48s0,2.48,0,3.71c.05,1.41,0,2.82,0,4.23,0,1.56,0,3.13,0,4.69s0,3.1,0,4.65,0,3.32,0,5c0,1.38,0,2.77,0,4.14s0,2.82,0,4.23c0,.62,0,1.25,0,1.87v.89a4.55,4.55,0,0,0,0,.62s0-.09,0-.07v0a1.21,1.21,0,0,1,0-.19v-4.55c0-1.73,0-3.46,0-5.2,0-1.48,0-3,0-4.45,0-1.15,0-2.3,0-3.44q0-3.28.06-6.56c0-1.36,0-2.72,0-4.07s0-2.74,0-4.1c0-1.58,0-3.16.07-4.73,0-.26,0-.52,0-.77s0-.26.12-.27.12.09.15.22a3.42,3.42,0,0,1,0,.46c0,.57,0,1.15,0,1.72,0,1.48,0,3,0,4.45,0,1.9,0,3.81.05,5.71,0,1.53,0,3,0,4.57,0,1.71,0,3.42,0,5.13,0,1.52,0,3.05,0,4.57s0,3.08,0,4.61c0,1.16,0,2.32,0,3.48,0,.72,0,1.43,0,2.15v.57a4.17,4.17,0,0,1,0,.61,5.58,5.58,0,0,0,0-1v-.64q0-2.52,0-5c0-1.59,0-3.18,0-4.77,0-1.07,0-2.14,0-3.21,0-1.22,0-2.44,0-3.67,0-.31,0-.62,0-.93,0-2.27,0-4.54,0-6.81,0-1.39,0-2.79,0-4.18s0-2.5,0-3.75,0-2.5.08-3.75v-.19c0-.17.06-.31.15-.32s.16.15.16.33c0,.44,0,.88,0,1.32,0,1.58,0,3.16.05,4.73,0,1.42,0,2.85,0,4.26,0,1.59,0,3.19,0,4.77,0,1.23,0,2.45,0,3.68,0,.2,0,.41,0,.62V159c.06,1.18.06,2.36.06,3.55,0,2.23,0,4.45,0,6.68,0,1.28,0,2.55,0,3.83,0,.87,0,1.74,0,2.61v.47c0-1.44,0-2.87,0-4.31,0-1.74,0-3.49,0-5.24s0-3.21,0-4.81c0-.92,0-1.85,0-2.77,0-.29,0-.57,0-.86,0-2.23,0-4.46.06-6.69,0-1.37,0-2.74,0-4.1s0-2.56,0-3.83,0-2.58.07-3.87a1.21,1.21,0,0,1,0-.19c0-.19,0-.35.15-.35s.15.16.16.34c0,.44.05.88,0,1.32,0,1.73,0,3.45.06,5.17,0,1.46,0,2.92,0,4.38,0,1.65,0,3.31,0,5s0,3.5,0,5.24,0,3.21,0,4.81,0,3.13,0,4.7c0,1.13,0,2.26,0,3.4,0,.84,0,1.69,0,2.54v.56c0,.11,0,.21,0,.32v.29c0-.07,0-.2,0-.33,0-.54,0-1.07,0-1.61,0-1.7,0-3.41,0-5.12,0-1.91,0-3.83,0-5.74,0-1.39,0-2.77,0-4.15,0-2,0-4,0-6,0-1.51,0-3,0-4.54s0-3,0-4.49c0-1,0-2.09,0-3.13,0-.85,0-1.72.07-2.57,0-.06,0-.13,0-.19s.06-.22.12-.23.12.1.14.23.05.46.05.69c0,1.06,0,2.11,0,3.17,0,1.81,0,3.62,0,5.43,0,1.46,0,2.93,0,4.38,0,1.81,0,3.63,0,5.44,0,1.58,0,3.15,0,4.73,0,1.9,0,3.8.05,5.71,0,1.3,0,2.6,0,3.9,0,.94,0,1.88,0,2.82,0,.39,0,.8,0,1.19,0,.05,0,0,0,0s0,0,0,0c0-.31,0-.63,0-.94,0-1.57,0-3.15,0-4.73,0-2,0-4.07,0-6.1,0-1.87,0-3.75,0-5.63,0-1.53,0-3.07,0-4.6,0-1.72,0-3.44,0-5.16,0-1.35,0-2.71,0-4.06,0-1.19,0-2.38,0-3.56,0-.85,0-1.72.09-2.56,0-.17,0-.31.14-.31s.1.15.1.29c0,1.42.08,2.85.08,4.27v2.16c0,.3,0,.61,0,.91,0,2,0,4,0,5.95v2.06C92.89,155.24,92.86,155.75,92.9,156.26Z"/><path class="cls-11" d="M92.9,156.26v2.62c.09.08.12,0,.14-.16a2.56,2.56,0,0,0,0-.39c0-1.23.05-2.45,0-3.67,0-2.58.06-5.16,0-7.75v-1.59c0-1.23,0-2.45,0-3.68,0-.11,0-.23,0-.29,0,.62,0,1.3,0,2,0,2.26,0,4.52,0,6.77,0,1.76,0,3.52,0,5.28,0,1.1,0,2.21,0,3.32v.38c0,.71,0,1.43,0,2.15,0,.15,0,.31,0,.46,0,2.91,0,5.82,0,8.73,0,1.31,0,2.64,0,4s0,2.42.07,3.63a2.85,2.85,0,0,0,0,.42c0,.11,0,.22.11.23s.12-.1.15-.22a.86.86,0,0,0,0-.23c0-.62,0-1.24,0-1.87,0-1.75,0-3.5,0-5.24,0-1.45,0-2.9,0-4.34,0-1.84,0-3.68,0-5.52,0-1.59,0-3.18,0-4.77.05-1.84,0-3.68,0-5.51.06-3.11,0-6.21,0-9.32a1.05,1.05,0,0,0,0-.18v.28c0,2.68,0,5.37,0,8.06,0,1.73,0,3.47,0,5.2,0,1.28,0,2.56,0,3.83,0,.74,0,1.49,0,2.23,0,2.88,0,5.76,0,8.64,0,1.36,0,2.72,0,4.07s0,2.87.07,4.3c0,.25,0,.56.16.58s.16-.31.16-.55c.06-1.72.06-3.44.09-5.16s0-3.39,0-5.08c0-1.39,0-2.77,0-4.15,0-1.94,0-3.89,0-5.83,0-1.64,0-3.28,0-4.92s0-3.16,0-4.74c0-2.24,0-4.48,0-6.72v-.75c0-.09,0-.2,0-.25a2.49,2.49,0,0,1,0,.41v.89c0,1.95,0,3.91,0,5.86,0,1.56,0,3.11,0,4.66s0,3,0,4.57c0,.51,0,1,0,1.52,0,1,0,2,0,3.05,0,1.93,0,3.86,0,5.79,0,1.38,0,2.76,0,4.14,0,2,0,3.94.08,5.9,0,.33,0,.65,0,1s0,.43.14.44.17-.22.17-.43c0-.53.05-1.07.05-1.6,0-1.76,0-3.52,0-5.28,0-1.51,0-3,0-4.53s0-3.06,0-4.58c0-1.76,0-3.52,0-5.28,0-1.59,0-3.18,0-4.77s0-3.15,0-4.73c0-1.22,0-2.45,0-3.67,0-.73,0-1.46,0-2.19v-.69c0-.15,0-.32,0-.4,0,.14,0,.35,0,.56v.9c0,1.76,0,3.53,0,5.28,0,1.57,0,3.13,0,4.7,0,1.12,0,2.24,0,3.36s0,2.32.06,3.47c0,.29,0,.57,0,.86,0,2.31,0,4.62.05,6.92,0,1.37,0,2.74,0,4.11s0,2.5,0,3.75,0,2.45.07,3.67a1.56,1.56,0,0,0,0,.31c0,.14.08.25.17.23s.12-.15.12-.3c0-.35,0-.7,0-1.05,0-1,0-2.06,0-3.09,0-1.95,0-3.91,0-5.86,0-1.49,0-3,0-4.46,0-1.72,0-3.45,0-5.16,0-1.53,0-3.05,0-4.58s0-3.23,0-4.85c0-1.33,0-2.66,0-4s0-2.56,0-3.9c0,0,0,0,0,0s0,0,0,0c0,1,0,2.09,0,3.13,0,1.46,0,2.92,0,4.38s0,3.15,0,4.73,0,3.39,0,5.08,0,3.18,0,4.77c0,1.38,0,2.76,0,4.14s0,2.85,0,4.27c0,1,0,2.06,0,3.08s0,2.12.08,3.17c0,.21,0,.46.16.44s.16-.24.16-.46c0-.64,0-1.27,0-1.91,0-1.45,0-2.9,0-4.34,0-1.19,0-2.38,0-3.56.05-1.72,0-3.44.05-5.16,0-1.52,0-3,0-4.54,0-1.67,0-3.34,0-5,0-1.44,0-2.87,0-4.31.06-2.43,0-4.87,0-7.31,0-.28,0-.57,0-.86,0,2.35,0,4.7,0,7,0,1.52,0,3,0,4.54s0,3,0,4.54c0,.3,0,.6,0,.89s0,.89,0,1.33c0,2.4,0,4.8,0,7.19,0,1.29,0,2.59,0,3.87s0,2.35,0,3.52,0,2.58.08,3.87v.16c0,.21,0,.48.18.47s.12-.28.14-.48c.07-.8.06-1.61.07-2.41,0-1.48,0-2.95,0-4.42,0-1.89,0-3.78.05-5.67,0-1.45,0-2.9,0-4.34,0-1.63,0-3.26,0-4.89,0-1.47,0-2.94,0-4.41s0-2.88,0-4.31,0-3.1,0-4.65c0-.3,0-.6,0-.89,0-.49,0-1,0-1.45,0-.11,0-.23,0-.29v.26a2.55,2.55,0,0,1,0,.39c0,1.42,0,2.84,0,4.26,0,1.22,0,2.43,0,3.64,0,1.45,0,2.9,0,4.34s0,3.16,0,4.73,0,2.92,0,4.38,0,3.08,0,4.62c0,1.3,0,2.6,0,3.91,0,1.91,0,3.83.08,5.74,0,.47,0,.94,0,1.41a2.06,2.06,0,0,0,0,.26c0,.15.07.3.16.28s.12-.16.13-.31,0-.35,0-.54c0-.86.05-1.71.05-2.58,0-1.55,0-3.1,0-4.65,0-1.3,0-2.61,0-3.91,0-1.59,0-3.18,0-4.77,0-1,0-2,0-3,0-.75,0-1.51,0-2.26,0-2.43,0-4.85.06-7.28,0-1.53,0-3.07,0-4.61,0-.74,0-1.48,0-2.23a12.22,12.22,0,0,0,0-1.36c0-.12,0-.06,0-.07h0c0,1,0,1.95,0,2.92,0,.44,0,.89,0,1.33,0,1.93,0,3.86,0,5.79,0,1.34,0,2.68,0,4,0,1.61,0,3.21,0,4.81,0,1.41,0,2.82,0,4.22s0,2.95,0,4.42c0,1.12,0,2.25,0,3.37,0,1.74,0,3.49.08,5.23,0,.33,0,.65,0,1s0,.45.16.46.14-.23.16-.44c.08-.87.06-1.75.07-2.62,0-1.61,0-3.23.06-4.85s0-3.08,0-4.61c0-1.36,0-2.71,0-4.07,0-1.59,0-3.18,0-4.77,0-1.38,0-2.76,0-4.14s0-3,0-4.46,0-3.15.05-4.73c0-1,0-2,0-3v-.41a2.42,2.42,0,0,0,0-.27,2.25,2.25,0,0,1,0,.26v.41c0,.47,0,.94,0,1.4,0,1.49,0,3,0,4.46V147c0,2.23,0,4.46,0,6.69,0,1.72,0,3.45,0,5.16,0,1.36,0,2.72,0,4.07s0,2.66,0,4,0,2.59,0,3.88c0,1,0,2.08,0,3.12,0,1.33,0,2.66.07,4a6,6,0,0,0,.06.61c0,.12.06.21.13.21s.09-.08.12-.18a1.77,1.77,0,0,0,0-.41c0-.43,0-.86,0-1.29,0-1.14,0-2.29,0-3.44,0-1.56,0-3.13,0-4.69,0-1.22,0-2.45,0-3.67,0-1.52,0-3,0-4.54,0-1.32,0-2.63,0-3.94,0-1.5,0-3,0-4.5,0-1.25,0-2.51,0-3.75s0-2.74,0-4.11c0-.63,0-1.27,0-1.91a10.65,10.65,0,0,0,0-1.13c0,.36,0,.72,0,1.08,0,1.26,0,2.51,0,3.76s0,2.5,0,3.75,0,2.48,0,3.72c0,1.47,0,3,0,4.41s0,2.66,0,4,0,2.92,0,4.38c0,1.21,0,2.42,0,3.64,0,2,0,4,.09,6,0,.78,0,1.57.06,2.34,0,.21,0,.47.15.48s.17-.22.18-.46c0-1.08.07-2.16.08-3.24,0-1.49,0-3,0-4.46,0-1.16,0-2.32,0-3.48,0-1.39,0-2.79,0-4.18s0-2.71,0-4.07,0-2.84,0-4.26c0-1.24,0-2.48,0-3.71s0-2.61,0-3.91c0-2,0-4,0-5.38,0,1.08,0,2.81,0,4.53,0,1.26,0,2.53,0,3.79s0,2.37,0,3.56c0,1.47,0,2.94,0,4.42,0,1.25,0,2.5,0,3.74,0,1.46,0,2.93,0,4.38,0,1.14,0,2.27,0,3.4,0,2,0,4,.09,6.06,0,.91,0,1.83.07,2.73a2.28,2.28,0,0,0,0,.27c0,.16.07.33.17.31s.12-.19.14-.36c.06-.66,0-1.33.06-2,0-1.16.06-2.32,0-3.48,0-1.45,0-2.9,0-4.34,0-1.17,0-2.35,0-3.52.05-1.43,0-2.87,0-4.3,0-.57.06-1.14,0-1.72v-.22a1.61,1.61,0,0,0,0-.31c0-1.34.06-2.68,0-4,0-1.78,0-3.56,0-5.35,0-1.11,0-2.24,0-3.35s0-2.21,0-3.31a8,8,0,0,0,0-1c0-.32,0-.66,0-1,0,0,0,.11,0,.18,0,2,0,4,0,6,0,1.11,0,2.22,0,3.32s0,2.46,0,3.68,0,2.68,0,4,0,2.66,0,4,0,2.61,0,3.91,0,2.42,0,3.64c0,1.9,0,3.8.08,5.7,0,1,0,2.08.07,3.12,0,.07,0,.13,0,.2s0,.49.19.46.15-.29.16-.51c0-.42,0-.84,0-1.25,0-1,0-2,0-3,0-2.46.06-4.92.08-7.39,0-1,0-2,0-3,0-1.54,0-3.08,0-4.61,0-1.29,0-2.58,0-3.86s0-2.54,0-3.8,0-2.29,0-3.44c.05-1.95,0-3.9.08-5.85,0-.34,0-.68,0-1s0-.46,0-.68c0-.05,0,0,0,0s0,0,0,0,0,.33,0,.5c0,1.9,0,3.81,0,5.71,0,1.13,0,2.27,0,3.4s0,2.35,0,3.51c0,1.31,0,2.62,0,3.91s0,2.51,0,3.76,0,2.58,0,3.87c0,1.13,0,2.27,0,3.4,0,2,0,4,.08,6,0,1.29,0,2.58.11,3.86,0,.21,0,.47.14.48s.16-.27.19-.52c.06-.71,0-1.43.06-2.14l.06-3.44c0-1.34,0-2.69,0-4,0-1,0-2,0-3,0-1.38,0-2.76,0-4.14,0-1.19,0-2.37,0-3.55s0-2.64,0-4c0-1.08,0-2.17,0-3.25,0-2,0-4.11.08-6.17,0-1.25,0-2.5,0-3.75,0-.21,0-.43,0-.64,0-.05,0,0,0,0s0,0,0,0a3.54,3.54,0,0,0,0,.46c0,1.81,0,3.62,0,5.43,0,1.07,0,2.14,0,3.21s0,2.22,0,3.32,0,2.48,0,3.71,0,2.43,0,3.64,0,2.48,0,3.71,0,2.3,0,3.44c0,2,0,4,.08,6,0,1.33,0,2.66.07,4,0,.36,0,.72,0,1.09a1.23,1.23,0,0,0,0,.19c0,.16.06.34.16.33s.16-.18.17-.37c0-.39,0-.77.05-1.16,0-1.89.07-3.78.09-5.67,0-1,0-2,0-3.05s0-2.3,0-3.44,0-2.35,0-3.52,0-2.45,0-3.67,0-2.32,0-3.48,0-2.27,0-3.4,0-2.19,0-3.28c0-1.51,0-3,.07-4.54,0-.79,0-1.58,0-2.28,0,.66,0,1.42,0,2.17,0,1.29,0,2.58,0,3.87,0,2.4.06,4.8.09,7.2,0,.92,0,1.85,0,2.77,0,1.41,0,2.82,0,4.22,0,1.05,0,2.09,0,3.13,0,1.2,0,2.4,0,3.6,0,1.82,0,3.65.08,5.47,0,1.6,0,3.2.11,4.8a3,3,0,0,0,0,.42c0,.15.07.27.15.26s.14-.14.15-.3c0-.39,0-.78.06-1.17l.09-5c0-1.94,0-3.88.07-5.82,0-1.22,0-2.43,0-3.64s0-2.14,0-3.2,0-2.4,0-3.6,0-2.11,0-3.17c0-2,0-4.06.08-6.09,0-1.53.07-3.05.07-4.57,0-.39,0-.78,0-1.14a.78.78,0,0,1,0,.27c0,.73,0,1.46,0,2.19,0,2.2.07,4.4.09,6.6,0,1.06,0,2.12,0,3.17,0,1.6,0,3.2.06,4.8s0,3.47.06,5.2c0,1.06,0,2.11,0,3.17,0,1.95,0,3.91.08,5.86,0,1.32,0,2.63.08,3.94,0,.69,0,1.38.07,2.07a1.09,1.09,0,0,0,0,.26c0,.13.09.24.17.21s.11-.13.12-.27c0-.5.06-1,.07-1.52,0-1.66.07-3.33.09-5s0-3.49.07-5.23c0-2.27.05-4.54.09-6.81,0-1,0-1.92,0-2.88,0-2.23,0-4.46.08-6.68,0-1.7,0-3.39.08-5.08,0-1.06,0-2.11,0-3.17,0-.65,0-1.3,0-1.95v.31c0,1.48,0,3,0,4.45,0,1.76,0,3.52.07,5.28,0,2,0,4.09.08,6.13,0,1.07,0,2.14,0,3.21,0,2.12.06,4.25.09,6.37,0,1.82,0,3.65.07,5.47s.06,3.8.12,5.7a10.19,10.19,0,0,0,.07,1.24c0,.2.06.39.18.38s.13-.21.15-.39a12.38,12.38,0,0,0,.06-1.36c0-.69,0-1.38.06-2.07,0-1.91.06-3.83.08-5.74l0-2.46c0-2.15.06-4.3.09-6.45,0-1,0-1.93,0-2.89,0-2.06,0-4.12.08-6.18,0-1.69,0-3.38.08-5.08,0-1.4.05-2.81.08-4.21,0-.53,0-1.05,0-1.37,0,1.61,0,3.42.08,5.22,0,.81,0,1.62,0,2.42,0,1.48.05,3,.06,4.42q0,3,.08,5.94c0,1,0,2.09,0,3.13,0,2,.06,4,.09,6,0,1.61,0,3.21.07,4.81,0,1.89.06,3.78.16,5.66a1.21,1.21,0,0,0,0,.19c0,.17.06.37.17.37s.15-.19.17-.39c0-.48.06-1,.07-1.44,0-.73,0-1.46.06-2.19,0-1.68.06-3.36.08-5l0-2c0-2.09.06-4.17.09-6.25,0-.9,0-1.8,0-2.7,0-2,0-4,.08-6.06,0-1.7,0-3.41.08-5.12,0-2,.06-4.06.13-6.09,0-.38,0-.78,0-1,0,.69,0,1.56,0,2.43,0,.66,0,1.32,0,2,0,1,0,2.11.06,3.16,0,2,.06,4,.08,6,0,.8,0,1.59,0,2.39,0,2,.06,4,.09,6,0,.81,0,1.62,0,2.43,0,1.81.06,3.62.08,5.43,0,1.27.05,2.55.08,3.82s.05,2.58.11,3.86c0,.15,0,.29,0,.43s.07.28.16.29.14-.12.16-.28c0-.37.06-.75.07-1.12.06-1.84.1-3.67.13-5.51,0-1.51,0-3,.07-4.53,0-1.82.05-3.65.08-5.47,0-.93,0-1.86,0-2.77,0-1.81,0-3.62.09-5.43,0-1.46,0-2.92.07-4.37,0-1.72.06-3.44.1-5.16,0-1.1.08-2.21.06-3.31,0-.19,0-.37,0-.46,0,.62,0,1.34,0,2.05s0,1.2,0,1.8c0,.93,0,1.87,0,2.81,0,1.76.06,3.52.08,5.27,0,1.54.07,3.08.07,4.61,0,.66.06,1.3.06,1.95s0,1.23,0,1.84c0,1.21,0,2.42.05,3.63,0,1.86.06,3.73.09,5.59,0,1.22,0,2.45.07,3.67,0,1.53.06,3.07.15,4.6a2.77,2.77,0,0,0,0,.3c0,.16.09.3.19.29s.12-.16.15-.32a7.18,7.18,0,0,0,.06-.81q.06-1.31.09-2.61c0-1.55.07-3.1.09-4.65s0-2.94.07-4.41c0-1.68.06-3.36.08-5,0-.61,0-1.22,0-1.84a.81.81,0,0,1,0-.22c0-.7.05-1.4.05-2.1,0-1.87.06-3.73.09-5.59,0-1.35,0-2.71.07-4.06,0-1.85.06-3.7.14-5.54,0-.35,0-.71,0-.94a12.38,12.38,0,0,0,0,1.33c0,1.64.09,3.28.11,4.92,0,1.32.05,2.65.08,4,0,1.61.05,3.23.08,4.84,0,.71,0,1.41,0,2.11.06,1.68,0,3.36.09,5,0,1.42,0,2.84.07,4.26,0,1.61,0,3.23.1,4.84,0,.75,0,1.51,0,2.26,0,1.36.06,2.71.16,4a1.39,1.39,0,0,0,0,.3c0,.14.09.24.17.23s.13-.11.15-.25a5.42,5.42,0,0,0,.08-.81l.09-2.53c0-1.32,0-2.63.1-3.94,0-.72,0-1.44,0-2.15,0-1,0-2.06,0-3.09l.09-5c0-1.38,0-2.76.07-4.14,0-1.56,0-3.12.08-4.69,0-1.28,0-2.57.08-3.86,0-1.81.07-3.62.13-5.42,0-.95.1-1.89.07-2.83v0c0,1.69.1,3.36.15,5,0,.61,0,1.22,0,1.83,0,1,0,1.93.06,2.89,0,1.58.05,3.15.09,4.73,0,.9,0,1.82,0,2.73l.09,5.3c0,1.27,0,2.53.07,3.79l.12,5.62c0,1.32.07,2.63.12,3.94,0,.74,0,1.48.11,2.21,0,.27,0,.61.21.61s.2-.35.22-.61c.06-.86.09-1.73.12-2.6,0-1.21.07-2.42.11-3.63,0-.6,0-1.2,0-1.79,0-1,0-1.91.06-2.86,0-1.49,0-3,.1-4.48,0-.69,0-1.38,0-2.07l.06-3.21c0-2,.07-3.95.12-5.93,0-1.13,0-2.27.07-3.4,0-1.63.08-3.27.14-4.91,0-1,.07-2,.12-2.86,0,1,.08,2,.12,3.05,0,.52,0,1,0,1.56,0,1.29.07,2.58.1,3.87,0,1.78.08,3.56.12,5.34,0,1.15,0,2.29.07,3.44l.12,5.81c0,1.08,0,2.16.07,3.24,0,1.77.08,3.54.14,5.31l.09,2.92c0,1.07.08,2.13.16,3.19,0,0,0,.08,0,.11,0,.24.06.51.22.5s.18-.26.21-.49c.08-.73.11-1.47.14-2.21.06-1.4.1-2.8.15-4.21,0-.52,0-1,0-1.56,0-1.34.06-2.68.09-4l.12-4.88c0-1.69.07-3.38.11-5.07s.07-3.25.12-4.88c0-1.88.09-3.77.16-5.65s.11-3.48.22-5.21a3.47,3.47,0,0,1,0-.42c.09,1.15.13,2.27.18,3.39,0,1.31.08,2.63.14,3.94,0,.49,0,1,0,1.48,0,1.21.07,2.42.09,3.63l.12,4.6c0,1.47.07,2.94.11,4.41s.08,3,.12,4.53c0,1.67.09,3.35.16,5,.08,2.16.13,4.34.3,6.49a5,5,0,0,0,.11.87c0,.18.1.3.21.29s.16-.15.19-.34a23.38,23.38,0,0,0,.2-2.38c.1-1.72.16-3.45.22-5.18,0-1,.07-1.92.1-2.88,0-1.46.07-2.92.14-4.37,0-.43,0-.86,0-1.29,0-1,.05-2,.09-3a1.61,1.61,0,0,0,0-.31v-.21c.08-.68.06-1.38.08-2.06,0-1.48.09-3,.14-4.45,0-1.84.11-3.69.19-5.53s.15-3.95.3-5.9c0-.32.06-.64.12-1a9,9,0,0,1,.16,1.41c.1,1.24.15,2.48.21,3.73.09,1.65.15,3.31.22,5,.05,1.2.09,2.39.13,3.59s.09,2.49.14,3.74l.09,2.53c0,1.3.09,2.6.14,3.89.05,1.11.09,2.21.13,3.31.06,1.36.11,2.73.18,4.09s.13,2.54.21,3.8c.07,1,.14,2,.27,3a3.32,3.32,0,0,0,.11.58c.14.46.35.45.48,0a7.4,7.4,0,0,0,.22-1.37c.19-1.75.29-3.52.4-5.29s.21-3.6.3-5.4c.07-1.41.15-2.82.21-4.23,0-.87.08-1.74.14-2.6a4.34,4.34,0,0,0,0-.51,1.57,1.57,0,0,1,0-.44c.08-1.45.15-2.9.23-4.35s.16-2.9.25-4.34c.18-2.79.34-5.58.69-8.31a9.52,9.52,0,0,1,.33-1.75c.14-.4.25-.4.39,0a13.69,13.69,0,0,1,.48,2.16c.36,2.09.63,4.22,1,6.32.42,2.68.85,5.36,1.42,7.94.13.58.27,1.15.43,1.71a5.63,5.63,0,0,0,.27.79c.06.15.12.27.22.23a.54.54,0,0,0,0-.43,26.8,26.8,0,0,1-.84-3.29c-.69-3.38-1.21-6.88-1.73-10.38-.25-1.66-.46-3.34-.85-4.9a5.51,5.51,0,0,0-.21-.65c-.21-.52-.51-.51-.71,0a8.36,8.36,0,0,0-.35,1.6c-.26,1.87-.41,3.79-.55,5.71q-.18,2.31-.3,4.65c-.09,1.51-.17,3-.25,4.54s-.17,3.29-.26,4.93l-.21,4.24c-.08,1.58-.16,3.16-.25,4.73-.09,1.73-.2,3.44-.33,5.16-.06.94-.14,1.88-.28,2.79,0,.11,0,.27-.08.28s-.1-.16-.11-.28c-.12-.82-.18-1.67-.24-2.53-.15-2.14-.25-4.29-.35-6.44-.06-1.44-.11-2.88-.17-4.32-.07-1.84-.13-3.69-.2-5.53,0-1.32-.09-2.65-.14-4l-.18-4.71c0-1.11-.08-2.23-.13-3.34-.1-2.23-.19-4.47-.39-6.67a6.54,6.54,0,0,0-.11-.79c0-.21-.11-.37-.22-.37s-.19.15-.23.36a12.47,12.47,0,0,0-.18,1.64c-.11,1.6-.18,3.2-.24,4.81-.06,1.42-.11,2.83-.16,4.25-.05,1.69-.11,3.38-.15,5.07,0,1.24-.07,2.49-.12,3.74-.07,1.9-.1,3.82-.18,5.72l-.09,3.08c0,1.33-.09,2.65-.14,4l-.12,3c0,1-.11,2.07-.2,3.18-.1-.85-.14-1.65-.18-2.44-.07-1.54-.13-3.09-.18-4.63l-.09-2.81c0-1.32-.06-2.65-.11-4,0-.51,0-1,0-1.52,0-1.19-.07-2.37-.09-3.55s0-2.11-.07-3.16c0-1.69-.08-3.38-.14-5.07,0-.54,0-1.09,0-1.63q-.06-2.4-.15-4.8c0-1.43-.1-2.85-.2-4.27,0-.21,0-.41-.07-.61s-.07-.37-.19-.37-.18.16-.22.37c-.06.43-.09.87-.11,1.31-.1,1.74-.16,3.48-.21,5.22,0,1.39-.08,2.78-.11,4.17,0,1.65-.08,3.3-.12,4.95,0,1.24-.06,2.47-.08,3.71a1.55,1.55,0,0,0,0,.22c0,.54,0,1.09-.05,1.63,0,.86,0,1.72,0,2.58,0,1.3,0,2.6-.1,3.9,0,.57,0,1.15,0,1.72,0,2-.1,3.93-.17,5.89,0,1-.06,1.94-.14,2.88,0-1.11-.1-2.24-.14-3.37-.07-1.54-.09-3.09-.15-4.64,0-.55,0-1.12,0-1.67,0-1.51-.07-3-.1-4.53,0-1.89-.08-3.78-.12-5.66,0-1.19,0-2.37-.07-3.56l-.12-5.3c0-1.46-.06-2.92-.11-4.37s-.09-3.07-.19-4.6c0-.14,0-.28,0-.42s-.07-.41-.19-.41-.17.2-.2.41,0,.51-.07.77c0,1.06-.09,2.13-.13,3.19,0,1.26-.06,2.53-.11,3.79,0,.62,0,1.25,0,1.87l-.06,2.85c0,1.52,0,3.05-.1,4.57,0,.67,0,1.35,0,2l-.06,3.08c0,1.58,0,3.15-.1,4.73,0,.64,0,1.3,0,1.95,0,1.44-.06,2.89-.1,4.33s-.08,3-.15,4.56a3.69,3.69,0,0,0,0,.47c0-1.42-.11-2.84-.14-4.26,0-1.68-.08-3.35-.11-5,0-1.3,0-2.6-.08-3.91s0-2.81-.08-4.21,0-2.89-.08-4.34,0-2.76-.07-4.14,0-2.57-.08-3.86c0-1.57-.06-3.15-.12-4.72,0-1.17,0-2.34-.15-3.5,0-.26,0-.61-.2-.62s-.19.34-.21.6c-.06.68-.08,1.37-.1,2.06,0,1.69-.1,3.38-.13,5.07,0,1.28,0,2.55-.07,3.83,0,1.51-.06,3-.08,4.53s0,2.84-.08,4.26,0,3.15-.08,4.72c0,1.34,0,2.68-.07,4,0,1.84-.07,3.67-.12,5.51,0,1.27-.07,2.54-.12,3.82a1.79,1.79,0,0,0,0,.23v.06h0c0-.41,0-.83,0-1.25,0-1.13-.07-2.26-.1-3.39q-.06-3-.11-6c0-1.46-.05-2.92-.08-4.38,0-1.64-.05-3.28-.08-4.92s0-3.07-.07-4.61,0-3-.08-4.53c0-1.21,0-2.42-.08-3.63,0-1.81-.07-3.62-.19-5.42v-.11c0-.21-.06-.41-.17-.43s-.16.18-.19.38a6.52,6.52,0,0,0-.07.88L117,143.4c0,1.53,0,3-.11,4.57,0,.77,0,1.54,0,2.31l-.06,3.71-.06,4c0,2.11-.08,4.22-.1,6.33,0,1.46,0,2.92-.07,4.38,0,2-.07,4-.12,5.93,0,.89,0,1.77-.07,2.66a20.93,20.93,0,0,0,0-2.1c0-.71,0-1.43-.05-2.15,0-1,0-1.92-.06-2.89,0-1.75-.06-3.51-.08-5.27,0-1.54-.05-3.07-.07-4.61,0-1.93,0-3.85-.08-5.78,0-1.55,0-3.1-.08-4.65s0-3.07-.08-4.61-.06-2.89-.11-4.33c0-.46,0-.93-.08-1.4,0-.2,0-.4-.16-.41s-.17.19-.19.41c-.06.54-.06,1.09-.08,1.63,0,.39,0,.78,0,1.17,0,.84,0,1.67,0,2.5,0,1.67-.06,3.34-.08,5,0,1.51,0,3-.08,4.53,0,1.27,0,2.53-.07,3.79,0,.38,0,.75,0,1.13,0,.85,0,1.69,0,2.54,0,2.1-.06,4.19-.08,6.29,0,1.46,0,2.92-.08,4.38,0,1.27,0,2.55-.09,3.82,0,.53,0,1.07,0,1.6v-.3c0-1.23,0-2.45,0-3.67a2.45,2.45,0,0,1,0-.27c0-1.09,0-2.17,0-3.25l-.09-5.51c0-.73,0-1.46,0-2.18,0-2.09-.06-4.17-.09-6.26,0-.78,0-1.56,0-2.34,0-1.88-.06-3.75-.09-5.63,0-1.38,0-2.76-.07-4.14,0-1.57,0-3.15-.15-4.71a.81.81,0,0,0,0-.16c0-.19-.06-.37-.16-.38s-.17.19-.18.39,0,.47,0,.7c0,.87-.06,1.74-.07,2.61l-.06,3.05c0,1.78,0,3.57-.08,5.35,0,.84,0,1.68,0,2.5-.06,1.25,0,2.51-.07,3.75,0,.69,0,1.38,0,2.07-.06,2-.06,4-.09,5.94,0,1.75,0,3.5-.08,5.24,0,1.53,0,3.07-.1,4.6,0,.64,0,1.28,0,1.82,0-.42,0-.93,0-1.45,0-.89,0-1.79-.06-2.69,0-1.88-.06-3.75-.08-5.63,0-.79,0-1.59,0-2.38,0-2,0-4-.09-5.94a.81.81,0,0,1,0-.22c-.06-1.22,0-2.45-.06-3.67a2.61,2.61,0,0,1,0-.28c0-1.56,0-3.12,0-4.69,0-1.72-.05-3.43-.08-5.15,0-1.16,0-2.32-.07-3.48,0-.66,0-1.32-.08-2,0-.22,0-.45-.18-.45s-.16.24-.18.48c0,.61-.06,1.24-.07,1.86,0,.82,0,1.64,0,2.46,0,1.92-.07,3.83-.09,5.75l0,2.26q0,3.41-.08,6.8c0,1.93,0,3.86-.08,5.78s0,3.81-.08,5.71c0,1.46,0,2.92-.07,4.37,0,1,0,1.9,0,2.85a2.16,2.16,0,0,1,0,.51s0,0,0,0,0,0,0,0a1.28,1.28,0,0,0,0-.34c0-1.33,0-2.66,0-4,0-1.68,0-3.36-.08-5,0-2,0-4.06-.08-6.09,0-1.1,0-2.19,0-3.28,0-2.07,0-4.15-.08-6.22,0-1.88-.05-3.77-.08-5.66,0-1.52,0-3.05-.08-4.57,0-1.06,0-2.13-.11-3.19,0-.2,0-.42-.15-.43s-.16.21-.19.42c0,.41,0,.83-.05,1.24s0,1,0,1.53c0,1.17,0,2.34-.06,3.51,0,2,0,4-.08,6,0,1,0,2,0,3-.06,1.35,0,2.69-.06,4a.81.81,0,0,1,0,.22c0,.12,0,.23,0,.35,0,1.54,0,3.08,0,4.62,0,1.26,0,2.52,0,3.79,0,1.72,0,3.44-.08,5.16,0,.88,0,1.77-.05,2.65,0,.46,0,.94,0,1.26,0-.86,0-1.87,0-2.88a1,1,0,0,1,0-.24c0-1.18,0-2.37,0-3.55,0-1.35,0-2.69,0-4,0-1,0-2,0-3.05,0-2.27,0-4.53-.08-6.8,0-1,0-2,0-3,0-2.1,0-4.2-.08-6.29,0-1.51,0-3-.08-4.53,0-.92,0-1.83-.08-2.73,0-.24,0-.61-.17-.6s-.18.32-.19.59c-.05.94-.06,1.89-.08,2.84,0,1.83-.06,3.65-.09,5.47,0,.83,0,1.65,0,2.47-.05,2.37-.06,4.74-.09,7.11,0,1.08,0,2.17,0,3.25,0,2.3-.06,4.61-.08,6.91,0,1.8,0,3.6-.08,5.4,0,1.08,0,2.16,0,3.24a4.06,4.06,0,0,0,0,.62c0-.41,0-.9,0-1.39,0-.88,0-1.77,0-2.65,0-.12,0-.24,0-.35,0-1.45,0-2.9,0-4.34s0-2.82,0-4.23c0-1.05,0-2.11,0-3.16,0-1.27,0-2.53,0-3.79,0-1.1,0-2.2,0-3.29s0-2.4,0-3.6c0-1.87,0-3.75-.08-5.62,0-1.62,0-3.23-.11-4.84a2.48,2.48,0,0,0,0-.27c0-.17,0-.39-.16-.36s-.16.22-.16.43,0,.67,0,1,0,1,0,1.44c0,1.14,0,2.27,0,3.4,0,2.35-.06,4.69-.09,7,0,1,0,2.06,0,3.09s0,1.82,0,2.73c0,1.63,0,3.26,0,4.88,0,1.1,0,2.19,0,3.29,0,2.07,0,4.14-.09,6.21,0,1.25,0,2.5,0,3.75a5,5,0,0,0,0,.56c0-.12,0-.27,0-.42,0-1.07,0-2.13,0-3.2,0-2.22-.06-4.43-.09-6.65,0-1,0-1.95,0-2.93,0-1.38,0-2.76,0-4.14a5.25,5.25,0,0,0-.05-.57v-.23c0-1.13,0-2.27,0-3.4a1.85,1.85,0,0,1,0-.23c0-1.93,0-3.86,0-5.79s0-4-.08-6c0-1.11,0-2.21-.07-3.32,0-.22,0-.44,0-.66s0-.32-.14-.32-.15.13-.17.31,0,.55,0,.82c0,.45,0,.91,0,1.36,0,1.1,0,2.19,0,3.29,0,2.43-.06,4.87-.09,7.31,0,1.06,0,2.13,0,3.2s0,1.88,0,2.82c0,1.72,0,3.43-.06,5.15,0,1.1,0,2.19,0,3.29,0,2.12,0,4.24-.09,6.37,0,1.31,0,2.63,0,3.94V177c0-1.85,0-3.7,0-5.55,0-1.11,0-2.22,0-3.32s0-2.3,0-3.44c0-1.31,0-2.61,0-3.91,0-.6,0-1.2,0-1.8v-.22c0-.8,0-1.59,0-2.38s0-1.65,0-2.47c0-1.45,0-2.89,0-4.34,0-1,0-2,0-3,0-1.69,0-3.39-.09-5.08,0-.66,0-1.33-.06-2,0-.2,0-.44-.15-.45s-.17.23-.18.47c0,.94-.07,1.89-.08,2.84,0,2.38-.07,4.75-.09,7.12,0,1,0,2.06,0,3.09,0,1.47,0,2.95,0,4.42,0,1.12,0,2.24,0,3.35,0,1.45,0,2.9,0,4.34,0,1.19,0,2.38,0,3.56q-.09,4.32-.09,8.64a1.28,1.28,0,0,0,0,.28c0-.75,0-1.56,0-2.37,0-1.08,0-2.16,0-3.24a1.34,1.34,0,0,1,0-.2c0-1.65,0-3.31,0-5s0-3.45,0-5.16c0-1.27,0-2.53,0-3.79s0-2.77,0-4.15c0-1.17,0-2.34,0-3.51,0-2.1,0-4.2-.09-6.3,0-1.17,0-2.34-.07-3.51,0-.22,0-.44,0-.66s0-.25-.12-.26-.12.1-.15.22a2,2,0,0,0,0,.26c0,.32,0,.65,0,1,0,1,0,1.93,0,2.89l-.09,7.35c0,1,0,2,0,3,0,1.68,0,3.37,0,5.05,0,1.31,0,2.63,0,3.94s0,2.45,0,3.67,0,2.51,0,3.76c0,1.42,0,2.84,0,4.26,0,.84,0,1.69,0,2.53,0,.12,0,.23,0,.35a1.79,1.79,0,0,1,0,.4,1.85,1.85,0,0,0,0-.41c0-.36,0-.73,0-1.1,0-1.38,0-2.76,0-4.14,0-.08,0-.16,0-.24,0-1.65,0-3.3,0-5,0-1.85,0-3.7,0-5.55,0-1.31,0-2.61,0-3.91s0-2.77,0-4.14,0-2.53,0-3.8c0-2.09,0-4.19-.09-6.29,0-1.11,0-2.24-.07-3.35a5,5,0,0,0-.06-.57c0-.12-.06-.21-.13-.21s-.09.09-.11.19a2.53,2.53,0,0,0-.06.49c0,.43,0,.86,0,1.29,0,1.14,0,2.29-.06,3.43,0,1.39,0,2.77,0,4.15,0,1.21,0,2.42,0,3.63,0,1.47,0,3,0,4.42,0,1.29,0,2.58,0,3.87s0,2.84,0,4.26c0,1.24,0,2.48,0,3.71,0,2.25,0,4.51-.07,6.76,0,.42,0,.84,0,1.25v.73c0,.13,0,.27,0,.37a1.22,1.22,0,0,0,0-.21v-.72c0-1,0-2.06,0-3.09,0-1.3,0-2.61,0-3.91s0-2.48,0-3.71c0-1.5,0-3,0-4.5,0-1.3,0-2.61,0-3.91,0-1.46,0-2.92,0-4.38,0-1.25,0-2.5,0-3.75s0-2.48,0-3.71c0-1.62-.06-3.23-.08-4.85,0-.43,0-.85,0-1.28a1.64,1.64,0,0,0,0-.23c0-.15-.07-.31-.16-.28s-.12.16-.13.31,0,.36,0,.54c0,.74,0,1.48,0,2.22,0,1.37,0,2.74,0,4.11,0,1.2,0,2.4,0,3.59,0,1.39,0,2.77,0,4.15,0,1.62,0,3.23,0,4.85a.76.76,0,0,1,0,.15c0,.33,0,.67,0,1,0,2.26,0,4.51,0,6.77,0,1.25,0,2.5,0,3.75-.06,1.68,0,3.36,0,5,0,.29,0,.57,0,.95,0-2.09,0-4.1,0-6.1,0-1.12,0-2.24,0-3.36,0-1.6,0-3.2,0-4.81,0-1.12,0-2.24,0-3.35-.05-1.81,0-3.63-.06-5.43,0-.88,0-1.75,0-2.62,0-1.63,0-3.26,0-4.89,0-1,0-2,0-3s0-2.27-.08-3.39a1.12,1.12,0,0,0,0-.27c0-.14-.07-.27-.15-.26s-.13.16-.13.33,0,.41,0,.62c0,.8,0,1.61,0,2.42,0,1.48,0,3,0,4.45,0,1.2,0,2.4,0,3.6,0,1.54,0,3.08,0,4.61,0,1.23,0,2.45,0,3.68V159c0,.73-.06,1.45-.06,2.19,0,2.29,0,4.58,0,6.88,0,2-.05,4.06-.06,6.09,0,.86,0,1.72,0,2.58a6.11,6.11,0,0,0,0,.63c0-.26,0-.6,0-.94,0-1.5,0-3,0-4.49,0-2.74,0-5.48-.08-8.22l0-2.57c0-2.1,0-4.2,0-6.3,0-1.36,0-2.72,0-4.07s0-2.69,0-4c0-1.05,0-2.11,0-3.16,0-1.3,0-2.61-.07-3.91,0,0,0-.08,0-.12,0-.2,0-.46-.16-.47s-.14.24-.16.45a20.25,20.25,0,0,0-.06,2.06c0,1.34,0,2.69-.06,4,0,1.75,0,3.49,0,5.24,0,1.33,0,2.66,0,4,0,1.64,0,3.29,0,4.93,0,1.39,0,2.79,0,4.18-.05,1.58,0,3.16-.05,4.73,0,1.16,0,2.33,0,3.48,0,1.32.05,2.63,0,3.67,0-1.22,0-2.71,0-4.21,0-1.72,0-3.44,0-5.16,0-1.41,0-2.82,0-4.22,0-1.62,0-3.24,0-4.85,0-1.42,0-2.85,0-4.26s0-3.06,0-4.58c0-1.2,0-2.4,0-3.6,0-1.6,0-3.2-.08-4.8,0-.23,0-.44,0-.66s0-.39-.16-.38-.15.19-.15.38c0,.52,0,1,0,1.56,0,1.54,0,3.08,0,4.61,0,1.32,0,2.64,0,4,0,1.49,0,3,0,4.46,0,1.31,0,2.61,0,3.91,0,1.82,0,3.65-.05,5.46,0,1.48,0,3,0,4.42-.06,1.7,0,3.39,0,5.09,0,1,0,2.06,0,2.85.06-1.13,0-2.51,0-3.9,0-1.95,0-3.91-.05-5.86,0-1.28,0-2.56,0-3.84,0-1.81,0-3.62,0-5.43,0-1.45,0-2.9,0-4.34s0-3,0-4.54c0-1.12,0-2.24,0-3.36,0-1.58,0-3.15-.08-4.73,0-.16,0-.31,0-.46s0-.29-.13-.3-.14.14-.15.3,0,.43,0,.66c0,1.16,0,2.32-.05,3.48s0,2.48,0,3.71c0,1.41,0,2.82,0,4.23,0,1.56,0,3.13,0,4.69s0,3.1,0,4.65,0,3.32,0,5c0,1.38,0,2.77,0,4.14s0,2.82,0,4.23c0,.62,0,1.25,0,1.87v.89a3.45,3.45,0,0,1,0,.62s0-.09,0-.07,0,0,0,0a1.23,1.23,0,0,0,0-.19v-4.55c0-1.73,0-3.46,0-5.2,0-1.48,0-3,0-4.45,0-1.15,0-2.3,0-3.44q0-3.28,0-6.56c0-1.36,0-2.72,0-4.07s0-2.74,0-4.1c0-1.58,0-3.16-.07-4.73,0-.26,0-.52,0-.77s0-.26-.13-.27-.11.09-.14.22,0,.3,0,.46c0,.57,0,1.15,0,1.72,0,1.48,0,3-.05,4.45,0,1.9,0,3.81,0,5.71,0,1.53,0,3,0,4.57,0,1.71,0,3.42,0,5.13,0,1.52,0,3.05,0,4.57s0,3.08,0,4.61c0,1.16,0,2.32,0,3.48,0,.72,0,1.43,0,2.15v.57a4.17,4.17,0,0,0,0,.61,6.69,6.69,0,0,1,0-1v-.64c0-1.68,0-3.36,0-5s0-3.18,0-4.77c0-1.07,0-2.14,0-3.21,0-1.22,0-2.44-.06-3.67,0-.31,0-.62,0-.93,0-2.27,0-4.54-.06-6.81,0-1.39,0-2.79,0-4.18s0-2.5,0-3.75,0-2.5-.07-3.75a1.21,1.21,0,0,1,0-.19c0-.17-.06-.31-.15-.32s-.15.15-.16.33c0,.44,0,.88,0,1.32,0,1.58,0,3.16-.06,4.73,0,1.42,0,2.85,0,4.26,0,1.59,0,3.19,0,4.77,0,1.23,0,2.45,0,3.68,0,.2,0,.41,0,.62a.89.89,0,0,1,0,.23c-.06,1.18-.05,2.36-.05,3.55,0,2.23,0,4.45,0,6.68,0,1.28,0,2.55,0,3.83,0,.87,0,1.74,0,2.61v.47c0-1.44,0-2.87,0-4.31,0-1.74,0-3.49,0-5.24s0-3.21,0-4.81c0-.92,0-1.85,0-2.77,0-.29,0-.57,0-.86,0-2.23,0-4.46-.06-6.69,0-1.37,0-2.74,0-4.1s0-2.56,0-3.83,0-2.58-.07-3.87a1.21,1.21,0,0,0,0-.19c0-.19,0-.35-.15-.35s-.15.16-.15.34c0,.44,0,.88,0,1.32,0,1.73,0,3.45-.06,5.17,0,1.46,0,2.92,0,4.38,0,1.65,0,3.31,0,5s0,3.5,0,5.24,0,3.21,0,4.81,0,3.13,0,4.7c0,1.13,0,2.26,0,3.4,0,.84,0,1.69,0,2.54v.56c0,.11,0,.21,0,.32v.29c0-.07,0-.2,0-.33,0-.54,0-1.07,0-1.61,0-1.7,0-3.41,0-5.12,0-1.91,0-3.83,0-5.74,0-1.39,0-2.77,0-4.15,0-2,0-4,0-6,0-1.51,0-3,0-4.54s0-3,0-4.49c0-1,0-2.09,0-3.13,0-.85,0-1.72-.07-2.57,0-.06,0-.13,0-.19s0-.22-.11-.23-.13.1-.14.23a5.34,5.34,0,0,0,0,.69c0,1.06-.05,2.11-.05,3.17,0,1.81,0,3.62,0,5.43,0,1.46,0,2.93,0,4.38,0,1.81,0,3.63,0,5.44,0,1.58,0,3.15,0,4.73,0,1.9,0,3.8,0,5.71,0,1.3,0,2.6,0,3.9,0,.94,0,1.88,0,2.82,0,.39,0,.8,0,1.19,0,.05,0,0,0,0s0,0,0,0c0-.31,0-.63,0-.94,0-1.57,0-3.15,0-4.73,0-2,0-4.07,0-6.1,0-1.87,0-3.75,0-5.63,0-1.53,0-3.07,0-4.6,0-1.72,0-3.44,0-5.16,0-1.35,0-2.71,0-4.06,0-1.19,0-2.38,0-3.56,0-.85,0-1.72-.09-2.56,0-.17,0-.31-.14-.31s-.1.15-.1.29c-.05,1.42-.08,2.85-.08,4.27v2.16c0,.3,0,.61,0,.91,0,2,0,4,0,5.95v2.06C92.91,155.24,92.94,155.75,92.9,156.26Z"/><path class="cls-11" d="M273.65,156.26v2.62c-.09.08-.12,0-.14-.16a2.56,2.56,0,0,1,0-.39c0-1.23-.05-2.45,0-3.67,0-2.58-.06-5.16-.05-7.75,0-.53,0-1.06,0-1.59,0-1.23,0-2.45,0-3.68a1.38,1.38,0,0,1,0-.29c0,.62,0,1.3,0,2,0,2.26,0,4.52,0,6.77,0,1.76,0,3.52,0,5.28,0,1.1,0,2.21,0,3.32v.38c0,.71,0,1.43,0,2.15,0,.15,0,.31,0,.46,0,2.91,0,5.82-.05,8.73,0,1.31,0,2.64,0,4s0,2.42-.08,3.63a1.93,1.93,0,0,1,0,.42c0,.11-.05.22-.12.23s-.11-.1-.14-.22a.86.86,0,0,1,0-.23c0-.62,0-1.24,0-1.87,0-1.75,0-3.5-.05-5.24,0-1.45,0-2.9,0-4.34-.06-1.84,0-3.68,0-5.52,0-1.59,0-3.18,0-4.77-.05-1.84,0-3.68,0-5.51-.07-3.11,0-6.21,0-9.32a1.05,1.05,0,0,1,0-.18v.28c0,2.68,0,5.37,0,8.06,0,1.73,0,3.47,0,5.2,0,1.28,0,2.56,0,3.83,0,.74,0,1.49,0,2.23,0,2.88,0,5.76-.06,8.64,0,1.36,0,2.72,0,4.07s0,2.87-.08,4.3c0,.25,0,.56-.16.58s-.16-.31-.17-.55c-.05-1.72-.06-3.44-.09-5.16s0-3.39,0-5.08c0-1.39,0-2.77,0-4.15-.05-1.94,0-3.89-.05-5.83,0-1.64,0-3.28,0-4.92s0-3.16,0-4.74c-.05-2.24,0-4.48,0-6.72v-.75c0-.09,0-.2,0-.25a2.49,2.49,0,0,0,0,.41v.89c0,1.95,0,3.91,0,5.86,0,1.56,0,3.11,0,4.66s0,3,0,4.57c0,.51-.05,1-.05,1.52,0,1,0,2,0,3.05-.05,1.93,0,3.86-.05,5.79,0,1.38,0,2.76,0,4.14,0,2,0,3.94-.08,5.9,0,.33,0,.65,0,1s0,.43-.14.44-.17-.22-.18-.43c0-.53,0-1.07,0-1.6,0-1.76,0-3.52-.06-5.28,0-1.51,0-3,0-4.53s0-3.06,0-4.58c-.05-1.76,0-3.52-.05-5.28,0-1.59,0-3.18,0-4.77s0-3.15,0-4.73c0-1.22,0-2.45,0-3.67,0-.73,0-1.46,0-2.19v-.69c0-.15,0-.32,0-.4,0,.14,0,.35,0,.56v.9c0,1.76,0,3.53,0,5.28,0,1.57,0,3.13,0,4.7,0,1.12,0,2.24,0,3.36s0,2.32-.07,3.47c0,.29,0,.57,0,.86,0,2.31,0,4.62-.06,6.92,0,1.37,0,2.74,0,4.11s0,2.5,0,3.75,0,2.45-.08,3.67a1.56,1.56,0,0,1,0,.31c0,.14-.08.25-.17.23s-.12-.15-.13-.3c0-.35,0-.7,0-1.05,0-1-.05-2.06-.05-3.09,0-1.95,0-3.91-.05-5.86,0-1.49,0-3,0-4.46-.05-1.72,0-3.45,0-5.16-.05-1.53,0-3.05,0-4.58s0-3.23,0-4.85c0-1.33,0-2.66,0-4s0-2.56,0-3.9c0,0,0,0,0,0s0,0,0,0c0,1,0,2.09,0,3.13,0,1.46,0,2.92,0,4.38s0,3.15,0,4.73,0,3.39,0,5.08,0,3.18,0,4.77c-.05,1.38,0,2.76,0,4.14s0,2.85,0,4.27c0,1,0,2.06,0,3.08s0,2.12-.07,3.17c0,.21,0,.46-.16.44s-.17-.24-.17-.46c0-.64-.05-1.27-.05-1.91,0-1.45,0-2.9-.05-4.34,0-1.19,0-2.38,0-3.56-.05-1.72,0-3.44,0-5.16,0-1.52,0-3,0-4.54,0-1.67,0-3.34,0-5,0-1.44,0-2.87,0-4.31-.06-2.43,0-4.87-.05-7.31,0-.28,0-.57,0-.86,0,2.35,0,4.7,0,7,0,1.52,0,3,0,4.54s0,3,0,4.54c0,.3,0,.6,0,.89s0,.89,0,1.33c0,2.4,0,4.8,0,7.19,0,1.29,0,2.59,0,3.87s0,2.35,0,3.52,0,2.58-.07,3.87a.92.92,0,0,1,0,.16c0,.21,0,.48-.18.47s-.13-.28-.14-.48c-.08-.8-.06-1.61-.07-2.41,0-1.48-.05-2.95-.06-4.42,0-1.89,0-3.78,0-5.67,0-1.45,0-2.9,0-4.34,0-1.63,0-3.26,0-4.89,0-1.47,0-2.94,0-4.41s0-2.88,0-4.31,0-3.1,0-4.65c0-.3,0-.6,0-.89,0-.49,0-1,0-1.45,0-.11,0-.23,0-.29v.26a2.55,2.55,0,0,0,0,.39c0,1.42,0,2.84,0,4.26,0,1.22,0,2.43,0,3.64-.05,1.45,0,2.9,0,4.34s0,3.16,0,4.73,0,2.92,0,4.38,0,3.08-.05,4.62c0,1.3,0,2.6,0,3.91,0,1.91-.05,3.83-.08,5.74,0,.47,0,.94,0,1.41a1.09,1.09,0,0,1,0,.26c0,.15-.07.3-.16.28s-.12-.16-.13-.31a4.71,4.71,0,0,1-.05-.54c0-.86,0-1.71,0-2.58,0-1.55,0-3.1-.05-4.65,0-1.3,0-2.61,0-3.91-.05-1.59,0-3.18-.05-4.77,0-1,0-2,0-3,0-.75,0-1.51,0-2.26,0-2.43,0-4.85-.06-7.28,0-1.53,0-3.07-.05-4.61,0-.74,0-1.48,0-2.23a10.2,10.2,0,0,1,0-1.36c0-.12-.05-.06,0-.07h0c0,1,0,1.95,0,2.92,0,.44,0,.89,0,1.33,0,1.93,0,3.86-.05,5.79,0,1.34,0,2.68,0,4-.05,1.61,0,3.21,0,4.81,0,1.41,0,2.82,0,4.22s0,2.95,0,4.42c0,1.12,0,2.25,0,3.37,0,1.74,0,3.49-.08,5.23,0,.33,0,.65,0,1s0,.45-.16.46-.15-.23-.17-.44c-.07-.87-.06-1.75-.06-2.62,0-1.61-.05-3.23-.07-4.85s0-3.08,0-4.61c0-1.36,0-2.71,0-4.07-.05-1.59,0-3.18-.05-4.77,0-1.38,0-2.76,0-4.14s0-3,0-4.46,0-3.15-.05-4.73c0-1,0-2,0-3,0-.14,0-.27,0-.41a2.42,2.42,0,0,1,0-.27,1.13,1.13,0,0,0,0,.26c0,.14,0,.27,0,.41,0,.47,0,.94,0,1.4,0,1.49,0,3,0,4.46V147c0,2.23,0,4.46-.05,6.69,0,1.72,0,3.45,0,5.16,0,1.36,0,2.72,0,4.07s0,2.66,0,4,0,2.59,0,3.88c0,1,0,2.08,0,3.12,0,1.33,0,2.66-.07,4a6,6,0,0,1-.06.61c0,.12-.06.21-.13.21s-.1-.08-.12-.18a1.35,1.35,0,0,1-.06-.41c0-.43,0-.86,0-1.29,0-1.14,0-2.29-.05-3.44,0-1.56,0-3.13-.05-4.69,0-1.22,0-2.45,0-3.67-.05-1.52,0-3,0-4.54-.05-1.32,0-2.63,0-3.94,0-1.5,0-3,0-4.5,0-1.25,0-2.51,0-3.75s0-2.74-.06-4.11c0-.63,0-1.27,0-1.91,0-.38,0-.75,0-1.13,0,.36,0,.72,0,1.08,0,1.26,0,2.51,0,3.76s0,2.5,0,3.75,0,2.48,0,3.72c0,1.47,0,3,0,4.41s0,2.66,0,4,0,2.92-.05,4.38c0,1.21,0,2.42,0,3.64-.05,2,0,4-.09,6,0,.78,0,1.57-.07,2.34,0,.21,0,.47-.15.48s-.17-.22-.18-.46c-.05-1.08-.07-2.16-.08-3.24,0-1.49,0-3-.05-4.46,0-1.16,0-2.32,0-3.48,0-1.39,0-2.79,0-4.18s0-2.71,0-4.07,0-2.84,0-4.26c0-1.24,0-2.48,0-3.71s0-2.61-.05-3.91c-.05-2,0-4,0-5.38,0,1.08,0,2.81,0,4.53,0,1.26,0,2.53,0,3.79s0,2.37,0,3.56c-.05,1.47,0,2.94,0,4.42,0,1.25,0,2.5,0,3.74,0,1.46,0,2.93-.05,4.38,0,1.14,0,2.27,0,3.4,0,2,0,4-.08,6.06,0,.91,0,1.83-.08,2.73a1.18,1.18,0,0,1,0,.27c0,.16-.07.33-.18.31s-.11-.19-.13-.36c-.06-.66-.06-1.33-.06-2,0-1.16-.06-2.32-.06-3.48,0-1.45,0-2.9-.05-4.34,0-1.17,0-2.35,0-3.52-.05-1.43,0-2.87,0-4.3,0-.57-.05-1.14,0-1.72v-.22a1.61,1.61,0,0,1,0-.31c0-1.34-.06-2.68-.05-4,0-1.78,0-3.56,0-5.35,0-1.11,0-2.24,0-3.35s0-2.21,0-3.31a8,8,0,0,1,0-1c0-.32,0-.66,0-1,0,0,0,.11,0,.18,0,2,0,4,0,6,0,1.11,0,2.22,0,3.32s0,2.46,0,3.68,0,2.68,0,4,0,2.66,0,4,0,2.61,0,3.91,0,2.42,0,3.64c0,1.9,0,3.8-.08,5.7,0,1,0,2.08-.07,3.12a1.36,1.36,0,0,1,0,.2c0,.2,0,.49-.18.46s-.16-.29-.16-.51c0-.42,0-.84,0-1.25,0-1,0-2-.06-3,0-2.46-.06-4.92-.08-7.39,0-1,0-2,0-3,0-1.54,0-3.08-.05-4.61,0-1.29,0-2.58,0-3.86s0-2.54,0-3.8,0-2.29,0-3.44c-.06-1.95-.05-3.9-.08-5.85,0-.34,0-.68,0-1s0-.46,0-.68c0-.05,0,0,0,0s0,0,0,0a4.13,4.13,0,0,1,0,.5c0,1.9,0,3.81,0,5.71,0,1.13,0,2.27,0,3.4s0,2.35,0,3.51c0,1.31,0,2.62,0,3.91s0,2.51,0,3.76,0,2.58-.05,3.87c0,1.13,0,2.27,0,3.4,0,2-.05,4-.09,6,0,1.29,0,2.58-.1,3.86,0,.21,0,.47-.15.48s-.17-.27-.19-.52c-.06-.71-.05-1.43-.07-2.14,0-1.15,0-2.29-.05-3.44,0-1.34,0-2.69,0-4,0-1,0-2,0-3-.05-1.38,0-2.76-.05-4.14,0-1.19,0-2.37,0-3.55s0-2.64,0-4c0-1.08,0-2.17,0-3.25,0-2-.05-4.11-.08-6.17,0-1.25,0-2.5,0-3.75a4.57,4.57,0,0,0,0-.64c0-.05,0,0,0,0s0,0,0,0a3.54,3.54,0,0,1,0,.46c0,1.81,0,3.62,0,5.43,0,1.07,0,2.14,0,3.21s0,2.22,0,3.32,0,2.48,0,3.71,0,2.43,0,3.64,0,2.48,0,3.71,0,2.3,0,3.44c0,2,0,4-.08,6,0,1.33,0,2.66-.07,4,0,.36-.05.72-.05,1.09a1.21,1.21,0,0,1,0,.19c0,.16-.06.34-.17.33s-.16-.18-.17-.37c0-.39,0-.77-.05-1.16,0-1.89-.07-3.78-.09-5.67,0-1,0-2,0-3.05s0-2.3,0-3.44,0-2.35,0-3.52,0-2.45,0-3.67,0-2.32,0-3.48,0-2.27,0-3.4,0-2.19,0-3.28c0-1.51-.05-3-.06-4.54,0-.79-.05-1.58,0-2.28,0,.66,0,1.42,0,2.17,0,1.29,0,2.58-.05,3.87l-.09,7.2c0,.92,0,1.85,0,2.77,0,1.41,0,2.82-.05,4.22,0,1.05,0,2.09,0,3.13,0,1.2,0,2.4,0,3.6,0,1.82-.05,3.65-.08,5.47,0,1.6-.05,3.2-.12,4.8a3,3,0,0,1,0,.42c0,.15-.07.27-.15.26s-.15-.14-.16-.3c0-.39-.05-.78-.06-1.17l-.09-5c0-1.94,0-3.88-.07-5.82,0-1.22,0-2.43,0-3.64s0-2.14,0-3.2,0-2.4,0-3.6,0-2.11,0-3.17c0-2-.05-4.06-.08-6.09,0-1.53-.06-3.05-.07-4.57,0-.39,0-.78,0-1.14a1.15,1.15,0,0,0,0,.27c0,.73,0,1.46,0,2.19l-.09,6.6c0,1.06,0,2.12,0,3.17-.06,1.6,0,3.2-.06,4.8s0,3.47-.06,5.2c0,1.06,0,2.11,0,3.17-.05,1.95-.06,3.91-.09,5.86,0,1.32,0,2.63-.08,3.94,0,.69,0,1.38-.07,2.07a1.09,1.09,0,0,1,0,.26c0,.13-.09.24-.17.21s-.11-.13-.12-.27c-.05-.5-.07-1-.08-1.52,0-1.66-.07-3.33-.09-5s0-3.49-.07-5.23c0-2.27-.05-4.54-.09-6.81,0-1,0-1.92,0-2.88-.05-2.23-.06-4.46-.08-6.68,0-1.7-.05-3.39-.08-5.08l-.06-3.17c0-.65,0-1.3,0-1.95,0-.07,0-.15,0-.22,0,.17,0,.35,0,.53,0,1.48,0,3,0,4.45,0,1.76-.05,3.52-.08,5.28,0,2,0,4.09-.08,6.13,0,1.07,0,2.14,0,3.21,0,2.12,0,4.25-.08,6.37,0,1.82-.05,3.65-.08,5.47s-.06,3.8-.12,5.7c0,.41,0,.84-.06,1.24,0,.2-.07.39-.19.38s-.13-.21-.16-.39a12.38,12.38,0,0,1-.06-1.36c0-.69,0-1.38,0-2.07,0-1.91-.07-3.83-.09-5.74l0-2.46c-.05-2.15-.07-4.3-.09-6.45,0-1,0-1.93,0-2.89-.05-2.06-.06-4.12-.09-6.18,0-1.69,0-3.38-.07-5.08l-.09-4.21c0-.53,0-1.05,0-1.37,0,1.61,0,3.42-.08,5.22,0,.81,0,1.62,0,2.42,0,1.48-.05,3-.06,4.42q0,3-.08,5.94c0,1,0,2.09,0,3.13,0,2-.05,4-.08,6,0,1.61,0,3.21-.08,4.81,0,1.89-.06,3.78-.16,5.66a1.21,1.21,0,0,1,0,.19c0,.17-.06.37-.17.37s-.16-.19-.18-.39c-.05-.48-.06-1-.07-1.44,0-.73-.05-1.46-.06-2.19,0-1.68-.06-3.36-.08-5l0-2c0-2.09-.06-4.17-.09-6.25,0-.9,0-1.8,0-2.7-.05-2-.06-4-.09-6.06,0-1.7,0-3.41-.08-5.12,0-2-.06-4.06-.13-6.09,0-.38,0-.78,0-1,0,.69,0,1.56,0,2.43,0,.66,0,1.32,0,2,0,1-.05,2.11-.06,3.16,0,2-.06,4-.09,6,0,.8,0,1.59,0,2.39,0,2,0,4-.09,6,0,.81,0,1.62,0,2.43,0,1.81,0,3.62-.08,5.43,0,1.27-.05,2.55-.08,3.82s-.06,2.58-.12,3.86a3,3,0,0,1,0,.43c0,.16-.07.28-.16.29s-.15-.12-.17-.28a10.52,10.52,0,0,1-.07-1.12c-.06-1.84-.1-3.67-.13-5.51,0-1.51,0-3-.08-4.53,0-1.82-.05-3.65-.08-5.47,0-.93,0-1.86,0-2.77-.06-1.81,0-3.62-.09-5.43,0-1.46,0-2.92-.07-4.37,0-1.72-.06-3.44-.1-5.16,0-1.1-.09-2.21-.07-3.31a3.44,3.44,0,0,0,0-.46c0,.62,0,1.34,0,2.05s0,1.2,0,1.8c0,.93,0,1.87-.06,2.81,0,1.76-.06,3.52-.08,5.27,0,1.54-.07,3.08-.07,4.61,0,.66-.06,1.3-.06,1.95s0,1.23,0,1.84c0,1.21,0,2.42,0,3.63,0,1.86-.07,3.73-.09,5.59,0,1.22,0,2.45-.08,3.67,0,1.53-.06,3.07-.15,4.6a2.77,2.77,0,0,1,0,.3c0,.16-.1.3-.2.29s-.12-.16-.15-.32a7.18,7.18,0,0,1-.06-.81q-.06-1.31-.09-2.61c0-1.55-.07-3.1-.09-4.65s-.05-2.94-.08-4.41c0-1.68,0-3.36-.08-5,0-.61,0-1.22,0-1.84v-.22q-.06-1.05-.06-2.1c0-1.87-.06-3.73-.08-5.59,0-1.35-.05-2.71-.08-4.06,0-1.85-.06-3.7-.15-5.54,0-.35,0-.71,0-.94,0,.37,0,.85,0,1.33q-.07,2.46-.12,4.92c0,1.32-.05,2.65-.08,4,0,1.61-.05,3.23-.08,4.84,0,.71,0,1.41,0,2.11-.06,1.68-.05,3.36-.09,5,0,1.42,0,2.84-.08,4.26,0,1.61-.05,3.23-.1,4.84,0,.75,0,1.51-.05,2.26,0,1.36-.06,2.71-.16,4a1.39,1.39,0,0,1,0,.3c0,.14-.09.24-.18.23s-.12-.11-.15-.25a7.17,7.17,0,0,1-.08-.81l-.09-2.53c0-1.32-.06-2.63-.11-3.94,0-.72,0-1.44,0-2.15,0-1-.05-2.06-.06-3.09,0-1.66-.06-3.33-.08-5,0-1.38-.06-2.76-.08-4.14,0-1.56-.05-3.12-.08-4.69,0-1.28,0-2.57-.08-3.86,0-1.81-.08-3.62-.14-5.42,0-.95-.09-1.89-.07-2.83v0c0,1.69-.11,3.36-.16,5,0,.61,0,1.22,0,1.83,0,1,0,1.93-.06,2.89,0,1.58-.05,3.15-.1,4.73,0,.9,0,1.82-.05,2.73,0,1.77-.06,3.54-.08,5.3,0,1.27,0,2.53-.08,3.79,0,1.87-.07,3.75-.12,5.62,0,1.32-.07,2.63-.12,3.94,0,.74,0,1.48-.12,2.21,0,.27,0,.61-.21.61s-.2-.35-.22-.61c-.07-.86-.1-1.73-.13-2.6,0-1.21-.07-2.42-.11-3.63,0-.6,0-1.2,0-1.79,0-1,0-1.91-.06-2.86,0-1.49,0-3-.1-4.48,0-.69,0-1.38,0-2.07,0-1.07,0-2.14,0-3.21l-.12-5.93c0-1.13-.05-2.27-.08-3.4,0-1.63-.08-3.27-.14-4.91,0-1-.08-2-.12-2.86-.06,1-.09,2-.13,3.05,0,.52,0,1-.05,1.56,0,1.29-.07,2.58-.1,3.87,0,1.78-.08,3.56-.12,5.34,0,1.15,0,2.29-.07,3.44,0,1.94-.09,3.88-.12,5.81,0,1.08-.05,2.16-.08,3.24-.05,1.77-.08,3.54-.14,5.31,0,1-.06,1.95-.09,2.92s-.08,2.13-.17,3.19c0,0,0,.08,0,.11,0,.24-.07.51-.23.5s-.18-.26-.21-.49c-.08-.73-.11-1.47-.15-2.21-.06-1.4-.1-2.8-.15-4.21,0-.52,0-1,0-1.56,0-1.34-.07-2.68-.1-4,0-1.62-.08-3.25-.11-4.88l-.12-5.07c0-1.62-.07-3.25-.12-4.88-.05-1.88-.09-3.77-.16-5.65s-.11-3.48-.23-5.21a3.47,3.47,0,0,0,0-.42c-.09,1.15-.13,2.27-.18,3.39-.06,1.31-.09,2.63-.15,3.94,0,.49,0,1,0,1.48,0,1.21-.06,2.42-.09,3.63l-.12,4.6-.12,4.41-.12,4.53c-.05,1.67-.09,3.35-.16,5-.08,2.16-.13,4.34-.31,6.49a5,5,0,0,1-.11.87c0,.18-.1.3-.21.29s-.16-.15-.19-.34a23.38,23.38,0,0,1-.21-2.38c-.1-1.72-.17-3.45-.23-5.18,0-1-.06-1.92-.1-2.88,0-1.46-.07-2.92-.14-4.37,0-.43,0-.86,0-1.29,0-1-.06-2-.09-3a1.61,1.61,0,0,1,0-.31v-.21a20.28,20.28,0,0,1-.09-2.06c0-1.48-.09-3-.13-4.45-.06-1.84-.12-3.69-.2-5.53s-.16-3.95-.31-5.9a8.23,8.23,0,0,0-.12-1,9,9,0,0,0-.16,1.41c-.1,1.24-.16,2.48-.22,3.73-.09,1.65-.15,3.31-.22,5-.05,1.2-.09,2.39-.13,3.59l-.15,3.74-.09,2.53c0,1.3-.09,2.6-.14,3.89-.05,1.11-.09,2.21-.14,3.31,0,1.36-.11,2.73-.18,4.09s-.13,2.54-.21,3.8c-.07,1-.15,2-.27,3a4.56,4.56,0,0,1-.12.58c-.14.46-.36.45-.49,0a7.39,7.39,0,0,1-.23-1.37c-.19-1.75-.29-3.52-.41-5.29s-.21-3.6-.3-5.4c-.08-1.41-.15-2.82-.22-4.23,0-.87-.07-1.74-.14-2.6a4.34,4.34,0,0,1,0-.51,1.57,1.57,0,0,0,0-.44c-.07-1.45-.15-2.9-.23-4.35s-.16-2.9-.26-4.34c-.18-2.79-.34-5.58-.71-8.31a8.75,8.75,0,0,0-.33-1.75c-.14-.4-.25-.4-.39,0a12.65,12.65,0,0,0-.5,2.16c-.36,2.09-.64,4.22-1,6.32-.43,2.68-.87,5.36-1.45,7.94-.13.58-.27,1.15-.43,1.71a7.27,7.27,0,0,1-.28.79c-.06.15-.12.27-.22.23a.58.58,0,0,1,0-.43,25.12,25.12,0,0,0,.86-3.29c.7-3.38,1.24-6.88,1.77-10.38.25-1.66.47-3.34.87-4.9a5.51,5.51,0,0,1,.21-.65c.21-.52.52-.51.72,0a7.66,7.66,0,0,1,.36,1.6c.27,1.87.42,3.79.57,5.71q.16,2.31.3,4.65c.09,1.51.17,3,.26,4.54s.17,3.29.26,4.93l.21,4.24c.08,1.58.17,3.16.26,4.73.09,1.73.2,3.44.33,5.16.07.94.15,1.88.29,2.79,0,.11,0,.27.09.28s.09-.16.11-.28c.12-.82.19-1.67.25-2.53.15-2.14.25-4.29.34-6.44.07-1.44.12-2.88.18-4.32l.21-5.53c0-1.32.09-2.65.14-4l.18-4.71c.05-1.11.09-2.23.14-3.34.1-2.23.19-4.47.39-6.67a6.52,6.52,0,0,1,.12-.79c0-.21.1-.37.23-.37s.19.15.23.36a14.43,14.43,0,0,1,.18,1.64c.11,1.6.18,3.2.25,4.81.06,1.42.11,2.83.15,4.25.06,1.69.12,3.38.16,5.07,0,1.24.07,2.49.12,3.74.07,1.9.11,3.82.18,5.72,0,1,.07,2.06.1,3.08,0,1.33.09,2.65.14,4,0,1,.08,2,.13,3s.1,2.07.2,3.18c.1-.85.14-1.65.18-2.44.08-1.54.13-3.09.19-4.63,0-.93.05-1.87.08-2.81,0-1.32.07-2.65.12-4,0-.51,0-1,0-1.52,0-1.19.07-2.37.1-3.55s0-2.11.07-3.16c0-1.69.07-3.38.14-5.07,0-.54,0-1.09,0-1.63q.06-2.4.15-4.8c.05-1.43.1-2.85.21-4.27a6,6,0,0,1,.07-.61c0-.2.07-.37.19-.37s.19.16.22.37a11.39,11.39,0,0,1,.12,1.31c.1,1.74.16,3.48.21,5.22l.12,4.17.12,4.95c0,1.24.06,2.47.08,3.71,0,.07,0,.14,0,.22,0,.54,0,1.09.05,1.63q0,1.29.06,2.58c0,1.3,0,2.6.1,3.9,0,.57,0,1.15,0,1.72,0,2,.11,3.93.17,5.89,0,1,.07,1.94.15,2.88.06-1.11.1-2.24.15-3.37.06-1.54.08-3.09.14-4.64,0-.55,0-1.12,0-1.67,0-1.51.07-3,.1-4.53,0-1.89.08-3.78.12-5.66,0-1.19.05-2.37.07-3.56l.12-5.3c0-1.46.07-2.92.12-4.37s.09-3.07.2-4.6c0-.14,0-.28,0-.42s.07-.41.2-.41.17.2.2.41.05.51.07.77c0,1.06.1,2.13.13,3.19,0,1.26.06,2.53.11,3.79,0,.62,0,1.25,0,1.87q0,1.43.06,2.85c0,1.52,0,3.05.1,4.57,0,.67,0,1.35,0,2,0,1,0,2.06.05,3.08,0,1.58,0,3.15.11,4.73,0,.64,0,1.3,0,1.95,0,1.44.06,2.89.09,4.33s.09,3,.16,4.56a3.69,3.69,0,0,1,0,.47c0-1.42.11-2.84.14-4.26,0-1.68.09-3.35.12-5,0-1.3,0-2.6.08-3.91s.05-2.81.08-4.21,0-2.89.08-4.34.05-2.76.07-4.14,0-2.57.08-3.86c0-1.57.07-3.15.12-4.72,0-1.17.06-2.34.16-3.5,0-.26,0-.61.2-.62s.2.34.22.6c.06.68.08,1.37.1,2.06,0,1.69.1,3.38.13,5.07,0,1.28.06,2.55.08,3.83,0,1.51.06,3,.08,4.53s.05,2.84.08,4.26,0,3.15.08,4.72c0,1.34.05,2.68.07,4,0,1.84.08,3.67.13,5.51,0,1.27.07,2.54.11,3.82a1.77,1.77,0,0,1,0,.23v.06h0c0-.41,0-.83,0-1.25,0-1.13.07-2.26.09-3.39q.08-3,.12-6c0-1.46.05-2.92.08-4.38,0-1.64,0-3.28.08-4.92s.05-3.07.08-4.61,0-3,.08-4.53c0-1.21,0-2.42.08-3.63.05-1.81.06-3.62.19-5.42a.37.37,0,0,1,0-.11c0-.21.05-.41.17-.43s.16.18.19.38a6.52,6.52,0,0,1,.07.88c0,1,.07,2.06.1,3.08,0,1.53.05,3,.1,4.57,0,.77,0,1.54,0,2.31,0,1.23,0,2.47.06,3.71l.06,4c0,2.11.08,4.22.1,6.33,0,1.46,0,2.92.07,4.38,0,2,.07,4,.12,5.93,0,.89,0,1.77.07,2.66,0-.71,0-1.41,0-2.1s0-1.43.05-2.15c0-1,.05-1.92.06-2.89,0-1.75.05-3.51.08-5.27,0-1.54.05-3.07.08-4.61,0-1.93.05-3.85.08-5.78,0-1.55,0-3.1.07-4.65s0-3.07.09-4.61.06-2.89.11-4.33c0-.46,0-.93.08-1.4,0-.2,0-.4.16-.41s.18.19.2.41c.05.54.06,1.09.08,1.63,0,.39,0,.78,0,1.17,0,.84,0,1.67.05,2.5l.09,5c0,1.51,0,3,.07,4.53,0,1.27,0,2.53.07,3.79,0,.38,0,.75,0,1.13,0,.85.05,1.69.05,2.54,0,2.1.06,4.19.08,6.29,0,1.46.05,2.92.08,4.38,0,1.27,0,2.55.1,3.82,0,.53,0,1.07,0,1.6V178c0-.14,0-.29,0-.44,0-1.23,0-2.45.06-3.67,0-.09,0-.18,0-.27,0-1.09,0-2.17.05-3.25,0-1.83,0-3.67.08-5.51l0-2.18c0-2.09.05-4.17.09-6.26,0-.78,0-1.56,0-2.34,0-1.88.06-3.75.09-5.63,0-1.38,0-2.76.07-4.14,0-1.57.05-3.15.15-4.71a.92.92,0,0,0,0-.16c0-.19.07-.37.17-.38s.17.19.19.39,0,.47,0,.7c0,.87.07,1.74.08,2.61,0,1,0,2,0,3.05,0,1.79.05,3.57.09,5.35,0,.84,0,1.68,0,2.5.06,1.25,0,2.51.07,3.75,0,.69,0,1.38,0,2.07.06,2,.06,4,.09,5.94,0,1.75,0,3.5.08,5.24,0,1.53,0,3.07.1,4.6,0,.64,0,1.28,0,1.82,0-.42,0-.93,0-1.45,0-.89,0-1.79.06-2.69,0-1.88.06-3.75.08-5.63,0-.79,0-1.59,0-2.38.05-2,.05-4,.1-5.94v-.22c.05-1.22,0-2.45.05-3.67,0-.09,0-.18,0-.28,0-1.56,0-3.12.05-4.69,0-1.72,0-3.43.08-5.15,0-1.16,0-2.32.07-3.48,0-.66,0-1.32.08-2,0-.22.05-.45.18-.45s.16.24.18.48c.06.61.06,1.24.08,1.86,0,.82,0,1.64.05,2.46,0,1.92.07,3.83.09,5.75l0,2.26q0,3.41.08,6.8c0,1.93.06,3.86.08,5.78s.05,3.81.08,5.71c0,1.46,0,2.92.08,4.37,0,1,0,1.9,0,2.85a2.85,2.85,0,0,0,0,.51s0,0,0,0,0,0,0,0a1.88,1.88,0,0,1,0-.34c0-1.33,0-2.66,0-4,0-1.68.05-3.36.08-5,0-2,0-4.06.08-6.09,0-1.1,0-2.19,0-3.28,0-2.07.05-4.15.08-6.22,0-1.88,0-3.77.08-5.66,0-1.52,0-3.05.08-4.57,0-1.06,0-2.13.11-3.19,0-.2,0-.42.15-.43s.17.21.19.42c.05.41,0,.83.06,1.24s0,1,0,1.53c0,1.17,0,2.34.06,3.51,0,2,0,4,.08,6,0,1,0,2,0,3,.05,1.35,0,2.69.05,4V159c0,.12,0,.23,0,.35,0,1.54,0,3.08,0,4.62,0,1.26,0,2.52.05,3.79,0,1.72,0,3.44.08,5.16,0,.88,0,1.77,0,2.65,0,.46,0,.94,0,1.26,0-.86,0-1.87,0-2.88a1.93,1.93,0,0,0,0-.24c0-1.18.05-2.37.05-3.55,0-1.35,0-2.69,0-4,0-1,0-2,0-3.05.05-2.27.05-4.53.08-6.8,0-1,0-2,0-3,0-2.1.05-4.2.08-6.29,0-1.51.05-3,.08-4.53,0-.92,0-1.83.08-2.73,0-.24,0-.61.18-.6s.17.32.19.59c0,.94.06,1.89.08,2.84,0,1.83.06,3.65.08,5.47,0,.83,0,1.65,0,2.47,0,2.37.06,4.74.09,7.11,0,1.08,0,2.17,0,3.25,0,2.3.06,4.61.09,6.91,0,1.8,0,3.6.08,5.4,0,1.08,0,2.16,0,3.24a3.91,3.91,0,0,1,0,.62c0-.41,0-.9,0-1.39,0-.88,0-1.77,0-2.65,0-.12,0-.24,0-.35,0-1.45,0-2.9,0-4.34s0-2.82.05-4.23c0-1.05,0-2.11,0-3.16,0-1.27,0-2.53,0-3.79,0-1.1,0-2.2,0-3.29s0-2.4,0-3.6c0-1.87,0-3.75.08-5.62,0-1.62.05-3.23.12-4.84a2.45,2.45,0,0,1,0-.27c0-.17.05-.39.17-.36s.16.22.17.43,0,.67,0,1,0,1,0,1.44c0,1.14,0,2.27.05,3.4,0,2.35.06,4.69.09,7,0,1,0,2.06,0,3.09s0,1.82,0,2.73c0,1.63,0,3.26.05,4.88,0,1.1,0,2.19,0,3.29,0,2.07,0,4.14.08,6.21,0,1.25,0,2.5,0,3.75a5.09,5.09,0,0,1,0,.56c0-.12,0-.27,0-.42,0-1.07,0-2.13,0-3.2,0-2.22,0-4.43.08-6.65,0-1,0-1.95,0-2.93,0-1.38,0-2.76,0-4.14a5.23,5.23,0,0,1,.06-.57v-.23c0-1.13-.05-2.27,0-3.4a1.85,1.85,0,0,0,0-.23c0-1.93,0-3.86.05-5.79s0-4,.08-6c0-1.11,0-2.21.07-3.32,0-.22,0-.44,0-.66s0-.32.14-.32.15.13.17.31,0,.55.05.82c0,.45,0,.91,0,1.36,0,1.1,0,2.19.06,3.29,0,2.43.06,4.87.08,7.31,0,1.06,0,2.13,0,3.2s.05,1.88,0,2.82c0,1.72,0,3.43.05,5.15,0,1.1,0,2.19,0,3.29.05,2.12.05,4.24.09,6.37,0,1.31,0,2.63,0,3.94V177c0-1.85,0-3.7,0-5.55,0-1.11,0-2.22,0-3.32s0-2.3,0-3.44c.05-1.31,0-2.61,0-3.91,0-.6,0-1.2.05-1.8v-.22c0-.8,0-1.59,0-2.38s0-1.65,0-2.47c0-1.45,0-2.89,0-4.34,0-1,0-2,0-3,0-1.69,0-3.39.08-5.08,0-.66,0-1.33.07-2,0-.2,0-.44.15-.45s.17.23.18.47c.06.94.07,1.89.09,2.84,0,2.38.07,4.75.09,7.12,0,1,0,2.06,0,3.09,0,1.47,0,2.95.05,4.42,0,1.12,0,2.24,0,3.35.05,1.45,0,2.9,0,4.34,0,1.19,0,2.38,0,3.56.06,2.88.08,5.76.08,8.64a1.28,1.28,0,0,1,0,.28c0-.75,0-1.56,0-2.37,0-1.08,0-2.16,0-3.24v-.2c0-1.65,0-3.31,0-5s0-3.45.05-5.16c0-1.27,0-2.53,0-3.79s0-2.77,0-4.15c0-1.17,0-2.34,0-3.51.05-2.1.05-4.2.09-6.3,0-1.17,0-2.34.07-3.51,0-.22,0-.44.05-.66s.06-.25.13-.26.12.1.15.22a1.09,1.09,0,0,1,0,.26c0,.32,0,.65,0,1,0,1,0,1.93.05,2.89,0,2.45.06,4.9.08,7.35l0,3c0,1.68,0,3.37,0,5.05,0,1.31,0,2.63,0,3.94s0,2.45,0,3.67,0,2.51,0,3.76c.05,1.42,0,2.84.05,4.26,0,.84,0,1.69,0,2.53,0,.12,0,.23,0,.35a1.79,1.79,0,0,0,0,.4,1.85,1.85,0,0,1,0-.41c0-.36,0-.73,0-1.1,0-1.38,0-2.76,0-4.14,0-.08,0-.16,0-.24,0-1.65,0-3.3,0-5,0-1.85,0-3.7.05-5.55,0-1.31,0-2.61,0-3.91s0-2.77,0-4.14,0-2.53,0-3.8c0-2.09.05-4.19.08-6.29,0-1.11,0-2.24.08-3.35a5,5,0,0,1,.06-.57c0-.12.06-.21.13-.21s.09.09.12.19a3.65,3.65,0,0,1,.06.49c0,.43,0,.86,0,1.29,0,1.14.05,2.29.06,3.43,0,1.39,0,2.77,0,4.15,0,1.21,0,2.42,0,3.63.05,1.47,0,3,.05,4.42,0,1.29,0,2.58,0,3.87s0,2.84.05,4.26c0,1.24,0,2.48,0,3.71.06,2.25,0,4.51.07,6.76,0,.42,0,.84,0,1.25v.73c0,.13,0,.27,0,.37a1.44,1.44,0,0,1,0-.21v-.72c0-1,0-2.06,0-3.09,0-1.3,0-2.61,0-3.91s0-2.48,0-3.71c.05-1.5,0-3,0-4.5,0-1.3,0-2.61,0-3.91,0-1.46,0-2.92,0-4.38,0-1.25,0-2.5,0-3.75s0-2.48,0-3.71c0-1.62.06-3.23.08-4.85,0-.43,0-.85,0-1.28a.85.85,0,0,1,0-.23c0-.15.06-.31.16-.28s.11.16.13.31,0,.36,0,.54c0,.74,0,1.48,0,2.22,0,1.37,0,2.74.05,4.11,0,1.2,0,2.4,0,3.59,0,1.39,0,2.77,0,4.15.05,1.62,0,3.23,0,4.85,0,0,0,.1,0,.15a8.47,8.47,0,0,1,0,1c0,2.26,0,4.51.06,6.77,0,1.25,0,2.5,0,3.75.05,1.68,0,3.36,0,5,0,.29,0,.57,0,.95,0-2.09,0-4.1,0-6.1,0-1.12,0-2.24,0-3.36,0-1.6,0-3.2,0-4.81,0-1.12,0-2.24,0-3.35.05-1.81,0-3.63.06-5.43,0-.88,0-1.75,0-2.62,0-1.63,0-3.26.05-4.89,0-1,0-2,0-3s0-2.27.08-3.39a2,2,0,0,1,0-.27c0-.14.07-.27.16-.26s.13.16.13.33,0,.41,0,.62c0,.8.05,1.61,0,2.42,0,1.48,0,3,.05,4.45,0,1.2,0,2.4,0,3.6,0,1.54,0,3.08,0,4.61,0,1.23,0,2.45,0,3.68V159c0,.73.07,1.45.06,2.19,0,2.29,0,4.58.05,6.88,0,2,.05,4.06.05,6.09,0,.86,0,1.72,0,2.58a6.11,6.11,0,0,1,0,.63c0-.26,0-.6,0-.94,0-1.5,0-3,0-4.49,0-2.74.05-5.48.08-8.22l0-2.57c0-2.1,0-4.2.05-6.3,0-1.36,0-2.72,0-4.07s0-2.69.05-4c0-1.05,0-2.11,0-3.16,0-1.3,0-2.61.08-3.91v-.12c0-.2,0-.46.17-.47s.14.24.16.45a20.26,20.26,0,0,1,.07,2.06c0,1.34,0,2.69.05,4,0,1.75,0,3.49.05,5.24,0,1.33,0,2.66,0,4,.05,1.64,0,3.29.05,4.93,0,1.39,0,2.79,0,4.18.05,1.58,0,3.16.05,4.73,0,1.16,0,2.33,0,3.48,0,1.32-.05,2.63,0,3.67-.05-1.22,0-2.71,0-4.21,0-1.72,0-3.44.05-5.16,0-1.41,0-2.82,0-4.22.05-1.62,0-3.24,0-4.85,0-1.42,0-2.85,0-4.26s0-3.06,0-4.58c0-1.2,0-2.4,0-3.6,0-1.6.05-3.2.08-4.8,0-.23,0-.44,0-.66s0-.39.16-.38.15.19.16.38c0,.52,0,1,0,1.56,0,1.54,0,3.08.06,4.61,0,1.32,0,2.64,0,4,.05,1.49,0,3,0,4.46,0,1.31,0,2.61,0,3.91,0,1.82,0,3.65.05,5.46,0,1.48,0,3,0,4.42.06,1.7,0,3.39.05,5.09,0,1,0,2.06,0,2.85-.06-1.13,0-2.51,0-3.9,0-1.95,0-3.91.05-5.86,0-1.28,0-2.56,0-3.84,0-1.81,0-3.62,0-5.43,0-1.45,0-2.9,0-4.34s0-3,0-4.54c0-1.12,0-2.24,0-3.36,0-1.58,0-3.15.07-4.73,0-.16,0-.31,0-.46s.05-.29.13-.3.14.14.16.3,0,.43,0,.66q0,1.74.06,3.48c0,1.24,0,2.48,0,3.71.05,1.41,0,2.82,0,4.23.05,1.56,0,3.13,0,4.69s0,3.1,0,4.65,0,3.32,0,5c0,1.38,0,2.77,0,4.14s0,2.82,0,4.23c0,.62,0,1.25,0,1.87v.89a3.45,3.45,0,0,0,0,.62s0-.09,0-.07,0,0,0,0a1.23,1.23,0,0,1,0-.19v-.68c0-1.29,0-2.58,0-3.87,0-1.73,0-3.46,0-5.2,0-1.48,0-3,0-4.45,0-1.15,0-2.3,0-3.44q0-3.28.05-6.56c0-1.36,0-2.72,0-4.07s0-2.74,0-4.1c0-1.58,0-3.16.07-4.73,0-.26,0-.52.05-.77s.05-.26.13-.27.12.09.14.22a2.31,2.31,0,0,1,.05.46c0,.57,0,1.15,0,1.72,0,1.48,0,3,.06,4.45,0,1.9,0,3.81,0,5.71,0,1.53,0,3,0,4.57,0,1.71,0,3.42,0,5.13,0,1.52,0,3.05,0,4.57s0,3.08,0,4.61c0,1.16,0,2.32,0,3.48,0,.72,0,1.43,0,2.15v.57a4.17,4.17,0,0,1,0,.61,5.58,5.58,0,0,0,0-1v-.64c0-1.68,0-3.36,0-5s0-3.18,0-4.77c0-1.07,0-2.14,0-3.21,0-1.22,0-2.44.06-3.67,0-.31,0-.62,0-.93,0-2.27,0-4.54.05-6.81,0-1.39,0-2.79,0-4.18s0-2.5.05-3.75,0-2.5.07-3.75a1.21,1.21,0,0,1,0-.19c0-.17.06-.31.15-.32s.15.15.16.33c0,.44.05.88.05,1.32,0,1.58,0,3.16.05,4.73,0,1.42,0,2.85,0,4.26.05,1.59,0,3.19,0,4.77,0,1.23,0,2.45,0,3.68,0,.2,0,.41,0,.62V159c.07,1.18.06,2.36.06,3.55,0,2.23,0,4.45.05,6.68,0,1.28,0,2.55,0,3.83,0,.87,0,1.74,0,2.61v.47c0-1.44,0-2.87,0-4.31,0-1.74,0-3.49,0-5.24s0-3.21,0-4.81c0-.92,0-1.85.06-2.77,0-.29,0-.57,0-.86q0-3.34.05-6.69c0-1.37,0-2.74,0-4.1s0-2.56.05-3.83,0-2.58.07-3.87a1.21,1.21,0,0,1,0-.19c0-.19.05-.35.15-.35s.15.16.16.34c0,.44.05.88.05,1.32,0,1.73,0,3.45.05,5.17,0,1.46,0,2.92,0,4.38,0,1.65,0,3.31,0,5s0,3.5,0,5.24,0,3.21,0,4.81,0,3.13,0,4.7c0,1.13,0,2.26,0,3.4,0,.84,0,1.69,0,2.54v.56c0,.11,0,.21,0,.32v.29c0-.07,0-.2,0-.33,0-.54,0-1.07,0-1.61,0-1.7,0-3.41,0-5.12,0-1.91,0-3.83,0-5.74,0-1.39,0-2.77,0-4.15,0-2,0-4,0-6,0-1.51,0-3,0-4.54s0-3,.05-4.49c0-1,0-2.09,0-3.13,0-.85,0-1.72.07-2.57,0-.06,0-.13,0-.19s.06-.22.12-.23.13.1.14.23.06.46.06.69c0,1.06,0,2.11,0,3.17,0,1.81,0,3.62.05,5.43,0,1.46,0,2.93,0,4.38,0,1.81,0,3.63,0,5.44,0,1.58,0,3.15,0,4.73,0,1.9,0,3.8.05,5.71,0,1.3,0,2.6,0,3.9,0,.94,0,1.88,0,2.82,0,.39,0,.8,0,1.19,0,.05,0,0,0,0s0,0,0,0c0-.31,0-.63,0-.94,0-1.57,0-3.15,0-4.73,0-2,0-4.07,0-6.1,0-1.87,0-3.75,0-5.63,0-1.53,0-3.07,0-4.6.05-1.72,0-3.44,0-5.16,0-1.35,0-2.71,0-4.06,0-1.19,0-2.38.05-3.56a21.83,21.83,0,0,1,.09-2.56c0-.17,0-.31.14-.31s.1.15.1.29c.05,1.42.08,2.85.08,4.27v2.16c0,.3,0,.61,0,.91,0,2,0,4,0,5.95v2.06C273.64,155.24,273.61,155.75,273.65,156.26Z"/><path class="cls-11" d="M273.65,156.26v2.62c.09.08.12,0,.14-.16a2.56,2.56,0,0,0,0-.39c0-1.23.05-2.45,0-3.67,0-2.58.06-5.16.05-7.75,0-.53,0-1.06,0-1.59,0-1.23,0-2.45,0-3.68a1.38,1.38,0,0,0,0-.29c0,.62,0,1.3,0,2,0,2.26,0,4.52,0,6.77,0,1.76,0,3.52,0,5.28,0,1.1,0,2.21,0,3.32v.38c0,.71,0,1.43,0,2.15,0,.15,0,.31,0,.46,0,2.91,0,5.82,0,8.73,0,1.31,0,2.64,0,4s0,2.42.07,3.63a2.85,2.85,0,0,0,0,.42c0,.11.05.22.12.23s.11-.1.14-.22a.85.85,0,0,0,0-.23c0-.62.05-1.24,0-1.87,0-1.75,0-3.5.05-5.24,0-1.45,0-2.9,0-4.34,0-1.84,0-3.68,0-5.52,0-1.59,0-3.18,0-4.77,0-1.84,0-3.68,0-5.51.06-3.11,0-6.21,0-9.32a1.05,1.05,0,0,0,0-.18v.28c0,2.68,0,5.37,0,8.06,0,1.73,0,3.47,0,5.2,0,1.28,0,2.56,0,3.83,0,.74,0,1.49,0,2.23,0,2.88.05,5.76.06,8.64,0,1.36,0,2.72,0,4.07s0,2.87.08,4.3c0,.25,0,.56.16.58s.16-.31.17-.55c.05-1.72.06-3.44.09-5.16s0-3.39,0-5.08c0-1.39,0-2.77,0-4.15,0-1.94,0-3.89,0-5.83,0-1.64,0-3.28,0-4.92s0-3.16,0-4.74c0-2.24,0-4.48,0-6.72v-.75c0-.09,0-.2,0-.25a2.49,2.49,0,0,1,0,.41v.89c0,1.95,0,3.91,0,5.86,0,1.56,0,3.11,0,4.66s0,3,0,4.57c0,.51.05,1,.05,1.52,0,1,0,2,0,3.05.05,1.93,0,3.86.05,5.79,0,1.38,0,2.76,0,4.14,0,2,.05,3.94.08,5.9,0,.33,0,.65,0,1s0,.43.14.44.17-.22.18-.43c0-.53,0-1.07,0-1.6,0-1.76,0-3.52.06-5.28,0-1.51,0-3,0-4.53s0-3.06,0-4.58c.05-1.76,0-3.52.05-5.28,0-1.59,0-3.18,0-4.77s0-3.15,0-4.73c0-1.22,0-2.45,0-3.67,0-.73,0-1.46,0-2.19v-.69c0-.15,0-.32,0-.4,0,.14,0,.35,0,.56v.9c0,1.76,0,3.53,0,5.28,0,1.57,0,3.13,0,4.7,0,1.12,0,2.24,0,3.36s0,2.32.07,3.47c0,.29,0,.57,0,.86,0,2.31,0,4.62.06,6.92,0,1.37,0,2.74,0,4.11s0,2.5,0,3.75,0,2.45.08,3.67a1.56,1.56,0,0,0,0,.31c0,.14.08.25.17.23s.12-.15.13-.3c0-.35,0-.7,0-1.05,0-1,.05-2.06.05-3.09,0-1.95,0-3.91.05-5.86,0-1.49,0-3,0-4.46.05-1.72,0-3.45,0-5.16,0-1.53,0-3.05,0-4.58s0-3.23,0-4.85c0-1.33,0-2.66,0-4s0-2.56,0-3.9c0,0,0,0,0,0s0,0,0,0c0,1,0,2.09,0,3.13,0,1.46,0,2.92,0,4.38s0,3.15,0,4.73,0,3.39,0,5.08,0,3.18,0,4.77c.05,1.38,0,2.76,0,4.14s0,2.85,0,4.27c0,1,0,2.06,0,3.08s0,2.12.08,3.17c0,.21,0,.46.16.44s.16-.24.16-.46c0-.64.05-1.27.05-1.91,0-1.45,0-2.9.05-4.34,0-1.19,0-2.38,0-3.56.05-1.72,0-3.44,0-5.16,0-1.52,0-3,0-4.54.05-1.67,0-3.34,0-5,0-1.44,0-2.87,0-4.31.07-2.43,0-4.87.05-7.31,0-.28,0-.57,0-.86q0,3.53,0,7c0,1.52,0,3,0,4.54s0,3,0,4.54c0,.3,0,.6,0,.89s0,.89,0,1.33c0,2.4,0,4.8.05,7.19,0,1.29,0,2.59,0,3.87s0,2.35,0,3.52,0,2.58.07,3.87c0,0,0,.1,0,.16s0,.48.18.47.13-.28.15-.48c.07-.8.05-1.61.06-2.41,0-1.48.05-2.95.06-4.42,0-1.89,0-3.78.05-5.67,0-1.45,0-2.9,0-4.34,0-1.63,0-3.26,0-4.89,0-1.47,0-2.94,0-4.41s0-2.88,0-4.31,0-3.1,0-4.65c0-.3,0-.6,0-.89,0-.49,0-1,0-1.45a2.76,2.76,0,0,0,0-.29v.26a2.55,2.55,0,0,1,0,.39c0,1.42,0,2.84,0,4.26,0,1.22,0,2.43,0,3.64.05,1.45,0,2.9,0,4.34s0,3.16,0,4.73,0,2.92,0,4.38,0,3.08,0,4.62c0,1.3,0,2.6,0,3.91,0,1.91.05,3.83.09,5.74,0,.47,0,.94,0,1.41a1.09,1.09,0,0,0,0,.26c0,.15.07.3.17.28s.11-.16.12-.31a4.71,4.71,0,0,0,.05-.54c0-.86,0-1.71,0-2.58,0-1.55,0-3.1.05-4.65,0-1.3,0-2.61,0-3.91,0-1.59,0-3.18,0-4.77,0-1,0-2,0-3,0-.75,0-1.51,0-2.26,0-2.43,0-4.85.06-7.28,0-1.53,0-3.07.05-4.61,0-.74,0-1.48,0-2.23a10.2,10.2,0,0,0,0-1.36c0-.12.05-.06,0-.07h0c0,1,0,1.95,0,2.92,0,.44,0,.89,0,1.33,0,1.93,0,3.86,0,5.79,0,1.34,0,2.68,0,4,.06,1.61,0,3.21.05,4.81,0,1.41,0,2.82,0,4.22s0,2.95.05,4.42c0,1.12,0,2.25,0,3.37,0,1.74.05,3.49.08,5.23,0,.33,0,.65,0,1s0,.45.16.46.15-.23.17-.44c.07-.87.06-1.75.07-2.62,0-1.61,0-3.23.06-4.85s0-3.08,0-4.61c0-1.36,0-2.71,0-4.07.05-1.59,0-3.18.05-4.77,0-1.38,0-2.76,0-4.14s0-3,.05-4.46,0-3.15,0-4.73c0-1,.05-2,0-3v-.41c0-.1,0-.2,0-.27a2.09,2.09,0,0,1,0,.26v.41c0,.47,0,.94,0,1.4,0,1.49,0,3,0,4.46a1.21,1.21,0,0,1,0,.19c0,2.23,0,4.46.05,6.69,0,1.72,0,3.45,0,5.16,0,1.36,0,2.72,0,4.07s0,2.66,0,4,0,2.59,0,3.88c0,1,0,2.08,0,3.12,0,1.33,0,2.66.08,4a6,6,0,0,0,.05.61c0,.12.07.21.13.21s.1-.08.13-.18a1.77,1.77,0,0,0,.05-.41c0-.43,0-.86,0-1.29,0-1.14,0-2.29.05-3.44,0-1.56,0-3.13,0-4.69,0-1.22,0-2.45,0-3.67.05-1.52,0-3,.05-4.54,0-1.32,0-2.63,0-3.94.05-1.5,0-3,0-4.5,0-1.25,0-2.51,0-3.75s0-2.74.06-4.11c0-.63,0-1.27,0-1.91a10.65,10.65,0,0,0,0-1.13c0,.36,0,.72,0,1.08,0,1.26,0,2.51,0,3.76s0,2.5,0,3.75,0,2.48,0,3.72c0,1.47,0,3,0,4.41s0,2.66,0,4,0,2.92,0,4.38c0,1.21,0,2.42,0,3.64.05,2,.05,4,.09,6,0,.78,0,1.57.07,2.34,0,.21,0,.47.15.48s.17-.22.18-.46c.05-1.08.07-2.16.08-3.24,0-1.49,0-3,.06-4.46,0-1.16,0-2.32,0-3.48,0-1.39,0-2.79,0-4.18s0-2.71,0-4.07,0-2.84,0-4.26c0-1.24,0-2.48,0-3.71s0-2.61.05-3.91c.05-2,0-4,0-5.38,0,1.08,0,2.81,0,4.53,0,1.26,0,2.53,0,3.79s0,2.37,0,3.56c.05,1.47,0,2.94.05,4.42,0,1.25,0,2.5,0,3.74,0,1.46,0,2.93.05,4.38,0,1.14,0,2.27,0,3.4,0,2,0,4,.09,6.06,0,.91,0,1.83.07,2.73a1.18,1.18,0,0,0,0,.27c0,.16.07.33.18.31s.11-.19.13-.36c.07-.66.06-1.33.07-2,0-1.16.05-2.32.05-3.48,0-1.45,0-2.9.05-4.34,0-1.17,0-2.35,0-3.52,0-1.43,0-2.87,0-4.3,0-.57.06-1.14,0-1.72v-.22a1.61,1.61,0,0,0,0-.31c0-1.34.06-2.68,0-4,0-1.78,0-3.56.05-5.35,0-1.11,0-2.24,0-3.35s0-2.21,0-3.31a8,8,0,0,0,0-1c0-.32,0-.66,0-1,0,0,0,.11,0,.18,0,2,0,4,0,6,0,1.11,0,2.22,0,3.32s0,2.46,0,3.68,0,2.68,0,4,0,2.66,0,4,0,2.61,0,3.91,0,2.42,0,3.64c0,1.9,0,3.8.08,5.7,0,1,0,2.08.08,3.12a1.34,1.34,0,0,0,0,.2c0,.2,0,.49.18.46s.16-.29.17-.51c0-.42,0-.84,0-1.25,0-1,0-2,.05-3,0-2.46.06-4.92.09-7.39,0-1,0-2,0-3,0-1.54,0-3.08.05-4.61,0-1.29,0-2.58,0-3.86s0-2.54,0-3.8,0-2.29,0-3.44c.05-1.95,0-3.9.07-5.85,0-.34,0-.68,0-1a5.1,5.1,0,0,1,0-.68c0-.05,0,0,0,0s0,0,0,0,0,.33,0,.5c0,1.9,0,3.81,0,5.71,0,1.13,0,2.27,0,3.4s0,2.35,0,3.51c0,1.31,0,2.62,0,3.91s0,2.51,0,3.76,0,2.58,0,3.87c0,1.13,0,2.27,0,3.4.05,2,.05,4,.09,6,0,1.29,0,2.58.11,3.86,0,.21,0,.47.14.48s.17-.27.19-.52c.06-.71.06-1.43.07-2.14,0-1.15,0-2.29.06-3.44,0-1.34,0-2.69,0-4,0-1,0-2,0-3,.05-1.38,0-2.76.05-4.14,0-1.19,0-2.37,0-3.55s0-2.64.05-4c0-1.08,0-2.17,0-3.25,0-2,.05-4.11.08-6.17,0-1.25,0-2.5,0-3.75a3.43,3.43,0,0,1,0-.64c0-.05,0,0,0,0s0,0,0,0a2.36,2.36,0,0,0,0,.46c0,1.81,0,3.62,0,5.43,0,1.07,0,2.14,0,3.21s0,2.22,0,3.32,0,2.48,0,3.71,0,2.43,0,3.64,0,2.48,0,3.71,0,2.3,0,3.44c0,2,.05,4,.08,6,0,1.33,0,2.66.08,4,0,.36,0,.72,0,1.09a1.21,1.21,0,0,0,0,.19c0,.16.06.34.17.33s.16-.18.17-.37c0-.39.05-.77.05-1.16,0-1.89.07-3.78.1-5.67,0-1,0-2,0-3.05s0-2.3,0-3.44,0-2.35,0-3.52,0-2.45,0-3.67,0-2.32,0-3.48,0-2.27,0-3.4,0-2.19,0-3.28c0-1.51.05-3,.07-4.54,0-.79,0-1.58,0-2.28.05.66,0,1.42,0,2.17,0,1.29,0,2.58.06,3.87,0,2.4.06,4.8.08,7.2,0,.92,0,1.85,0,2.77,0,1.41,0,2.82.05,4.22,0,1.05,0,2.09,0,3.13,0,1.2,0,2.4,0,3.6,0,1.82.05,3.65.08,5.47,0,1.6.05,3.2.12,4.8a3,3,0,0,0,0,.42c0,.15.07.27.15.26s.15-.14.16-.3c0-.39,0-.78.06-1.17l.09-5c0-1.94,0-3.88.08-5.82,0-1.22,0-2.43,0-3.64s0-2.14,0-3.2,0-2.4,0-3.6,0-2.11,0-3.17c0-2,0-4.06.08-6.09,0-1.53.06-3.05.07-4.57,0-.39,0-.78,0-1.14a1.15,1.15,0,0,1,0,.27c0,.73,0,1.46,0,2.19,0,2.2.07,4.4.1,6.6,0,1.06,0,2.12,0,3.17.06,1.6,0,3.2.06,4.8s.05,3.47.06,5.2c0,1.06,0,2.11,0,3.17.05,1.95.06,3.91.09,5.86,0,1.32,0,2.63.08,3.94,0,.69,0,1.38.07,2.07a1.09,1.09,0,0,0,0,.26c0,.13.09.24.17.21s.11-.13.12-.27c.05-.5.07-1,.08-1.52,0-1.66.07-3.33.09-5s.05-3.49.08-5.23c0-2.27,0-4.54.08-6.81,0-1,0-1.92,0-2.88.05-2.23.06-4.46.09-6.68,0-1.7,0-3.39.07-5.08l.06-3.17c0-.65,0-1.3,0-1.95v.31c0,1.48,0,3,0,4.45,0,1.76.05,3.52.07,5.28,0,2,.05,4.09.09,6.13,0,1.07,0,2.14,0,3.21,0,2.12.05,4.25.08,6.37,0,1.82.05,3.65.08,5.47s.06,3.8.12,5.7a10.19,10.19,0,0,0,.07,1.24c0,.2.06.39.19.38s.12-.21.15-.39a12.38,12.38,0,0,0,.06-1.36c0-.69.05-1.38.05-2.07,0-1.91.07-3.83.09-5.74,0-.82,0-1.64,0-2.46.05-2.15.07-4.3.09-6.45,0-1,0-1.93,0-2.89.05-2.06.06-4.12.09-6.18,0-1.69,0-3.38.07-5.08l.09-4.21c0-.53,0-1.05,0-1.37,0,1.61,0,3.42.08,5.22,0,.81,0,1.62,0,2.42,0,1.48,0,3,0,4.42q0,3,.08,5.94c0,1,0,2.09,0,3.13,0,2,.05,4,.08,6,0,1.61,0,3.21.08,4.81,0,1.89.06,3.78.16,5.66a1.21,1.21,0,0,0,0,.19c0,.17.06.37.17.37s.16-.19.18-.39c.05-.48.06-1,.07-1.44,0-.73.05-1.46.06-2.19l.09-5c0-.66,0-1.33,0-2q.06-3.13.09-6.25c0-.9,0-1.8,0-2.7.05-2,.06-4,.09-6.06,0-1.7,0-3.41.08-5.12,0-2,.06-4.06.13-6.09,0-.38,0-.78,0-1,0,.69,0,1.56,0,2.43,0,.66,0,1.32,0,2,0,1,0,2.11.05,3.16,0,2,.06,4,.09,6,0,.8,0,1.59,0,2.39,0,2,.06,4,.09,6,0,.81,0,1.62,0,2.43,0,1.81.06,3.62.08,5.43,0,1.27.05,2.55.08,3.82s.06,2.58.12,3.86c0,.15,0,.29,0,.43s.08.28.17.29.14-.12.16-.28a10.52,10.52,0,0,0,.07-1.12c.06-1.84.1-3.67.13-5.51,0-1.51.05-3,.08-4.53,0-1.82.05-3.65.08-5.47,0-.93,0-1.86,0-2.77.06-1.81.06-3.62.09-5.43,0-1.46,0-2.92.08-4.37,0-1.72.05-3.44.1-5.16,0-1.1.08-2.21.06-3.31,0-.19,0-.37,0-.46,0,.62,0,1.34,0,2.05s0,1.2.05,1.8c0,.93,0,1.87.05,2.81,0,1.76.06,3.52.09,5.27,0,1.54.06,3.08.06,4.61,0,.66.06,1.3.06,1.95s0,1.23,0,1.84c0,1.21.05,2.42.06,3.63,0,1.86.06,3.73.08,5.59,0,1.22.05,2.45.08,3.67,0,1.53.06,3.07.15,4.6a1.45,1.45,0,0,0,0,.3c0,.16.09.3.19.29s.12-.16.15-.32a7.18,7.18,0,0,0,.06-.81q.06-1.31.09-2.61c0-1.55.07-3.1.09-4.65s.05-2.94.08-4.41c0-1.68.06-3.36.08-5,0-.61,0-1.22,0-1.84v-.22q.06-1.05.06-2.1c0-1.87.06-3.73.09-5.59,0-1.35,0-2.71.07-4.06.05-1.85.07-3.7.15-5.54a9.34,9.34,0,0,1,0-.94,12.16,12.16,0,0,0,0,1.33q.08,2.46.12,4.92c0,1.32.05,2.65.08,4,0,1.61.05,3.23.08,4.84,0,.71,0,1.41,0,2.11.05,1.68,0,3.36.08,5,0,1.42,0,2.84.08,4.26,0,1.61.05,3.23.1,4.84,0,.75,0,1.51.05,2.26,0,1.36.06,2.71.16,4a1,1,0,0,0,0,.3c0,.14.08.24.17.23s.12-.11.15-.25a4.36,4.36,0,0,0,.08-.81l.09-2.53c.05-1.32.06-2.63.11-3.94,0-.72,0-1.44,0-2.15,0-1,.05-2.06.06-3.09,0-1.66.06-3.33.08-5,0-1.38.06-2.76.08-4.14,0-1.56.05-3.12.08-4.69,0-1.28.05-2.57.08-3.86,0-1.81.08-3.62.14-5.42,0-.95.1-1.89.07-2.83v0c0,1.69.1,3.36.15,5,0,.61,0,1.22,0,1.83,0,1,0,1.93.06,2.89,0,1.58.05,3.15.1,4.73,0,.9,0,1.82.05,2.73l.09,5.3c0,1.27,0,2.53.07,3.79l.12,5.62c0,1.32.07,2.63.12,3.94,0,.74,0,1.48.12,2.21,0,.27,0,.61.22.61s.19-.35.21-.61c.07-.86.1-1.73.13-2.6,0-1.21.07-2.42.11-3.63,0-.6,0-1.2,0-1.79,0-1,0-1.91.06-2.86,0-1.49,0-3,.1-4.48,0-.69,0-1.38,0-2.07,0-1.07,0-2.14.06-3.21,0-2,.07-3.95.11-5.93,0-1.13.05-2.27.08-3.4.05-1.63.08-3.27.14-4.91,0-1,.08-2,.12-2.86.06,1,.09,2,.13,3.05,0,.52,0,1,.05,1.56,0,1.29.07,2.58.1,3.87,0,1.78.08,3.56.12,5.34,0,1.15.05,2.29.07,3.44.05,1.94.09,3.88.13,5.81,0,1.08,0,2.16.07,3.24.05,1.77.08,3.54.14,5.31,0,1,.06,1.95.1,2.92s.07,2.13.16,3.19c0,0,0,.08,0,.11,0,.24.07.51.23.5s.18-.26.21-.49c.09-.73.12-1.47.15-2.21.06-1.4.1-2.8.15-4.21,0-.52,0-1,0-1.56,0-1.34.07-2.68.1-4,0-1.62.08-3.25.11-4.88l.12-5.07.12-4.88c.05-1.88.09-3.77.16-5.65s.11-3.48.23-5.21a3.47,3.47,0,0,1,0-.42c.09,1.15.14,2.27.18,3.39.06,1.31.09,2.63.15,3.94,0,.49,0,1,0,1.48,0,1.21.07,2.42.09,3.63,0,1.53.09,3.07.12,4.6l.12,4.41.12,4.53c.05,1.67.09,3.35.16,5,.08,2.16.14,4.34.31,6.49a5,5,0,0,0,.11.87c0,.18.11.3.21.29s.16-.15.19-.34a20.83,20.83,0,0,0,.21-2.38c.1-1.72.17-3.45.23-5.18,0-1,.07-1.92.1-2.88,0-1.46.07-2.92.14-4.37,0-.43,0-.86,0-1.29,0-1,.06-2,.1-3,0-.1,0-.21,0-.31v-.21a20.28,20.28,0,0,0,.09-2.06c0-1.48.09-3,.13-4.45.06-1.84.12-3.69.2-5.53s.16-3.95.31-5.9c0-.32.05-.64.12-1a10.4,10.4,0,0,1,.17,1.41c.09,1.24.15,2.48.21,3.73.09,1.65.16,3.31.22,5,.05,1.2.09,2.39.14,3.59s.09,2.49.14,3.74l.09,2.53c.05,1.3.09,2.6.15,3.89,0,1.11.08,2.21.13,3.31.06,1.36.11,2.73.18,4.09s.13,2.54.21,3.8c.07,1,.15,2,.28,3a3.32,3.32,0,0,0,.11.58c.14.46.36.45.5,0a8.34,8.34,0,0,0,.22-1.37c.19-1.75.3-3.52.41-5.29s.21-3.6.3-5.4c.08-1.41.15-2.82.22-4.23,0-.87.08-1.74.14-2.6a4.34,4.34,0,0,0,0-.51,1.57,1.57,0,0,1,0-.44c.08-1.45.16-2.9.23-4.35s.16-2.9.26-4.34c.18-2.79.35-5.58.71-8.31a9.52,9.52,0,0,1,.33-1.75c.14-.4.25-.4.4,0a13.68,13.68,0,0,1,.49,2.16c.37,2.09.64,4.22,1,6.32.43,2.68.87,5.36,1.45,7.94.13.58.27,1.15.43,1.71a7.27,7.27,0,0,0,.28.79c.06.15.12.27.23.23a.64.64,0,0,0,0-.43,26.8,26.8,0,0,1-.86-3.29c-.7-3.38-1.24-6.88-1.77-10.38-.25-1.66-.47-3.34-.87-4.9a5.51,5.51,0,0,0-.21-.65c-.21-.52-.52-.51-.72,0a7.66,7.66,0,0,0-.36,1.6c-.27,1.87-.42,3.79-.57,5.71q-.17,2.31-.3,4.65c-.09,1.51-.17,3-.26,4.54s-.17,3.29-.26,4.93l-.21,4.24c-.08,1.58-.17,3.16-.26,4.73-.09,1.73-.2,3.44-.33,5.16-.07.94-.15,1.88-.29,2.79,0,.11,0,.27-.09.28s-.09-.16-.11-.28c-.12-.82-.18-1.67-.24-2.53-.16-2.14-.25-4.29-.35-6.44-.07-1.44-.12-2.88-.18-4.32l-.21-5.53c0-1.32-.09-2.65-.14-4l-.18-4.71c0-1.11-.09-2.23-.14-3.34-.1-2.23-.19-4.47-.39-6.67a6.52,6.52,0,0,0-.12-.79c0-.21-.1-.37-.22-.37s-.19.15-.24.36a14.43,14.43,0,0,0-.18,1.64c-.11,1.6-.18,3.2-.25,4.81l-.15,4.25c-.06,1.69-.11,3.38-.16,5.07,0,1.24-.07,2.49-.12,3.74-.07,1.9-.11,3.82-.18,5.72,0,1-.06,2.06-.1,3.08,0,1.33-.08,2.65-.14,4l-.12,3c-.05,1-.11,2.07-.21,3.18-.09-.85-.14-1.65-.18-2.44-.08-1.54-.13-3.09-.18-4.63,0-.93-.06-1.87-.09-2.81,0-1.32-.07-2.65-.12-4,0-.51,0-1,0-1.52,0-1.19-.08-2.37-.11-3.55s0-2.11-.07-3.16c0-1.69-.07-3.38-.14-5.07,0-.54,0-1.09,0-1.63,0-1.6-.1-3.2-.16-4.8-.05-1.43-.1-2.85-.21-4.27a6,6,0,0,0-.07-.61c0-.2-.07-.37-.19-.37s-.19.16-.22.37c-.07.43-.09.87-.12,1.31q-.14,2.61-.21,5.22l-.12,4.17-.12,4.95c0,1.24-.06,2.47-.08,3.71a1.7,1.7,0,0,1,0,.22c0,.54,0,1.09,0,1.63l-.06,2.58c0,1.3-.05,2.6-.11,3.9,0,.57,0,1.15,0,1.72,0,2-.11,3.93-.17,5.89,0,1-.07,1.94-.15,2.88-.05-1.11-.1-2.24-.15-3.37-.06-1.54-.08-3.09-.14-4.64,0-.55,0-1.12,0-1.67,0-1.51-.07-3-.1-4.53,0-1.89-.08-3.78-.11-5.66,0-1.19,0-2.37-.08-3.56l-.12-5.3c0-1.46-.07-2.92-.12-4.37s-.09-3.07-.19-4.6c0-.14,0-.28,0-.42s-.07-.41-.2-.41-.17.2-.2.41-.05.51-.07.77c-.05,1.06-.1,2.13-.13,3.19,0,1.26-.06,2.53-.11,3.79,0,.62,0,1.25,0,1.87q0,1.43-.06,2.85c0,1.52,0,3.05-.1,4.57,0,.67,0,1.35,0,2l-.06,3.08c0,1.58,0,3.15-.11,4.73,0,.64,0,1.3,0,1.95,0,1.44-.07,2.89-.1,4.33s-.08,3-.16,4.56c0,.16,0,.31,0,.47,0-1.42-.11-2.84-.14-4.26,0-1.68-.09-3.35-.12-5,0-1.3-.05-2.6-.08-3.91s-.05-2.81-.07-4.21-.06-2.89-.08-4.34-.05-2.76-.08-4.14-.05-2.57-.08-3.86c0-1.57-.07-3.15-.12-4.72,0-1.17-.06-2.34-.16-3.5,0-.26,0-.61-.2-.62s-.2.34-.22.6c-.06.68-.08,1.37-.1,2.06-.05,1.69-.1,3.38-.13,5.07,0,1.28-.05,2.55-.08,3.83,0,1.51-.05,3-.08,4.53S300,158,300,159.43l-.09,4.72c0,1.34-.05,2.68-.07,4,0,1.84-.07,3.67-.12,5.51l-.12,3.82a1.77,1.77,0,0,0,0,.23v.06h0c0-.41,0-.83,0-1.25,0-1.13-.08-2.26-.1-3.39q-.08-3-.12-6c0-1.46-.05-2.92-.08-4.38,0-1.64-.05-3.28-.08-4.92s-.05-3.07-.08-4.61,0-3-.08-4.53c0-1.21,0-2.42-.07-3.63-.06-1.81-.07-3.62-.2-5.42v-.11c0-.21-.06-.41-.18-.43s-.16.18-.19.38a6.52,6.52,0,0,0-.07.88c0,1-.07,2.06-.09,3.08,0,1.53-.06,3-.11,4.57,0,.77,0,1.54,0,2.31,0,1.23,0,2.47-.07,3.71l-.06,4c0,2.11-.07,4.22-.09,6.33,0,1.46-.05,2.92-.08,4.38,0,2-.07,4-.12,5.93,0,.89,0,1.77-.07,2.66a20.91,20.91,0,0,0,0-2.1c0-.71,0-1.43-.05-2.15l-.06-2.89c0-1.75-.05-3.51-.08-5.27,0-1.54-.05-3.07-.07-4.61,0-1.93,0-3.85-.09-5.78,0-1.55,0-3.1-.07-4.65s-.05-3.07-.08-4.61-.07-2.89-.12-4.33c0-.46,0-.93-.07-1.4,0-.2,0-.4-.17-.41s-.18.19-.2.41c-.05.54-.05,1.09-.08,1.63,0,.39,0,.78,0,1.17,0,.84,0,1.67-.05,2.5,0,1.67-.06,3.34-.08,5,0,1.51-.05,3-.08,4.53,0,1.27,0,2.53-.07,3.79,0,.38,0,.75,0,1.13,0,.85-.06,1.69-.06,2.54,0,2.1-.06,4.19-.08,6.29,0,1.46,0,2.92-.08,4.38,0,1.27-.05,2.55-.09,3.82,0,.53,0,1.07,0,1.6v-.3c0-1.23,0-2.45-.06-3.67,0-.09,0-.18,0-.27,0-1.09,0-2.17-.05-3.25,0-1.83,0-3.67-.08-5.51l0-2.18c0-2.09-.05-4.17-.09-6.26,0-.78,0-1.56,0-2.34,0-1.88-.06-3.75-.08-5.63,0-1.38,0-2.76-.08-4.14,0-1.57-.05-3.15-.15-4.71a.92.92,0,0,1,0-.16c0-.19-.07-.37-.17-.38s-.17.19-.18.39,0,.47-.05.7c0,.87-.06,1.74-.08,2.61,0,1,0,2-.05,3.05,0,1.79-.05,3.57-.09,5.35,0,.84,0,1.68,0,2.5-.06,1.25,0,2.51-.07,3.75,0,.69,0,1.38,0,2.07-.06,2-.06,4-.09,5.94,0,1.75,0,3.5-.08,5.24,0,1.53,0,3.07-.1,4.6,0,.64,0,1.28,0,1.82,0-.42,0-.93,0-1.45,0-.89,0-1.79-.06-2.69,0-1.88,0-3.75-.08-5.63,0-.79,0-1.59,0-2.38-.05-2-.05-4-.09-5.94a.81.81,0,0,1,0-.22c-.06-1.22,0-2.45-.06-3.67,0-.09,0-.18,0-.28,0-1.56,0-3.12,0-4.69,0-1.72,0-3.43-.09-5.15,0-1.16,0-2.32-.07-3.48,0-.66,0-1.32-.08-2,0-.22-.05-.45-.18-.45s-.16.24-.18.48c-.06.61-.06,1.24-.08,1.86,0,.82,0,1.64-.05,2.46,0,1.92-.07,3.83-.09,5.75,0,.75,0,1.51,0,2.26q0,3.41-.08,6.8c0,1.93-.05,3.86-.08,5.78s0,3.81-.08,5.71c0,1.46-.05,2.92-.08,4.37,0,1,0,1.9,0,2.85a4.26,4.26,0,0,1,0,.51s0,0,0,0,0,0,0,0a1.88,1.88,0,0,0,0-.34c0-1.33,0-2.66,0-4,0-1.68-.05-3.36-.08-5,0-2-.05-4.06-.08-6.09,0-1.1,0-2.19,0-3.28-.05-2.07-.06-4.15-.09-6.22,0-1.88,0-3.77-.07-5.66,0-1.52-.05-3.05-.09-4.57,0-1.06,0-2.13-.1-3.19,0-.2,0-.42-.16-.43s-.17.21-.19.42c-.05.41,0,.83-.06,1.24s0,1,0,1.53c0,1.17,0,2.34-.06,3.51,0,2-.05,4-.08,6,0,1,0,2,0,3-.06,1.35,0,2.69-.06,4V159c0,.12,0,.23,0,.35,0,1.54,0,3.08,0,4.62,0,1.26,0,2.52,0,3.79,0,1.72-.05,3.44-.08,5.16,0,.88,0,1.77-.06,2.65,0,.46,0,.94,0,1.26-.05-.86,0-1.87,0-2.88a1.93,1.93,0,0,1,0-.24c0-1.18-.05-2.37-.05-3.55,0-1.35,0-2.69-.05-4,0-1,0-2,0-3.05,0-2.27,0-4.53-.08-6.8,0-1,0-2,0-3-.05-2.1-.05-4.2-.09-6.29,0-1.51,0-3-.08-4.53,0-.92,0-1.83-.08-2.73,0-.24,0-.61-.17-.6s-.18.32-.19.59c0,.94-.07,1.89-.09,2.84,0,1.83-.06,3.65-.08,5.47,0,.83,0,1.65,0,2.47-.05,2.37-.06,4.74-.09,7.11,0,1.08,0,2.17,0,3.25-.05,2.3-.06,4.61-.09,6.91,0,1.8,0,3.6-.08,5.4,0,1.08,0,2.16,0,3.24a5.64,5.64,0,0,0,0,.62c0-.41,0-.9,0-1.39,0-.88,0-1.77,0-2.65,0-.12,0-.24,0-.35,0-1.45,0-2.9,0-4.34s0-2.82,0-4.23c0-1.05,0-2.11,0-3.16,0-1.27,0-2.53-.05-3.79,0-1.1,0-2.2,0-3.29s0-2.4,0-3.6c0-1.87-.05-3.75-.08-5.62,0-1.62-.05-3.23-.12-4.84a2.45,2.45,0,0,0,0-.27c0-.17-.05-.39-.17-.36s-.16.22-.17.43,0,.67,0,1,0,1,0,1.44c0,1.14,0,2.27-.05,3.4,0,2.35-.06,4.69-.09,7,0,1,0,2.06,0,3.09s0,1.82,0,2.73c0,1.63,0,3.26-.06,4.88,0,1.1,0,2.19,0,3.29,0,2.07,0,4.14-.08,6.21,0,1.25,0,2.5,0,3.75a3.37,3.37,0,0,0,0,.56c0-.12,0-.27,0-.42,0-1.07,0-2.13,0-3.2,0-2.22-.05-4.43-.08-6.65,0-1,0-1.95,0-2.93,0-1.38,0-2.76,0-4.14a5.25,5.25,0,0,0-.05-.57.89.89,0,0,1,0-.23c0-1.13,0-2.27,0-3.4a1.85,1.85,0,0,1,0-.23c0-1.93,0-3.86,0-5.79s0-4-.08-6c0-1.11,0-2.21-.07-3.32,0-.22,0-.44,0-.66s-.05-.32-.14-.32-.16.13-.18.31,0,.55,0,.82c0,.45,0,.91,0,1.36,0,1.1-.05,2.19-.05,3.29,0,2.43-.07,4.87-.09,7.31,0,1.06,0,2.13,0,3.2s0,1.88,0,2.82c0,1.72,0,3.43-.05,5.15,0,1.1,0,2.19,0,3.29-.05,2.12-.05,4.24-.08,6.37,0,1.31,0,2.63,0,3.94V177c0-1.85,0-3.7,0-5.55,0-1.11,0-2.22,0-3.32s0-2.3,0-3.44c-.05-1.31,0-2.61,0-3.91,0-.6,0-1.2,0-1.8v-.22c0-.8,0-1.59,0-2.38s0-1.65,0-2.47c0-1.45,0-2.89-.05-4.34,0-1,0-2,0-3,0-1.69,0-3.39-.08-5.08,0-.66,0-1.33-.07-2,0-.2,0-.44-.15-.45s-.17.23-.18.47c-.05.94-.07,1.89-.08,2.84,0,2.38-.08,4.75-.1,7.12,0,1,0,2.06,0,3.09,0,1.47,0,2.95,0,4.42,0,1.12,0,2.24,0,3.35-.05,1.45,0,2.9,0,4.34,0,1.19,0,2.38,0,3.56-.06,2.88-.08,5.76-.08,8.64a1.28,1.28,0,0,0,0,.28c0-.75,0-1.56,0-2.37,0-1.08,0-2.16,0-3.24a1.34,1.34,0,0,1,0-.2c0-1.65,0-3.31,0-5s0-3.45-.05-5.16c0-1.27,0-2.53,0-3.79s0-2.77-.05-4.15c0-1.17,0-2.34,0-3.51-.05-2.1-.05-4.2-.09-6.3,0-1.17,0-2.34-.07-3.51,0-.22,0-.44,0-.66s-.06-.25-.13-.26-.12.1-.15.22a1.09,1.09,0,0,0,0,.26c0,.32,0,.65,0,1,0,1-.05,1.93-.06,2.89,0,2.45-.06,4.9-.08,7.35,0,1,0,2,0,3,0,1.68,0,3.37-.05,5.05,0,1.31,0,2.63,0,3.94s0,2.45,0,3.67,0,2.51,0,3.76c-.05,1.42,0,2.84-.05,4.26,0,.84,0,1.69,0,2.53,0,.12,0,.23,0,.35a1.79,1.79,0,0,1,0,.4,1.85,1.85,0,0,0,0-.41c0-.36,0-.73,0-1.1,0-1.38,0-2.76,0-4.14,0-.08,0-.16,0-.24,0-1.65,0-3.3,0-5,0-1.85,0-3.7,0-5.55,0-1.31,0-2.61,0-3.91s0-2.77,0-4.14,0-2.53,0-3.8c0-2.09,0-4.19-.08-6.29,0-1.11,0-2.24-.08-3.35a2.62,2.62,0,0,0-.06-.57c0-.12-.06-.21-.13-.21s-.09.09-.11.19a1.93,1.93,0,0,0-.06.49c0,.43,0,.86,0,1.29,0,1.14,0,2.29-.05,3.43,0,1.39,0,2.77-.05,4.15,0,1.21,0,2.42,0,3.63-.05,1.47,0,3,0,4.42,0,1.29,0,2.58,0,3.87s0,2.84,0,4.26c0,1.24,0,2.48,0,3.71-.06,2.25,0,4.51-.07,6.76,0,.42,0,.84,0,1.25v.73c0,.13,0,.27,0,.37s0-.13,0-.21v-.72c0-1,0-2.06,0-3.09,0-1.3,0-2.61,0-3.91s0-2.48,0-3.71c0-1.5,0-3,0-4.5,0-1.3,0-2.61,0-3.91,0-1.46,0-2.92,0-4.38,0-1.25,0-2.5,0-3.75s0-2.48,0-3.71c0-1.62-.05-3.23-.07-4.85,0-.43-.05-.85-.05-1.28a.85.85,0,0,0,0-.23c0-.15-.06-.31-.16-.28s-.11.16-.12.31a4.93,4.93,0,0,0-.05.54c0,.74,0,1.48-.05,2.22,0,1.37,0,2.74,0,4.11,0,1.2,0,2.4,0,3.59-.05,1.39,0,2.77,0,4.15,0,1.62,0,3.23,0,4.85,0,0,0,.1,0,.15,0,.33,0,.67,0,1,0,2.26,0,4.51,0,6.77,0,1.25,0,2.5,0,3.75-.05,1.68,0,3.36,0,5,0,.29,0,.57,0,.95,0-2.09,0-4.1,0-6.1,0-1.12,0-2.24,0-3.36,0-1.6,0-3.2,0-4.81,0-1.12,0-2.24,0-3.35,0-1.81,0-3.63-.06-5.43,0-.88,0-1.75,0-2.62,0-1.63,0-3.26-.05-4.89,0-1,0-2,0-3s0-2.27-.08-3.39a2,2,0,0,0,0-.27c0-.14-.07-.27-.15-.26s-.13.16-.14.33-.05.41,0,.62c0,.8-.05,1.61-.05,2.42,0,1.48,0,3-.05,4.45,0,1.2,0,2.4,0,3.6-.05,1.54,0,3.08-.05,4.61,0,1.23,0,2.45,0,3.68V159c0,.73-.07,1.45-.06,2.19,0,2.29,0,4.58-.05,6.88,0,2-.05,4.06-.05,6.09,0,.86,0,1.72,0,2.58,0,.24,0,.48,0,.63,0-.26,0-.6,0-.94,0-1.5,0-3,0-4.49,0-2.74-.05-5.48-.08-8.22,0-.85,0-1.71,0-2.57,0-2.1,0-4.2-.06-6.3,0-1.36,0-2.72,0-4.07s0-2.69,0-4c0-1.05,0-2.11,0-3.16,0-1.3,0-2.61-.08-3.91v-.12c0-.2,0-.46-.17-.47s-.14.24-.16.45a20.25,20.25,0,0,0-.06,2.06c0,1.34-.05,2.69-.06,4,0,1.75,0,3.49-.05,5.24,0,1.33,0,2.66,0,4-.05,1.64,0,3.29-.05,4.93,0,1.39,0,2.79,0,4.18,0,1.58,0,3.16,0,4.73,0,1.16,0,2.33,0,3.48-.05,1.32.05,2.63,0,3.67.05-1.22,0-2.71,0-4.21,0-1.72,0-3.44-.05-5.16,0-1.41,0-2.82,0-4.22-.05-1.62,0-3.24,0-4.85,0-1.42,0-2.85,0-4.26s0-3.06,0-4.58c0-1.2,0-2.4,0-3.6,0-1.6-.05-3.2-.07-4.8,0-.23,0-.44-.05-.66s0-.39-.15-.38-.16.19-.16.38c0,.52-.05,1-.05,1.56,0,1.54,0,3.08-.06,4.61,0,1.32,0,2.64,0,4-.05,1.49,0,3,0,4.46,0,1.31,0,2.61,0,3.91,0,1.82,0,3.65,0,5.46,0,1.48,0,3,0,4.42-.06,1.7,0,3.39,0,5.09,0,1,0,2.06,0,2.85.06-1.13,0-2.51,0-3.9,0-1.95,0-3.91,0-5.86,0-1.28,0-2.56,0-3.84,0-1.81,0-3.62,0-5.43,0-1.45,0-2.9,0-4.34s0-3,0-4.54c0-1.12,0-2.24,0-3.36-.05-1.58,0-3.15-.08-4.73,0-.16,0-.31,0-.46s0-.29-.13-.3-.14.14-.15.3a4.77,4.77,0,0,0,0,.66c0,1.16,0,2.32-.05,3.48s0,2.48,0,3.71c-.05,1.41,0,2.82,0,4.23,0,1.56,0,3.13,0,4.69s0,3.1,0,4.65,0,3.32,0,5c0,1.38,0,2.77,0,4.14s0,2.82,0,4.23c0,.62,0,1.25,0,1.87v.89a3.45,3.45,0,0,1,0,.62s0-.09,0-.07,0,0,0,0a1.23,1.23,0,0,0,0-.19v-4.55c0-1.73,0-3.46,0-5.2,0-1.48,0-3,0-4.45,0-1.15,0-2.3,0-3.44q0-3.28-.05-6.56c0-1.36,0-2.72,0-4.07s0-2.74-.05-4.1c0-1.58,0-3.16-.07-4.73,0-.26,0-.52-.05-.77s-.05-.26-.13-.27-.12.09-.14.22a2.31,2.31,0,0,0,0,.46c0,.57,0,1.15,0,1.72,0,1.48-.05,3-.06,4.45,0,1.9,0,3.81,0,5.71,0,1.53,0,3,0,4.57,0,1.71,0,3.42,0,5.13,0,1.52,0,3.05,0,4.57s0,3.08,0,4.61c0,1.16,0,2.32,0,3.48,0,.72,0,1.43,0,2.15v.57a4.17,4.17,0,0,0,0,.61,8.36,8.36,0,0,1,0-1v-.64c0-1.68,0-3.36,0-5s0-3.18,0-4.77c0-1.07,0-2.14,0-3.21,0-1.22,0-2.44-.05-3.67,0-.31,0-.62,0-.93,0-2.27,0-4.54-.05-6.81,0-1.39,0-2.79,0-4.18s0-2.5,0-3.75,0-2.5-.08-3.75a1.21,1.21,0,0,0,0-.19c0-.17-.06-.31-.15-.32s-.15.15-.16.33c0,.44-.05.88-.05,1.32,0,1.58,0,3.16-.05,4.73,0,1.42,0,2.85,0,4.26,0,1.59,0,3.19,0,4.77,0,1.23,0,2.45,0,3.68,0,.2,0,.41,0,.62V159c-.06,1.18-.06,2.36-.06,3.55,0,2.23,0,4.45-.05,6.68,0,1.28,0,2.55,0,3.83,0,.87,0,1.74,0,2.61v.47c0-1.44,0-2.87,0-4.31,0-1.74,0-3.49,0-5.24s0-3.21,0-4.81c0-.92,0-1.85-.06-2.77,0-.29,0-.57,0-.86q0-3.34-.05-6.69c0-1.37,0-2.74,0-4.1s0-2.56,0-3.83,0-2.58-.08-3.87v-.19c0-.19-.06-.35-.16-.35s-.15.16-.16.34c0,.44,0,.88,0,1.32,0,1.73,0,3.45-.05,5.17,0,1.46,0,2.92,0,4.38-.05,1.65,0,3.31,0,5s0,3.5-.05,5.24,0,3.21,0,4.81,0,3.13,0,4.7c0,1.13,0,2.26,0,3.4,0,.84,0,1.69,0,2.54v.56c0,.11,0,.21,0,.32v.29c0-.07,0-.2,0-.33,0-.54,0-1.07,0-1.61,0-1.7,0-3.41,0-5.12,0-1.91,0-3.83,0-5.74,0-1.39,0-2.77,0-4.15,0-2,0-4-.05-6,0-1.51,0-3,0-4.54s0-3,0-4.49c0-1,0-2.09,0-3.13,0-.85,0-1.72-.07-2.57,0-.06,0-.13,0-.19s-.06-.22-.12-.23-.13.1-.14.23a5.34,5.34,0,0,0-.05.69c0,1.06-.05,2.11-.05,3.17,0,1.81,0,3.62,0,5.43,0,1.46,0,2.93,0,4.38,0,1.81,0,3.63-.05,5.44,0,1.58,0,3.15,0,4.73,0,1.9,0,3.8,0,5.71,0,1.3,0,2.6,0,3.9,0,.94,0,1.88,0,2.82a11.81,11.81,0,0,1,0,1.19c0,.05,0,0,0,0s0,0,0,0c0-.31,0-.63,0-.94,0-1.57,0-3.15,0-4.73,0-2,0-4.07,0-6.1,0-1.87,0-3.75,0-5.63,0-1.53,0-3.07,0-4.6,0-1.72,0-3.44,0-5.16,0-1.35,0-2.71,0-4.06,0-1.19,0-2.38,0-3.56a24.24,24.24,0,0,0-.1-2.56c0-.17,0-.31-.14-.31s-.1.15-.1.29c-.05,1.42-.08,2.85-.08,4.27v2.16c0,.3,0,.61,0,.91,0,2,0,4,0,5.95v2.06C273.66,155.24,273.69,155.75,273.65,156.26Z"/><polyline class="cls-2" points="48.08 122.71 45.4 129.65 48.08 126.15 50.62 129.65 48.08 122.71"/><line class="cls-5" x1="48.01" y1="184.19" x2="48.01" y2="126.15"/><text class="cls-9" transform="translate(115.74 130.79)">T</text><text class="cls-1" transform="translate(122.27 134.79) scale(0.58)">s</text><polyline class="cls-2" points="225.84 117.32 218.9 114.64 222.4 117.32 218.9 119.86 225.84 117.32"/><line class="cls-5" x1="52.08" y1="117.25" x2="222.37" y2="117.25"/><polyline class="cls-2" points="50.06 117.32 57 114.64 53.5 117.32 57 119.86 50.06 117.32"/><polyline class="cls-2" points="437.11 158.55 430.17 155.87 433.67 158.55 430.17 161.1 437.11 158.55"/><line class="cls-5" x1="48.29" y1="158.48" x2="433.67" y2="158.48"/><text class="cls-9" transform="translate(9.6 158.65)">s</text><text class="cls-9" transform="translate(13.83 162.64) scale(0.58)">tx</text><text class="cls-9" transform="translate(19.3 158.65)">(t)</text><text class="cls-9" transform="translate(296.69 130.78)">T</text><text class="cls-1" transform="translate(303.21 134.78) scale(0.58)">s</text><polyline class="cls-2" points="406.78 117.31 399.84 114.63 403.34 117.31 399.84 119.86 406.78 117.31"/><line class="cls-5" x1="233.02" y1="117.24" x2="403.31" y2="117.24"/><polyline class="cls-2" points="231 117.31 237.94 114.63 234.44 117.31 237.94 119.86 231 117.31"/></svg>